<svg xmlns="http://www.w3.org/2000/svg" xmlns:xlink="http://www.w3.org/1999/xlink" width="368" height="280" viewBox="0 0 368 280">
    <defs>
        <path id="a" d="M27.585.343c-1.512.242-2.92.948-4.44 1.167-1.09.155-2.2.054-3.297.165a8.536 8.536 0 0 0-2.924.847c-.24.102-.452.259-.62.457-.157.267-.262.56-.31.865-.372 1.362-1.552 2.334-2.408 3.47a8.137 8.137 0 0 0-1.623 4.486c-.033.413.007.829.118 1.228.073.238.188.464.241.706.168.74-.218 1.476-.406 2.21a4.313 4.313 0 0 0 .238 2.804c1.325 2.973 5.675 3.965 6.58 7.086.693.319 1.425.545 2.177.672.06.31.114.622.158.938a.257.257 0 0 0-.057.034c-1.174 1.147-1.466 3.363-1.466 3.363l-.14.114c-.48.397-2.12 1.729-3.603 2.754-1.76 1.221-4.695 5.31-6.748 6.531-2.052 1.22-3.743 8.743-3.3 11.477.443 2.734 2.274 10.402 1.54 13.2-.735 2.798 1.1 15.566 1.1 15.566 1.23.235 2.435.594 3.595 1.07l-.037.558-.11 1.681S8.518 95.845 9.79 105.123c1.271 9.278-.587 10.234-.587 10.234s.389 4.112-.587 5.548-1.174 4.59-1.174 4.59-.097 7.08.097 9.08c.195 2 .292 5.646-.392 6.507-.684.861-1.955 6.5-1.858 8.223.097 1.721-2.445 5.645-1.077 10.713 1.369 5.068-4.024 5.166-4.024 5.166s.687 7.735 2.153 9.947l.215.316c-.037.128-.074.263-.114.407-.554 2.018-1.312 5.203-.785 5.973.781 1.15 1.174.955 1.174.955l.291 5.165s5.87 4.974 10.37 4.785c4.501-.188 3.62-4.785 3.62-4.785l-3.834-9.968-.13-.335 4.258-8.072s1.174-3.537 1.466-4.782c.292-1.244 1.885-5.653 1.885-5.653s4.025-9.564 4.108-10.714c.084-1.15.393-7.361 1.174-8.609.782-1.247 2.935-8.407 2.935-8.407l.053.048a2.839 2.839 0 0 1 .732 2.82c-.494 1.817-.198 5.546-.198 5.546s-.195 3.158-.587 4.785c-.393 1.628-.486 14.921.198 18.076.546 2.525.53 7.254.503 9.043-.46 1.9-.862 4.26-.114 4.54 1.274.48 7.73.383 7.73.383s2.737-.959 6.457 2.39c3.719 3.35 15.159-.954 15.159-.954s3.522-.959-3.424-3.73c-4.847-1.933-7.976-3.221-10.022-4.6.047-.091.098-.182.14-.28 0 0-2.836-2.69-.489-7.458 2.348-4.769 2.251-8.8 2.251-8.8l.392-16.071-1.173-21.335-.91-22.39.162-.053c.154 4.116.956 13.915 5.151 12.015 5.282-2.391.782-8.609.782-8.609l-2.372-4.634.708-.242L47.45 83.3a19.425 19.425 0 0 1-.1-5.067c.052-.987.032-1.976-.06-2.96 3.474-.608 6.8-1.254 7.398-1.106.704.171 4.645.205 6.194.212-.506.397-.912.79-.912.79l6.309 4.257s2.14-1.173 2.586-2.417a2.788 2.788 0 0 0 1.18-.633c.067 1.47.456 3.06 1.811 3.098.34.007.676-.06.987-.195l10.316-2.049-.886 5.546.618 1.1c-.313 4.677-.671 9.644-.987 14.013l-.144.955.074.016c-.49 6.726-.882 11.82-.882 11.82a6.19 6.19 0 0 1 2.572-2.592l.068 9.981s.516 15.782.516 17.934c0 2.152.07 6.958.07 6.958s1.104 5.882 1.761 7.819c.657 1.937 1.174 10.76 1.174 10.76s1.543 2.439.882 3.364c-.66.924 2.57 2.939 2.57 2.939s-2.057 2.798-2.205 4.664c-.016.215.195.444.577.673-.12.097-.244.195-.382.289-.953.639-2.348 1.083-4.447.901-5.725-.505-9.76 4.806-6.239 5.881 3.522 1.077 14.087 1.292 14.087 1.292s3.2-2 5.701-1.1a61.052 61.052 0 0 0 .084 4.291l-.03.024c-1.496 1.345-4.36 3.659-7.157 4.603-4.025 1.363-4.917 6.888.292 7.604 5.209.716 12.838-.86 12.838-.86s3.961-2.94 6.97-3.586c3.008-.645 5.577-2.081 5.064-3.803-.336-1.1-1.198-3.982-1.781-5.919a13.475 13.475 0 0 0-.1-.336c.09-.201.18-.41.264-.625 0 0-1.54-8.034-.292-10.041 1.248-2.008.587-22.098.587-22.098s-2.129-5.092-1.026-8.175c1.104-3.084-1.76-7.463-1.76-7.463s.311-8.773 1.15-13.663l.11-.605a27.404 27.404 0 0 0 4.092-1.584s.735-11.05 1.174-13.56c.044-.234.104-.614.178-1.109l.335-1.772.396-2.018 1.342-6.877 2.42-3.14 6.239-6.39s1.5-3.377.764-9.763c-.724-6.382-3.592-12.472-3.592-12.472l.219-2.153s.047-1.076-.024-2.69c.008-1.008.14-2.01.393-2.986.587-1.867-.735-4.16-.882-4.372-.148-.212.073-4.304-1.248-6.312-1.322-2.008-10.122-5.74-10.122-5.74s-.473-.992-1.14-2.153l.06-.117a12.65 12.65 0 0 0-2.013-2.72c-.54-.58-1.06-.909-1.479-.747-.17-.559-.3-1.128-.388-1.705.087.023.177.047.265.063.363.085.74.094 1.107.027.818-.185 1.361-.921 1.817-1.614 2.274-3.464 4.233-7.263 4.632-11.363a7.244 7.244 0 0 0-.118-2.509 8.482 8.482 0 0 0-.784-1.832 14.718 14.718 0 0 0-2.214-3.272c-1.566-1.655-3.726-2.667-5.946-3.266a20.527 20.527 0 0 0-7.68-.575c-.671.078-1.342.189-2.013.232-.851.038-1.703.023-2.552-.043l-4.39-.256-.02-.067-.732-.044c-.288.575 0 1.258.359 1.796.36.538.772 1.1.741 1.735-.03.636-.49 1.147-.848 1.681-.359.535-.63 1.234-.272 1.76.05.072.11.137.178.194.38.394 1.04.437 1.613.43h.1a10.977 10.977 0 0 0-2.223 6.632 11.155 11.155 0 0 0 6.068 9.88c.063.219.127.444.187.673a20.66 20.66 0 0 1 .704 7.27l-.077.169-.047-.178s-5.171 3.517-6.707 4.448c-1.536.932-3.08 4.09-3.153 4.95-.073.861-2.495 13.845-2.495 13.845a31.924 31.924 0 0 0-1.215 4.009l-3.089 2.72s-6.371.576-8.216.145l.054.357a27.788 27.788 0 0 0-4.95-.673 5.236 5.236 0 0 0-2.684.36l-.064.03-.05.023c-.971.133-1.92.4-2.817.794a6.562 6.562 0 0 0-.299.131l.02-.44-6.895-.357-3.522-.716s-1.247-1.009-1.982-.86c-.734.147-2.274-.862-2.274-.862a6.124 6.124 0 0 0-1.133-.706c-.117-.814-.191-1.308-.191-1.308s-2.74-10.902-4.793-17.312c-1.375-4.28-3.354-6.39-4.52-7.308-.52-.907-.863-1.493-.863-1.493-.225-.787-1.458-2.558-1.774-2.602-.05-.081-.087-.122-.107-.122a.391.391 0 0 0-.198.03c-.577-2.878-.913-6.486-.03-9.63a10.64 10.64 0 0 0 3.87-8.192v-.286a10.6 10.6 0 0 0-2.492-6.827l-.114-.128a.976.976 0 0 0 .087-.07 1.805 1.805 0 0 0 .634-1.736c-.15-.645-.654-1.153-.912-1.765a11.43 11.43 0 0 1-.372-1.44 4.444 4.444 0 0 0-1.057-1.846l.05.135C32.09.985 30.313.265 28.564.265c-.329 0-.656.026-.979.078zm5.96 33.74a.3.3 0 0 0 .064.04l-.047.034a.513.513 0 0 1-.017-.074zm62.338 7.519l-1.197 1.345.402-.847.155-.145-.242.528.882-.881zM89.02 54.855l.265-.558c-.231.615-.48 1.281-.738 1.974l.473-1.416z"/>
    </defs>
    <g fill="none" fill-rule="evenodd">
        <path fill="#FFF2CC" d="M362.275 82.042c-2.21 10.196-5.819 20.022-11.187 29.045-.178.3-.357.6-.538.9a83.448 83.448 0 0 1-12.612 15.933c-2.674 2.643-5.59 5.154-9.059 6.964-4.859 2.542-10.54 3.573-16.123 4.416-5.8.88-11.679 1.614-17.542 2.406-2.083.277-4.154.57-6.213.88-5.664.84-11.287 1.81-16.777 3.098-6.785 1.588-13.362 3.668-19.575 6.593-.496.225-.987.463-1.472.715a80.388 80.388 0 0 0-2.87 1.493c-.241.132-.484.263-.723.401-.24.138-.475.26-.707.394-.7.392-1.388.792-2.075 1.197l-.027.017c-.454.266-.902.54-1.347.812-2.539 1.544-5.024 3.155-7.51 4.776l-1.561 1.012-2.422 1.567c-.471.307-.953.613-1.428.917-.336.222-.673.445-1.04.674a135.571 135.571 0 0 1-6.701 3.987 74.633 74.633 0 0 1-11.591 5.232l-.054.02a52.882 52.882 0 0 1-6.156 1.74 45.786 45.786 0 0 1-3.627.643 38.857 38.857 0 0 1-9.833.138c-6.422-.745-12.44-3.212-18.858-4.045-13.215-1.685-26.048 3.745-38.474 8a223.691 223.691 0 0 1-9.234 2.935c-2.06.61-4.129 1.186-6.213 1.743a233.556 233.556 0 0 1-38.962 6.839c-5.5.54-11.033.662-16.552.367-2.098-.128-4.172-.337-6.21-.674-6.97-1.079-13.47-3.34-18.716-7.483-4.297-3.4-7.372-7.833-9.712-12.471a54.469 54.469 0 0 1-5.358-17.154 53.194 53.194 0 0 1-.377-3.688 52.824 52.824 0 0 1 2.317-19.499c2.222-7.052 5.927-13.82 7.557-20.925.067-.301.13-.601.191-.9.223-1.08.388-2.17.496-3.267.831-8.73-2.357-17.24-4.86-25.779a136.14 136.14 0 0 1-1.033-3.738c-2.318-9.026-2.96-18.69-.896-27.7.064-.3.141-.6.215-.897a40.567 40.567 0 0 1 7.617-15.616c3.866-4.854 8.941-8.896 14.363-12.445a105.534 105.534 0 0 1 8.196-4.85c2.021-1.079 4.091-2.1 6.21-3.064 16.99-7.753 36.37-11.538 55.534-10.702 1.01.044 2.02.098 3.03.172 1.011.074 2.116.161 3.173.26 12.346 1.2 24.357 4.095 36.285 7.26 3.998 1.061 7.988 2.15 11.975 3.219 1.775.472 3.546.944 5.32 1.402 8.692 2.248 17.512 4.284 26.443 5.804 2.067.358 4.137.684 6.21.978a177.674 177.674 0 0 0 21.716 1.844c2.827.056 5.655.031 8.483-.075 1.428-.051 2.857-.129 4.287-.232 14.766-1.042 29.038-4.527 43.333-7.783 2.068-.472 4.139-.937 6.213-1.396 2.721-.6 5.442-1.18 8.177-1.715 17.016-3.347 32.183-1.423 48.004 5.484 3.596 1.567 7.19 3.462 9.392 6.404 2.202 2.943 2.755 6.556 3.165 10.045.583 4.968.963 10 1.108 15.06 0 .297 0 .597.02.897.23 10.22-.532 20.537-2.61 30.518-.063.3-.124.6-.195.897z"/>
        <path fill="#FFBD00" d="M211.181 111.087V82.042h11.08c-.119-.078-.24-.159-.364-.233l-.162-.104-.209-.128c-.121-.071-.242-.142-.37-.21-.128-.067-.206-.114-.313-.171l-.075-.04h-9.586v-1.602l-.26.101-.273.128h-.02l-.057.03-.172.092-.172.09a9.84 9.84 0 0 0-.505.297l-.162.108-.336.216c-.435.29-.862.593-1.304.876-.11.071-.222.142-.336.206-.24.141-.485.276-.738.398a2.788 2.788 0 0 1-.337.145l-.181.07-.169.058c-.395.137-.8.243-1.212.317v28.394h-16.612c0 .034.023.061.034.095.09.27.181.536.27.805h16.332v31.132h.252l.293.017.529.03.845.101.387.038.421.043h.064l.745.091.158.02.36.051.515.074 1.236-.054.168.03c.068 0 .138.02.21.034v-31.6h25.707v-.135c.034-.25.067-.495.098-.741a.056.056 0 0 1 0-.024H211.18zm38.417 0h-1.111v.9h1.26l-.15-.9zm-12.605 0a.07.07 0 0 0 0 .024c-.03.246-.064.492-.097.741v.135h9.63v-.054l.674-.846h-10.207zm52.008-29.942h-77.82V51.422l1.091-.819h76.73v30.542zm-77.82 29.942h77.82V82.042h-77.82v29.045zm-86.222 0h80.013V82.042h-80.013v29.045zm0-29.942h80.013V50.603h-80.013v30.542zm-61.747 29.942h55.534V82.042H63.212v29.045zm0-29.942h55.534V50.603H63.212v30.542zm232.002-30.542h69.866c0-.3 0-.6-.02-.896h-69.846V14.442c-2.074.45-4.145.915-6.213 1.396v33.869h-75.985l-.191-.172.29-.256 28.263-25.422c-2.829.108-5.657.133-8.483.074l-21.717 19.53V22.094a207.03 207.03 0 0 1-6.21-.978v21.36L173.216 13.91c-3.987-1.069-7.978-2.157-11.975-3.22l43.182 38.845-.192.172h-79.272V3.46a137.695 137.695 0 0 0-3.172-.26c-1.01-.074-2.02-.128-3.03-.172v46.678H63.211V13.73a122.596 122.596 0 0 0-6.21 3.064v32.912H26.827c-.074.296-.151.596-.215.896h30.392v30.542H28.28c.084.3.172.6.26.897h28.462v29.045H32.905c-.061.299-.125.599-.192.9h24.29v81.21c2.02.314 4.111.533 6.21.675v-81.885h55.533v74.671a238.114 238.114 0 0 0 6.213-1.742v-72.929h80.013v65.24a52.906 52.906 0 0 0 6.155-1.739l.054-.02v-63.481h77.82v30.6c2.066-.304 4.137-.595 6.213-.874v-29.726h55.335c.182-.3.36-.6.54-.9h-55.875V82.042h67.061c.07-.297.131-.597.195-.897h-67.256V50.603zm-84.033 60.484V82.042h11.08c-.119-.078-.24-.159-.364-.233l-.162-.104-.209-.128c-.121-.071-.242-.142-.37-.21-.128-.067-.206-.114-.313-.171l-.075-.04h-9.587v-1.602l-.26.101-.272.128h-.02l-.057.03-.172.092-.172.09a9.84 9.84 0 0 0-.505.297l-.162.108-.336.216c-.435.29-.862.593-1.304.876-.11.071-.222.142-.336.206-.24.141-.485.276-.738.398a2.788 2.788 0 0 1-.337.145l-.181.07-.169.058c-.395.137-.8.243-1.212.317v28.394h-16.612c0 .034.023.061.034.095.09.266.185.536.272.805h16.33v31.129h.252l.293.017.529.03.845.104.387.038.421.043h.064l.745.091.158.02.36.051.515.074 1.236-.054.168.03c.068 0 .138.02.21.034v-31.6h25.033l.118-.9h-25.125zm25.118 0l-.117.9h10.739l.73-.9H236.3zm13.299 0h-1.111v.9h1.26l-.15-.9zm-38.417 0V82.042h11.08c-.119-.078-.24-.159-.364-.233l-.162-.104-.209-.128c-.121-.071-.242-.142-.37-.21-.128-.067-.206-.114-.313-.171l-.075-.04h-9.586v-1.602l-.26.101-.273.128h-.02l-.057.03-.172.092-.172.09a9.84 9.84 0 0 0-.505.297l-.162.108-.336.216c-.435.29-.862.593-1.304.876-.11.071-.222.142-.336.206-.24.141-.485.276-.738.398a2.788 2.788 0 0 1-.337.145l-.181.07-.169.058c-.395.137-.8.243-1.212.317v28.394h-16.612c0 .034.023.061.034.095.09.27.181.536.27.805h16.332v31.132h.252l.293.017.529.03.845.101.387.038.421.043h.064l.745.091.158.02.36.051.515.074 1.236-.054.168.03c.068 0 .138.02.21.034v-31.6h25.707v-.135c.034-.25.067-.495.098-.741a.056.056 0 0 1 0-.024H211.18zm25.812 0a.07.07 0 0 0 0 .024c-.03.246-.064.492-.097.741v.135h9.63v-.054l.674-.846h-10.207zm12.605 0h-1.111v.9h1.26l-.15-.9z"/>
        <path fill="#387CDE" d="M89.913 29.577h.482a.977.977 0 0 1-.59-.786c0-.62.927-1.125 2.058-1.125h14.4c1.131 0 2.054.505 2.054 1.125 0 .617-.923 1.126-2.054 1.126h-.482a.967.967 0 0 1 .59.782c0 .53-.674.974-1.573 1.092h4.145c1.128 0 2.054.506 2.054 1.126 0 .62-.926 1.126-2.054 1.126H94.54c-1.128 0-2.054-.509-2.054-1.126 0-.529.674-.97 1.573-1.092h-4.146c-1.131 0-2.054-.506-2.054-1.126 0-.62.923-1.122 2.054-1.122M245.978 40.286h.481a.978.978 0 0 1-.586-.786c0-.62.923-1.126 2.055-1.126h14.4c1.13 0 2.057.506 2.057 1.126 0 .617-.926 1.123-2.058 1.123h-.478a.977.977 0 0 1 .586.785c0 .53-.674.974-1.573 1.092h4.146c1.131 0 2.054.506 2.054 1.126 0 .62-.923 1.126-2.054 1.126h-14.4c-1.131 0-2.057-.51-2.057-1.126 0-.53.673-.974 1.572-1.092h-4.145c-1.128 0-2.054-.506-2.054-1.126 0-.62.926-1.122 2.054-1.122M67.812 86.114h.479a.974.974 0 0 1-.586-.786c0-.617.926-1.126 2.054-1.126h14.403c1.128 0 2.054.51 2.054 1.126 0 .62-.926 1.126-2.054 1.126h-.482a.964.964 0 0 1 .586.782c0 .53-.673.974-1.573 1.092h4.146c1.131 0 2.057.51 2.057 1.126 0 .617-.926 1.126-2.057 1.126H72.453c-1.132 0-2.054-.506-2.054-1.126 0-.526.673-.97 1.572-1.092h-4.159c-1.131 0-2.057-.506-2.057-1.126 0-.62.94-1.122 2.057-1.122"/>
        <path fill="#FF5344" d="M197.89 177.376c2.419-11.848 35.956-14.994 74.91-7.026 38.952 7.968 68.568 24.032 66.15 35.88-2.42 11.848-35.958 14.993-74.91 7.025-38.953-7.967-68.57-24.032-66.15-35.88"/>
        <path fill="#3A3768" d="M260.286 130.314s3.83-18.812 18.447-17.07c0 0 10.103.695 12.181 7.315v14.632l-30.628-4.877z"/>
        <path fill="#D48A9B" d="M340.342 137.284l-130.178-10.803-16.706 3.485 1.044 23.343 1.138.138 1.296 35.052 127.74 22.991 13.579-11.497v-37.998l1.737-1.022z"/>
        <path fill="#000" d="M340.518 137.284l-.35 23.69-14.097 6.62-.175-24.738z"/>
        <path fill="#000" d="M338.255 162.019l.172 37.28-13.575 11.497.872-43.202z"/>
        <path fill="#000" d="M195.815 154.842l130.013 15.88.068-3.014-130.178-14.052z"/>
        <path fill="#000" d="M338.255 163.387v-1.369l-12.881 5.69v3.02z"/>
        <path fill="#EFC6CD" d="M193.283 129.966l16.706-3.485 130.179 10.803-14.619 5.572z"/>
        <path fill="#000" d="M326.3 137.955l6.388.418-10.588 3.172-5.39-.388z"/>
        <path fill="#FFF" d="M326.3 137.675l6.388.418-10.588 3.175-5.39-.39z"/>
        <path fill="#D3DAE1" d="M325.535 138.393c.253-.108.52.098.788.149.155.03.314 0 .469.03.313.04.623.25.922.145M325.206 138.585c.248-.108.518.095.788.149.155.027.313 0 .467.027.314.043.623.252.923.148M324.444 138.97c.253-.108.522.094.792.145.151.03.313 0 .464.03.317.044.627.253.923.145"/>
        <path fill="#000" d="M298.686 134.807l6.389.421-10.588 3.172-5.391-.391z"/>
        <path fill="#FFF" d="M298.686 134.53l6.389.418-10.588 3.172-5.391-.387z"/>
        <path fill="#D3DAE1" d="M297.922 135.248c.252-.108.518.095.788.149.155.027.313 0 .468.027.313.043.623.252.923.148M297.592 135.44c.249-.107.518.095.788.145.155.03.313 0 .468.03.313.044.623.253.923.146M296.83 135.821c.253-.107.523.098.792.149.152.03.313 0 .465.03.316.04.626.253.923.145"/>
        <path fill="#000" d="M311.93 136.38l6.392.419-10.587 3.175-5.395-.391z"/>
        <path fill="#FFF" d="M311.93 136.104l6.392.418-10.587 3.172-5.395-.39z"/>
        <path fill="#D3DAE1" d="M311.166 136.822c.253-.107.522.095.792.145.151.03.31 0 .464.03.314.041.627.253.923.146M310.836 137.011c.253-.108.522.098.792.148.151.03.31 0 .464.03.313.041.627.254.923.146M310.078 137.395c.25-.107.519.095.789.149.155.027.313 0 .468.027.313.044.623.253.923.148"/>
        <path fill="#FF5344" d="M167.299 239.234c37.658 0 68.186 6.29 68.186 14.05 0 7.758-30.528 14.048-68.186 14.048-37.658 0-68.186-6.29-68.186-14.048 0-7.76 30.528-14.05 68.186-14.05"/>
        <g transform="translate(111.94 64.4)">
            <mask id="b" fill="#fff">
                <use xlink:href="#a"/>
            </mask>
            <path d="M27.585.343c-1.512.242-2.92.948-4.44 1.167-1.09.155-2.2.054-3.297.165a8.536 8.536 0 0 0-2.924.847c-.24.102-.452.259-.62.457-.157.267-.262.56-.31.865-.372 1.362-1.552 2.334-2.408 3.47a8.137 8.137 0 0 0-1.623 4.486c-.033.413.007.829.118 1.228.073.238.188.464.241.706.168.74-.218 1.476-.406 2.21a4.313 4.313 0 0 0 .238 2.804c1.325 2.973 5.675 3.965 6.58 7.086.693.319 1.425.545 2.177.672.06.31.114.622.158.938a.257.257 0 0 0-.057.034c-1.174 1.147-1.466 3.363-1.466 3.363l-.14.114c-.48.397-2.12 1.729-3.603 2.754-1.76 1.221-4.695 5.31-6.748 6.531-2.052 1.22-3.743 8.743-3.3 11.477.443 2.734 2.274 10.402 1.54 13.2-.735 2.798 1.1 15.566 1.1 15.566 1.23.235 2.435.594 3.595 1.07l-.037.558-.11 1.681S8.518 95.845 9.79 105.123c1.271 9.278-.587 10.234-.587 10.234s.389 4.112-.587 5.548-1.174 4.59-1.174 4.59-.097 7.08.097 9.08c.195 2 .292 5.646-.392 6.507-.684.861-1.955 6.5-1.858 8.223.097 1.721-2.445 5.645-1.077 10.713 1.369 5.068-4.024 5.166-4.024 5.166s.687 7.735 2.153 9.947l.215.316c-.037.128-.074.263-.114.407-.554 2.018-1.312 5.203-.785 5.973.781 1.15 1.174.955 1.174.955l.291 5.165s5.87 4.974 10.37 4.785c4.501-.188 3.62-4.785 3.62-4.785l-3.834-9.968-.13-.335 4.258-8.072s1.174-3.537 1.466-4.782c.292-1.244 1.885-5.653 1.885-5.653s4.025-9.564 4.108-10.714c.084-1.15.393-7.361 1.174-8.609.782-1.247 2.935-8.407 2.935-8.407l.053.048a2.839 2.839 0 0 1 .732 2.82c-.494 1.817-.198 5.546-.198 5.546s-.195 3.158-.587 4.785c-.393 1.628-.486 14.921.198 18.076.546 2.525.53 7.254.503 9.043-.46 1.9-.862 4.26-.114 4.54 1.274.48 7.73.383 7.73.383s2.737-.959 6.457 2.39c3.719 3.35 15.159-.954 15.159-.954s3.522-.959-3.424-3.73c-4.847-1.933-7.976-3.221-10.022-4.6.047-.091.098-.182.14-.28 0 0-2.836-2.69-.489-7.458 2.348-4.769 2.251-8.8 2.251-8.8l.392-16.071-1.173-21.335-.91-22.39.162-.053c.154 4.116.956 13.915 5.151 12.015 5.282-2.391.782-8.609.782-8.609l-2.372-4.634.708-.242L47.45 83.3a19.425 19.425 0 0 1-.1-5.067c.052-.987.032-1.976-.06-2.96 3.474-.608 6.8-1.254 7.398-1.106.704.171 4.645.205 6.194.212-.506.397-.912.79-.912.79l6.309 4.257s2.14-1.173 2.586-2.417a2.788 2.788 0 0 0 1.18-.633c.067 1.47.456 3.06 1.811 3.098.34.007.676-.06.987-.195l10.316-2.049-.886 5.546.618 1.1c-.313 4.677-.671 9.644-.987 14.013l-.144.955.074.016c-.49 6.726-.882 11.82-.882 11.82a6.19 6.19 0 0 1 2.572-2.592l.068 9.981s.516 15.782.516 17.934c0 2.152.07 6.958.07 6.958s1.104 5.882 1.761 7.819c.657 1.937 1.174 10.76 1.174 10.76s1.543 2.439.882 3.364c-.66.924 2.57 2.939 2.57 2.939s-2.057 2.798-2.205 4.664c-.016.215.195.444.577.673-.12.097-.244.195-.382.289-.953.639-2.348 1.083-4.447.901-5.725-.505-9.76 4.806-6.239 5.881 3.522 1.077 14.087 1.292 14.087 1.292s3.2-2 5.701-1.1a61.052 61.052 0 0 0 .084 4.291l-.03.024c-1.496 1.345-4.36 3.659-7.157 4.603-4.025 1.363-4.917 6.888.292 7.604 5.209.716 12.838-.86 12.838-.86s3.961-2.94 6.97-3.586c3.008-.645 5.577-2.081 5.064-3.803-.336-1.1-1.198-3.982-1.781-5.919a13.475 13.475 0 0 0-.1-.336c.09-.201.18-.41.264-.625 0 0-1.54-8.034-.292-10.041 1.248-2.008.587-22.098.587-22.098s-2.129-5.092-1.026-8.175c1.104-3.084-1.76-7.463-1.76-7.463s.311-8.773 1.15-13.663l.11-.605a27.404 27.404 0 0 0 4.092-1.584s.735-11.05 1.174-13.56c.044-.234.104-.614.178-1.109l.335-1.772.396-2.018 1.342-6.877 2.42-3.14 6.239-6.39s1.5-3.377.764-9.763c-.724-6.382-3.592-12.472-3.592-12.472l.219-2.153s.047-1.076-.024-2.69c.008-1.008.14-2.01.393-2.986.587-1.867-.735-4.16-.882-4.372-.148-.212.073-4.304-1.248-6.312-1.322-2.008-10.122-5.74-10.122-5.74s-.473-.992-1.14-2.153l.06-.117a12.65 12.65 0 0 0-2.013-2.72c-.54-.58-1.06-.909-1.479-.747-.17-.559-.3-1.128-.388-1.705.087.023.177.047.265.063.363.085.74.094 1.107.027.818-.185 1.361-.921 1.817-1.614 2.274-3.464 4.233-7.263 4.632-11.363a7.244 7.244 0 0 0-.118-2.509 8.482 8.482 0 0 0-.784-1.832 14.718 14.718 0 0 0-2.214-3.272c-1.566-1.655-3.726-2.667-5.946-3.266a20.527 20.527 0 0 0-7.68-.575c-.671.078-1.342.189-2.013.232-.851.038-1.703.023-2.552-.043l-4.39-.256-.02-.067-.732-.044c-.288.575 0 1.258.359 1.796.36.538.772 1.1.741 1.735-.03.636-.49 1.147-.848 1.681-.359.535-.63 1.234-.272 1.76.05.072.11.137.178.194.38.394 1.04.437 1.613.43h.1a10.977 10.977 0 0 0-2.223 6.632 11.155 11.155 0 0 0 6.068 9.88c.063.219.127.444.187.673a20.66 20.66 0 0 1 .704 7.27l-.077.169-.047-.178s-5.171 3.517-6.707 4.448c-1.536.932-3.08 4.09-3.153 4.95-.073.861-2.495 13.845-2.495 13.845a31.924 31.924 0 0 0-1.215 4.009l-3.089 2.72s-6.371.576-8.216.145l.054.357a27.788 27.788 0 0 0-4.95-.673 5.236 5.236 0 0 0-2.684.36l-.064.03-.05.023c-.971.133-1.92.4-2.817.794a6.562 6.562 0 0 0-.299.131l.02-.44-6.895-.357-3.522-.716s-1.247-1.009-1.982-.86c-.734.147-2.274-.862-2.274-.862a6.124 6.124 0 0 0-1.133-.706c-.117-.814-.191-1.308-.191-1.308s-2.74-10.902-4.793-17.312c-1.375-4.28-3.354-6.39-4.52-7.308-.52-.907-.863-1.493-.863-1.493-.225-.787-1.458-2.558-1.774-2.602-.05-.081-.087-.122-.107-.122a.391.391 0 0 0-.198.03c-.577-2.878-.913-6.486-.03-9.63a10.64 10.64 0 0 0 3.87-8.192v-.286a10.6 10.6 0 0 0-2.492-6.827l-.114-.128a.976.976 0 0 0 .087-.07 1.805 1.805 0 0 0 .634-1.736c-.15-.645-.654-1.153-.912-1.765a11.43 11.43 0 0 1-.372-1.44 4.444 4.444 0 0 0-1.057-1.846l.05.135C32.09.985 30.313.265 28.564.265c-.329 0-.656.026-.979.078zm5.96 33.74a.3.3 0 0 0 .064.04l-.047.034a.513.513 0 0 1-.017-.074zm62.338 7.519l-1.197 1.345.402-.847.155-.145-.242.528.882-.881zM89.02 54.855l.265-.558c-.231.615-.48 1.281-.738 1.974l.473-1.416z" mask="url(#b)"/>
        </g>
        <g>
            <path fill="#585B8A" d="M182.595 138.916s-.826 5.509 1.651 5.58c2.477.07 4.132-4.25 4.132-4.25l-1.011-3.455-4.772 2.125z"/>
            <path fill="#000" d="M182.595 138.916s-.826 5.509 1.651 5.58c2.477.07 4.132-4.25 4.132-4.25l-1.011-3.455-4.772 2.125z"/>
            <path fill="#636992" d="M127.115 258.157c-4.408.193-10.157-4.8-10.157-4.8l-.286-5.184s-.381.193-1.15-.959c-.515-.773.226-3.98.769-5.995a52.06 52.06 0 0 1 .478-1.689l9.672 2.594.462 1.226 3.754 10.004s.863 4.61-3.542 4.803M171.555 243.472s-11.205 4.32-14.828.96c-3.623-3.362-6.322-2.403-6.322-2.403s-6.322.099-7.57-.384c-.734-.28-.336-2.682.122-4.594.31-1.32.647-2.411.647-2.411s11.013-3.746 12.739-1.443a8.265 8.265 0 0 0 1.836 1.756c1.995 1.446 5.113 2.756 10.043 4.773 6.78 2.783 3.333 3.746 3.333 3.746"/>
            <path fill="#FFD6D6" d="M161.499 155.726l3.063 6.144s4.408 6.241-.765 8.64c-5.173 2.397-5.075-13.821-5.075-13.821l2.777-.963z"/>
            <path fill="#DCE6F2" d="M148.663 102.448s3.353 1.537 5.365 7.968c2.011 6.43 4.694 17.377 4.694 17.377s1.82 12.383 1.53 15.456a19.97 19.97 0 0 0 .098 5.087l2.584 8.64-5.173 1.823-7.95-30.526-1.148-25.825z"/>
            <path fill="#000" d="M148.663 102.448s3.353 1.537 5.365 7.968c2.011 6.43 4.694 17.377 4.694 17.377s1.82 12.383 1.53 15.456a19.97 19.97 0 0 0 .098 5.087l2.584 8.64-5.173 1.823-7.95-30.526-1.148-25.825zM126.441 242.127l.462 1.227-.566 1.084c-2.204.959-7.664.192-7.664.192s-1.01-1.287-2.392-3.404c.263-.987.478-1.69.478-1.69l9.682 2.591zM158.53 235.406c-2.794 6.343-12.29 3.99-14.93 3.195-.434-.132-.673-.22-.673-.22s.017-.516.023-1.33c.31-1.32.647-2.412.647-2.412s11.014-3.745 12.739-1.442a8.264 8.264 0 0 0 1.837 1.756c.105.162.225.313.357.453"/>
            <path fill="#565988" d="M158.048 227.344c-2.299 4.796.482 7.488.482 7.488-2.794 6.34-12.29 3.989-14.93 3.192-.434-.129-.673-.217-.673-.217s.192-6.626-.479-9.795c-.67-3.167-.576-16.509-.192-18.14.384-1.632.573-4.803.573-4.803s-.286-3.742.192-5.567a2.879 2.879 0 0 0-.714-2.83l-.05-.05s-2.107 7.2-2.875 8.443c-.769 1.244-1.052 7.488-1.15 8.64-.097 1.152-4.023 10.754-4.023 10.754s-1.53 4.415-1.817 5.661c-.286 1.246-1.439 4.803-1.439 4.803l-4.617 8.93c-2.204.96-7.663.193-7.663.193s-1.051-1.351-2.49-3.553c-1.44-2.203-2.106-9.981-2.106-9.981s5.267-.098 3.926-5.185c-1.342-5.086 1.149-9.024 1.054-10.754-.094-1.73 1.15-7.39 1.82-8.255.67-.864.573-4.512.38-6.528-.191-2.017-.093-9.12-.093-9.12s.192-3.168 1.149-4.607c.957-1.438.576-5.57.576-5.57s1.816-.959.573-10.27c-1.244-9.312 2.022-21.408 2.022-21.408l.111-1.688.175-2.736s27.395-1.73 29.599.381a7.275 7.275 0 0 1 1.398 2.01 20.013 20.013 0 0 1 1.584 5.11l1.15 29.088 1.148 21.407-.384 16.128s.084 4.026-2.217 8.829"/>
            <path fill="#000" d="M149.926 169.935l-2.874 62.397-3.451 5.688c-.435-.128-.674-.216-.674-.216s.192-6.627-.479-9.795c-.67-3.168-.576-16.51-.192-18.14.384-1.632.573-4.804.573-4.804s-.286-3.742.192-5.566a2.88 2.88 0 0 0-.714-2.83l.047-.338 7.572-26.396zM118.97 236.943s7.471-2.976 8.62-2.027c1.15.95-8.809 2.399-8.809 2.399l.189-.372zM155.847 229.07c-.286.098-7.565 2.702-6.895 5.471.671 2.77 6.895-5.471 6.895-5.471"/>
            <path fill="#FFD6D6" d="M133.1 87.043s2.44 5.904 1.15 8.93c-1.291 3.027 13.934 8.208 13.934 8.208s-4.452-11.52-.142-18.002c4.31-6.482-14.942.864-14.942.864"/>
            <path fill="#505484" d="M222.25 257.965c-2.946.648-6.825 3.6-6.825 3.6s-7.471 1.585-12.573.865c-5.103-.72-4.236-6.266-.287-7.633 2.74-.946 5.547-3.28 7.013-4.618.647-.597 1.031-1.013 1.031-1.013l14.299-2.88.556 1.904c.573 1.949 1.419 4.84 1.742 5.941.502 1.746-2.012 3.185-4.957 3.834M218.586 246.876s-6.036.649-8.55-.79c-2.514-1.44-6.106.864-6.106.864s-10.346-.216-13.793-1.297c-3.447-1.08.502-6.417 6.106-5.904 2.042.186 3.424-.263 4.357-.905a4.601 4.601 0 0 0 1.898-2.85l12.132.719 1.685 4.31 2.27 5.853z"/>
            <path fill="#000" d="M216.5 242.989s-14.1-2.31-15.9-4.145a4.6 4.6 0 0 0 1.898-2.85l12.131.72 1.685 4.309.186 1.966z"/>
            <path fill="#575988" d="M195.596 162.137l.145 21.092s.502 15.841.502 18.003c0 2.161.07 6.981.07 6.981s1.08 5.904 1.726 7.85c.647 1.945 1.15 10.808 1.15 10.808s1.51 2.449.862 3.378c-.647.928 2.514 2.951 2.514 2.951s-2.022 2.81-2.153 4.682c-.132 1.871 16.088 4.53 16.088 4.53l-6.319-64.942-5.031-16.27-9.554.937z"/>
            <path fill="#000" d="M195.596 162.137l.145 21.092s.502 15.841.502 18.003c0 2.161.07 6.981.07 6.981s1.08 5.904 1.726 7.85c.647 1.945 1.15 10.808 1.15 10.808s1.51 2.449.862 3.378c-.647.928 2.514 2.951 2.514 2.951s-2.022 2.81-2.153 4.682c-.132 1.871 16.088 4.53 16.088 4.53l-6.319-64.942-5.031-16.27-9.554.937zM225.464 248.207c-4.694 11.217-15.859 2.56-15.859 2.56s0-.216-.027-.587a20.557 20.557 0 0 0 1.031-1.014l14.299-2.88s.233.816.556 1.921"/>
            <path fill="#575988" d="M225.626 247.238c-4.6 11.821-16.02 2.952-16.02 2.952s-.361-6.12.36-8.927c.72-2.807-.792-11.234-.792-11.234s-.863-7.488-1.652-9.214c-.788-1.726-.718-5.185-.718-5.472 0-.287.287-2.594-.36-4.178s-1.011-5.471-1.011-5.471 0-5.472-.647-8.711l-2.227-11.146-4.025-22.826 1.258-.216 22.521-3.958s4.24 21.616 2.8 23.832c-.31.486-.582 1.55-.808 2.921-.822 4.905-1.13 13.71-1.13 13.71s2.801 4.39 1.726 7.488c-1.075 3.097 1.011 8.207 1.011 8.207s.647 20.16-.576 22.178c-1.223 2.016.29 10.065.29 10.065"/>
            <path fill="#D28690" d="M223.469 99.858s-20.402 14.398-15.805 7.197c2.477-3.877 2.022-8.815 1.051-12.544a29.65 29.65 0 0 0-2.022-5.502s17.335-7.39 15.037-.767a12.429 12.429 0 0 0-.674 4.81 12.85 12.85 0 0 0 2.413 6.806M186.736 132.833s-8.62-2.496-10.056-.048c-1.435 2.45.432 7.823 3.033 8.688 2.602.864 8.574-2.929 8.574-2.929l-1.55-5.711z"/>
            <path fill="#585B8A" d="M196.604 128.587l-3.593 3.314s-6.25.574-8.047.141c0 0 1.654 11.089-.718 12.457l14.511-2.952-2.153-12.96z"/>
            <path fill="#000" d="M196.604 128.587l-3.593 3.314s-6.25.574-8.047.141c0 0 1.654 11.089-.718 12.457l14.511-2.952-2.153-12.96zM150.482 80.994c0 5.97-4.828 10.808-10.784 10.808-5.533-2.665-10.783-4.833-10.783-10.808-.236-5.965 4.398-10.991 10.349-11.227 5.951-.236 10.966 4.408 11.201 10.373.012.284.012.57 0 .854h.017z"/>
            <path fill="#FFD6D6" d="M150.482 80.703c.004 5.959-4.812 10.791-10.757 10.795-5.944.004-10.766-4.823-10.77-10.78-.004-5.959 4.812-10.792 10.757-10.796a10.754 10.754 0 0 1 8.33 3.949 10.824 10.824 0 0 1 2.44 6.832"/>
            <path fill="#000" d="M156.767 146.792a24.337 24.337 0 0 1-3.34 1.736s-5.459-.793-6.247.142c-.789.936-7.751 1.297-7.751 1.297s-10.632-.503-12.213-1.871a6.482 6.482 0 0 0-1.614-.96l.175-2.735s27.395-1.73 29.598.382a7.282 7.282 0 0 1 1.392 2.01"/>
            <path fill="#DCE6F2" d="M158.098 144.857c-.215 1.223-4.67 3.094-4.67 3.094s-5.46-.79-6.248.145c-.789.936-7.751 1.297-7.751 1.297s-10.632-.507-12.213-1.875c-1.58-1.367-5.102-2.026-5.102-2.026s-1.796-12.815-1.075-15.621c.721-2.807-1.078-10.515-1.51-13.25-.431-2.736 1.22-10.295 3.232-11.518 2.012-1.223 4.887-5.33 6.609-6.552 1.452-1.03 3.056-2.365 3.525-2.767l.138-.115s.29-2.232 1.439-3.377c1.149-1.145 11.707 7.272 11.707 7.272s.074.648.792-.574c.162-.274 1.553 1.739 1.796 2.59 0 0 5.746 10.082 6.106 12.16.361 2.077 1.867 8.855 2.154 10.51.074.426.195 1.919.337 3.918.027.392.05.808.08 1.24.213 3.317.442 7.552.58 10.754 0 .365.03.716.04 1.054a35.95 35.95 0 0 1 .034 3.64"/>
            <path fill="#000" d="M121.619 118.863s3.95 4.823 5.243 4.823c1.294 0-5.243-4.823-5.243-4.823M129.94 129.232s-6.468 7.056-5.605 8.353c.863 1.297 5.604-8.353 5.604-8.353M125.197 143.273s7.414-8.137 7.751-10.943l-7.75 10.943zM134.536 143.847s8.55-4.536 9.267-8.137c.718-3.6-9.267 8.137-9.267 8.137M145.384 100.074l-1.187 2.878 1.975.935 1.941 5.438s5.352 10.727 5.136 16.307c-.216 5.58.97 13.966.97 13.966l3.088-.574-1.456-16.412a23.72 23.72 0 0 0-1.88-7.366c-2.467-5.66-7.057-16.111-7.347-16.111-.394 0-.118.145-.118.145l-1.122.794z"/>
            <path fill="#575989" d="M145.67 99.783l-1.186 2.881 1.978.936 1.938 5.438s5.351 10.727 5.135 16.307c-.215 5.58.971 13.966.971 13.966l3.09-.574-1.459-16.412a23.62 23.62 0 0 0-1.877-7.366c-2.467-5.665-7.057-16.111-7.343-16.111-.398 0-.121.145-.121.145l-1.126.79z"/>
            <path fill="#FFD6D6" d="M180.654 142.097c-1.503-.114-5.11-1.942-6.542-2.702l-.606-.337.074-5.577a9.777 9.777 0 0 1 1.099-.557c1.914-.838 5.84-1.976 7.808 1.689 2.655 4.914.07 7.613-1.833 7.484"/>
            <path fill="#000" d="M148.042 73.87a1.593 1.593 0 0 1-.502.207c-1.25.273-2.672-.804-3.744-.112-.654.426-.805 1.307-.893 2.084-.152 1.351-.305 2.693-.458 4.026a4.972 4.972 0 0 1-.297 1.388c-.529 1.213-1.981 1.784-3.306 1.764a1.969 1.969 0 0 1-1.425-.473c-.233-.237-.357-.568-.613-.784-1.685-1.415-2.198 2.054-1.753 3.04.715 1.611 3.252 3.165 2.187 5.211-.179.333-.45.606-.782.787-5.683-1.784-8.848-7.848-7.068-13.544 1.78-5.697 7.83-8.868 13.514-7.084a10.781 10.781 0 0 1 5.14 3.49"/>
            <path fill="#353045" d="M136.517 81.957c.253.212.381.543.614.78.394.34.906.51 1.425.473 1.324.02 2.777-.548 3.303-1.767.167-.444.268-.91.3-1.385l.458-4.026c.088-.777.236-1.658.893-2.084 1.072-.675 2.494.385 3.744.112a1.834 1.834 0 0 0 1.348-2.115c-.145-.645-.637-1.155-.89-1.77a11.547 11.547 0 0 1-.367-1.442c-.698-2.62-3.768-4.093-6.437-3.654-1.482.246-2.86.956-4.347 1.172-1.065.155-2.153.054-3.228.169-1 .103-1.97.39-2.865.848a1.663 1.663 0 0 0-.606.459 2.54 2.54 0 0 0-.304.865c-.36 1.35-1.52 2.347-2.359 3.485a8.317 8.317 0 0 0-1.597 4.496c-.033.414.006.831.115 1.233.07.236.181.466.235.709.166.74-.212 1.48-.397 2.216a4.44 4.44 0 0 0 .236 2.816c1.294 2.983 5.557 3.98 6.443 7.11a7.061 7.061 0 0 0 2.507.676c.87.017 1.807-.358 2.211-1.132 1.062-2.026-1.473-3.6-2.187-5.208-.448-.99.054-4.455 1.752-3.036"/>
            <path fill="#000" d="M221.747 88.242a12.441 12.441 0 0 0-.674 4.81c-.52.442-1.085-.882-1.685-.54-1.645.952-3.545 3.218-5.58 3.218a11.157 11.157 0 0 1-5.08-1.22 29.65 29.65 0 0 0-2.021-5.501s17.338-7.39 15.04-.767"/>
            <path fill="#D28690" d="M225.002 83.922c0 6.204-5.018 11.234-11.208 11.234s-11.209-5.03-11.209-11.234 5.019-11.234 11.209-11.234c6.188-.001 11.206 5.025 11.208 11.227v.007z"/>
            <path fill="#F0F3F7" d="M224.524 102.354s-2.11 2.303-2.396 2.492c-.287.19-6.403 26.008-6.511 26.308-.108.3-7.282 23.613-7.282 23.613l-11.495 5.664.96-28.513 8.425-23.515s2.78-3.168 3.64-4.32c.859-1.152 11.589-8.066 11.589-8.066l1.833 3.787 1.237 2.55z"/>
            <path fill="#000" d="M223.004 100.381l-13.217 9.484-.213-5.208c.863-1.152 11.59-8.062 11.59-8.062l1.84 3.786z"/>
            <path fill="#F0F3F7" d="M223.29 99.804l-13.217 9.484-.205-5.205c.862-1.155 11.59-8.066 11.59-8.066l1.832 3.787z"/>
            <path fill="#585B8A" d="M209.426 101.766l.442 2.317-2.956 3.01 2.36-5.293s-5.056 3.53-6.572 4.465-3.033 4.104-3.09 4.968c-.058.865-2.443 13.896-2.443 13.896s-1.797 4.823-1.291 6.19c.505 1.369-2.73 44.497-2.73 44.497a6.406 6.406 0 0 1 4.32-3.32l-1.152-25.488s1.402-16.955 1.473-17.171l3.268-10.045 8.371-18.026z"/>
            <path fill="#000" d="M210.158 104.37l-.23 4.729s-3.198 10.115-4.273 11.77c-1.075 1.655-4.347 11.521-4.347 11.521l-1.843 17.138-3.161 1.442-1.557-2.874 2.588-16.55s4.883-13.966 5.604-15.409l3.603-7.606 3.616-4.161z"/>
            <path fill="#663D5C" d="M209.868 104.083l-.226 4.729s-3.198 10.115-4.276 11.77c-1.079 1.655-4.344 11.521-4.344 11.521l-1.833 17.134-3.161 1.44-1.581-2.878 2.588-16.55s4.883-13.97 5.6-15.409l3.63-7.596 3.603-4.16z"/>
            <path fill="#D28690" d="M172.61 140.176l6.177 4.286s4.357-2.449 1.82-4.033c-2.538-1.584-4.79-1.824-5.605-1.824-.815 0-2.392 1.57-2.392 1.57M177.223 132.252a.953.953 0 0 0-.448.814c0 1.314.148 4.793 1.247 3.222 1.348-1.922 1.102-3.648 3.16-2.401 1.28.798 2.4 1.83 3.303 3.04l-.573-4.128s-4.232-2.094-6.689-.547"/>
            <path fill="#000" d="M225.12 182.655c-.31.486-.583 1.55-.808 2.922-12.597 3.786-21.814-4.219-21.814-4.219a110.426 110.426 0 0 1-2.73-11.517c-.226-1.331-.175-3.912.034-7.06l22.521-3.958s4.236 21.6 2.797 23.832"/>
            <path fill="#585B8A" d="M238.05 118.215c-.572 1.874-.357 5.688-.357 5.688l-5.172 24.48s-2.514 18.864-2.945 21.383c-.432 2.52-1.15 13.609-1.15 13.609-14.656 7.2-25.949-2.59-25.949-2.59a110.572 110.572 0 0 1-2.729-11.522c-.721-4.276 1.402-21.407 2.406-29.016.3-2.253.502-3.672.502-3.672l3.771-14.04s4.634-11.845 6.36-15.3c1.725-3.456 8.653-11.218 8.653-11.218.86-.547 2.235 1.385 3.256 3.145a36.57 36.57 0 0 1 1.348 2.567s8.62 3.742 9.91 5.742c1.291 2 1.079 6.12 1.224 6.336.145.216 1.449 2.537.873 4.408"/>
            <path fill="#000" d="M217.723 109.504s.647 3.817-1.01 4.968c-1.601 1.115-13.518 24.6-14.26 26.065.3-2.256.503-3.675.503-3.675l3.771-14.037s4.637-11.845 6.359-15.304c1.722-3.458 8.658-11.217 8.658-11.217.859-.547 2.23 1.385 3.252 3.145-1.54 3.205-4.752 9.265-7.273 10.055"/>
            <path fill="#585B8A" d="M217.437 109.217s.643 3.817-1.011 4.968c-1.655 1.152-13.514 24.596-14.265 26.062.3-2.253.502-3.672.502-3.672l3.771-14.04s4.634-11.846 6.36-15.3c1.724-3.456 8.653-11.218 8.653-11.218.86-.547 2.234 1.385 3.256 3.145-1.534 3.202-4.749 9.265-7.266 10.055"/>
            <path fill="#FF5344" d="M234.533 143.705l-4.054 21.14v.004l-.388 2.023v.004l-.873 4.549-3.724-.79-1.735-.368-24.018-5.1-1.766-.375-4.03-.855.788-5.249.327-2.182 2.909-19.353z"/>
            <path fill="#D28690" d="M212.12 160.985s-9.555 3.455-7.472 7.559c2.083 4.103 15.444-3.168 15.444-3.168l-7.973-4.391z"/>
            <path fill="#000" d="M218.943 190.43c0 .288.36 3.962 1.796 5.256s-1.796-5.256-1.796-5.256M209.319 203.46s1.722 4.753 8.546 6.699c6.824 1.945-8.546-6.698-8.546-6.698M225.002 83.922a11.235 11.235 0 0 1-5.617 9.738 5.973 5.973 0 0 1-1.685-1.409c-.489-.594-.87-1.405-.577-2.114.236-.57.86-.932 1.011-1.523a2.248 2.248 0 0 0-.054-1.088c-.124-.557-.242-1.114-.364-1.668-.104-.473-.289-1.03-.758-1.145-.468-.115-.86.277-1.226.567-.9.713-2.626 1.196-3.707.611-1.082-.584-.779-2.54-.954-3.597a.63.63 0 0 0-.236-.476.984.984 0 0 0-.489-.034c-.583 0-1.051-.523-1.22-1.084a9.37 9.37 0 0 1-.195-1.74c-.064-.584-.276-1.202-.775-1.502a2.392 2.392 0 0 0-1.277-.21l-2.113.024c3.68-4.988 10.7-6.04 15.676-2.351a11.24 11.24 0 0 1 4.543 9.011l.017-.01z"/>
            <path fill="#663D5C" d="M216.031 85.28c.368-.29.772-.675 1.227-.564.455.111.65.675.755 1.142l.364 1.665c.107.353.127.728.057 1.09-.172.595-.792.953-1.031 1.524-.293.71.091 1.52.576 2.11a6.062 6.062 0 0 0 3.468 2.078 2.54 2.54 0 0 0 1.082.024c.802-.186 1.348-.926 1.78-1.618 2.227-3.479 4.144-7.292 4.535-11.406a7.336 7.336 0 0 0-.114-2.516 8.454 8.454 0 0 0-.769-1.841 14.863 14.863 0 0 0-2.167-3.287c-1.533-1.655-3.65-2.671-5.823-3.272a19.68 19.68 0 0 0-7.518-.591c-.674.077-1.321.189-1.985.233-.834.038-1.67.025-2.5-.04l-4.961-.298c-.284.577 0 1.263.337 1.803s.754 1.102.727 1.743c-.027.642-.481 1.149-.832 1.69-.35.54-.617 1.239-.266 1.766.35.526 1.065.56 1.685.553l2.5-.027c.436-.044.876.032 1.27.22.5.3.712.922.776 1.503.014.585.08 1.167.195 1.74.172.56.637 1.09 1.22 1.084a.91.91 0 0 1 .49.037.623.623 0 0 1 .235.473c.175 1.057-.148 3.009.954 3.597 1.101.587 2.834.098 3.733-.615"/>
            <path fill="#000" d="M230.276 107.467a5.493 5.493 0 0 0-5.779 3.699c-1.348 3.847-3.596 10.788-3.033 13.53.792 3.888 1.725 10.37 1.725 10.37s4.095 2.364 2.022 4.748c-2.072 2.385-2.659 5.762-2.659 5.762s-2.659 1.152-3.232 3.6c-.572 2.45-4.454 5.83-4.454 5.83l-5.817 5.834s9.624 9.795 11.566 10.294l5.961-6.985 7.04-9.359 6.106-6.417s1.436-3.378.718-9.795-3.521-12.527-3.521-12.527l.215-2.162s.66-15.486-6.858-16.422"/>
            <path fill="#585B8A" d="M230.85 107.467a5.493 5.493 0 0 0-5.774 3.699c-1.348 3.847-3.595 10.788-3.033 13.53.79 3.888 1.722 10.37 1.722 10.37s4.095 2.364 2.022 4.748c-2.072 2.385-2.655 5.762-2.655 5.762s-2.66 1.152-3.235 3.6c-.577 2.45-4.452 5.83-4.452 5.83l-5.82 5.834s9.625 9.795 11.566 10.294l5.961-6.985 7.023-9.359 6.107-6.417s1.439-3.378.717-9.795c-.72-6.417-3.518-12.527-3.518-12.527l.216-2.162s.67-15.486-6.848-16.422"/>
            <path fill="#000" d="M224.834 129.378s6.106 7.484 8.694 5.83c2.588-1.656-8.694-5.83-8.694-5.83M227.132 123.615c.647.217 5.965 7.634 8.695 6.755 2.73-.878-8.695-6.755-8.695-6.755M228.642 136.356s.36 4.249 4.741 3.671c4.381-.578-4.741-3.671-4.741-3.671M209.281 102.087l-2.368 5.293 2.958-3.01z"/>
            <path fill="#F0F3F7" d="M209.281 101.8l-2.368 5.292 2.958-3.009z"/>
            <path fill="#000" d="M199.741 165.166l-1.766-.374-3.242-6.104.327-2.182zM230.479 164.849l-.388 2.023v.003l-4.597 3.76-1.735-.369zM158.055 141.23c-.89.148-1.753.283-2.541.385-4.381.577-14.801-4.608-14.801-4.608s-12.715-10.656-16.378-20.734c-3.663-10.08 4.38-11.592 4.38-11.592 3.034-1.73 9.629 3.094 10.562 3.887.934.794 1.726 2.807 1.651 4.104-.074 1.297 2.157 2.952 2.157 2.952s3.808 6.623 4.742 7.343c.933.72 1.149 1.368 1.435 2.594.287 1.226 2.8 2.232 3.88 2.158 1.078-.074 2.358.361 2.358.936 0 .462 1.055.692 1.921.766.256 3.692.509 8.529.634 11.808"/>
            <path fill="#000" d="M158.014 140.176c-.674.108-1.32.206-1.927.287-4.381.577-14.798-4.607-14.798-4.607s-12.715-10.656-16.378-20.735c-3.663-10.079 4.381-11.592 4.381-11.592 3.033-1.73 9.625 3.094 10.558 3.888.934.793 1.726 2.806 1.655 4.103-.071 1.297 2.153 2.952 2.153 2.952s3.808 6.624 4.742 7.343c.933.72 1.149 1.368 1.439 2.594.29 1.226 2.8 2.23 3.879 2.158 1.078-.07 2.359.362 2.359.936 0 .338.6.564 1.267.676.027.391.05.807.08 1.24.223 3.32.452 7.555.59 10.757M174.679 132.924l-.273 6.471h-.294l-.606-.337.074-5.577a9.778 9.778 0 0 1 1.099-.557"/>
            <path fill="#DCE6F2" d="M128.716 104.103s-8.044 1.513-4.381 11.592c3.663 10.079 16.378 20.738 16.378 20.738s10.416 5.182 14.8 4.607c4.385-.574 11.061-2.087 11.924-1.87.862.215 6.682.215 6.682.215l.287-6.755-6.74-.361-3.448-.72s-1.223-1.013-1.94-.864c-.719.148-2.225-.865-2.225-.865s-1.152-.936-2.022-.936c-.87 0-2.514-.216-2.514-.79 0-.574-1.294-1.013-2.359-.936-1.065.078-3.61-.935-3.906-2.175-.296-1.24-.502-1.87-1.435-2.59-.934-.72-4.742-7.347-4.742-7.347s-2.227-1.655-2.157-2.948c.071-1.294-.717-3.314-1.65-4.107-.934-.794-7.54-5.614-10.552-3.888"/>
            <path fill="#000" d="M149.407 127.287s-3.09 3.097-2.301 3.671l2.301-3.671zM152.71 129.736s-4.024 3.097-2.945 3.313c1.078.216 2.945-3.313 2.945-3.313M145.882 134.33c.577.29 9.123 5.403 12.358 5.329l-12.358-5.33zM146.462 100.145s-1.51 4.968-2.086 4.968c-.452 0-8.034-6.154-11.198-8.741l.138-.115s.286-2.232 1.435-3.377c1.15-1.145 11.71 7.265 11.71 7.265"/>
            <path fill="#DCE6F2" d="M146.172 99.567s-1.506 4.969-2.082 4.969c-.455 0-8.038-6.154-11.202-8.742l.138-.114s.29-2.233 1.439-3.378c1.15-1.145 11.707 7.265 11.707 7.265"/>
            <g fill="#000">
                <path d="M125.828 83.51c1.01 2.314 3.794 3.435 5.408 5.28-.96-2.267-3.767-3.378-5.408-5.28M136.13 88.84c-.401.773-1.348 1.148-2.211 1.131a6.435 6.435 0 0 1-2.217-.567c.253.375.447.788.572 1.223a7.031 7.031 0 0 0 2.508.675c.873.02 1.81-.354 2.21-1.131.644-1.233-.027-2.287-.812-3.283a2.15 2.15 0 0 1-.05 1.952M148.636 71.912c-.145-.649-.637-1.159-.89-1.77a11.076 11.076 0 0 1-.367-1.446 4.479 4.479 0 0 0-1.035-1.854c.068.166.125.336.172.51.094.492.22.977.377 1.452.253.612.745 1.122.89 1.77a1.834 1.834 0 0 1-1.348 2.115c-1.247.273-2.669-.808-3.74-.112-.658.422-.81 1.304-.897 2.08a897.41 897.41 0 0 1-.458 4.03c-.03.474-.13.94-.297 1.385-.529 1.216-1.981 1.787-3.306 1.766a1.983 1.983 0 0 1-1.422-.472 9.328 9.328 0 0 0-.617-.784c-1.685-1.419-2.197 2.05-1.752 3.04.223.445.499.861.822 1.24-.37-1.115.149-4.324 1.793-2.95.22.25.424.512.613.784.396.338.908.507 1.426.473 1.324.02 2.777-.55 3.306-1.766.166-.446.266-.914.296-1.388l.459-4.027c.087-.776.239-1.658.893-2.08 1.075-.696 2.497.385 3.744.108a1.83 1.83 0 0 0 1.338-2.104"/>
            </g>
            <path fill="#000" d="M223.247 93.488a2.602 2.602 0 0 1-1.082-.027 6.064 6.064 0 0 1-3.464-2.074c-.49-.595-.873-1.405-.577-2.115.236-.57.856-.928 1.011-1.523a2.27 2.27 0 0 0-.057-1.09l-.364-1.666c-.104-.473-.286-1.03-.755-1.142-.468-.111-.86.274-1.227.564-.9.713-2.628 1.2-3.707.612-1.078-.588-.778-2.54-.953-3.597a.634.634 0 0 0-.236-.473.96.96 0 0 0-.492-.037c-.583 0-1.048-.524-1.22-1.085a9.581 9.581 0 0 1-.192-1.739c-.068-.58-.276-1.202-.779-1.503a2.418 2.418 0 0 0-1.27-.22l-2.5.028c-.617 0-1.349-.041-1.686-.554-.337-.514-.088-1.243.267-1.767.354-.523.802-1.044.832-1.689.03-.645-.388-1.202-.728-1.742a3.131 3.131 0 0 1-.424-.966l-.718-.044c-.28.574 0 1.26.337 1.803.337.544.758 1.101.727 1.74-.03.638-.478 1.151-.832 1.688-.354.538-.613 1.24-.263 1.767.35.527 1.062.564 1.685.557l2.5-.03c.437-.042.876.035 1.271.223.502.3.715.922.778 1.503.012.584.077 1.167.196 1.74.168.557.637 1.09 1.22 1.08a.984.984 0 0 1 .489.037c.144.117.23.29.236.476.175 1.054-.149 3.01.953 3.598 1.102.587 2.821.1 3.707-.612.368-.29.775-.675 1.23-.567.455.108.65.675.752 1.141l.367 1.669c.107.354.126.728.054 1.09-.168.592-.792.953-1.028 1.52-.293.71.088 1.524.577 2.115a6.066 6.066 0 0 0 3.488 2.074c.354.085.723.094 1.081.027a2.542 2.542 0 0 0 1.402-1.067 1.87 1.87 0 0 1-.606.277"/>
            <path fill="#00C6C0" d="M353.04 207.568c4.5 0 8.146.561 8.146 1.253 0 .692-3.647 1.253-8.145 1.253-4.499 0-8.145-.56-8.145-1.253 0-.692 3.646-1.253 8.145-1.253"/>
            <path fill="#FF5344" d="M270.002 255.688c13.028 0 23.59 1.624 23.59 3.628 0 2.003-10.562 3.627-23.59 3.627-13.029 0-23.59-1.624-23.59-3.627 0-2.004 10.561-3.628 23.59-3.628M337.06 241.117c10.162 0 18.4 1.268 18.4 2.83 0 1.564-8.238 2.831-18.4 2.831-10.162 0-18.4-1.267-18.4-2.83 0-1.563 8.238-2.83 18.4-2.83M334.03 267.351c17.233 0 31.203 2.149 31.203 4.8 0 2.65-13.97 4.799-31.202 4.799-17.233 0-31.203-2.149-31.203-4.8 0-2.65 13.97-4.799 31.203-4.799"/>
            <path fill="#00C6C0" d="M33.78 272.745c13.029 0 23.59 1.624 23.59 3.627 0 2.004-10.561 3.628-23.59 3.628-13.028 0-23.59-1.624-23.59-3.628 0-2.003 10.562-3.627 23.59-3.627M69.013 201.492s.924 1.209-.424 3.04c-1.348 1.83-2.46 3.377-2.022 4.506 0 0 2.022-3.378 3.707-3.44 1.685-.06.563-2.066-1.26-4.106"/>
            <path fill="#000" d="M69.013 201.492c.083.115.146.243.19.378 1.617 1.905 2.476 3.679.923 3.715-1.446.04-3.182 2.635-3.596 3.29.012.05.028.1.047.15 0 0 2.022-3.378 3.707-3.44 1.685-.06.553-2.053-1.27-4.093"/>
            <path fill="#FFBD00" d="M70.732 203.032c0 .426-.05.77-.108.77-.057 0-.107-.338-.107-.77s.06-.223.117-.223c.058 0 .098-.202.098.223"/>
            <path fill="#FFBD00" d="M71.319 203.542c-.371.203-.698.338-.725.274-.027-.065.25-.257.623-.463.374-.206.226-.054.253 0 .027.054.223-.017-.151.19"/>
            <path fill="#00C6C0" d="M64.14 201.492s-.923 1.209.425 3.04c1.348 1.83 2.464 3.377 2.022 4.506 0 0-2.022-3.378-3.69-3.44-1.668-.06-.59-2.066 1.244-4.106"/>
            <path fill="#000" d="M64.14 201.492c-.08.116-.144.244-.188.378-1.618 1.905-2.477 3.679-.924 3.715 1.446.04 3.182 2.635 3.6 3.29-.014.05-.031.1-.051.15 0 0-2.022-3.378-3.69-3.44-1.668-.06-.58-2.053 1.254-4.093"/>
            <path fill="#FFBD00" d="M62.425 203.032c0 .426.047.77.105.77.057 0 .108-.338.108-.77s-.061-.223-.118-.223c-.058 0-.095-.202-.095.223"/>
            <path fill="#FFBD00" d="M61.836 203.542c.374.203.697.338.727.274.03-.065-.252-.257-.626-.463-.374-.206-.226-.054-.253 0-.027.054-.223-.017.152.19"/>
            <path fill="#00C6C0" d="M66.577 215.32c5.329 0 9.648.663 9.648 1.482 0 .82-4.32 1.483-9.648 1.483-5.329 0-9.648-.664-9.648-1.483 0-.819 4.32-1.482 9.648-1.482"/>
            <path fill="#65617D" d="M71.544 207.403l-.047.378-.064.533-.027.223-.064.534-.03.223-.064.534-.738 6.08c-.064.54-.947.962-2.022.962h-3.822c-1.065 0-1.948-.422-2.022-.962l-.738-6.08-.064-.534-.027-.223-.067-.534-.027-.223-.064-.533-.047-.378c-.037-.308.441-.565 1.044-.565h7.849c.6 0 1.078.257 1.041.565"/>
            <path fill="#9D9CB5" d="M71.497 207.78l-.064.534h-9.712l-.064-.533zM71.406 208.538l-.064.533h-9.527l-.067-.533zM71.315 209.294l-.067.534h-9.342l-.064-.534z"/>
            <path fill="#FF5344" d="M346.62 196.814s-1.152 5.377 3.974 6.012l.317-.598s-3.973-3.745-4.29-5.414"/>
            <path fill="#FF5344" d="M352.542 202.184l-1.193.254-.118.027s-3.181-2.587-3.14-8.363c.425.851.933 1.658 1.52 2.408 1.26 1.672 2.692 3.901 2.93 5.674"/>
            <path fill="#FF5344" d="M352.943 202.738a.748.748 0 0 1-.64.085c-3.06-.716-2.022-10.71-2.022-10.71.168.077.337 1.35 1.058 2.992 1.23 2.881 2.588 6.91 1.604 7.633M359.73 196.814s.199 5.377-4.927 6.012l-.32-.608s4.93-3.735 5.247-5.404"/>
            <path fill="#FF5344" d="M358.26 194.112c.041 5.776-4.09 8.363-4.09 8.363l-.122-.027-1.189-.254c.236-1.773 1.685-4.002 2.928-5.674.714-.91 1.546-1.72 2.474-2.408"/>
            <path fill="#FF5344" d="M354.031 202.218a1.86 1.86 0 0 1-.674.524c-.08.036-.165.064-.252.084-.751.176-1.011-.368-.97-1.294.07-1.644 1.101-4.498 2.021-6.636a8.295 8.295 0 0 1 1.921-2.78s-.047 7.778-2.046 10.102"/>
            <path fill="#FF5344" d="M353.175 188.607s-3.417 12.159-.475 13.976c2.942 1.817 1.23-12.902.475-13.976"/>
            <path fill="#000" d="M346.62 196.814s-1.152 5.377 3.974 6.012l.317-.598s-3.973-3.745-4.29-5.414"/>
            <path fill="#000" d="M352.542 202.184l-1.193.254-.118.027s-3.181-2.587-3.14-8.363c.425.851.933 1.658 1.52 2.408 1.26 1.672 2.692 3.901 2.93 5.674"/>
            <path fill="#000" d="M352.943 202.738a.748.748 0 0 1-.64.085c-3.06-.716-2.022-10.71-2.022-10.71.168.077.337 1.35 1.058 2.992 1.23 2.881 2.588 6.91 1.604 7.633M359.73 196.814s.199 5.377-4.927 6.012l-.32-.608s4.93-3.735 5.247-5.404"/>
            <path fill="#000" d="M358.26 194.112c.041 5.776-4.09 8.363-4.09 8.363l-.122-.027-1.189-.254c.236-1.773 1.685-4.002 2.928-5.674.714-.91 1.546-1.72 2.474-2.408"/>
            <path fill="#000" d="M354.031 202.218a1.86 1.86 0 0 1-.674.524c-.08.036-.165.064-.252.084-.751.176-1.011-.368-.97-1.294.07-1.644 1.101-4.498 2.021-6.636a8.295 8.295 0 0 1 1.921-2.78s-.047 7.778-2.046 10.102"/>
            <path fill="#000" d="M353.175 188.607s-3.417 12.159-.475 13.976c2.942 1.817 1.23-12.902.475-13.976"/>
            <path fill="#00C6C0" d="M346.62 196.814s-.673 5.377 4.45 6.012l.316-.598s-4.448-3.745-4.765-5.414"/>
            <path fill="#00C6C0" d="M353.017 202.184l-1.193.254-.118.027s-3.656-2.587-3.626-8.353c0 0 .937 1.013 1.995 2.408 1.27 1.662 2.703 3.891 2.942 5.664"/>
            <path fill="#000" d="M353.017 202.184l-1.193.254c-1.129-.993-1.577-3.587-1.739-5.928 1.26 1.672 2.693 3.901 2.932 5.674"/>
            <path fill="#00C6C0" d="M353.422 202.738a.753.753 0 0 1-.644.085c-3.06-.716-2.5-10.71-2.5-10.71.168.077.828 1.35 1.533 2.992 1.237 2.881 2.591 6.91 1.61 7.633M359.73 196.814s.674 5.377-4.448 6.012l-.317-.598s4.448-3.745 4.765-5.414"/>
            <path fill="#00C6C0" d="M358.26 194.112c.041 5.776-3.615 8.363-3.615 8.363l-.118-.027-1.193-.254c.236-1.773 1.685-4.002 2.932-5.674 1.058-1.395 1.995-2.408 1.995-2.408"/>
            <path fill="#000" d="M356.266 196.51c-.155 2.182-.553 4.583-1.52 5.705-.066.08-.14.155-.22.223l-1.192-.253c.236-1.774 1.672-4.003 2.932-5.675"/>
            <path fill="#00C6C0" d="M354.507 202.218a1.83 1.83 0 0 1-.674.524c-.08.036-.164.064-.25.084-.755.176-1.01-.368-.974-1.294.075-1.644 1.106-4.498 2.022-6.636.674-1.537 1.284-2.703 1.446-2.78 0-.004.428 7.778-1.57 10.102"/>
            <path fill="#000" d="M353.422 202.738a.805.805 0 0 1-.486-.155c-1.439-.899-1.469-4.27-1.125-7.478 1.237 2.881 2.591 6.91 1.61 7.633"/>
            <path fill="#000" d="M354.507 202.218c-.165.361-.388.55-.674.524a.904.904 0 0 1-.408-.156 2.182 2.182 0 0 1-.816-1.054c.075-1.644 1.106-4.498 2.022-6.636.33 2.962.442 6.103-.124 7.322"/>
            <path fill="#00C6C0" d="M353.175 188.607s-2.938 12.159 0 13.976c2.94 1.817.755-12.902 0-13.976"/>
            <path fill="#4B4770" d="M358.817 201.989H346.58v2.03h1.867l.048.24.748 3.94h7.114l.748-3.94.044-.24h1.668z"/>
            <path fill="#000" d="M358.817 201.989H346.58v2.03h1.867l.048.24.748 3.94h7.114l.748-3.94.044-.24h1.668z"/>
            <path fill="#4B4770" d="M357.785 203.18l-.205 1.078-.748 3.942h-7.114l-.748-3.942-.206-1.077z"/>
            <path fill="#000" d="M357.785 203.18l-.205 1.078h-8.61l-.206-1.077z"/>
            <path fill="#4B4770" d="M347.056 204.018h12.236v-2.03h-12.236z"/>
            <path fill="#FF5344" d="M46.974 236.723a5.878 5.878 0 0 0-.768 1.453c-.048.125-.095.27-.142.408a1.514 1.514 0 0 0-.266-.095 3.71 3.71 0 0 0-1.203-.1c0-.16.02-.338.023-.497.05-1.78-.158-4.26-1.853-3.209-1.624 1.014-.465 2.702.583 3.783.09.094.182.183.27.267-.958.676-1.14 2.273-1.298 3.931-.158 1.659-1.564 3.473-2.497 4.503-.094.104-.179.2-.263.287a3.414 3.414 0 0 0-2.713-.7c-.037-.145-.08-.297-.124-.455-.755-2.733-2.322-7.465-4.32-8.502l.262-.337c.85-1.112 1.806-2.767.394-3.189-1.412-.422-1.54 1.432-1.462 2.824.013.176.027.34.04.496a2.064 2.064 0 0 0-1.476.723l-.219-.26c-1.146-1.351-3.245-3.503-3.882-1.878-.593 1.513 1.257 3.48 2.558 4.617l.08.071c-.872 3.55 2.94 6.445 4.992 7.711l.266.162c-2.831 3.344-4.58 9.613-4.58 9.613l7.926 1.418s5.257-4.546 4.583-8.815h.054c5.254-1.054 6.447-6.667 5.628-10l.094-.038a5.954 5.954 0 0 0 2.434-1.844c1.469-2.044-1.605-4.354-3.121-2.348"/>
            <path fill="#000" d="M46.974 236.723a5.878 5.878 0 0 0-.768 1.453c-.048.125-.095.27-.142.408a1.514 1.514 0 0 0-.266-.095 3.71 3.71 0 0 0-1.203-.1c0-.16.02-.338.023-.497.05-1.78-.158-4.26-1.853-3.209-1.624 1.014-.465 2.702.583 3.783.09.094.182.183.27.267-.958.676-1.14 2.273-1.298 3.931-.158 1.659-1.564 3.473-2.497 4.503-.094.104-.179.2-.263.287a3.414 3.414 0 0 0-2.713-.7c-.037-.145-.08-.297-.124-.455-.755-2.733-2.322-7.465-4.32-8.502l.262-.337c.85-1.112 1.806-2.767.394-3.189-1.412-.422-1.54 1.432-1.462 2.824.013.176.027.34.04.496a2.064 2.064 0 0 0-1.476.723l-.219-.26c-1.146-1.351-3.245-3.503-3.882-1.878-.593 1.513 1.257 3.48 2.558 4.617l.08.071c-.872 3.55 2.94 6.445 4.992 7.711l.266.162c-2.831 3.344-4.58 9.613-4.58 9.613l7.926 1.418s5.257-4.546 4.583-8.815h.054c5.254-1.054 6.447-6.667 5.628-10l.094-.038a5.954 5.954 0 0 0 2.434-1.844c1.469-2.044-1.605-4.354-3.121-2.348"/>
            <path fill="#00C6C0" d="M31.196 239.034l-.927 2.702s-.516-.365-1.166-.94c-1.3-1.138-3.151-3.103-2.558-4.617.637-1.624 2.737.52 3.882 1.878.462.54.769.977.769.977M33.15 237.463c-.281.372-.583.728-.903 1.067-.079-.474-.134-.952-.165-1.432-.077-1.391.07-3.239 1.463-2.823 1.391.415.455 2.077-.395 3.188M45.12 237.892c-.026.895-.114 1.611-.114 1.611-.408-.32-.794-.666-1.156-1.037-1.048-1.09-2.207-2.773-.583-3.783 1.678-1.054 1.887 1.429 1.853 3.209M50.58 239.064a5.946 5.946 0 0 1-2.433 1.844 7.195 7.195 0 0 1-.816.297l-1.092-1.537c.115-.507.266-1.006.452-1.492a5.907 5.907 0 0 1 .768-1.453c1.51-2.006 4.59.304 3.12 2.34"/>
            <path fill="#000" d="M30.427 238.058c.462.54.769.959.769.959l-.927 2.702s-.516-.365-1.166-.94a5.31 5.31 0 0 1 1.045-2.387c.09-.112.188-.227.28-.334M33.15 237.463c-.281.372-.583.728-.903 1.067-.079-.474-.134-.952-.165-1.432.385.008.758.135 1.068.365"/>
            <path fill="#00C6C0" d="M37.707 248.258L35.4 249.27s-.502-.243-1.226-.696c-2.423-1.493-7.293-5.252-4.044-9.683 3.249-4.432 5.988 3.516 7.077 7.403.327 1.182.499 1.963.499 1.963"/>
            <path fill="#000" d="M43.833 238.466c.335-.346.79-.552 1.27-.574-.026.895-.114 1.61-.114 1.61-.407-.319-.794-.665-1.156-1.036M48.153 240.908a7.31 7.31 0 0 1-.815.297l-1.092-1.537c.115-.508.266-1.006.452-1.492.697.412 1.216 1.438 1.455 2.732"/>
            <path fill="#00C6C0" d="M42.425 250.946c-.125.027-.257.05-.388.071-7.727 1.175-2.548-3.003-2.548-3.003s.337-.337.82-.847c.933-1.03 2.335-2.834 2.496-4.503.243-2.509.523-4.863 3.478-4.174 2.902.682 3.458 10.987-3.858 12.456"/>
            <path fill="#D4DFEC" d="M27.516 274.12H42.28v-3.891H27.516z"/>
            <path fill="#D4DFEC" d="M25.17 271.16h19.29v-13.577H25.17z"/>
            <path fill="#000" d="M27.516 274.12H42.28v-3.891H27.516z"/>
            <path fill="#000" d="M25.17 271.16h19.29v-13.577H25.17z"/>
            <path fill="#D4DFEC" d="M28.486 274.12H43.25v-3.891H28.486z"/>
            <path fill="#000" d="M37.208 246.299c.337 1.161.499 1.959.499 1.959l-2.305 1.013s-.503-.243-1.227-.696c.903-1.145 1.92-2.01 3.033-2.276M42.425 250.946c-.125.027-.257.05-.388.071-7.727 1.175-2.548-3.003-2.548-3.003s.337-.337.82-.847c1.442 1.158 2.038 2.462 2.116 3.78"/>
            <path fill="#00C6C0" d="M29.861 258.353s4.327-15.537 10.397-10.744c6.069 4.793-2.47 12.16-2.47 12.16l-7.927-1.416z"/>
            <path fill="#000" d="M32.045 240.84a.486.486 0 1 1-.002.973.486.486 0 0 1 .002-.973M32.005 243.11a.486.486 0 1 1-.002.972.486.486 0 0 1 .002-.972M46.08 241.286a.486.486 0 1 1 0 .972.486.486 0 0 1 0-.972M34.758 252.922a.486.486 0 1 1-.001.972.486.486 0 0 1 0-.972M45.07 245.056a.486.486 0 1 1-.001.972.486.486 0 0 1 .001-.972M40.055 250.085a.486.486 0 1 1-.001.972.486.486 0 0 1 .001-.972M33.703 241.813a.486.486 0 1 1-.002.972.486.486 0 0 1 .002-.972M44.746 242.746a.486.486 0 1 1 0 .971.486.486 0 0 1 0-.971M43.088 246.515a.486.486 0 1 1 0 .972.486.486 0 0 1 0-.972M37.993 252.557a.486.486 0 1 1-.001.972.486.486 0 0 1 .001-.972M36.942 250.166a.486.486 0 1 1-.002.972.486.486 0 0 1 .002-.972M34.43 244.772a.486.486 0 1 1 0 .972.486.486 0 0 1 0-.972M28.486 271.65H43.25v-1.421H28.486z"/>
            <path fill="#D4DFEC" d="M26.14 271.16h19.29v-13.577H26.14z"/>
            <path fill="#000" d="M38.64 254.746a.486.486 0 1 1-.002.972.486.486 0 0 1 .002-.972M35.728 255.354a.486.486 0 1 1 0 .972.486.486 0 0 1 0-.972"/>
            <path fill="#FF5344" d="M16.85 14.172a3.529 3.529 0 0 1 3.525 3.533 3.529 3.529 0 0 1-3.525 3.533 3.529 3.529 0 0 1-3.525-3.533 3.529 3.529 0 0 1 3.525-3.533M355.386 124.129a4.723 4.723 0 0 1 4.718 4.728 4.723 4.723 0 0 1-4.718 4.729 4.723 4.723 0 0 1-4.718-4.729 4.723 4.723 0 0 1 4.718-4.728M364.482 115.273a3.448 3.448 0 0 1 3.444 3.452 3.448 3.448 0 0 1-3.444 3.452 3.448 3.448 0 0 1-3.445-3.452 3.448 3.448 0 0 1 3.445-3.452M22.916.142a4.723 4.723 0 0 1 4.718 4.728A4.723 4.723 0 0 1 22.916 9.6a4.723 4.723 0 0 1-4.718-4.729A4.723 4.723 0 0 1 22.916.142M4.718 21.758a4.723 4.723 0 0 1 4.718 4.729 4.723 4.723 0 0 1-4.718 4.728A4.723 4.723 0 0 1 0 26.487a4.723 4.723 0 0 1 4.718-4.729"/>
        </g>
    </g>
</svg>
