<svg xmlns="http://www.w3.org/2000/svg" xmlns:xlink="http://www.w3.org/1999/xlink" width="366" height="260" viewBox="0 0 366 260">
    <defs>
        <path id="a" d="M0 0h366v21.16H0z"/>
        <path id="c" d="M20.862 2.328a13.57 13.57 0 0 0-3.068-.349A13.721 13.721 0 0 0 5.493 9.72C2.319 12.568.258 17.128.258 22.27v.646c.27 7.92 5.416 14.318 11.907 14.923a7.05 7.05 0 0 0-1.885 1.255c-1.989 1.914-2.315 4.938-2.524 7.697l-.157 2.053-3.395 1.204a.633.633 0 0 0-.372.816.635.635 0 0 0 .223.29l3.29 2.339c0 .196 0 .4.024.59.024.188.04.436.064.657a4.575 4.575 0 0 0-1.256 1.809c-.402 1.046-.35 2.194-.302 3.309l.12 2.855c.093 2.138.19 4.307.875 6.333.43 1.271 2.295 4.32 3.644 4.335-1.245 5.615-1.575 17.45-1.575 17.45-.153.153.274.297 1.064.402.744 5.638 3.144 21.444 7.42 28.383a59.469 59.469 0 0 1 1.61 6.894s1.21 15.012 2.82 19.476c1.373 3.794 2.456 13.166 2.75 15.882a1.544 1.544 0 0 0-1.136 1.155c-.805 2.434-6.04 6.084-6.04 6.084s-3 1.508-4.526 2.887c-1.646 1.484-1.61 2.808 5.738 1.982 14.134-1.605 16.558-6.084 16.558-6.084s-.23-.755-.564-1.737c-.544-1.604-1.361-3.846-1.86-4.348-.202-.204-.403.125-.657.638a87.662 87.662 0 0 1-.962-19.668s.403-6.894-1.61-11.763c0 0-.806-4.464 0-7.708.804-3.245-3.222-19.067-3.222-19.067l-2.384-11.67c.316.396.536.86.644 1.355l.061.24c.02.108.044.217.064.337.023.12.08.23.165.317 1.579 6.53 5.895 24.617 5.895 27.272 0 3.249 4.027 11.362 4.027 11.362s1.61 13.388 4.43 18.662c2.146 4.01 2.198 9.89 2.097 12.481 0 0-.479 3.34-1.288 4.15-.653.659-1.31 2.115-1.53 2.648-.056.12-.085.192-.085.192s-1.208 2.435-.402 2.84c0 0 4.832 2.03 9.692 1.203 0 0 1.61-2.03 1.61-2.84a14.324 14.324 0 0 0-.177-1.443c-.298-1.918-.858-4.945-.862-4.978.338-1.303-.978-4.94-.978-4.94l-.403-11.359c1.208-12.982-2.819-22.72-2.819-22.72s-2.013-7.3-1.61-9.329c.403-2.029-.805-23.53-.805-23.53l-.117-.309c-.077-.469-.13-1.636.117-4.56.402-4.868-1.209-15.011-1.61-15.417-.21-.208-.404-1.836-.573-3.357.093-.846.366-3.324.745-6.416 3.984-.141 7.958-.489 11.907-1.043a1.113 1.113 0 0 0 1.236-.976c.01-.085.01-.17 0-.255.443-6.088-1.816-12.024-4.144-17.68a437.723 437.723 0 0 0-2.858-6.757c-.927-2.138-1.897-4.316-3.495-6.016a6.286 6.286 0 0 0-2.09-1.536 8.943 8.943 0 0 0-2.666-.525 21.364 21.364 0 0 0-4.204-.117c-.54-.164-1.155-.369-1.767-.617 6.223-1.63 10.649-7.116 10.908-13.52v-.63C43.086 6.725 36.577.186 28.513.151h-.034c-2.694 0-5.333.754-7.617 2.177M42.46 49.53l.072.189c.77 2.1 1.42 4.242 1.945 6.417-1.076.49-2.19.896-3.33 1.215.403-2.912.87-5.731 1.313-7.82"/>
        <path id="e" d="M46.293.632c-.806.283-1.634.5-2.475.648-1.423.173-2.827-.21-4.246-.258a9.172 9.172 0 0 0-5.603 1.694 3.054 3.054 0 0 0-.911.921 4.608 4.608 0 0 0-.403 1.654 8.534 8.534 0 0 1-1.101 3.038c-.44.727-.984 1.391-1.387 2.144a3.274 3.274 0 0 0-.37 2.458c.132.446.394.813.495 1.252.234 1.013-.44 1.983-.895 2.916a5.437 5.437 0 0 0-.613 2.765 3.496 3.496 0 0 0 1.25 2.49c.752.527 1.65.808 2.568.804.045.109.093.213.141.318.165.35.351.688.544 1.018-.011.077-.044.157-.044.233l-.048.218c-.073.012-2.625.326-3.46 1.416-.834 1.09-3.023 1.247-3.023 1.247s-2.504.833-2.45 1.038c.052.205-.726.52-2.29.934-1.565.414-4.173 1.915-4.173 2.28 0 .367-4.116 4.414-4.116 4.829 0 .414-1.254 1.971-1.097 4.723.157 2.752.31 6.212-.315 6.8-.624.587 0 2.816 0 2.816a1.52 1.52 0 0 1 .053 1.661c-.52.934.105 4.828.105 4.828l-.052 4.047s.572 2.543-.106 2.648c-.677.105.106 1.243.106 1.243s.572 2.08-.158 3.014c-.73.933-.935 4.928-.935 4.928L.129 89.538s-.157 2.958 3.386 2.905c3.544-.052 3.496.68 3.391 1.352-.105.672.988 1.4.988 1.4s1.403.728.572 1.61c-.83.88-3.23 2.904.734 4.256a9.537 9.537 0 0 0 1.145-2.076c.336-.92.615-1.86.834-2.816.103-1.084.28-2.16.528-3.219.823 2.607 3.068 7.483 8.438 8.425 2.06.358 5.475.604 9.317.76-.145 3.054-.246 5.778-.246 5.778s.597.052 1.366.052c.934.041 1.87.024 2.802-.052a3.16 3.16 0 0 0 .508-.109 20.594 20.594 0 0 0 3.56-1.706l10.078-.261.992-.572s4.177 1.192 5.205-2.293l.552-.318c.246-.136.545-.31.875-.502l1.032.28.327-1.029.467.089c1.778.334 4.27.704 5.62.454 2.221-.414 8.579.676 11.288 1.143.295.053.596.069.895.048 2.028-.14 2.765-2.072 2.765-2.072s.355-.885.25-6.956V93.425l-.023-.298c-.02-.064-.013-.109-.02-.197-.01-.089-.033-.172-.033-.257l-.024-.19-.049-.265-.024-.15a8.622 8.622 0 0 0-.08-.37l-.037-.14c-.02-.08-.052-.18-.064-.229-.012-.048-.025-.073-.045-.145-.02-.073-.056-.16-.068-.205-.012-.045-.044-.089-.044-.133l-.081-.205-.045-.109c-.04-.096-.084-.188-.128-.281a.517.517 0 0 1-.033-.069l-.109-.2-.056-.097c-.028-.053-.06-.101-.089-.15l-.068-.104-.085-.125-.073-.1-.076-.097a5.699 5.699 0 0 0-.278-.325l-.037-.037c4.761-2.277 8.063-6.558 8.063-6.558s5.677-6.373 6.358-8.047c.681-1.673.625-5.31-3.854-9.253a5.303 5.303 0 0 0-2.903-1.179v-.028l3.004-3.315a3.185 3.185 0 0 0-.323-3.525l-1.262-1.13a6.033 6.033 0 0 0-1.209-1.774 4.592 4.592 0 0 0-2.302-1.368l-2.302-2.064-.002-.002a1.974 1.974 0 0 0-2.784.147l-4.656 5.146-2.366-2.712s-.48-1.71-1.21-1.972c-.73-.261-1.044-1.404-1.044-1.404a1.733 1.733 0 0 0-.73-1.557c-.834-.519-.572-1.557-.572-1.557.21-.414-.472-1.5-.94-1.762-.467-.262-.257-.47-.31-1.3-.052-.828-.681-1.605-1.878-2.747-1.198-1.143-1.303-3.637-2.242-6.076-.94-2.438-1.984-2.128-2.399-2.543-.415-.414-3.18-.981-4.588-1.71-1.406-.728-6.647.347-6.647.347a7.844 7.844 0 0 1-.057-.89v-.318a11.894 11.894 0 0 0 8.526-11.39c.002-.83-.086-1.658-.261-2.47-.02-.1-.045-.197-.069-.297.613-.105 1.314-.024 1.823-.355.507-.33.7-.957.842-1.536.274-1.13.496-2.313.23-3.444a4.732 4.732 0 0 0-.404-1.05l.025.084c-.698-1.44-2.032-2.579-2.943-3.934C53.71 3.867 53.106 1.899 51.583.9 50.805.393 49.902.2 48.971.2c-.898 0-1.82.18-2.68.433zm7.893 60.1c.448-.845.94-4.04.984-4.338l.012-.007 3.87 5.87-.48.12-.33.073a.533.533 0 0 1 .113-.266s-2.19.089-4.285.254a5.598 5.598 0 0 1 .116-1.706zm16.348 6.586c-.58.278-.92.459-.92.459s-9.227 3.202-9.538 3.886c-.31.684-3.023 1.106-4.745 2.011a4.52 4.52 0 0 1-.08-.297c1.947-.515 3.648-1.135 3.705-1.424a4.665 4.665 0 0 0-.07-.857c.118-.073.198-.141.198-.193a11.464 11.464 0 0 0-.19-1.714l.307-.048 3.629-.576h.008a36.252 36.252 0 0 0 4.612-.857l.665.069 2.419-.46z"/>
    </defs>
    <g fill="none" fill-rule="evenodd">
        <path fill="#F2F2F2" d="M282.967 102.477C268.103 44.083 216.743 1.93 156.459.24c-31.87-.894-65.408 9.667-89.825 46.621-43.648 66.06 2.682 111.71 34.983 133.4a202.052 202.052 0 0 1 41.776 37.514c21.818 25.867 63.79 58.01 113.779 7.647 36.23-36.503 35.695-84.05 25.795-122.945"/>
        <g transform="translate(0 238.043)">
            <mask id="b" fill="#fff">
                <use xlink:href="#a"/>
            </mask>
            <path fill="#3F3D56" d="M183 0c101.068 0 183 4.737 183 10.58s-81.932 10.58-183 10.58S0 16.422 0 10.58 81.932 0 183 0" mask="url(#b)"/>
        </g>
        <path fill="#000" d="M73.054 241.39c24.314 0 44.026 2.356 44.026 5.262 0 2.907-19.712 5.264-44.026 5.264-24.316 0-44.027-2.357-44.027-5.264 0-2.906 19.711-5.263 44.027-5.263M297.168 244.325c21.383 0 38.718 2.072 38.718 4.628s-17.335 4.63-38.718 4.63c-21.383 0-38.718-2.074-38.718-4.63s17.335-4.628 38.718-4.628"/>
        <path fill="#FFF2CC" d="M183 50.816c-14.574-10.57-32.828-10.305-51.323-3.766-29.583 10.46-48.58 33.01-34.304 73.314 13.297 37.538 76.43 68.161 85.03 72.186l.222.45.375-.172c.245.113.375.171.375.171s.077-.153.223-.45c8.599-4.024 71.732-34.647 85.029-72.185 14.276-40.303-4.72-62.854-34.304-73.314-18.495-6.539-36.75-6.803-51.323 3.766z"/>
        <path fill="#3F3D56" d="M203.848 117.7l-17.078 32.449-.807-21.223 7.627-20.153-7.797 15.656-1.09-28.679 10.21-26.982-10.439 20.96L183 50.916l-2.444 64.334-22.375-42.513 22.245 45.931-1.262 33.24-18.005-34.208 17.9 36.96-2.677 70.49h13.236l-2.75-72.391z"/>
        <path fill="#000" d="M246.537 235.145c0 20.562-28.688 14.202-63.813 14.202-35.126 0-63.388 6.36-63.388-14.202s28.684-25.034 63.81-25.034c35.125 0 63.391 4.472 63.391 25.034"/>
        <path fill="#3F3D56" d="M246.537 230.083c0 20.562-28.688 14.202-63.813 14.202-35.126 0-63.388 6.36-63.388-14.202 0-20.563 28.684-25.035 63.81-25.035 35.125 0 63.391 4.472 63.391 25.035"/>
        <path fill="#FF5344" d="M264.558 116.422a.4.4 0 0 1-.566.002l-.003-.002-.22-.197c-1.781-1.635-2.802-2.695-2.802-4.02 0-1.08.68-1.915 1.757-1.915a2.05 2.05 0 0 1 1.557.732 2.05 2.05 0 0 1 1.558-.732c1.073 0 1.758.836 1.758 1.916 0 1.324-1.03 2.4-2.803 4.02l-.236.196z"/>
        <g transform="translate(264.895 77.899)">
            <mask id="d" fill="#fff">
                <use xlink:href="#c"/>
            </mask>
            <path d="M20.862 2.328a13.57 13.57 0 0 0-3.068-.349A13.721 13.721 0 0 0 5.493 9.72C2.319 12.568.258 17.128.258 22.27v.646c.27 7.92 5.416 14.318 11.907 14.923a7.05 7.05 0 0 0-1.885 1.255c-1.989 1.914-2.315 4.938-2.524 7.697l-.157 2.053-3.395 1.204a.633.633 0 0 0-.372.816.635.635 0 0 0 .223.29l3.29 2.339c0 .196 0 .4.024.59.024.188.04.436.064.657a4.575 4.575 0 0 0-1.256 1.809c-.402 1.046-.35 2.194-.302 3.309l.12 2.855c.093 2.138.19 4.307.875 6.333.43 1.271 2.295 4.32 3.644 4.335-1.245 5.615-1.575 17.45-1.575 17.45-.153.153.274.297 1.064.402.744 5.638 3.144 21.444 7.42 28.383a59.469 59.469 0 0 1 1.61 6.894s1.21 15.012 2.82 19.476c1.373 3.794 2.456 13.166 2.75 15.882a1.544 1.544 0 0 0-1.136 1.155c-.805 2.434-6.04 6.084-6.04 6.084s-3 1.508-4.526 2.887c-1.646 1.484-1.61 2.808 5.738 1.982 14.134-1.605 16.558-6.084 16.558-6.084s-.23-.755-.564-1.737c-.544-1.604-1.361-3.846-1.86-4.348-.202-.204-.403.125-.657.638a87.662 87.662 0 0 1-.962-19.668s.403-6.894-1.61-11.763c0 0-.806-4.464 0-7.708.804-3.245-3.222-19.067-3.222-19.067l-2.384-11.67c.316.396.536.86.644 1.355l.061.24c.02.108.044.217.064.337.023.12.08.23.165.317 1.579 6.53 5.895 24.617 5.895 27.272 0 3.249 4.027 11.362 4.027 11.362s1.61 13.388 4.43 18.662c2.146 4.01 2.198 9.89 2.097 12.481 0 0-.479 3.34-1.288 4.15-.653.659-1.31 2.115-1.53 2.648-.056.12-.085.192-.085.192s-1.208 2.435-.402 2.84c0 0 4.832 2.03 9.692 1.203 0 0 1.61-2.03 1.61-2.84a14.324 14.324 0 0 0-.177-1.443c-.298-1.918-.858-4.945-.862-4.978.338-1.303-.978-4.94-.978-4.94l-.403-11.359c1.208-12.982-2.819-22.72-2.819-22.72s-2.013-7.3-1.61-9.329c.403-2.029-.805-23.53-.805-23.53l-.117-.309c-.077-.469-.13-1.636.117-4.56.402-4.868-1.209-15.011-1.61-15.417-.21-.208-.404-1.836-.573-3.357.093-.846.366-3.324.745-6.416 3.984-.141 7.958-.489 11.907-1.043a1.113 1.113 0 0 0 1.236-.976c.01-.085.01-.17 0-.255.443-6.088-1.816-12.024-4.144-17.68a437.723 437.723 0 0 0-2.858-6.757c-.927-2.138-1.897-4.316-3.495-6.016a6.286 6.286 0 0 0-2.09-1.536 8.943 8.943 0 0 0-2.666-.525 21.364 21.364 0 0 0-4.204-.117c-.54-.164-1.155-.369-1.767-.617 6.223-1.63 10.649-7.116 10.908-13.52v-.63C43.086 6.725 36.577.186 28.513.151h-.034c-2.694 0-5.333.754-7.617 2.177M42.46 49.53l.072.189c.77 2.1 1.42 4.242 1.945 6.417-1.076.49-2.19.896-3.33 1.215.403-2.912.87-5.731 1.313-7.82" mask="url(#d)"/>
        </g>
        <path fill="#BE6F72" d="M274.98 166.663s2.415 21.508 7.646 29.873a57.915 57.915 0 0 1 1.609 6.77s1.207 14.738 2.817 19.12c1.609 4.38 2.816 16.33 2.816 16.33s5.633 6.373 7.645 1.195a83.295 83.295 0 0 1-1.207-20.712s.402-6.771-1.61-11.551c0 0-.804-4.381 0-7.568.805-3.186-3.218-18.72-3.218-18.72l-3.22-15.533-13.277.796z"/>
        <path fill="#FF5344" d="M300.33 243.934s-2.415 4.38-16.497 5.974c-7.303.824-7.356-.49-5.714-1.948 1.521-1.354 4.507-2.831 4.507-2.831s5.23-3.585 6.035-5.975c.805-2.39 3.621-.399 3.621-.399 4.024 5.975 4.829-1.592 5.633-.796.5.494 1.312 2.685 1.855 4.27.33.948.56 1.705.56 1.705"/>
        <path fill="#000" d="M300.33 243.934s-2.415 4.38-16.497 5.974c-7.303.824-7.356-.49-5.714-1.948 1.151.726 3.468 1.048 8.128-.84 6.703-2.716 11.56-4.286 13.523-4.891.33.948.56 1.705.56 1.705M296.306 219.239s.402-6.77-1.61-11.551c0 0-.804-4.381 0-7.568.805-3.186-3.219-18.72-3.219-18.72l-3.218-15.533-2.78.167 3.182 15.366s4.024 15.534 3.219 18.72c-.805 3.187 0 7.568 0 7.568 2.012 4.78 1.61 11.55 1.61 11.55a83.311 83.311 0 0 0 1.206 20.713 3.452 3.452 0 0 1-1.167 1.649c1.501.673 3.095.637 3.984-1.65a83.295 83.295 0 0 1-1.207-20.711"/>
        <path fill="#3F3D56" d="M293.69 79.236a14.512 14.512 0 0 0-7.604 2.139c-6.194-1.404-12.548 1.606-15.33 7.26-3.163 2.789-5.23 7.274-5.23 12.32 0 8.472 5.765 15.335 12.875 15.335 5.158 0 9.604-3.609 11.668-8.822 7.744 1.985 15.648-2.62 17.654-10.286 2.006-7.666-2.646-15.49-10.39-17.476a14.629 14.629 0 0 0-3.642-.458v-.012z"/>
        <path fill="#BE6F72" d="M305.56 168.655l1.207 3.186s1.208 21.11.805 23.101c-.402 1.992 1.61 9.162 1.61 9.162s4.023 9.559 2.816 22.304l.402 11.153s1.61 4.38.805 5.178c-.805.796-6.84-.797-6.84-.797s.805-8.364-2.012-13.542c-2.817-5.178-4.426-18.322-4.426-18.322s-4.024-7.966-4.024-11.153c0-3.186-6.437-29.076-6.437-29.076l16.094-1.194z"/>
        <path fill="#3F3D56" d="M274.176 168.256s.403-14.338 2.012-18.72c1.61-4.381 1.81-6.333 1.81-6.333s24.363 4.358 26.375 2.764c0 0 .403 5.576.805 5.975.402.398 2.012 10.356 1.61 15.135-.403 4.78 0 4.78 0 4.78s-16.497 2.39-16.9 0c-.402-2.39-1.61-2.39-1.61-2.39s-14.907-.414-14.102-1.21"/>
        <g fill="#000">
            <path d="M287.454 168.256s-10.184-.27-13.25-.796c-.02.517-.028.796-.028.796-.805.797 14.083 1.195 14.083 1.195.203.021.396.1.555.227-.51-1.414-1.36-1.422-1.36-1.422M305.158 151.926c-.403-.398-.805-5.974-.805-5.974a1.586 1.586 0 0 1-.688.242c.149 1.681.402 4.27.688 4.537.402.398 2.012 10.356 1.61 15.136-.403 4.779 0 4.779 0 4.779s-13.049 1.892-16.22.63c.049.175.089.358.125.565.403 2.39 16.9 0 16.9 0s-.403 0 0-4.78c.402-4.78-1.208-14.737-1.61-15.135"/>
            <path d="M287.454 168.256s-10.184-.27-13.25-.796c-.02.517-.028.796-.028.796-.805.797 14.083 1.195 14.083 1.195.203.021.396.1.555.227-.51-1.414-1.36-1.422-1.36-1.422M305.158 151.926c-.403-.398-.805-5.974-.805-5.974a1.586 1.586 0 0 1-.688.242c.149 1.681.402 4.27.688 4.537.402.398 2.012 10.356 1.61 15.136-.403 4.779 0 4.779 0 4.779s-13.049 1.892-16.22.63c.049.175.089.358.125.565.403 2.39 16.9 0 16.9 0s-.403 0 0-4.78c.402-4.78-1.208-14.737-1.61-15.135"/>
        </g>
        <path fill="#BE6F72" d="M291.9 104.325a5.364 5.364 0 0 0 1.537 1.992c.43.31.925.52 1.449.613-.906.514-1.884.9-2.789 1.418-1.48.84-2.74 1.991-4.124 2.991-1.384 1-2.99 1.808-4.696 1.8a5.66 5.66 0 0 0 .656-5.655c-.29-.646-.712-1.271-.724-1.992 0-1.14 1.022-1.991 1.976-2.633.775-.518 1.56-1.02 2.354-1.505.627-.399 1.569-1.195 2.357-1.167.881.032.881.72 1.042 1.43.207.938.53 1.848.962 2.708"/>
        <path fill="#000" d="M291.9 104.325a5.364 5.364 0 0 0 1.537 1.992c.43.31.925.52 1.449.613-.906.514-1.884.9-2.789 1.418-1.48.84-2.74 1.991-4.124 2.991-1.384 1-2.99 1.808-4.696 1.8a5.66 5.66 0 0 0 .656-5.655c-.29-.646-.712-1.271-.724-1.992 0-1.14 1.022-1.991 1.976-2.633.775-.518 1.56-1.02 2.354-1.505.627-.399 1.569-1.195 2.357-1.167.881.032.881.72 1.042 1.43.207.938.53 1.848.962 2.708"/>
        <path fill="#BE6F72" d="M301.335 109.51c5.111 0 9.255 4.102 9.255 9.162 0 5.06-4.144 9.16-9.255 9.16-5.11 0-9.254-4.1-9.254-9.16 0-5.06 4.143-9.161 9.254-9.161"/>
        <path fill="#FF5344" d="M314.412 248.713c0 .797-1.61 2.788-1.61 2.788-4.827.797-9.656-1.194-9.656-1.194-.805-.399.402-2.789.402-2.789s.029-.071.085-.19c.221-.523.873-1.953 1.525-2.598.804-.797 1.283-4.074 1.283-4.074 2.495-4.075 6.933 1.752 6.933 1.752s.563 2.995.861 4.887c.084.47.142.943.177 1.418"/>
        <path fill="#000" d="M314.412 248.713c0 .797-1.61 2.788-1.61 2.788-4.827.797-9.656-1.194-9.656-1.194-.805-.399.402-2.789.402-2.789s.029-.071.085-.19c1.85.796 5.408 2.062 8.767 1.783l1.835-1.816c.084.47.142.943.177 1.418"/>
        <path fill="#BE6F72" d="M282.827 90.592c5 0 9.053 4.012 9.053 8.961 0 4.95-4.053 8.962-9.053 8.962-5 0-9.053-4.012-9.053-8.962s4.053-8.961 9.053-8.961M275.52 117.465c-1.98 1.876-2.306 4.847-2.515 7.567l-.302 3.96a20.905 20.905 0 0 0-.084 3.21c.052.669.169 1.33.233 1.992.077.796.08 1.593.085 2.39l.036 5.859c0 1.194.032 2.477.652 3.516.62 1.04 2.048 1.71 3.094 1.092.684-.399 1.002-1.195 1.275-1.94.886-2.414 1.779-4.863 2.012-7.42.085-.88.093-1.765.173-2.645.08-.88.234-1.8.37-2.697.572-3.732.83-7.5 1.083-11.26.076-1.115 1.09-5.5-.382-5.974-.72-.24-2.21.494-2.89.74a8.11 8.11 0 0 0-2.84 1.61"/>
        <path fill="#000" d="M275.52 117.465c-1.98 1.876-2.306 4.847-2.515 7.567l-.302 3.96a20.905 20.905 0 0 0-.084 3.21c.052.669.169 1.33.233 1.992.077.796.08 1.593.085 2.39l.036 5.859c0 1.194.032 2.477.652 3.516.62 1.04 2.048 1.71 3.094 1.092.684-.399 1.002-1.195 1.275-1.94.886-2.414 1.779-4.863 2.012-7.42.085-.88.093-1.765.173-2.645.08-.88.234-1.8.37-2.697.572-3.732.83-7.5 1.083-11.26.076-1.115 1.09-5.5-.382-5.974-.72-.24-2.21.494-2.89.74a8.11 8.11 0 0 0-2.84 1.61"/>
        <path fill="#FF5344" d="M294.294 105.325s-6.84 5.178-10.864 6.372c0 0-2.386 2.697-2.816 3.342-.43.645-1.207 7.811-2.012 9.404-.805 1.593-2.816 5.178 0 8.763 0 0 .805 3.584.402 4.78-.402 1.194-1.863 5.576-.527 5.779 1.336.203 5.356 2.983 8.977 2.187 3.621-.797 17.1 2.987 17.1 2.987s2.213-20.513 3.823-24.097l-3.622-1.196s-10.058-5.974-4.023-15.135c0 0-5.633-1.195-6.438-3.186"/>
        <path fill="#3F3D56" d="M269.32 129.314l8.308 5.824a.629.629 0 0 0 .733 0l2.245-1.67a.605.605 0 0 0 .04-.951l-6.394-5.644a.637.637 0 0 0-.623-.12l-4.16 1.474a.62.62 0 0 0-.15 1.087"/>
        <path fill="#BE6F72" d="M272.112 146.871c-.684-1.991-.78-4.118-.869-6.217l-.121-2.788c-.048-1.091-.088-2.223.298-3.246.555-1.466 1.943-2.513 3.448-2.991a12.06 12.06 0 0 1 4.704-.335c.21-.003.418.055.595.167.16.149.276.34.33.55.342.948.676 2.04.19 2.928a3.028 3.028 0 0 1-.946.955c-1.115.797-2.414 1.323-3.473 2.183a.98.98 0 0 0-.43 1.227c.133.558.313 1.104.539 1.633.092.264.25.501.459.689.197.155.454.223.652.374.442.351 1.355.82 1.315 1.379-.153 2.063-1.384 4.293-1.87 6.3-.946 3.912-4.23-1.099-4.82-2.808"/>
        <g fill="#000">
            <path d="M285.04 145.952a2.095 2.095 0 0 1-.222.035 6.98 6.98 0 0 0 2.636-.035l.25-.04a9.807 9.807 0 0 0-2.664.04M306.164 124.244c-1.44 3.214-3.57 20.612-3.956 24.07 1.425.366 2.346.625 2.346.625s2.213-20.513 3.823-24.098l-2.213-.597z"/>
        </g>
        <path fill="#BE6F72" d="M301.65 118.95c.027.817.703 1.442 1.323 1.992a17.328 17.328 0 0 1 2.338 2.354 16.575 16.575 0 0 1 2.33 4.605 56.902 56.902 0 0 1 1.939 6.309c-5.175 2.35-10.945 2.238-16.417 3.791a13.173 13.173 0 0 0-6.188 3.585c-1.61 1.78-2.583 4.226-2.261 6.604.01.14.05.276.12.398.185.198.45.302.72.283a6.148 6.148 0 0 0 3.759-1.275 17.447 17.447 0 0 0 2.873-2.788 4.667 4.667 0 0 1 2.056-1.493c2.965-.896 6.124-.84 9.226-.896 4.59-.088 9.173-.447 13.72-1.076.372-.005.727-.147.998-.398a1.43 1.43 0 0 0 .234-.797c.45-5.974-1.791-11.821-4.112-17.366-.931-2.22-1.88-4.432-2.845-6.635-.922-2.1-1.891-4.238-3.48-5.9a6.27 6.27 0 0 0-2.085-1.509 9.21 9.21 0 0 0-2.655-.514 20.509 20.509 0 0 0-4.503-.083c-.165.796-.459 1.505-.43 2.306.084 2.736 1.291 5.297 2.478 7.77.19.36.624.371.861.734"/>
        <path stroke="#000" d="M285.265 124.085a7.353 7.353 0 0 0-1.03 3.875c.004.541.09 1.078.258 1.593.499 1.442 1.814 2.502 3.267 3.008"/>
        <path fill="#3F3D56" d="M290.472 90.787a4.957 4.957 0 0 0-1.49.235c-1.339-1.992-4.49-3.422-8.167-3.422-4.888 0-8.852 2.498-8.852 5.577 0 3.079 3.964 5.576 8.852 5.576 1.831.02 3.645-.36 5.311-1.111 1.158 2.377 4.044 3.376 6.446 2.23s3.41-4.003 2.253-6.381a4.832 4.832 0 0 0-4.353-2.704"/>
        <path fill="#000" d="M290.874 99.151a4.833 4.833 0 0 1-4.345-2.704 12.585 12.585 0 0 1-5.311 1.11c-4.89 0-8.852-2.493-8.852-5.575 0-.184.015-.368.043-.55a3.717 3.717 0 0 0-.446 1.745c0 3.082 3.964 5.576 8.852 5.576 1.831.02 3.645-.36 5.311-1.112 1.166 2.375 4.055 3.363 6.454 2.21a4.786 4.786 0 0 0 2.632-3.404 4.833 4.833 0 0 1-4.338 2.704"/>
        <path fill="#000" d="M270.756 91.026c2.788-5.66 9.153-8.665 15.35-7.25 6.81-4.156 15.733-2.061 19.932 4.679a14.24 14.24 0 0 1 2.105 6.327c.033-.399.053-.797.053-1.195-.002-7.92-6.49-14.337-14.49-14.335-2.684 0-5.315.74-7.6 2.135-6.197-1.416-12.562 1.59-15.35 7.249-3.163 2.788-5.23 7.273-5.23 12.32 0 .398 0 .796.043 1.194.294-4.564 2.258-8.563 5.187-11.124"/>
        <path fill="#FF5344" d="M267.308 98.785a.405.405 0 0 1-.57.002c0-.001 0-.002-.002-.002l-.221-.196c-1.79-1.629-2.817-2.684-2.817-4.002 0-1.076.684-1.908 1.767-1.908.604.003 1.177.27 1.565.728.389-.458.961-.725 1.565-.728 1.079 0 1.767.832 1.767 1.908 0 1.318-1.034 2.39-2.817 4.002l-.237.196z"/>
        <path fill="#387CDE" d="M256.046 60.249h1.432c.113 0 .205.09.205.203v3.238a.204.204 0 0 1-.205.204h-1.428a.2.2 0 0 1-.201-.204v-3.242a.2.2 0 0 1 .197-.199zm4.092-3.394a.562.562 0 0 1 .502.355c.196.45.203.959.02 1.414-.079.246-.182.483-.31.709 0 0-.08.12.182.115h1.662a.516.516 0 0 1 .475.586.53.53 0 0 1-.35.514.024.024 0 0 0-.003.034.61.61 0 0 1 .348.496.451.451 0 0 1-.4.497h-.002a.028.028 0 0 0-.02.032.497.497 0 0 1 .266.47.435.435 0 0 1-.334.418.032.032 0 0 0-.02.036c.132.087.2.244.173.399a.4.4 0 0 1-.427.398h-3.565s-.193 0-.193-.26v-2.317a3.065 3.065 0 0 1 .467-1.617c.253-.357.533-.696.837-1.012.052-.052.241-.215.241-.303v-.633a.402.402 0 0 1 .45-.33zm-.87-2.314c-3.588-.002-6.5 2.876-6.501 6.429-.003 3.552 2.905 6.434 6.494 6.436 3.588.003 6.5-2.876 6.502-6.428v-.004c.002-3.55-2.904-6.43-6.49-6.433h-.004zM254.2 99.376c.073 0 .133.06.133.134v2.125c0 .074-.06.134-.134.134h-.93a.131.131 0 0 1-.132-.13v-2.132a.13.13 0 0 1 .129-.13h.933zm1.936-2.39c.158.007.297.11.354.262.138.333.143.708.014 1.045a2.948 2.948 0 0 1-.218.524s-.056.088.128.085h1.17a.376.376 0 0 1 .333.433.391.391 0 0 1-.246.38.018.018 0 0 0-.001.024l.001.002a.45.45 0 0 1 .244.365.33.33 0 0 1-.283.367.02.02 0 0 0-.015.024.371.371 0 0 1 .187.347.318.318 0 0 1-.235.31.024.024 0 0 0-.014.026c.093.064.14.18.122.294a.289.289 0 0 1-.3.294h-2.51s-.135 0-.135-.191v-1.713c0-.422.114-.836.328-1.195.179-.263.376-.513.59-.747.036-.038.17-.159.17-.224v-.468a.285.285 0 0 1 .316-.244zm-.604-1.598a4.785 4.785 0 1 0-.01 9.57 4.785 4.785 0 0 0 .013-9.57h-.003zM267.753 122.025c.049 0 .089.04.089.088v1.418a.09.09 0 0 1-.09.089h-.62a.088.088 0 0 1-.088-.088v-1.42c0-.048.039-.087.086-.087h.623zm1.287-.666a.709.709 0 0 1 .007.523c-.028.09-.064.178-.109.262 0 0-.028.044.064.042h.585a.188.188 0 0 1 .167.217.196.196 0 0 1-.124.19.01.01 0 0 0 0 .012.225.225 0 0 1 .122.183.165.165 0 0 1-.14.184.01.01 0 0 0-.008.012.186.186 0 0 1 .093.173.16.16 0 0 1-.118.155.012.012 0 0 0-.007.013.15.15 0 0 1 .061.147.144.144 0 0 1-.15.147h-1.254s-.068 0-.068-.095v-.857c0-.21.057-.418.164-.597.09-.132.188-.257.295-.374.018-.019.084-.08.084-.112v-.234a.143.143 0 0 1 .16-.122.199.199 0 0 1 .176.131zm-.718-1.727a2.791 2.791 0 1 0-.006 5.582 2.791 2.791 0 0 0 .008-5.582h-.002zM248.224 11.413h2.301c.181 0 .328.144.33.323v5.226c0 .18-.147.326-.33.326h-2.301a.328.328 0 0 1-.33-.326v-5.226a.328.328 0 0 1 .33-.323zm6.586-5.48a.9.9 0 0 1 .805.573c.317.725.33 1.544.037 2.278a6.61 6.61 0 0 1-.5 1.148s-.136.19.29.183h2.676a.827.827 0 0 1 .769.94.86.86 0 0 1-.568.832.04.04 0 0 0-.027.05l.003.006s0 .02.02.024c.314.15.526.453.56.796a.73.73 0 0 1-.644.797.048.048 0 0 0-.033.056c.004.011.013.02.024.024a.794.794 0 0 1 .403.764.706.706 0 0 1-.535.674.044.044 0 0 0-.034.052l.001.003a.06.06 0 0 0 .02.024.69.69 0 0 1 .278.622.67.67 0 0 1-.153.434.69.69 0 0 1-.539.243h-5.741s-.314 0-.314-.399v-3.74a4.9 4.9 0 0 1 .752-2.608c.406-.577.859-1.12 1.352-1.626.08-.091.402-.35.402-.49 0-.139.02-.477.029-1.023a.637.637 0 0 1 .642-.63h.025v-.007zm-1.4-3.729c-5.777 0-10.461 4.637-10.461 10.356 0 5.72 4.684 10.356 10.461 10.356 5.778 0 10.462-4.636 10.462-10.356 0-5.719-4.684-10.356-10.462-10.356z"/>
        <path fill="#FF5344" d="M252.247 87.262a.77.77 0 0 1-1.022 0l-.402-.35c-3.219-2.912-5.058-4.804-5.058-7.17 0-1.924 1.228-3.41 3.159-3.41 1.086 0 2.118.475 2.817 1.299a3.701 3.701 0 0 1 2.816-1.299c1.931 0 3.158 1.486 3.158 3.41 0 2.354-1.85 4.246-5.057 7.17l-.41.35zM273.235 53.044a1.216 1.216 0 0 1-1.646 0l-.632-.566c-5.17-4.696-8.156-7.747-8.156-11.55 0-3.104 1.984-5.501 5.094-5.501a5.973 5.973 0 0 1 4.519 2.099 5.964 5.964 0 0 1 4.514-2.1c3.115 0 5.094 2.39 5.094 5.501 0 3.796-2.986 6.847-8.156 11.551l-.631.566z"/>
        <g transform="translate(27.298 141.634)">
            <mask id="f" fill="#fff">
                <use xlink:href="#e"/>
            </mask>
            <path d="M46.293.632c-.806.283-1.634.5-2.475.648-1.423.173-2.827-.21-4.246-.258a9.172 9.172 0 0 0-5.603 1.694 3.054 3.054 0 0 0-.911.921 4.608 4.608 0 0 0-.403 1.654 8.534 8.534 0 0 1-1.101 3.038c-.44.727-.984 1.391-1.387 2.144a3.274 3.274 0 0 0-.37 2.458c.132.446.394.813.495 1.252.234 1.013-.44 1.983-.895 2.916a5.437 5.437 0 0 0-.613 2.765 3.496 3.496 0 0 0 1.25 2.49c.752.527 1.65.808 2.568.804.045.109.093.213.141.318.165.35.351.688.544 1.018-.011.077-.044.157-.044.233l-.048.218c-.073.012-2.625.326-3.46 1.416-.834 1.09-3.023 1.247-3.023 1.247s-2.504.833-2.45 1.038c.052.205-.726.52-2.29.934-1.565.414-4.173 1.915-4.173 2.28 0 .367-4.116 4.414-4.116 4.829 0 .414-1.254 1.971-1.097 4.723.157 2.752.31 6.212-.315 6.8-.624.587 0 2.816 0 2.816a1.52 1.52 0 0 1 .053 1.661c-.52.934.105 4.828.105 4.828l-.052 4.047s.572 2.543-.106 2.648c-.677.105.106 1.243.106 1.243s.572 2.08-.158 3.014c-.73.933-.935 4.928-.935 4.928L.129 89.538s-.157 2.958 3.386 2.905c3.544-.052 3.496.68 3.391 1.352-.105.672.988 1.4.988 1.4s1.403.728.572 1.61c-.83.88-3.23 2.904.734 4.256a9.537 9.537 0 0 0 1.145-2.076c.336-.92.615-1.86.834-2.816.103-1.084.28-2.16.528-3.219.823 2.607 3.068 7.483 8.438 8.425 2.06.358 5.475.604 9.317.76-.145 3.054-.246 5.778-.246 5.778s.597.052 1.366.052c.934.041 1.87.024 2.802-.052a3.16 3.16 0 0 0 .508-.109 20.594 20.594 0 0 0 3.56-1.706l10.078-.261.992-.572s4.177 1.192 5.205-2.293l.552-.318c.246-.136.545-.31.875-.502l1.032.28.327-1.029.467.089c1.778.334 4.27.704 5.62.454 2.221-.414 8.579.676 11.288 1.143.295.053.596.069.895.048 2.028-.14 2.765-2.072 2.765-2.072s.355-.885.25-6.956V93.425l-.023-.298c-.02-.064-.013-.109-.02-.197-.01-.089-.033-.172-.033-.257l-.024-.19-.049-.265-.024-.15a8.622 8.622 0 0 0-.08-.37l-.037-.14c-.02-.08-.052-.18-.064-.229-.012-.048-.025-.073-.045-.145-.02-.073-.056-.16-.068-.205-.012-.045-.044-.089-.044-.133l-.081-.205-.045-.109c-.04-.096-.084-.188-.128-.281a.517.517 0 0 1-.033-.069l-.109-.2-.056-.097c-.028-.053-.06-.101-.089-.15l-.068-.104-.085-.125-.073-.1-.076-.097a5.699 5.699 0 0 0-.278-.325l-.037-.037c4.761-2.277 8.063-6.558 8.063-6.558s5.677-6.373 6.358-8.047c.681-1.673.625-5.31-3.854-9.253a5.303 5.303 0 0 0-2.903-1.179v-.028l3.004-3.315a3.185 3.185 0 0 0-.323-3.525l-1.262-1.13a6.033 6.033 0 0 0-1.209-1.774 4.592 4.592 0 0 0-2.302-1.368l-2.302-2.064-.002-.002a1.974 1.974 0 0 0-2.784.147l-4.656 5.146-2.366-2.712s-.48-1.71-1.21-1.972c-.73-.261-1.044-1.404-1.044-1.404a1.733 1.733 0 0 0-.73-1.557c-.834-.519-.572-1.557-.572-1.557.21-.414-.472-1.5-.94-1.762-.467-.262-.257-.47-.31-1.3-.052-.828-.681-1.605-1.878-2.747-1.198-1.143-1.303-3.637-2.242-6.076-.94-2.438-1.984-2.128-2.399-2.543-.415-.414-3.18-.981-4.588-1.71-1.406-.728-6.647.347-6.647.347a7.844 7.844 0 0 1-.057-.89v-.318a11.894 11.894 0 0 0 8.526-11.39c.002-.83-.086-1.658-.261-2.47-.02-.1-.045-.197-.069-.297.613-.105 1.314-.024 1.823-.355.507-.33.7-.957.842-1.536.274-1.13.496-2.313.23-3.444a4.732 4.732 0 0 0-.404-1.05l.025.084c-.698-1.44-2.032-2.579-2.943-3.934C53.71 3.867 53.106 1.899 51.583.9 50.805.393 49.902.2 48.971.2c-.898 0-1.82.18-2.68.433zm7.893 60.1c.448-.845.94-4.04.984-4.338l.012-.007 3.87 5.87-.48.12-.33.073a.533.533 0 0 1 .113-.266s-2.19.089-4.285.254a5.598 5.598 0 0 1 .116-1.706zm16.348 6.586c-.58.278-.92.459-.92.459s-9.227 3.202-9.538 3.886c-.31.684-3.023 1.106-4.745 2.011a4.52 4.52 0 0 1-.08-.297c1.947-.515 3.648-1.135 3.705-1.424a4.665 4.665 0 0 0-.07-.857c.118-.073.198-.141.198-.193a11.464 11.464 0 0 0-.19-1.714l.307-.048 3.629-.576h.008a36.252 36.252 0 0 0 4.612-.857l.665.069 2.419-.46z" mask="url(#f)"/>
        </g>
        <g>
            <path fill="#65617D" d="M72.467 222.429c1.34-.105 24.683-8.25 29.014-8.04 4.33.211 1.077 4.931-3.969 16.808-5.047 11.876-19.013 13.9-19.013 13.9s-24.433.267-31.748-1.028c-7.315-1.295-8.759-10.063-8.759-10.063-1.29-29.623 33.136-11.472 34.475-11.577"/>
            <path fill="#000" d="M72.467 222.429c1.34-.105 24.683-8.25 29.014-8.04 4.33.211 1.077 4.931-3.969 16.808-5.047 11.876-19.013 13.9-19.013 13.9s-24.433.267-31.748-1.028c-7.315-1.295-8.759-10.063-8.759-10.063-1.29-29.623 33.136-11.472 34.475-11.577"/>
            <path fill="#3F3D56" d="M103.733 236.79c-.044-2.469-.688-3.978-1.444-4.897a3.755 3.755 0 0 0-2.413-1.43l-7.141.519s-9.02 5.44-9.277 5.667c-.258.227-2.32 7.108-2.32 7.108s.844.207 2.01.43c1.757.335 4.222.703 5.553.453 2.216-.418 8.505.676 11.184 1.141.29.053.586.07.88.049 2.007-.138 2.735-2.073 2.735-2.073s.354-.882.233-6.966"/>
            <path fill="#000" d="M103.717 236.823c-.105-6.072-3.865-6.327-3.865-6.327a8.894 8.894 0 0 1 2.815 7.468l.04 5.032a30.397 30.397 0 0 1-1.942 2.834c2.007-.138 2.734-2.073 2.734-2.073s.322-.862.218-6.934M76.69 230.063l-.04-.057c-.515-.882-1.493-.311-2.731-.25-1.239.06-8.284-9.036-9.74-9.76-1.456-.725-4.218.458-4.27-.81-.049-1.04-1.23-1.898-1.657-2.17-1.705.074-2.835.13-2.835.13l10.455 10.375 6.648 5.238 4.17-2.696z"/>
            <path fill="#000" d="M99.876 230.464l-7.141.518s-9.02 5.44-9.278 5.667c-.257.227-2.32 7.108-2.32 7.108s.844.206 2.01.43c2.792-1.656 6.407-3.867 6.688-4.372.463-.83 6.7-5.396 11.75-7.574.246-.105.483-.215.72-.332a3.757 3.757 0 0 0-2.429-1.445"/>
            <path fill="#65617D" d="M112.507 207.808c-4.431-3.943-16.853 2.696-16.853 2.696s-9.128 3.193-9.438 3.861c-.31.668-2.992 1.093-4.693 1.996-1.7.903-4.274.79-4.274.79a8.649 8.649 0 0 1-2.815-.191c-1.138-.255-10.17.09-15.253.312-2.047.089-3.454.157-3.454.157l10.455 10.375 6.647 5.238 4.637-3L96.84 217.52c-.74.51-8.706 5.979-9.273 7.173-.567 1.193-2.01 2.125-2.01 2.125s-2.112 2.335-3.246 2.477a6.855 6.855 0 0 0-2.32 1.04c-.338.22-.567.385-.567.385s-1.03 2.477-3.398 3.57a7.276 7.276 0 0 0-2.626 2.182c-.651.85-1.005 1.566-1.086 1.62-.156.104.515 1.87.567 2.023.025.077 1.693 1.457 3.41 2.858 1.718 1.4 3.443 2.797 3.443 2.797l.743-.433c.37-.198.853-.482 1.408-.81l.635-.372c2.84-1.676 6.86-4.117 7.162-4.651.463-.83 6.696-5.396 11.747-7.574 5.05-2.178 8.61-6.845 8.61-6.845s5.613-6.383 6.284-8.043c.672-1.66.616-5.29-3.816-9.233"/>
            <path fill="#EE8E9E" d="M73.32 173.793a7.976 7.976 0 0 1-.053-.894c-.002-1.193.2-2.377.596-3.502 2.2-6.59-13.673-5.76-13.673-5.76-.081 1.3-.25 2.593-.503 3.87-.036.186-.08.376-.124.563-.358 1.51-.905 2.894-1.741 3.299-.945.437-.379 4.477.49 8.642.977 4.708 2.34 9.565 2.34 9.565l2.188 3.643 2.196 3.643 7.576-.518 2.059-12.034 1.608-5.343a7.492 7.492 0 0 1-2.96-5.174"/>
            <path fill="#E3E8F4" d="M73.316 173.773s-2.501 3.23-2.035 4.89c.466 1.66-.105 2.02-.515 2.384-.41.364-.671 1.923-.567 3.271.105 1.348-1.287 4.513-1.287 4.513s-.82 2.672-.663 3.554c.157.883-.008 1.036-.153 1.66-.145.623-.857-.004-1.753-.364-.897-.36-1.464-2.696-1.207-4.98.19-1.667-2.622-5.666-4.15-7.69a31.58 31.58 0 0 0-.948-1.215l-1.726.187-2.244.238-.929 5.384 1.392 10.375s-1.195 16.07 2.457 21.62c.14.19.33.338.547.428 3.02 1.474 15.445.025 15.445.025l1.287-19.584 1.444-3.578 1.291-7.731.567-9.076-6.253-4.31z"/>
            <path fill="#000" d="M62.969 193.118c-.213-2.947-.676-5.999-1.609-7.65 0 0 .262-1.66-.1-2.591a5.838 5.838 0 0 1-.133-1.935c.048-1.036.185-2.024.185-2.024l-1.608-10.974c-.354 1.506-.905 2.89-1.742 3.295-.945.441-.378 4.477.49 8.643l-2.243.238-.929 5.384 1.391 10.375s-1.194 16.07 2.457 21.62c.14.19.33.339.547.428l2.976-1.659.515-15.512s.117-3.736-.197-7.638"/>
            <path fill="#3F3D56" d="M61.002 178.728s-.414 3.011-.052 3.942c.362.932.105 2.591.105 2.591 2.163 3.842 1.805 15.305 1.805 15.305l-.519 15.512s-20.93 11.67-22.362 12.5c-1.432.83-.402 2.853-.402 2.853s.1 2.494-.62 3.008c-.72.514-1.081 4.453-1.081 4.453-.21.95-.48 1.887-.804 2.805a9.484 9.484 0 0 1-1.134 2.072c-3.938-1.348-1.545-3.36-.72-4.254.824-.894-.567-1.62-.567-1.62s-1.086-.724-.982-1.4c.105-.676.153-1.4-3.35-1.348-3.502.053-3.35-2.906-3.35-2.906l11.032-16.131s.2-3.995.924-4.93c.724-.935.157-3.008.157-3.008s-.776-1.146-.104-1.247c.671-.1.104-2.643.104-2.643l.053-4.048s-.62-3.89-.105-4.825a1.543 1.543 0 0 0-.052-1.66s-.62-2.23 0-2.8c.619-.571.462-4.049.31-6.797-.153-2.749 1.081-4.307 1.081-4.72 0-.413 4.074-4.465 4.074-4.825 0-.36 2.577-1.87 4.121-2.283 1.545-.413 2.329-.7 2.268-.931-.06-.23 2.413-1.04 2.413-1.04s2.164-.154 2.988-1.243c.825-1.089 3.422-1.417 3.422-1.417l1.347 11.035z"/>
            <path fill="#000" d="M71.848 178.728c.72.89 1.315 4.72 1.315 4.72s-.073 6.375.595 8.298c.668 1.923.615 9.184.615 9.184s-.514 8.493-.205 8.906c.31.413.672 8.379.672 8.379s7.99.077 6.956-.753c-1.033-.83-2.014-12.97-1.548-13.852.467-.882.981-4.355.981-4.355s10.508-9.128 10.717-9.545c.21-.417-.458-1.506-.924-1.765-.467-.26-.258-.47-.31-1.3-.052-.83-.676-1.602-1.858-2.748-1.182-1.146-1.29-3.631-2.216-6.072-.924-2.441-1.954-2.125-2.368-2.542-.415-.417-3.145-.988-4.536-1.712-1.392-.725-6.571.348-6.571.348s-2.035 3.919-1.315 4.809"/>
            <path fill="#3F3D56" d="M72.005 178.566c.72.89 1.31 4.72 1.31 4.72s-.076 6.383.596 8.302c.671 1.919.62 9.18.62 9.18s-.512 8.49-.206 8.906c.305.417.668 8.38.668 8.38s7.986.076 6.956-.754c-1.029-.83-2.006-12.965-1.544-13.848.463-.882.977-4.36.977-4.36s10.516-9.131 10.721-9.544c.205-.413-.466-1.506-.929-1.765-.462-.26-.257-.466-.31-1.295-.052-.83-.667-1.607-1.853-2.749-1.187-1.141-1.287-3.635-2.216-6.072-.929-2.436-1.962-2.129-2.373-2.542-.41-.413-3.14-.98-4.531-1.708-1.392-.729-6.575.348-6.575.348s-2.031 3.91-1.311 4.8"/>
            <path fill="#000" d="M60.202 163.609c-.081 1.3-.25 2.593-.502 3.87a11.787 11.787 0 0 0 10.19 5.885 11.605 11.605 0 0 0 3.374-.493c-.002-1.193.199-2.377.594-3.502 2.216-6.59-13.656-5.76-13.656-5.76"/>
            <path fill="#EE8E9E" d="M81.435 158.703c-1.158-5.488-5.97-9.412-11.544-9.413-6.518-.001-11.803 5.317-11.804 11.878-.001 6.562 5.282 11.882 11.8 11.883 6.52.001 11.804-5.318 11.805-11.879 0-.83-.086-1.657-.257-2.47"/>
            <path fill="#3F3D56" d="M81.177 198.78l4.307 6.644.981 2.542 2.164 1.295 2.473.935 3.04.308 4.898-.931.567-9.234s-1.086-.109-.929-.47c.157-.36-.72-1.088-.72-1.088l-2.372-2.749s-.459-1.712-1.183-1.971c-.723-.259-1.033-1.4-1.033-1.4a1.733 1.733 0 0 0-.72-1.555 1.491 1.491 0 0 1-.567-1.558l-2.815-.883-8.09 10.116z"/>
            <path fill="#EE8E9E" d="M97.512 208.844s7.375.417 8.92.676c1.543.26 8.138-7.731 3.45-12.658-4.69-4.926-10.979 4.202-10.979 4.202l-1.391 7.78z"/>
            <path fill="#3F3D56" d="M112.926 183.017l11.053 21.799a.625.625 0 0 1-.27.838l-28.206 14.492a.618.618 0 0 1-.833-.272l-11.053-21.798a.626.626 0 0 1 .27-.839l28.206-14.492a.617.617 0 0 1 .833.272"/>
            <path fill="#FFBD00" d="M120.81 204.429l-24.635 12.656L86.7 198.4l24.635-12.657z"/>
            <path fill="#E6E8EC" d="M91.086 208.334a.75.75 0 0 1-.748.753.75.75 0 0 1-.748-.753.75.75 0 0 1 .748-.753.75.75 0 0 1 .748.753"/>
            <path fill="#EE8E9E" d="M88.239 203.456c-.37.774-2.136 1.324-3.495 1.644-.924.214-1.66.328-1.66.328l.671 6.703 1.609-.26 3.595-.57s14.07-1.453 14.018-8.302c-.053-6.861-14.119-.846-14.738.457"/>
            <path fill="#000" d="M81.43 158.735a11.907 11.907 0 0 0-.863-2.583c-2.772-5.938-9.802-8.489-15.702-5.698-5.899 2.792-8.433 9.868-5.66 15.806a9.206 9.206 0 0 0 3.261-.506 2.53 2.53 0 0 1 1.263-.218c.603.133.522.494.78.943.35.61 1.685.728 1.958-.049.06-.244.06-.5 0-.745a2.537 2.537 0 0 1 .495-2.023c.66-.75 1.777-.822 2.763-.947.985-.126 2.127-.51 2.412-1.474.202-.692-.104-1.534.334-2.11.207-.229.47-.4.764-.493.723-.33 1.536-.4 2.304-.198 1.316.425 2.112 1.983 3.48 2.177.206.042.421.017.614-.068.54-.263.54-1.016.941-1.441.232-.231.536-.375.86-.405l-.003.032z"/>
            <path fill="#3F3D56" d="M64.509 166.13c-.257-.448-.177-.817-.78-.943a2.57 2.57 0 0 0-1.263.22 9.115 9.115 0 0 1-3.325.501 4.402 4.402 0 0 1-2.614-.81 3.476 3.476 0 0 1-1.235-2.485 5.48 5.48 0 0 1 .603-2.765c.45-.935 1.114-1.902.885-2.914-.088-.441-.358-.822-.49-1.251a3.29 3.29 0 0 1 .37-2.457c.39-.753.932-1.417 1.367-2.145a8.502 8.502 0 0 0 1.085-3.036c.037-.57.173-1.13.403-1.652.233-.367.541-.68.904-.919a8.967 8.967 0 0 1 5.542-1.695c1.38.048 2.799.428 4.194.258a15.422 15.422 0 0 0 2.449-.647c1.73-.539 3.711-.745 5.228.27 1.516 1.017 2.107 2.96 3.124 4.494 1.094 1.664 2.807 2.971 3.257 4.902.262 1.13.045 2.311-.229 3.44-.14.584-.334 1.215-.832 1.535-.768.498-1.955.065-2.578.733-.398.424-.422 1.177-.941 1.44-.193.086-.408.11-.615.07-1.367-.195-2.164-1.774-3.478-2.178a3.464 3.464 0 0 0-2.305.198 1.74 1.74 0 0 0-.764.494c-.438.57-.132 1.417-.334 2.113-.281.963-1.423 1.332-2.412 1.47-.99.137-2.104.198-2.763.946a2.52 2.52 0 0 0-.49 2.024c.057.245.057.5 0 .745-.274.777-1.61.66-1.963.045"/>
            <path fill="#000" d="M77.466 230.088a1.468 1.468 0 0 1-.784-.47l-.04-.057c-.516-.882-1.493-.295-2.731-.25-1.239.044-8.276-9.064-9.732-9.785-1.456-.72-4.218.462-4.27-.81a2.274 2.274 0 0 0-.728-1.416c-2.047.09-3.455.158-3.455.158l10.456 10.375 6.647 5.238 4.637-2.983z"/>
            <path fill="#65617D" d="M80.554 231.006l-.804-.234-.097-.033h-.711c-.76-.02-1.906-.146-2.289-.676l-.04-.057c-.514-.882-1.492-.311-2.73-.25-1.239.06-8.284-9.035-9.74-9.76-1.456-.724-4.218.457-4.27-.81-.049-1.04-1.231-1.898-1.657-2.17l-.149-.092s-.519-5.639-11.445-1.955c-10.926 3.683-6.599 16.547-6.599 16.547 1.906 3.542 4.203 4.44 6.265 4.242a16.942 16.942 0 0 1 9.708 2.134 13.516 13.516 0 0 0 5.63 1.51l15.619 4.319 3.51.967 1.608.437.523-1.684 3.342-10.735-5.674-1.7z"/>
            <path fill="#000" d="M84.744 205.1c-.925.214-1.66.327-1.66.327l.671 6.688 1.609-.26c-.314-2.217-.865-5.824-.62-6.755"/>
            <path fill="#000" d="M53.684 191.576c-.21.83.563 1.501.563 1.501 2.63 2.96 4.021 10.845 4.021 10.845.314.328.56.716.724 1.141a.546.546 0 0 0 .772.36s1.235-.206 1.391 0c.345.242.721.434 1.118.571 0 0 1.002-.307 1.609.106.607.412 2.216.259 2.216.259 4.688-1.822 7.06.259 7.833.404.772.146 1.805.51 2.525 0s7.935-.809 7.935-.809c-.616.57.828 8.197.723 8.715-.104.518-5.513 2.13-8.09 2.23a11.603 11.603 0 0 0-4.637 1.247s-3.35.158-7.938.883c-4.589.724-14.79-3.79-14.79-3.79s-8.88-8.662-10.054-22.356c-1.174-13.694 3.62-12.293 3.62-12.293 6.184-1.66 10.668 10.156 10.459 10.986"/>
            <path fill="#3F3D56" d="M53.812 190.523c-.205.83.567 1.502.567 1.502 2.63 2.96 4.022 10.844 4.022 10.844.314.328.558.717.72 1.142a.545.545 0 0 0 .772.36s1.238-.206 1.39 0c.346.242.724.435 1.123.571 0 0 .997-.308 1.608.105.612.413 2.22.26 2.22.26 4.69-1.822 7.054.254 7.83.404.776.15 1.801.51 2.525 0s7.938-.81 7.938-.81c-.619.571.82 8.194.72 8.716-.1.522-5.513 2.128-8.09 2.23a11.604 11.604 0 0 0-4.642 1.23s-3.353.158-7.938.883c-4.584.724-14.79-3.789-14.79-3.789s-8.88-8.662-10.053-22.356c-1.175-13.694 3.619-12.294 3.619-12.294 6.18-1.643 10.665 10.173 10.46 11.002"/>
            <path fill="#000" d="M79.778 230.767a7.046 7.046 0 0 1-2.911 2.668c-2.373 1.089-3.56 3.688-3.712 3.789-.153.101.515 1.866.567 2.024l.044.049 6.808-8.295-.796-.235z"/>
            <path fill="#000" d="M80.61 243.413c-.297-6.157-5.927-4.858-5.927-4.858.394-.15 3.33-3.371-1.283-2.072-.651.85-1.005 1.567-1.086 1.62-.156.104.515 1.87.567 2.023.024.077 1.693 1.458 3.41 2.858 1.717 1.4 3.443 2.797 3.443 2.797l.744-.433c.13-.636.174-1.287.132-1.935"/>
            <path fill="#3F3D56" d="M80.128 243.43c-.298-6.158-5.928-4.858-5.928-4.858.415-.158 3.66-3.737-2.115-1.817 0 0-2.11 1.615-3.297 1.404-1.187-.21-3.089.372-3.76 0-.672-.373-4.898-.778-4.898-.778a12.383 12.383 0 0 0-1.782-.91c-.82-.316-1.652-.457-1.825.178-.334 1.332-.804 13.957-.804 13.957s.59.053 1.35.053c.924.04 1.85.022 2.771-.053.17-.024.339-.061.503-.113 1.383-.405 3.518-1.704 3.518-1.704l9.945-.26.982-.57s5.637 1.627 5.34-4.53"/>
            <path fill="#565387" d="M58.348 236.459c-.82-.316-1.652-.458-1.825.178-.334 1.332-.805 13.957-.805 13.957s.591.053 1.351.053c1.207-1.716 3.234-4.963 3.342-7.574.085-2.097-1.041-4.716-2.063-6.614"/>
            <path fill="#000" d="M58.348 236.459c-.82-.316-1.652-.458-1.825.178-.334 1.332-.805 13.957-.805 13.957s.591.053 1.351.053c1.207-1.716 3.234-4.963 3.342-7.574.085-2.097-1.041-4.716-2.063-6.614"/>
            <path fill="#000" d="M60.13 237.382a12.35 12.35 0 0 0-1.782-.911c-.82-.316-1.652-.458-1.825.178-.334 1.332-.805 13.957-.805 13.957s.591.053 1.351.053c.924.04 1.85.022 2.771-.053.17-.024.339-.061.503-.113 1.09-1.708 1.082-4.538 1.765-7.064.877-3.23-1.978-6.047-1.978-6.047M87.298 225.185c4.186-5.731 9.124-7.35 9.124-7.35l-9.124 7.35z"/>
            <g fill="#000">
                <path d="M56.478 156.132a3.568 3.568 0 0 1-.169-.433c-.031-.036-.031-.072-.031-.11.085.174.152.356.2.543M83.98 156.513c-.14.583-.334 1.214-.832 1.534-.768.498-1.955.065-2.578.733-.398.425-.422 1.177-.94 1.44-.194.086-.409.11-.616.07-1.367-.195-2.163-1.773-3.479-2.178-.768-.2-1.58-.13-2.304.198a1.741 1.741 0 0 0-.764.494c-.438.57-.128 1.417-.334 2.113-.281.963-1.423 1.332-2.412 1.47-.99.137-2.104.198-2.763.947a2.518 2.518 0 0 0-.49 2.024c.057.244.057.5 0 .744-.274.777-1.61.66-1.959.049-.253-.45-.177-.818-.78-.943a2.567 2.567 0 0 0-1.263.218 9.114 9.114 0 0 1-3.325.502 4.4 4.4 0 0 1-2.614-.81 3.279 3.279 0 0 1-1.11-1.756c.198.379.471.713.804.98.765.539 1.68.822 2.614.81a9.192 9.192 0 0 0 3.326-.503c.395-.18.83-.255 1.262-.219.604.13.527.494.78.94.35.615 1.685.732 1.959-.045.057-.245.057-.5 0-.745a2.518 2.518 0 0 1 .49-2.024c.66-.753 1.774-.822 2.763-.947.99-.125 2.127-.51 2.413-1.473.205-.692-.105-1.538.334-2.11.205-.23.47-.401.764-.493.722-.33 1.535-.4 2.304-.202 1.319.429 2.111 1.987 3.478 2.182.208.04.423.014.616-.073.539-.26.539-1.032.94-1.437.624-.669 1.814-.235 2.578-.733.503-.32.692-.956.832-1.534.274-1.13.491-2.312.23-3.441-.02-.093-.048-.182-.077-.272.174.333.309.685.403 1.05.261 1.129.044 2.31-.25 3.44"/>
            </g>
            <path fill="#000" d="M53.39 192.098c-.72.093.704 2.016.925 2.348 1.166 1.756 2.546 3.364 3.47 5.262.543 1.113.942 2.348 1.806 3.238.173-1.586-.41-3.165-1.255-4.525-.844-1.36-1.914-2.546-2.855-3.83-.322-.437-1.496-2.562-2.09-2.493"/>
            <path stroke="#535461" stroke-width="2" d="M13.168 242.902s-4.62-15.793.868-27.416a25.095 25.095 0 0 0 2.012-15.658 42.12 42.12 0 0 0-2.2-7.346"/>
            <path fill="#00C6C0" d="M17.252 185.136c0 1.937-3.483 7.548-3.483 7.548s-3.479-5.611-3.479-7.548c-.06-1.935 1.452-3.552 3.374-3.611 1.923-.06 3.53 1.46 3.588 3.396.002.072.002.144 0 .215M23.007 195.859c-1.046 1.622-6.998 4.429-6.998 4.429s.108-6.62 1.154-8.24a3.468 3.468 0 0 1 4.843-.902 3.52 3.52 0 0 1 1.001 4.713M22.757 214.178c-1.716.874-8.264.271-8.264.271s3.41-5.657 5.127-6.527a3.472 3.472 0 0 1 4.632 1.684 3.517 3.517 0 0 1-1.495 4.572M19.465 228.006c-1.545 1.148-8.1 1.655-8.1 1.655s2.414-6.158 3.947-7.31a3.469 3.469 0 0 1 4.83.971 3.522 3.522 0 0 1-.69 4.657l.013.027zM8.698 200.665c1.382 1.347 7.804 2.744 7.804 2.744s-1.572-6.425-2.96-7.772a3.466 3.466 0 0 0-4.92.2 3.522 3.522 0 0 0 .07 4.828h.006zM5.055 216.876c1.716.87 8.26.268 8.26.268s-3.41-5.657-5.126-6.528a3.473 3.473 0 0 0-4.646 1.648 3.517 3.517 0 0 0 1.512 4.612M3.657 233.12c1.546 1.152 8.1 1.655 8.1 1.655s-2.414-6.157-3.947-7.306a3.469 3.469 0 0 0-4.83.971 3.522 3.522 0 0 0 .69 4.657l-.013.023z"/>
            <path fill="#A8A8A8" d="M2.236 241.91s5.627-1.126 7.13-2.626c1.503-1.5 8.251-4.122 9.001-2.248.75 1.874 10.129 8.246 3.752 9.372-6.376 1.125-15.006 1.5-16.88.751-1.875-.748-3.003-5.25-3.003-5.25"/>
        </g>
    </g>
</svg>
