<svg xmlns="http://www.w3.org/2000/svg" xmlns:xlink="http://www.w3.org/1999/xlink" width="368" height="235" viewBox="0 0 368 235">
    <defs>
        <path id="a" d="M.118.22h100.745v187.813H.118z"/>
        <path id="c" d="M0 .228h121.897v195.969H0z"/>
        <path id="e" d="M.168.124h56.666v15.698H.168z"/>
        <path id="g" d="M.168.124h56.666v15.698H.168z"/>
    </defs>
    <g fill="none" fill-rule="evenodd">
        <path fill="#3F3D56" d="M310 201.65a197.777 197.777 0 0 1-7.746 4.515c-.409.225-.817.45-1.226.682A188.63 188.63 0 0 1 295 210a15.075 15.075 0 0 1 1.594-5.343 12.23 12.23 0 0 1 1.306-2.047c1.993-2.536 4.76-3.952 7.586-3.54a7.335 7.335 0 0 1 4.514 2.58"/>
        <path fill="#3F3D56" d="M314.84 197.981c-.051.363-.116.719-.193 1.071-1.474.952-2.968 1.88-4.484 2.784a200.38 200.38 0 0 1-7.804 4.486c-.412.224-.824.447-1.235.678a8.244 8.244 0 0 1-1.35-1.251 10.505 10.505 0 0 1-1.792-2.946 14.745 14.745 0 0 1 2.025-14.217c2.024-2.519 4.794-3.926 7.642-3.515 2.848.41 5.129 2.549 6.35 5.532a14.234 14.234 0 0 1 .84 7.378"/>
        <path fill="#3F3D56" d="M299.157 181.245c.919-6.313 5.623-10.869 10.507-10.175 4.884.693 8.098 6.373 7.18 12.685-.92 6.313-5.624 10.868-10.508 10.175-4.884-.693-8.098-6.373-7.18-12.685"/>
        <g transform="translate(267 18)">
            <mask id="b" fill="#fff">
                <use xlink:href="#a"/>
            </mask>
            <path fill="#00C6C0" d="M100.42 48.538a42.024 42.024 0 0 1-6.418 17.012L68.87 61.782l22.714 7.097a43.24 43.24 0 0 1-3.996 4.35c9.887 16.96 6.775 38.42-7.533 51.938a41.924 41.924 0 0 1 5.712 22.914c-10.685 12.317-23.72 23.365-38.62 32.791-1.482.93-2.982 1.842-4.5 2.734-2.553 1.523-5.158 3-7.813 4.427a40.83 40.83 0 0 1-2.587-.58 41.07 41.07 0 0 1-3.111-.913c-22.393-7.569-34.352-31.687-26.71-53.87a42.391 42.391 0 0 1 10.962-16.99 40.619 40.619 0 0 1-1.226-2.251c-.115-.221-.223-.442-.338-.67a41.89 41.89 0 0 1-4.121-20.712l.05-.74c.031-.397.068-.799.109-1.197.06-.562.131-1.128.212-1.693v-.054a41.853 41.853 0 0 1 4.182-13.1l30.642 15.285-27.94-19.835a42.615 42.615 0 0 1 5.946-6.974C9.154 43.395 16.279 17.47 36.817 5.83 57.355-5.807 83.53 1.25 95.278 21.594a42.28 42.28 0 0 1 2.497 5.082l-34.41 18.233L99.63 32.37a41.932 41.932 0 0 1 .79 16.168" mask="url(#b)"/>
        </g>
        <path fill="#000" d="M352.966 166.055c-10.725 12.31-23.81 23.354-38.767 32.775a148.53 148.53 0 0 1-4.507 2.745A201.933 201.933 0 0 1 301.85 206a41.139 41.139 0 0 1-2.597-.579 41.41 41.41 0 0 1-3.123-.913c-22.48-7.565-34.484-31.671-26.813-53.842a42.35 42.35 0 0 1 11.005-16.982 40.647 40.647 0 0 1-1.231-2.25c-.116-.221-.224-.442-.34-.67a41.714 41.714 0 0 1-4.136-20.7l.05-.74c.031-.398.068-.8.11-1.197.06-.562.131-1.127.213-1.693v-.053c.264-.903 3.764-.144 9.094 1.672l1.126.395c1.18.418 2.438.88 3.76 1.385a264.373 264.373 0 0 1 9.437 3.822l.22.094.468.2c22.617 9.672 52.369 25.19 48.103 29.197a41.758 41.758 0 0 1 5.771 22.909"/>
        <path fill="#3F3D56" d="M107 223c-1.435-.5-2.86-1.012-4.274-1.539A218.068 218.068 0 0 1 93 217.597a7.084 7.084 0 0 1 2.17-1.21c2.845-.982 5.971-.044 8.516 2.216A14.525 14.525 0 0 1 107 223"/>
        <path fill="#3F3D56" d="M103.726 218.146c-.19.99-.507 1.95-.944 2.854a212.483 212.483 0 0 1-9.563-3.86 202.804 202.804 0 0 1-8.063-3.674 15.943 15.943 0 0 1-.154-2.473c.011-.862.101-1.721.269-2.566.671-3.373 2.573-6.059 5.374-7.04 2.802-.981 5.872-.044 8.375 2.216a13.427 13.427 0 0 1 1.66 1.805 16.101 16.101 0 0 1 2.512 4.83 15.767 15.767 0 0 1 .534 7.908"/>
        <path fill="#3F3D56" d="M85.801 187.324c4.831-1.523 10.404 2.47 12.447 8.917 2.042 6.45-.218 12.911-5.05 14.435-4.83 1.523-10.403-2.469-12.446-8.918-2.042-6.448.218-12.91 5.05-14.434"/>
        <path fill="#3F3D56" d="M80.804 172.324c4.832-1.522 10.403 2.471 12.445 8.92 2.041 6.448-.221 12.91-5.053 14.432-4.832 1.523-10.404-2.471-12.445-8.92-2.041-6.449.221-12.91 5.053-14.432"/>
        <g transform="translate(0 15)">
            <mask id="d" fill="#fff">
                <use xlink:href="#c"/>
            </mask>
            <path fill="#00C6C0" d="M100.031 190.33a42.914 42.914 0 0 1-12.3 4.879 40.074 40.074 0 0 1-3.25.604c-1.347.195-2.69.323-4.03.384-16.107-8.087-30.567-17.979-42.907-29.276-.176-.478-.333-.96-.503-1.448a46.392 46.392 0 0 1 .153-29.515c-8.251-5.6-14.413-13.828-17.506-23.375a46.543 46.543 0 0 1-2.334-14.488h34.91l-34.57-5.586a46.243 46.243 0 0 1 2.147-9.434C11.59 77.477 5.427 69.249 2.334 59.703-5.419 36.08 6.771 10.512 29.561 2.58c15.257-5.303 31.393-1.348 42.723 8.928L49.568 45.121l27.046-29.083a45.626 45.626 0 0 1 8.24 14.966 46.486 46.486 0 0 1 2.094 19.204L62.404 58.53l23.9-4.02a45.93 45.93 0 0 1-1.603 6.011c8.251 5.6 14.414 13.826 17.507 23.373a46.533 46.533 0 0 1 2.333 14.097V99.61a46.26 46.26 0 0 1-2.47 13.814 44.143 44.143 0 0 1 9 8.103 45.561 45.561 0 0 1 8.493 15.27c6.824 20.787-1.813 43.092-19.533 53.533" mask="url(#d)"/>
        </g>
        <path fill="#000" d="M100.19 206.101a42.638 42.638 0 0 1-15.516 5.512 40.642 40.642 0 0 1-4.022.387c-16.071-8.131-30.5-18.079-42.813-29.439-.176-.48-.333-.965-.502-1.457a46.995 46.995 0 0 1 .153-29.679c-8.234-5.631-14.383-13.905-17.469-23.506-1.194-3.666 48.6-6.624 71.281-3.788l.53.068c6.884.904 11.111 2.371 10.376 4.543a44.176 44.176 0 0 1 8.98 8.148 45.93 45.93 0 0 1 8.475 15.355c6.826 20.928-1.792 43.357-19.474 53.856"/>
        <path fill="#FF5344" d="M127.966 79.375c.183-.26.284-.569.29-.886 0-1.93-3.937-3.489-8.79-3.489-4.854 0-8.784 1.573-8.784 3.489.007.366.133.719.36 1.006-5.402.6-9.042 1.731-9.042 3.02C102 84.44 110.067 86 120 86s18-1.56 18-3.486c-.003-1.382-4.09-2.57-10.034-3.14"/>
        <g transform="translate(226 1)">
            <mask id="f" fill="#fff">
                <use xlink:href="#e"/>
            </mask>
            <path fill="#FF5344" d="M41.044 6.376c.288-.373.447-.816.457-1.271 0-2.75-6.193-4.981-13.833-4.981-7.64 0-13.834 2.23-13.834 4.98.014.517.215 1.014.57 1.417C5.898 7.38.168 8.993.168 10.84c0 2.75 12.666 4.98 28.333 4.98 15.667 0 28.333-2.23 28.333-4.98 0-1.96-6.436-3.653-15.79-4.465" mask="url(#f)"/>
        </g>
        <g transform="translate(115 1)">
            <mask id="h" fill="#fff">
                <use xlink:href="#g"/>
            </mask>
            <path fill="#FF5344" d="M41.044 6.376c.288-.373.447-.816.457-1.271 0-2.75-6.193-4.981-13.833-4.981-7.64 0-13.834 2.23-13.834 4.98.014.517.214 1.014.57 1.417C5.898 7.38.168 8.993.168 10.84c0 2.75 12.683 4.98 28.333 4.98 15.65 0 28.333-2.23 28.333-4.98 0-1.96-6.436-3.653-15.79-4.465" mask="url(#h)"/>
        </g>
        <path stroke="#FFBD00" stroke-width="3" d="M120 38.306c.75-.436 1.755-.02 2.267.682.512.701.66 1.616.788 2.466.285 1.91.49 4.105-.785 5.546 2.085-6.39 8.089-11.286 14.73-12M207 4.215c.484-.291 1.138 0 1.47.453.296.497.47 1.062.507 1.645.184 1.274.322 2.735-.506 3.687 1.445-4.34 5.143-7.444 9.529-8M265 66.215c.484-.291 1.138 0 1.47.453.296.497.47 1.062.507 1.645.184 1.274.322 2.735-.506 3.687 1.445-4.34 5.143-7.444 9.529-8"/>
        <path fill="#2F2E41" d="M183.794 22.942c-1.427 1.198-2.433 2.735-4 3.816-1.886 1.305-4.362 1.8-6.665 2.5s-4.666 1.798-5.593 3.703c-.786 1.63-.333 3.521-1 5.188-.716 1.771-2.576 3.013-3.999 4.442-2.813 2.819-4.062 6.695-3.332 10.31.503 2.501 1.88 4.811 2.696 7.251 1 2.986 1.14 6.116 1.28 9.213.26 5.814.516 11.686-.787 17.407-.333 1.436-1.233 23.271-2.976 23.228 4.626-.398 9.278-.442 13.927-.489l69.655-.67c-3.21-4.217-5.26-29.143-5.939-34.114-1.173-8.57 1.666-17.149 2-25.775.046-1.112.046-2.253-.41-3.298-.48-1.094-1.44-2.028-1.76-3.163-.46-1.624.463-3.287.493-4.954.06-3.348-3.332-5.915-6.022-8.396-2.593-2.387-4.75-5.098-7.425-7.425-2.677-2.326-6.04-4.298-9.865-4.656-3.143-.291-6.266.529-9.275 1.339-3.59.964-7 2.183-10.809 2.122-4.202-.073-6.792.278-10.194 2.42"/>
        <g fill="#000">
            <path d="M232.378 37.286c.097.372.24.73.422 1.066a6.334 6.334 0 0 0-.54-2.21c-.014.385.026.77.118 1.144M164.487 91.783l-.389.034c.13.003.26-.009.389-.034"/>
        </g>
        <path fill="#FBBEBE" d="M236.493 213.376c-.421.339-.925.55-1.454.614-8.45 1.799-16.975 3.334-25.59 3.82-7.6.432-15.223.045-22.827-.342-7.604-.387-15.2-.778-22.622-2.371a61.472 61.472 0 0 0 5.716-20.495c.313-3.13.389-6.28.228-9.423a10.83 10.83 0 0 0-.132-1.127c-.353-2.254-1.225-5.52-.433-7.15 1.018-2.098 4.928-2.167 6.837-2.557a163.475 163.475 0 0 1 9.781-1.676c12.997-1.833 26.125-2.251 39.221-2.66 1.758-.054 3.853.07 4.768 1.629.512.873.486 1.963.46 2.987a91.948 91.948 0 0 0 .063 6.655 91.812 91.812 0 0 0 6.007 28.67c.436 1.12.836 2.587-.023 3.426M183.977 92.882c-1.407 1.796-3.39 3.002-5.386 4.063a66.068 66.068 0 0 1-7.354 3.375c-.509.799-.105 1.859.336 2.71 3.948 7.943 9.233 15.838 17.203 19.252 4.09 1.744 8.577 2.18 12.986 2.588 1.374.125 2.774.251 4.114-.09 1.34-.343 2.584-1.169 3.702-2.045 7.303-5.725 12.112-14.22 13.37-23.618.107-.833.107-1.855-.583-2.301-.42-.269-.956-.217-1.45-.213-3.229.035-6.09-2.441-7.58-5.402-1.492-2.96-1.889-6.374-2.256-9.698 0-.073-18.977-.488-20.69-.502-2.673-.024-3.555.3-3.814 3.139-.272 3.131-.61 6.19-2.598 8.742"/>
        <path fill="#000" d="M183.977 92.882c-1.407 1.796-3.39 3.002-5.386 4.063a66.068 66.068 0 0 1-7.354 3.375c-.509.799-.105 1.859.336 2.71 3.948 7.943 9.233 15.838 17.203 19.252 4.09 1.744 8.577 2.18 12.986 2.588 1.374.125 2.774.251 4.114-.09 1.34-.343 2.584-1.169 3.702-2.045 7.303-5.725 12.112-14.22 13.37-23.618.107-.833.107-1.855-.583-2.301-.42-.269-.956-.217-1.45-.213-3.229.035-6.09-2.441-7.58-5.402-1.492-2.96-1.889-6.374-2.256-9.698 0-.073-18.977-.488-20.69-.502-2.673-.024-3.555.3-3.814 3.139-.272 3.131-.61 6.19-2.598 8.742"/>
        <path fill="#FBBEBE" d="M199 37c14.36 0 26 11.64 26 26s-11.64 26-26 26-26-11.64-26-26 11.64-26 26-26"/>
        <path fill="#FF5344" d="M218.523 93.996c.285 3.599-38.675 6.968-40.145 2.529-.873 1.023-2.474 1.106-3.75.666-1.275-.44-2.349-1.286-3.557-1.909-2.014-1.043-4.283-1.43-6.515-1.806-3.636-.61-7.858-1.057-10.55 1.446-.93.863-1.564 2-2.497 2.866-1.632 1.506-3.938 1.976-6.042 2.666-3.038 1-5.837 2.6-8.707 3.999a77.542 77.542 0 0 1-21.21 6.805c-1.568.263-3.145.476-4.7.846-2.181.52-4.363 1.41-5.85 3.08 1.739 2.205 4.236 3.408 6.918 4.278l25.88 8.398c3.893 1.263 7.847 2.553 11.254 4.815 5.676 3.76 9.368 9.938 11.388 16.406 2.021 6.468 2.541 13.293 3.045 20.048.218 2.936.416 5.998-.745 8.718a68.446 68.446 0 0 0 18.125-.297c5.777-.873 11.49-2.493 17.334-2.44 6.377.064 12.556 2.117 18.843 3.226 6.287 1.11 13.225 1.144 18.522-2.399-1.128-1.51-1.3-3.666-1.343-5.538l-.134-8.875a13.06 13.06 0 0 1 .215-3.199c.45-1.9 1.715-3.492 2.524-5.268 1.56-3.43 1.343-7.348 1.43-11.11.087-3.763.617-7.805 3.179-10.558 1.678-1.796 4.027-2.816 6.41-3.446 4.075-1.08 8.338-1.15 12.547-1.446A112.982 112.982 0 0 0 300 116.257c-.745-1.564-2.477-2.45-4.058-3.176-3.74-1.717-7.7-3.476-11.802-3.093-1.984.187-3.947.873-5.924.623-1.873-.24-3.532-1.293-5.35-1.796-1.38-.38-2.823-.437-4.24-.65-3.27-.496-6.337-1.833-9.361-3.156l-7.64-3.332c-2.014-.883-4.112-1.826-5.495-3.532-.45-.557-.812-1.183-1.302-1.707-.843-.896-2.014-1.426-3.185-1.796a10.387 10.387 0 0 0-4.589-.5c-1.061.21-2.11.482-3.139.817-5.047 1.353-10.257-.054-15.392-.963"/>
        <path fill="#2F2E41" d="M248 228.464A248.601 248.601 0 0 1 205.734 235H169.925A249.114 249.114 0 0 1 151 232.97a68.762 68.762 0 0 1 7.522-15.72c.505-.691.9-1.46 1.171-2.277.15-.76.225-1.533.227-2.308a11.273 11.273 0 0 1 2.588-6.446 67.486 67.486 0 0 0 28.19 8.228c4.768.248 9.547.15 14.302-.293 10.722-.876 21.87-2.899 30.506-9.322.363-.268.722-.546 1.077-.832 4.197 3.784 6.625 9.583 8.362 15.005 1.033 3.171 1.988 6.336 3.055 9.46"/>
        <path fill="#000" d="M199.183 208c-.375 1.02-.167 2.127.564 3 .492-.922.253-2.004-.602-2.717l.038-.283z"/>
        <path fill="#FBBEBE" d="M183.949 97.37c1.351-.715 2.81-1.35 4.35-1.37 2.312-.02 4.38 1.35 6.094 2.862a30.603 30.603 0 0 1 4.277 4.596c.627.827 1.226 1.734 1.32 2.757.094 1.022-.484 2.173-1.515 2.416a2.742 2.742 0 0 1-1.877-.368c-2.382-1.269-4.148-4.174-6.85-3.89-1.853.192-3.107 1.862-4.12 3.374-.903 1.35-1.815 2.736-2.219 4.295-.404 1.56-.209 3.375.912 4.55.871.92 2.143 1.349 3.33 1.828a23.293 23.293 0 0 1 7.094 4.461c1 .925 1.95 2.025 2.09 3.375.139 1.35-.916 2.834-2.296 2.74a3.735 3.735 0 0 1-1.702-.719c-2.494-1.596-5.04-3.27-7.965-3.857-2.978-.597-6.053 0-9.055.445-3.292.478-6.6.817-9.926 1.02a8.553 8.553 0 0 1-2.95-.186c-3.287-.985-4.244-5.038-3.862-7.967.408-3.132 2.786-3.844 5.273-5.4 6.993-4.433 12.182-11.047 19.597-14.962"/>
        <path fill="#FBBEBE" d="M209.053 97.37c-1.355-.715-2.811-1.35-4.354-1.37-2.314-.02-4.383 1.35-6.097 2.862a30.635 30.635 0 0 0-4.275 4.596c-.624.827-1.223 1.734-1.317 2.757-.094 1.022.48 2.173 1.512 2.416a2.753 2.753 0 0 0 1.881-.368c2.383-1.269 4.15-4.174 6.85-3.89 1.857.192 3.11 1.862 4.121 3.374.903 1.35 1.819 2.736 2.22 4.295.4 1.56.208 3.375-.913 4.55-.868.92-2.143 1.349-3.33 1.828a23.345 23.345 0 0 0-7.101 4.461c-1 .925-1.948 2.025-2.09 3.375-.143 1.35.916 2.834 2.295 2.74a3.722 3.722 0 0 0 1.704-.719c2.495-1.596 5.04-3.27 7.968-3.857 2.979-.597 6.055 0 9.058.445 3.285.5 6.599.847 9.919 1.04a8.59 8.59 0 0 0 2.954-.186c3.285-.985 4.244-5.038 3.864-7.967-.411-3.131-2.787-3.844-5.279-5.4-6.982-4.453-12.169-11.067-19.59-14.982"/>
        <path fill="#2F2E41" d="M180.466 52.903c1.527-2.135 3.34-4.451 5.818-4.698 3.46-.347 6.164 3.48 9.607 3.974 4.432.64 8.789-4.378 12.955-2.545 2.045.905 3.572 3.414 5.795 3.365 1.538-.03 2.789-1.305 3.808-2.557a46.966 46.966 0 0 0 4.551-6.67c-4.23-4.291-10.384-5.271-16.128-6.052l-9.658-1.312c-2.325-.316-4.69-.63-7.002-.193-2.09.395-4.04 1.39-5.932 2.437-2.257 1.254-7.564 3.269-8.948 5.602-.965 1.62.36 2.374 1.605 4.005 1.17 1.548 2.347 3.096 3.529 4.644"/>
        <path fill="#000" d="M167.295 111a49.099 49.099 0 0 1-12.366.885c-1.626-.087-3.258-.256-4.877-.103-1.954.186-3.831.835-5.735 1.307-9.863 2.438-20.17.056-30.238-1.28-1.778-.237-3.596-.44-5.357-.094-1.613.316-3.102 1.074-4.53 1.89a54.705 54.705 0 0 0-6.621 4.453c-2.195 1.723-4.41 3.918-4.563 6.71-.132 2.4 1.325 4.613 3.09 6.246 4.767 4.434 11.846 5.767 18.23 4.567 2.426-.456 4.793-1.241 7.247-1.514 2.513-.28 5.052 0 7.578-.12 5.132-.23 10.046-2.022 15.028-3.269A72.059 72.059 0 0 1 168 128.802a.512.512 0 0 1-.705-.363c-.586-1.623-.616-3.389-.606-5.115.026-4.188.222-8.153.606-12.324"/>
        <path fill="#FF5344" d="M165.295 113a49.099 49.099 0 0 1-12.366.885c-1.626-.087-3.258-.256-4.877-.103-1.954.186-3.831.835-5.735 1.307-9.863 2.438-20.17.056-30.238-1.28-1.778-.237-3.596-.44-5.357-.094-1.613.316-3.102 1.074-4.53 1.89a54.705 54.705 0 0 0-6.621 4.453c-2.195 1.723-4.41 3.918-4.563 6.71-.132 2.4 1.325 4.613 3.09 6.246 4.767 4.434 11.846 5.767 18.23 4.567 2.426-.456 4.793-1.241 7.247-1.514 2.513-.28 5.052 0 7.578-.12 5.132-.23 10.046-2.022 15.028-3.269A72.059 72.059 0 0 1 166 130.802a.512.512 0 0 1-.705-.363c-.586-1.623-.616-3.389-.606-5.115.026-4.188.222-8.153.606-12.324"/>
        <path fill="#000" d="M228 110.267c5.08 1.168 17.31 1.682 22.517 1.507 2.377-.074 4.748-.289 7.125-.282 4.074 0 8.141.673 12.206.4 5.25-.363 10.408-2.311 15.646-1.81 2.573.249 5.05 1.077 7.504 1.904 2.454.828 5.128 1.763 6.855 3.776 1.6 1.864 2.184 4.374 2.714 6.783.296 1.346.593 2.735.333 4.084-.497 2.56-2.834 4.294-5.077 5.586-2.668 1.534-5.595 2.853-8.669 2.782-1.823-.04-3.597-.572-5.334-1.123-4.978-1.579-10.065-3.365-15.266-2.971-3.637.282-7.271 1.635-10.849.905-2.103-.431-4-1.555-6-2.302-4.875-1.8-17.247-1.322-22.415-.824.3-2.93.264-5.885.564-8.819.233-2.244.456-4.57-.257-6.71-.447-1.281-.597-1.978-1.597-2.886"/>
        <path fill="#FF5344" d="M228 110.267c5.08 1.168 17.31 1.682 22.517 1.507 2.377-.074 4.748-.289 7.125-.282 4.074 0 8.141.673 12.206.4 5.25-.363 10.408-2.311 15.646-1.81 2.573.249 5.05 1.077 7.504 1.904 2.454.828 5.128 1.763 6.855 3.776 1.6 1.864 2.184 4.374 2.714 6.783.296 1.346.593 2.735.333 4.084-.497 2.56-2.834 4.294-5.077 5.586-2.668 1.534-5.595 2.853-8.669 2.782-1.823-.04-3.597-.572-5.334-1.123-4.978-1.579-10.065-3.365-15.266-2.971-3.637.282-7.271 1.635-10.849.905-2.103-.431-4-1.555-6-2.302-4.875-1.8-17.247-1.322-22.415-.824.3-2.93.264-5.885.564-8.819.233-2.244.456-4.57-.257-6.71-.447-1.281-.597-1.978-1.597-2.886"/>
        <path fill="#FBBEBE" d="M173.481 58.804c-.759-.208-1.05-1.217-1.735-1.623-.684-.406-1.54-.085-2.033.518a3.814 3.814 0 0 0-.707 2.216c-.125 3.532 1.873 6.767 4.994 8.085a35.834 35.834 0 0 1-.778-9.47l.26.274zM223.522 58.804c.759-.208 1.047-1.217 1.732-1.623.684-.406 1.54-.085 2.033.518.46.638.708 1.416.707 2.216.125 3.532-1.873 6.767-4.994 8.085.678-3.103.94-6.29.778-9.47l-.256.274z"/>
        <path fill="#000" d="M192.467 134a24.14 24.14 0 0 1 .916 6.875c0 4.039-.823 7.563-2.05 9.455-.103.9-.22 1.793-.333 2.67 1.73-1.285 3-5.507 3-10.519-.013-3.425-.607-6.48-1.533-8.481M201.533 134a24.119 24.119 0 0 0-.92 6.875c0 4.039.827 7.563 2.054 9.455.103.9.216 1.793.333 2.67-1.73-1.285-3-5.507-3-10.519-.003-3.425.59-6.48 1.533-8.481M218.45 49.423c-1.022 1.409-2.27 2.845-3.807 2.879-2.225.054-3.749-2.764-5.793-3.789-4.148-2.064-8.493 3.585-12.951 2.865-3.442-.556-6.135-4.864-9.604-4.474-2.478.278-4.29 2.886-5.818 5.29-1.181-1.741-2.362-3.484-3.54-5.229-.682-1.018-1.422-1.748-1.753-2.502-.66 1.616.58 2.472 1.752 4.2 1.173 1.728 2.359 3.486 3.541 5.228 1.527-2.404 3.34-5.011 5.818-5.29 3.46-.39 6.162 3.918 9.604 4.475 4.43.72 8.786-4.93 12.95-2.865 2.045 1.018 3.572 3.843 5.794 3.788 1.537-.034 2.788-1.47 3.807-2.879a53.638 53.638 0 0 0 4.55-7.509c-.184-.21-.375-.414-.57-.611a54.15 54.15 0 0 1-3.98 6.423"/>
    </g>
</svg>
