<svg xmlns="http://www.w3.org/2000/svg" width="25" height="25" viewBox="0 0 25 25">
    <g fill="none" fill-rule="evenodd">
        <path stroke="#FF5344" d="M15.74 20.71l4.445 3.165c.341.261-2.248-3.284-1.907-3.546l.916-.821c1.347-1.013 1.179-1.066 2.096-1.893 1.674-1.507 2.59-3.304 2.59-4.8 0-1.89-1.46-3.35-3.748-3.35-1.283.005-2.498 1.018-3.324 1.823-.13-.129-.273-.262-.423-.395-.79-.707-1.82-1.423-2.898-1.428-2.291 0-3.748 1.456-3.748 3.35 0 2.312 2.196 5.03 6 7.895z"/>
        <path fill="#F05E56" d="M19.678 3.99c0 1.583-1.008 3.324-2.872 5.167-2.064-1.318-4.536-1.62-6.365-.579-2.115 1.204-2.713 3.829-1.662 6.368l-3.637 2.217c-.474.31 3.129-3.912 2.654-4.223l-1.273-.98c-1.876-1.206-1.642-1.269-2.918-2.254C1.276 7.912 0 5.773 0 3.99 0 1.74 2.032 0 5.216 0 7 .007 8.693 1.213 9.84 2.17c.183-.152.38-.31.59-.47C11.53.86 12.963.008 14.462 0c3.188 0 5.215 1.735 5.215 3.99z"/>
    </g>
</svg>
