<svg xmlns="http://www.w3.org/2000/svg" width="135" height="51" viewBox="0 0 135 51">
    <g fill="none" fill-rule="nonzero">
        <path fill="#00C6C0" d="M12.65 33.555V30.48h-.084a4.487 4.487 0 0 1-1.019 1.195c-.424.427-.934.854-1.443 1.11-.595.342-1.189.598-1.783.854-.595.17-1.274.342-1.953.342-1.953.17-3.906-.854-4.925-2.562C.425 29.712 0 27.236 0 23.907v-6.148c0-3.33.51-5.806 1.443-7.513 1.02-1.708 2.887-2.732 4.925-2.562.849 0 1.698.256 2.462.598 1.189.598 2.293 1.366 3.312 2.134V0H18v33.555h-5.35zm-.424-19.553c-.849-1.11-2.122-1.707-3.48-1.793a2.34 2.34 0 0 0-1.104.257c-.425.17-.68.512-.934.939-.34.597-.51 1.195-.595 1.878a18.768 18.768 0 0 0-.255 3.074v5.379c0 1.024.085 2.049.255 3.074.085.683.34 1.28.595 1.878.17.427.509.683.934.94.34.17.764.255 1.103.255 1.359-.085 2.632-.768 3.481-1.793V14.002z"/>
        <path fill="#FF5344" d="M21 17.485c0-3.303.872-5.759 2.528-7.198C25.183 8.762 27.537 8 30.5 8s5.317.762 6.972 2.287C39.128 11.81 40 14.182 40 17.485v7.03c0 3.303-.872 5.759-2.528 7.198C35.817 33.153 33.463 34 30.5 34s-5.317-.762-6.972-2.287c-1.656-1.524-2.44-3.895-2.528-7.198v-7.03zm6.014 8.47a2.41 2.41 0 0 0 .958 2.201c.698.508 1.656.763 2.528.763.872.084 1.83-.255 2.528-.763.697-.508 1.045-1.355 1.045-2.202v-9.993c.088-.847-.348-1.694-1.045-2.202-.698-.508-1.656-.762-2.528-.762-.959-.085-1.83.254-2.528.762a2.41 2.41 0 0 0-.958 2.202v9.993z"/>
        <path fill="#387CDE" d="M71 12.895l-.928-.253c-.253-.084-.59-.084-.927-.168-.338 0-.59.084-.928.168-.337.085-.675.253-1.097.337l.507 2.271c.168.673.253 1.43.253 2.187 0 3.113-.675 5.552-2.025 7.234-1.349 1.683-3.457 2.524-6.325 2.524h-1.18c-.422 0-.844-.168-1.181-.252-.169.252-.338.504-.59.673-.254.168-.422.504-.422.757 0 .504.337.84 1.096 1.01.928.167 1.771.252 2.699.252 1.096 0 2.277.084 3.458.168 1.18.084 2.361.252 3.457.673a6.287 6.287 0 0 1 2.7 1.766c.758 1.01 1.18 2.187 1.096 3.45 0 1.009-.253 1.934-.844 2.775-.59.841-1.35 1.514-2.277 1.935-1.096.589-2.277.925-3.458 1.177-1.518.253-3.036.421-4.554.421-3.12 0-5.482-.42-7.084-1.178C50.843 40.065 50 38.888 50 37.458c0-.421.084-.842.337-1.262.253-.42.506-.757.844-1.01.337-.336.759-.588 1.18-.84l1.097-.674c-.675-.42-1.18-.925-1.687-1.514-.422-.589-.675-1.262-.675-2.019 0-.504.085-.925.338-1.346.253-.42.506-.84.843-1.177.337-.337.76-.673 1.096-.926.422-.252.76-.504 1.181-.757-1.35-.84-2.361-2.019-2.952-3.449-.59-1.682-.927-3.448-.843-5.215 0-1.262.169-2.524.422-3.701a7.392 7.392 0 0 1 1.433-2.944c.76-.842 1.603-1.515 2.7-1.935 1.264-.505 2.698-.757 4.047-.673 1.266 0 2.446.252 3.627.757 1.096.505 2.108 1.178 2.952 2.103a10.736 10.736 0 0 1 2.277-2.103A5.319 5.319 0 0 1 71 8.016v4.879zm-14.169 21.45c-.337.337-.59.589-.843.925-.253.337-.337.673-.337 1.094 0 .673.421 1.094 1.349 1.43 1.265.337 2.614.505 3.964.42 1.096 0 2.108-.083 3.12-.504.675-.168 1.097-.757 1.181-1.514 0-.337-.084-.673-.422-.926a3.847 3.847 0 0 0-1.686-.42l-6.326-.505zm5.65-16.992c0-3.196-1.011-4.795-3.035-4.795-.928-.084-1.856.421-2.362 1.262-.59 1.346-.759 2.776-.674 4.206-.085 1.178.168 2.44.674 3.533a2.272 2.272 0 0 0 2.024 1.178c.506 0 1.012-.084 1.519-.168.421-.169.843-.421 1.012-.842.253-.504.506-1.01.59-1.598.253-1.01.253-1.85.253-2.776z"/>
        <path fill="#FFBD00" d="M73 17.485c0-3.303.872-5.759 2.528-7.198C77.183 8.762 79.537 8 82.5 8s5.317.762 6.972 2.287C91.128 11.81 92 14.182 92 17.485v7.03c0 3.303-.872 5.759-2.528 7.198C87.817 33.238 85.463 34 82.5 34s-5.317-.762-6.972-2.287C73.872 30.19 73 27.818 73 24.43v-6.945zm6.014 8.47c-.087.846.348 1.693.958 2.201 1.57 1.017 3.574 1.017 5.056 0a2.41 2.41 0 0 0 .958-2.202v-9.993c.087-.847-.348-1.694-1.046-2.202a4.921 4.921 0 0 0-5.055 0 2.41 2.41 0 0 0-.958 2.202l.087 9.993z"/>
        <path fill="#FF5344" d="M94 17.485c0-3.303.872-5.759 2.528-7.198C98.183 8.762 100.537 8 103.5 8s5.317.762 6.972 2.287c1.656 1.524 2.528 3.895 2.528 7.198v7.03c0 3.303-.872 5.759-2.528 7.198C108.817 33.238 106.463 34 103.5 34c-3.05 0-5.317-.762-6.972-2.287-1.656-1.524-2.44-3.895-2.528-7.283v-6.945zm6.014 8.47c-.087.846.348 1.693.958 2.201 1.57 1.017 3.574 1.017 5.056 0 .697-.508 1.045-1.355 1.045-2.202v-9.993c.088-.847-.348-1.694-1.045-2.202-1.57-1.016-3.574-1.016-5.056 0a2.41 2.41 0 0 0-.958 2.202v9.993z"/>
        <path fill="#00C6C0" d="M128.592 33.573v-3.076h-.085a4.483 4.483 0 0 1-1.014 1.196c-.423.428-.93.855-1.437 1.111-.591.342-1.183.598-1.774.854-.592.171-1.268.342-1.944.342-2.282 0-3.887-.854-4.901-2.563C116.423 29.73 116 27.251 116 23.92v-6.151c0-3.332.507-5.81 1.437-7.518 1.014-1.708 2.873-2.733 4.901-2.563.845 0 1.69.257 2.45.598 1.184.598 2.282 1.367 3.381 2.136V0H134v33.573h-5.408zm-.507-19.563c-.846-1.11-2.113-1.708-3.465-1.794-.338 0-.76.086-1.099.256-.338.171-.676.513-.845.94-.338.598-.507 1.196-.591 1.88a18.875 18.875 0 0 0-.254 3.075v5.382c0 1.025.084 2.05.254 3.075.084.684.338 1.282.591 1.88.17.341.507.683.845.94.338.17.76.255 1.099.255 1.352-.085 2.62-.768 3.465-1.793V14.01z"/>
        <g fill="#231F20">
            <path d="M90.002 44.083c0 .5-.088 1-.263 1.417a2.29 2.29 0 0 1-.787 1c-.35.25-.7.5-1.225.667-.525.166-1.05.25-1.75.25h-.787v3c0 .083 0 .083-.088.166-.087.084-.087.084-.175.084-.087 0-.175.083-.35.083h-1.049c-.175 0-.263 0-.35-.083-.088-.084.087-.084.087-.084s-.087-.083-.087-.166v-8.5c0-.25.087-.417.175-.5.087-.084.262-.167.525-.167H86.94c.262 0 .437.083.787.083.262.084.612.167.875.334.262.166.525.333.787.583.263.25.35.5.525.833 0 .25.088.584.088 1zm-2.1.167c0-.333-.088-.583-.175-.833-.088-.25-.263-.334-.437-.5-.175-.167-.35-.167-.525-.167h-1.488V46h.875c.35 0 .613 0 .788-.083.175-.084.437-.167.524-.334.088-.166.263-.333.35-.5 0-.416.088-.583.088-.833zM101.637 45.833c0 .75-.087 1.5-.35 2.084-.262.583-.525 1.166-.874 1.583-.438.417-.875.75-1.488 1-.612.25-1.312.333-2.1.333-.787 0-1.487-.083-2.012-.25-.612-.166-1.05-.5-1.4-.916-.35-.417-.7-.917-.874-1.5-.175-.584-.263-1.334-.263-2.167 0-.75.088-1.417.35-2.083.175-.584.525-1.167.875-1.584.35-.416.875-.75 1.487-1 .613-.25 1.313-.333 2.1-.333.787 0 1.4.083 2.012.25.613.167 1.05.5 1.487.917.438.416.7.916.875 1.5.088.666.175 1.333.175 2.166zm-2.1.084c0-.5 0-.917-.087-1.334-.087-.416-.262-.75-.437-1.083-.175-.333-.438-.5-.788-.667-.35-.166-.7-.25-1.224-.25-.525 0-.875.084-1.225.25-.35.167-.613.417-.788.75-.175.334-.35.667-.437 1.084-.088.416-.088.833-.088 1.25 0 .5 0 1 .088 1.416.087.417.262.75.437 1.084.175.333.438.5.788.666.35.167.7.25 1.225.25.524 0 .874-.083 1.224-.25.35-.166.613-.416.788-.75.175-.333.35-.666.437-1.083 0-.417.088-.833.088-1.333zM106.45 50.417c0 .083 0 .083-.088.166-.088.084-.088.084-.175.084-.088 0-.175.083-.35.083h-1.05c-.175 0-.263 0-.35-.083-.088-.084.087-.084 0-.084-.088 0-.088-.083-.088-.166V41.5c0-.083 0-.083.088-.167.087-.083.087-.083.175-.083.087 0 .175-.083.35-.083h1.05c.175 0 .262 0 .35.083.087.083.175.083.175.083s.087.084.087.167v8.917h-.175zM117.91 50c0 .083 0 .25-.088.333-.087.084-.087.167-.175.25-.087.084-.175.084-.262.167h-1.137c-.175 0-.35 0-.438-.083-.087-.084-.262-.084-.35-.167-.087-.083-.175-.25-.35-.333a4.724 4.724 0 0 0-.35-.584l-2.45-4.416c-.174-.25-.262-.584-.437-.834-.175-.333-.262-.583-.437-.916 0 .333 0 .666.087 1.083v6.25c0 .083-.087.083-.175.083-.087 0-.175.084-.262.084h-.875c-.087 0-.175 0-.262-.084-.088 0-.088-.083-.175-.083-.088 0 0-.083 0-.167v-8.666c0-.25.087-.417.175-.5.087-.084.35-.167.524-.167h1.05c.175 0 .35 0 .525.083.175 0 .263.084.35.167.088.083.175.167.263.333.087.167.175.25.262.5l1.925 3.5c.087.25.262.417.35.584.087.166.175.416.35.583.175.167.175.417.262.583.088.167.175.417.263.584v-1.084-5.5c0-.083 0-.083.087-.166.088-.084.088-.084.175-.084.088 0 .175-.083.263-.083h.874c.088 0 .175 0 .263.083.087.084.087.084.175.084.087 0 0 .083 0 .166V50z"/>
        </g>
        <path fill="#231F20" d="M127 41.818v.347c0 .086 0 .173-.08.26 0 .086-.08.086-.08.173 0 .086-.079.086-.079.086h-2.227v7.97c0 .086 0 .086-.08.173-.079.086-.079.086-.159.086s-.159.087-.318.087h-.954c-.16 0-.239 0-.318-.087-.08-.086-.16-.086-.16-.086s-.08-.087-.08-.173v-7.97h-2.226c-.08 0-.08 0-.08-.086 0-.087-.08-.087-.08-.174 0-.086-.079-.173-.079-.26v-.346-.346c0-.087 0-.174.08-.26.08-.087.08-.087.08-.174 0-.086.079 0 .079 0H126.682s.08.087.08.174c0 .086.079.173.079.26 0 .086.159.173.159.346zM134.92 47.975c0 .504-.081.924-.242 1.344-.162.42-.403.673-.726.925-.322.252-.645.42-1.048.588-.403.168-.886.168-1.29.168-.321 0-.644 0-.886-.084-.241-.084-.483-.084-.725-.168s-.403-.168-.484-.252c-.08-.084-.241-.168-.322-.252-.08-.084-.08-.168-.161-.252-.08-.084 0-.337 0-.505v-.42c0-.168 0-.168.08-.252.081-.084.081-.084.081-.168h.161c.08 0 .161 0 .242.084.08.084.242.168.484.252.241.084.403.168.644.252.242.084.565.084.887.084.242 0 .403 0 .645-.084.241-.084.322-.168.483-.252.161-.084.242-.252.323-.42.08-.168.08-.336.08-.504 0-.252-.08-.42-.16-.588-.082-.168-.243-.253-.404-.42-.161-.085-.403-.253-.645-.337-.241-.084-.483-.252-.725-.336-.242-.084-.484-.252-.725-.42-.242-.168-.403-.336-.645-.504-.242-.168-.323-.42-.403-.757-.08-.336-.161-.588-.161-1.008 0-.42.08-.84.241-1.176.162-.337.403-.673.645-.84.242-.253.564-.42.967-.505.403-.084.806-.168 1.21-.168.241 0 .402 0 .644.084s.403.084.645.168.322.084.483.168c.162.084.242.168.323.168.08 0 .08.084.08.084s0 .084.081.168v1.177c0 .084 0 .084-.08.168-.081.084-.081.084-.162.084-.08 0-.161 0-.242-.084-.08-.084-.241-.168-.403-.252-.16-.084-.322-.168-.564-.252-.242-.084-.483-.084-.725-.084s-.403 0-.564.084c-.161.084-.242.084-.403.252-.161.168-.161.168-.242.336-.08.168-.08.252-.08.42 0 .252.08.42.16.588.081.168.242.252.484.42.242.169.403.253.645.337.242.084.483.252.725.336.242.084.484.252.726.42.241.168.483.336.644.504.162.168.323.42.484.756-.161.253-.08.589-.08.925z"/>
    </g>
</svg>
