<svg xmlns="http://www.w3.org/2000/svg" width="76" height="76" viewBox="0 0 76 76">
    <g fill="none" fill-rule="evenodd">
        <path stroke="#6B6B6B" stroke-width="2" d="M67.445 63.878c-6.11 6.896-14.793 10.221-23.311 10.823-7.865.556-15.767-1.048-23.253-3.663-1.083-.378-5.661-1.41-6.127-2.416-.13-.282.036-.954 0-1.258-.237-2.003 0-4.225 0-6.245V44.902c0-.474-.321-3.087 0-3.45.25-.282 2.103-.01 2.432-.01 8.25 0 16.743-.69 24.968 0 2.813.237 3.999 2.155 4.074 5.154.054 2.098.802 5.992-1.493 6.65-1.985.57-4.703.034-6.749.048l-5.761.04c3.939 2.974 7.699 6.301 12.585 6.938 5.433.709 8.057-2.123 11.744-5.757 2.264-2.232 5.491-6.887 8.473-2.847 2.23 3.02 5.533 8.694 2.418 12.21zM1.101 74.824h9.593v-36.64H1.101z"/>
        <path fill="#FFA9A1" d="M75.414 13.847c0 7.928-5.95 14.565-16.53 23.36a377.222 377.222 0 0 1-7.09 5.717l-1.83 1.425c-.251.201-.53.366-.822.493a24.647 24.647 0 0 1-.032-.716c-.085-3.478-1.432-5.704-4.622-5.977-2.48-.21-4.982-.31-7.493-.34C25.969 28.73 19.75 21.97 19.75 13.848c0-3.3 1.026-6.283 2.89-8.627C25.186 2.013 29.3 0 34.502 0c4.98.024 9.7 4.09 12.946 7.396.048.046.092.091.14.14.346-.355.707-.719 1.087-1.088C51.854 3.363 56.152.022 60.662 0c9.02 0 14.752 6.015 14.752 13.847zM59.186 5.196c5.706 1.878 10.606 8.375 11.02 15.107 0 0 .488-7.628-2.276-11.243-2.556-3.341-8.744-3.864-8.744-3.864z"/>
    </g>
</svg>
