<svg xmlns="http://www.w3.org/2000/svg" xmlns:xlink="http://www.w3.org/1999/xlink" width="398" height="244" viewBox="0 0 398 244">
    <defs>
        <path id="a" d="M65.91 1.35a1.996 1.996 0 0 1-1.067.286 3.174 3.174 0 0 1-.96-.447c-.932-.464-2.102-.169-2.931.454-.829.623-1.394 1.513-1.95 2.378-.554.865-1.148 1.76-2.009 2.325-1.014.68-2.35.908-3.14 1.826a2.937 2.937 0 0 0-.653 1.509c0-.005 0-.009-.002-.014v.496a3.745 3.745 0 0 0 0 .447c.11.859.337 1.7.672 2.498.16.594.478 1.135.918 1.57.687.563 1.597.508 2.528.454.718-.043 1.448-.085 2.096.157.122.049.24.104.356.165l-.054.17c-1.856 6.345 1.84 12.978 8.255 14.814a12.22 12.22 0 0 0 3.454.471c.249 0 .498 0 .747-.028.035.13.075.26.107.39.375 1.461.495 2.974.355 4.475l-.074-.65a3.424 3.424 0 0 0-.505-.198 4.536 4.536 0 0 0-1.512-.228c-1.654-.025-4.147.647-6.804 3.89 0 0-3.393 1.9-4.393 2.358a.494.494 0 0 0-.185.21s-4.488 6.907-4.954 9.51l-.064.352-7.612-.352a13.766 13.766 0 0 0-1.28-5.421 1.936 1.936 0 0 0-.69-.908c-.509-.306-1.17-.14-1.732.067a16.573 16.573 0 0 0-6.59 4.443c-.985-2.368-3.725-3.499-6.12-2.525a4.661 4.661 0 0 0-2.598 2.641l-2.963-2.462c-1.348-1.13-2.942-2.333-4.695-2.069-1.9.288-3.084 2.178-3.696 3.968a2.037 2.037 0 0 1-.391.785 1.3 1.3 0 0 1-.11.091l-2.333-.105-4.07 4.327-2.25 2.396-6.218 6.613-.131.138v6.606c-.181.48-.33.97-.449 1.467l.449-.067v2.555l1.714.088v30.455l19.452 1.262 8.383.535 14.814.96c0 1.383.583 3.325 1.824 4.089a3.4 3.4 0 0 1 .819.728c-.064.123-.129.25-.189.376-.594 1.214-1.12 2.568-1.028 3.41a4.631 4.631 0 0 1-.712 3.042s-4.48 13.985-4.381 18.002c.1 4.017-1.597 12.851-1.597 12.851s-1.85 5.692-.751 7.31c1.1 1.619 2.348 8.687 2.348 8.687s.85 1.618.796 2.993c-.053 1.376.8 3.87.8 3.87l2.796 10.156s-.298 2.699.75 4.612c1.05 1.914.947 1.323.45 4.661-.499 3.34.597 6.428 2.396 7.41.712.38.733.96.516 1.526h-.018c-.459-.179-.84.775-1.067 1.544-.138.141-.231.222-.231.222l.157.04c-.1.368-.157.646-.157.646s-4.691 3.926-4.98 5.348c-.288 1.421-3.595 2.16-3.595 2.16s-4.98 1.372-6.292 2.061a2.368 2.368 0 0 0-1.377 1.904 5.29 5.29 0 0 0 .178 1.92c.502 2.013 7.49 2.21 10.834 1.671 3.343-.538 10.287-2.504 10.287-2.504s7.287-.704 9.436-1.57c2.148-.865.447-3.137.447-3.137v-.215c.053-.82.203-3.796-.313-4.595-.39-.605-.377-2.11-.323-3.07 1.458-2.639-1.676-10.554-1.676-10.554s.601-7.74.2-8.88c-.402-1.14-2.095-10.744-2.095-10.744s-1.05-4.369-.65-5.104c.397-.736-.25-2.847-.25-2.847s-1.697-2.353-1.547-3.088c.15-.736-.498-2.062-.498-2.062s5.093-7.655 4.641-9.076c-.451-1.422.2-3.73.2-3.73l1.422-2.381c.946-1.59 2.092-3.5 2.49-4.095.49-.756 1.672-3.975 2.33-5.833.277-.788.465-1.33.465-1.33s.8 14.424 1.498 15.898c.697 1.474 1.75 13.098 1.75 13.098a8.083 8.083 0 0 1 .498 3.24c-.1 1.815 1.597 9.713 1.597 9.713s.75 5.593.25 7.064c-.503 1.47-.1 12.313-.1 12.313s-2.746 2.111-3.444 3.725c-.697 1.615.1 6.037.1 6.037l.32.152a9.124 9.124 0 0 0-.57 1.906c-.099.933-1.6 5.154-1.447 5.742.153.587-.65 2.402-.75 3.335-.1.932-1.348 2.308-1.448 2.814-.158.442-.342.875-.551 1.295-.27.646-.487 1.313-.647 1.995-.498 2.057 5.441 2.402 5.441 2.402 8.786 1.618 10.386-5.002 10.386-5.002s1.096-5.89 1.497-6.333a.725.725 0 0 0 .068-.563c-.23-1-.66-1.943-1.266-2.775-.281-.324-.303-1.168-.252-1.922.253-.021.505-.067.75-.136 3.557-1.031 2.098-6.97 2.098-6.97s2.394-3.922 2.394-5.445c0-1.524.85-6.181.85-6.181 3.044-5.496 1.846-18.84 2.347-19.919.502-1.08-1.048-5.101-2.297-6.917-1.249-1.815-.747-6.723 0-8.144.747-1.421-.747-6.332-.747-6.332s1.448-9.52 1.397-10.99c-.05-1.47 1.245-5.84 1.245-5.84s1.299-2.255 1-2.941c-.299-.686 1-2.463.651-3.24-.349-.778.299-3.188.946-4.612.334-.729.747-2.737 1.067-4.52l.107-.588c1.454.925 2.778 1.614 3.272 1.428.89-.352-.526-4.925-1.501-7.782.167-.123.235-.218.167-.264-.597-.39.068-2.16.068-2.16 3.528-2.11 2.33-3.662 1.198-4.573-1.13-.911-.398-3.518-.733-4.574-.334-1.055.399-5.822 1-9.287a6.675 6.675 0 0 0-.021-2.276c.644-.978 1.305-2.005 1.885-2.959 1.995-3.268 6.256-18.839 6.256-18.839l-.028-.08c.416-.827.711-1.5.892-1.946 1.252-3.43-1.145-13.636-1.543-15.99-.399-2.356-7.79-7.457-7.79-7.457s-3.261-1.76-4.979-3.796c-1.106-1.295-1.451-1.28-1.555-1.105a.54.54 0 0 0-.241-.08c-.067-.05-.135-.096-.2-.149a.471.471 0 0 0-.273-.481 2.764 2.764 0 0 1-.253-.176c-.562-.943-.76-2.287-.829-3.455-.081-1.478-1.778-1.105-2.315-.943a50.838 50.838 0 0 1-1.135-2.272 3.98 3.98 0 0 0 .37-.792c1.032-2.252.804-4.83 1.252-7.208.324-1.724.993-3.518.861-5.196v-.099a4.519 4.519 0 0 0-.284-1.224c-.296-.757-.815-1.407-1.067-2.192-.374-1.133-.136-2.385-.445-3.539-.387-1.456-1.615-2.586-3.002-3.23C80.258.923 78.72.7 77.202.51 75.572.305 73.9.135 72.248.135c-2.197 0-4.358.3-6.338 1.216zm6.594 34.646l.093-.046v.078l-.093-.032zm-20 166.879l.634.123h-.017c-.212 0-.421-.041-.616-.123z"/>
        <path id="c" d="M51.295.855c-1.39 1.055-2.258 1.847-3.986 2.564-1.25.518-2.551 1.313-2.846 2.562a9.794 9.794 0 0 0-.06 1.674c-.057 1.126-.605 2.174-.957 3.25a4.873 4.873 0 0 0-.264 1.964v.031c0 .078.022.155.036.23v.038c.035.167.086.331.153.489 0 .02.018.039.025.06.007.021.057.116.089.172l.032.06c.046.074.092.144.146.214.217.285.508.525.711.824.254.466.393.986.405 1.516.057.535.11 1.073.168 1.607v.12a9.439 9.439 0 0 0-.029.704c.002.554.047 1.107.135 1.653-1.184.883-2.404 1.942-2.657 2.716a1.305 1.305 0 0 0-.28.774c-1.113.862-5.844.352-5.844.352s-3.856 2.058-5.257 1.256c-1.402-.802-9.817 5.6-9.817 5.6s-2.22.117-2.337 1.031c0 0-2.802 2.058-4.908 2.058-2.105 0-3.39 2.628-3.39 2.628s-3.503 1.6-4.673 1.83c-1.17.228-3.155 1.372-2.568 1.829.587.458-.117 1.484-1.17 2.287-1.053.802-2.69 4.925-1.285 5.484 1.406.56 5.258 1.717 6.31 2.287.403.208.858.292 1.309.242.51.034 1.022-.05 1.494-.242l.164-.2c1.373 1.03 3.162 2.089 4.883 2.258 2.71.267 8.536 1.365 11.005 1.84v.453c-.022 4.271.182 8.697 1.014 10.052 1.753 2.86 1.984 25.262 1.984 25.262s5.492.802 7.363 2.515c1.778 1.619 10.734 4.574 12.502.736l.562.239c4.552 1.953 10.595 4.732 11.289 5.98 1.12 2.059 9.183 5.488 9.183 5.488s5.26.113 3.738 4.926c-1.522 4.812 10.094 16.33 10.094 16.33-.018.728.219 1.44.67 2.016.147.184.313.351.497.5.466.351 1.917.995 3.6 1.28.43.957.771 1.788.71 1.92-.06.135.506.63 1.25 1.278a26.05 26.05 0 0 0 2.009 3.627c.255.426.613.782 1.042 1.038 1.138.457 12.996 7.43 15.22 7.659 2.066.214 6.263 1.217 10.04-1.693l-.609 4.876-.202 1.618s5.961 2.4 8.415 2.4c2.454 0 10.749 3.887 10.749 3.887s5.491 1.143 9.116-1.256c1.895-1.256 1.358-2.888.092-4.144-1.149-1.157-2.899-2.016-3.955-2.016-2.223 0-10.987-10.286-11.57-11.743-.213-.53-.57-.352-.932.116-.711-1.664-1.643-4.006-1.892-5.681.939-.236 1.54-.408 1.54-.408s.114-3.315-.711-3.66h-.022c-.796-.464-.796-7.299-.796-7.299s-1.868-6.04-1.633-8.221c.235-2.182-4.663-18.783-4.663-18.783s-1.284-9.98-3.62-10.99c-1.975-.855-18.602-5.548-23.738-6.99-.11-.247-.907-1.795-3.49-1.795-2.806 0-11.218.117-14.02-3.085a6.404 6.404 0 0 1-.865-1.386c1.388-2.522 1.477-6.684.979-7.644-.712-1.373-1.167-4.117-1.167-4.117s-.356-6.627-.825-8.344c-.47-1.717-2.447-15.775-2.447-15.775s-3.973-3.746-6.78-4.556a11.782 11.782 0 0 1-3.396-1.759c.043-.228.085-.435.117-.612a10.369 10.369 0 0 0 3.557-5.889c.054-.125.092-.256.114-.39.022-.18.031-.36.028-.542.036-.33.057-.665.06-1.003v-.218c.037-.163.103-.318.196-.457.41-.58 1.252-.704 1.925-.992a2.9 2.9 0 0 0 .295-.155l.085-.056c.064-.039.125-.078.182-.12l.1-.08.145-.124.096-.095c.043-.042.085-.084.124-.13l.093-.11c.036-.045.071-.087.103-.133l.085-.123c.032-.043.06-.088.086-.134.028-.045.057-.091.082-.14l.067-.13c.022-.043.054-.106.075-.159.019-.039.035-.079.05-.12.025-.06.05-.12.07-.179l.033-.095c.021-.07.046-.14.067-.214v-.022a5.44 5.44 0 0 0 .164-1.825c0-.155-.028-.306-.053-.458-.175-1.055-.559-2.142-.43-3.184 0-.091.028-.182.046-.274v-.031c.02-.096.047-.19.078-.282.146-.419.395-.802.53-1.22.027-.088.05-.176.067-.265v-.07c0-.074.022-.148.025-.222v-.052a2.614 2.614 0 0 0-.039-.577 3.769 3.769 0 0 0-1.27-2.111c-.964-.837-2.226-1.298-3.467-1.703C62.64 1.717 59.309.718 55.92.503c-.78-.05-1.687-.198-2.544-.198-.777 0-1.514.122-2.08.55zm8.693 27.996c-.1-.11-.192-.222-.288-.334.139-.042.274-.117.409-.18v.637l-.12-.123zm-42.507 15.43c.247-.083.503-.137.762-.162.225.02.446.08.65.176.274.127.559.247.847.352l-2.038-.352a1.177 1.177 0 0 0-.217-.01l-.004-.004zm8.277 1.484c.384.018.619.018.619.018v.134l-.619-.152zm45.605 5.576l.042-.643.139 1.699c-.117-.672-.181-1.056-.181-1.056zm44.334 85.554a40.583 40.583 0 0 0-4.702-2.37s-6.544-1.542-7.945-2.815c-1.402-1.273-5.58-3.557-5.58-3.557a325.199 325.199 0 0 1-2.096-1.882c.04-.267.064-.549.078-.848-.165-.6-.372-1.188-.618-1.759-.274-.616-.626-1.214-1.018-1.456-.932-.57-4.09-12.345-4.09-13.72 0-1.376-1.985-7.888-2.685-9.031-.701-1.144-1.519-4.01-1.519-4.01s10.631 1.611 20.565.703c-.018.042 3.137 1.185 2.572 2.445-.587 1.256-.207 3.543.07 3.543.278 0 1.566 1.829.865 3.887-.7 2.058 4.556 20.802 6.893 23.317 0 0 0 .063-.043.173-.17.763-.661 3.87 2.615 4.056h.373c.249 1.956.622 5.034.85 7.588-.526-1.516-2.557-3.053-4.585-4.264z"/>
    </defs>
    <g fill="none" fill-rule="evenodd">
        <path fill="#FFF2CC" d="M199 181.231c109.905 0 199 13.861 199 30.959s-89.095 30.958-199 30.958S0 229.288 0 212.19s89.095-30.959 199-30.959"/>
        <path fill="#00C6C0" d="M329.828 151.98v21.46l-5.737 11.447-.182.362-15.183-.992-5.837-.384-13.548-.883v-25.67l13.548.376 6.057.169 15.326.43z"/>
        <path fill="#000" d="M329.828 153.246v20.193l-1.405 2.797-1.433 2.867-2.9 5.783.324-21.46.065-4.33 2.756-3.015 1.202-1.315z"/>
        <path fill="#00C6C0" d="M330.603 146.28v7.497l-.775 1.228-1.394 2.191-1.231 1.943-2.725 4.292-.063-.004-36.269-1.847v-7.391l.093-.099 4.329-4.636 1.568-1.678 2.835-3.033z"/>
        <g fill="#000">
            <path d="M324.478 156.036v7.395l-36.332-1.851v-7.391l.093-.098zM330.603 146.28v7.497l-6.125 9.654v-7.396z"/>
        </g>
        <path fill="#3F3D56" d="M328.44 149.731l-.003 5.035-.004 2.43-.01 19.04-1.434 2.867.214-19.965.032-3.057.05-4.51-34.717-2.118 1.568-1.678z"/>
        <path fill="#3F3D56" d="M311.4 149.978l-2.433 5.224-.02 2.663-.222 26.392-5.836-.384v-29.02l3.112-4.875z"/>
        <path fill="#3F3D56" d="M303.39 150.33a7.77 7.77 0 0 1-4.353.15 1.752 1.752 0 0 1-.761-.351 1.954 1.954 0 0 1-.473-.925 7.214 7.214 0 0 1-.416-2.213 2.45 2.45 0 0 1 .932-1.977c.127-.076.246-.164.355-.264.13-.162.222-.35.274-.549.427-1.256 1.249-2.578 2.572-2.783 1.22-.182 2.33.658 3.272 1.45l2.063 1.737c.624-1.666 2.497-2.517 4.183-1.899.86.316 1.546.976 1.888 1.819a11.516 11.516 0 0 1 4.588-3.117 1.437 1.437 0 0 1 1.206-.046c.222.16.39.381.48.637a9.705 9.705 0 0 1 .897 3.87.69.69 0 0 1 .796.27c.159.258.25.55.263.852.056.467.084.937.082 1.407a2.09 2.09 0 0 1-.355 1.407c-.42.486-1.15.535-1.779.55.313.274.16.826-.185 1.055-.369.196-.79.276-1.205.231-1.605 0-3.312-.06-4.65-.939-.526-.351-.967-.812-1.497-1.16-1.294-.848-2.923-.887-4.42-.817-1.395.067-2.469 1.175-3.756 1.605"/>
        <path fill="#3F3D56" d="M303.095 149.981s-13.39 1.847-15.262 9.85l2.807-.408 1.97 3.49s2.077-7.803 8.202-9.653c6.125-1.85 8.305-2.153 8.305-2.153s4.268 1.024 8.095 13.245l2.18-2.98 3.842.824s-2.803-9.552-10.383-12.218l-9.756.003z"/>
        <path fill="#FF5344" d="M311.112 160.373v28.988l-7.746 15.458v.004l-.246.489-20.512-1.34-7.885-.517-18.3-1.196v-34.674l18.3.51 8.184.23 20.704.576z"/>
        <path fill="#000" d="M311.112 162.083v27.279l-1.892 3.774v.004l-1.942 3.87-3.912 7.81.437-28.989.089-5.846 3.72-4.07v-.004l1.622-1.773z"/>
        <path fill="#FF5344" d="M312.165 152.673V162.8l-1.053 1.657-1.878 2.958-1.664 2.625-3.678 5.797-.089-.007-48.99-2.49v-9.988l.12-.13 5.851-6.262 2.116-2.27 3.831-4.098z"/>
        <path fill="#000" d="M303.892 165.85v9.988l-49.08-2.497v-9.988l.121-.13zM312.165 152.673V162.8l-8.273 13.037v-9.987z"/>
        <path fill="#3F3D56" d="M309.241 157.334l-.007 6.804v3.278l-.014 25.72v.004l-1.942 3.87.292-26.97.042-4.126v-.003l.068-6.093-46.896-2.857 2.117-2.27z"/>
        <path fill="#3F3D56" d="M286.222 157.668l-3.286 7.057-.029 3.6-.298 35.647-7.886-.518v-39.197l4.208-6.589z"/>
        <path fill="#3F3D56" d="M275.402 158.143c-1.899.626-3.94.697-5.879.204a2.35 2.35 0 0 1-1.028-.471 2.633 2.633 0 0 1-.64-1.25 9.758 9.758 0 0 1-.562-2.993c.025-1.017.416-2.08 1.259-2.667.17-.103.329-.22.477-.352.17-.219.291-.472.355-.742.573-1.695 1.686-3.486 3.476-3.757 1.646-.25 3.147.887 4.417 1.956l2.785 2.346c.849-2.251 3.383-3.396 5.66-2.556a4.378 4.378 0 0 1 2.542 2.447 15.582 15.582 0 0 1 6.2-4.222c.529-.196 1.148-.351 1.632-.062.297.216.522.515.647.858a13.147 13.147 0 0 1 1.21 5.228.93.93 0 0 1 1.066.351c.215.35.338.746.356 1.154.075.63.113 1.263.114 1.897 0 .668-.064 1.407-.505 1.9-.57.654-1.554.724-2.426.745.42.37.213 1.112-.252 1.425a2.823 2.823 0 0 1-1.63.313c-2.169-.021-4.474-.081-6.277-1.274-.712-.467-1.31-1.094-2.024-1.562-1.75-1.146-3.948-1.2-5.975-1.104-1.807.109-3.258 1.611-4.998 2.188"/>
        <path fill="#3F3D56" d="M275.004 157.668s-18.09 2.498-20.629 13.316l3.788-.556 2.664 4.718s2.806-10.554 11.08-13.038c8.272-2.484 11.217-2.913 11.217-2.913s5.748 1.386 10.937 17.892l2.945-4.024 5.203 1.112s-3.787-12.9-14.023-16.507h-13.182zM340.47 174.772v17.942l-4.795 9.569-.153.303-12.694-.83-4.88-.32-11.324-.74v-21.46l11.324.314 5.065.14 12.815.36z"/>
        <path fill="#000" d="M340.47 175.828v16.886l-1.17 2.336-1.203 2.396v.004l-2.422 4.833.27-17.942.057-3.62 2.302-2.522 1.006-1.098z"/>
        <path fill="#3F3D56" d="M341.12 170.006v6.269l-.65 1.023-1.163 1.833-1.028 1.626-2.277 3.584h-.057l-30.32-1.544v-6.181l.074-.08 3.62-3.878 1.313-1.4 2.369-2.54z"/>
        <path fill="#000" d="M336.002 178.16v6.181l-30.378-1.544v-6.181l.075-.08zM341.12 170.006v6.269l-5.118 8.066v-6.18z"/>
        <path fill="#FFBD00" d="M339.31 172.89v4.211l-.003 2.03-.007 15.92-1.203 2.395.182-16.69.025-2.557.042-3.771-29.026-1.77 1.312-1.4z"/>
        <path fill="#FFBD00" d="M325.065 173.098l-2.034 4.37-.018 2.223-.185 22.064-4.88-.32v-24.26l2.604-4.077z"/>
        <path fill="#FFBD00" d="M318.368 173.393a6.53 6.53 0 0 1-3.638.127 1.495 1.495 0 0 1-.637-.295 1.655 1.655 0 0 1-.395-.771 6.048 6.048 0 0 1-.356-1.854c-.013-.64.274-1.25.78-1.65.105-.064.204-.137.295-.222.107-.134.185-.29.227-.457.356-1.055 1.046-2.156 2.152-2.325 1.02-.155 1.95.549 2.735 1.21l1.725 1.453c.524-1.393 2.09-2.102 3.499-1.584a2.708 2.708 0 0 1 1.577 1.52 9.683 9.683 0 0 1 3.837-2.603c.313-.16.683-.175 1.007-.038.185.132.325.318.402.531a8.075 8.075 0 0 1 .746 3.236.572.572 0 0 1 .666.226c.132.212.209.454.224.703.046.39.068.782.068 1.175.04.416-.072.833-.313 1.175-.356.408-.96.45-1.501.461a.593.593 0 0 1-.154.883 1.76 1.76 0 0 1-1.01.193c-1.34 0-2.77-.049-3.887-.788-.441-.288-.81-.675-1.252-.967-1.067-.704-2.444-.742-3.695-.682-1.128.056-2.025.984-3.102 1.343"/>
        <path fill="#FFBD00" d="M318.123 173.098s-11.197 1.545-12.759 8.243l2.344-.352 1.647 2.92s1.736-6.526 6.858-8.07c5.121-1.545 6.942-1.802 6.942-1.802s3.557.859 6.758 11.072l1.825-2.488 3.2.704s-2.343-7.983-8.678-10.203l-8.137-.024z"/>
        <g transform="translate(192.064 -1)">
            <mask id="b" fill="#fff">
                <use xlink:href="#a"/>
            </mask>
            <path d="M65.91 1.35a1.996 1.996 0 0 1-1.067.286 3.174 3.174 0 0 1-.96-.447c-.932-.464-2.102-.169-2.931.454-.829.623-1.394 1.513-1.95 2.378-.554.865-1.148 1.76-2.009 2.325-1.014.68-2.35.908-3.14 1.826a2.937 2.937 0 0 0-.653 1.509c0-.005 0-.009-.002-.014v.496a3.745 3.745 0 0 0 0 .447c.11.859.337 1.7.672 2.498.16.594.478 1.135.918 1.57.687.563 1.597.508 2.528.454.718-.043 1.448-.085 2.096.157.122.049.24.104.356.165l-.054.17c-1.856 6.345 1.84 12.978 8.255 14.814a12.22 12.22 0 0 0 3.454.471c.249 0 .498 0 .747-.028.035.13.075.26.107.39.375 1.461.495 2.974.355 4.475l-.074-.65a3.424 3.424 0 0 0-.505-.198 4.536 4.536 0 0 0-1.512-.228c-1.654-.025-4.147.647-6.804 3.89 0 0-3.393 1.9-4.393 2.358a.494.494 0 0 0-.185.21s-4.488 6.907-4.954 9.51l-.064.352-7.612-.352a13.766 13.766 0 0 0-1.28-5.421 1.936 1.936 0 0 0-.69-.908c-.509-.306-1.17-.14-1.732.067a16.573 16.573 0 0 0-6.59 4.443c-.985-2.368-3.725-3.499-6.12-2.525a4.661 4.661 0 0 0-2.598 2.641l-2.963-2.462c-1.348-1.13-2.942-2.333-4.695-2.069-1.9.288-3.084 2.178-3.696 3.968a2.037 2.037 0 0 1-.391.785 1.3 1.3 0 0 1-.11.091l-2.333-.105-4.07 4.327-2.25 2.396-6.218 6.613-.131.138v6.606c-.181.48-.33.97-.449 1.467l.449-.067v2.555l1.714.088v30.455l19.452 1.262 8.383.535 14.814.96c0 1.383.583 3.325 1.824 4.089a3.4 3.4 0 0 1 .819.728c-.064.123-.129.25-.189.376-.594 1.214-1.12 2.568-1.028 3.41a4.631 4.631 0 0 1-.712 3.042s-4.48 13.985-4.381 18.002c.1 4.017-1.597 12.851-1.597 12.851s-1.85 5.692-.751 7.31c1.1 1.619 2.348 8.687 2.348 8.687s.85 1.618.796 2.993c-.053 1.376.8 3.87.8 3.87l2.796 10.156s-.298 2.699.75 4.612c1.05 1.914.947 1.323.45 4.661-.499 3.34.597 6.428 2.396 7.41.712.38.733.96.516 1.526h-.018c-.459-.179-.84.775-1.067 1.544-.138.141-.231.222-.231.222l.157.04c-.1.368-.157.646-.157.646s-4.691 3.926-4.98 5.348c-.288 1.421-3.595 2.16-3.595 2.16s-4.98 1.372-6.292 2.061a2.368 2.368 0 0 0-1.377 1.904 5.29 5.29 0 0 0 .178 1.92c.502 2.013 7.49 2.21 10.834 1.671 3.343-.538 10.287-2.504 10.287-2.504s7.287-.704 9.436-1.57c2.148-.865.447-3.137.447-3.137v-.215c.053-.82.203-3.796-.313-4.595-.39-.605-.377-2.11-.323-3.07 1.458-2.639-1.676-10.554-1.676-10.554s.601-7.74.2-8.88c-.402-1.14-2.095-10.744-2.095-10.744s-1.05-4.369-.65-5.104c.397-.736-.25-2.847-.25-2.847s-1.697-2.353-1.547-3.088c.15-.736-.498-2.062-.498-2.062s5.093-7.655 4.641-9.076c-.451-1.422.2-3.73.2-3.73l1.422-2.381c.946-1.59 2.092-3.5 2.49-4.095.49-.756 1.672-3.975 2.33-5.833.277-.788.465-1.33.465-1.33s.8 14.424 1.498 15.898c.697 1.474 1.75 13.098 1.75 13.098a8.083 8.083 0 0 1 .498 3.24c-.1 1.815 1.597 9.713 1.597 9.713s.75 5.593.25 7.064c-.503 1.47-.1 12.313-.1 12.313s-2.746 2.111-3.444 3.725c-.697 1.615.1 6.037.1 6.037l.32.152a9.124 9.124 0 0 0-.57 1.906c-.099.933-1.6 5.154-1.447 5.742.153.587-.65 2.402-.75 3.335-.1.932-1.348 2.308-1.448 2.814-.158.442-.342.875-.551 1.295-.27.646-.487 1.313-.647 1.995-.498 2.057 5.441 2.402 5.441 2.402 8.786 1.618 10.386-5.002 10.386-5.002s1.096-5.89 1.497-6.333a.725.725 0 0 0 .068-.563c-.23-1-.66-1.943-1.266-2.775-.281-.324-.303-1.168-.252-1.922.253-.021.505-.067.75-.136 3.557-1.031 2.098-6.97 2.098-6.97s2.394-3.922 2.394-5.445c0-1.524.85-6.181.85-6.181 3.044-5.496 1.846-18.84 2.347-19.919.502-1.08-1.048-5.101-2.297-6.917-1.249-1.815-.747-6.723 0-8.144.747-1.421-.747-6.332-.747-6.332s1.448-9.52 1.397-10.99c-.05-1.47 1.245-5.84 1.245-5.84s1.299-2.255 1-2.941c-.299-.686 1-2.463.651-3.24-.349-.778.299-3.188.946-4.612.334-.729.747-2.737 1.067-4.52l.107-.588c1.454.925 2.778 1.614 3.272 1.428.89-.352-.526-4.925-1.501-7.782.167-.123.235-.218.167-.264-.597-.39.068-2.16.068-2.16 3.528-2.11 2.33-3.662 1.198-4.573-1.13-.911-.398-3.518-.733-4.574-.334-1.055.399-5.822 1-9.287a6.675 6.675 0 0 0-.021-2.276c.644-.978 1.305-2.005 1.885-2.959 1.995-3.268 6.256-18.839 6.256-18.839l-.028-.08c.416-.827.711-1.5.892-1.946 1.252-3.43-1.145-13.636-1.543-15.99-.399-2.356-7.79-7.457-7.79-7.457s-3.261-1.76-4.979-3.796c-1.106-1.295-1.451-1.28-1.555-1.105a.54.54 0 0 0-.241-.08c-.067-.05-.135-.096-.2-.149a.471.471 0 0 0-.273-.481 2.764 2.764 0 0 1-.253-.176c-.562-.943-.76-2.287-.829-3.455-.081-1.478-1.778-1.105-2.315-.943a50.838 50.838 0 0 1-1.135-2.272 3.98 3.98 0 0 0 .37-.792c1.032-2.252.804-4.83 1.252-7.208.324-1.724.993-3.518.861-5.196v-.099a4.519 4.519 0 0 0-.284-1.224c-.296-.757-.815-1.407-1.067-2.192-.374-1.133-.136-2.385-.445-3.539-.387-1.456-1.615-2.586-3.002-3.23C80.258.923 78.72.7 77.202.51 75.572.305 73.9.135 72.248.135c-2.197 0-4.358.3-6.338 1.216zm6.594 34.646l.093-.046v.078l-.093-.032zm-20 166.879l.634.123h-.017c-.212 0-.421-.041-.616-.123z" mask="url(#b)"/>
        </g>
        <path fill="#FEC2BE" d="M206.49 88.79c2.924 1.097 9.732 1.22 12.755 1.217h1.487l1.938-3.902-1.938-3.254s-1.779-.482-4.14-.904c-3.486-.623-8.256-1.108-10.528.288-3.813 2.33-3.386 5.123.426 6.554"/>
        <path fill="#000" d="M219.245 90.007h1.487l1.938-3.902-1.938-3.254s-1.779-.482-4.14-.904c1.917 1.386 6.526 4.408 2.653 8.06"/>
        <path fill="#4C4981" d="M251.348 42.081l-.857-.974s-4.407 6.895-4.866 9.498c-.459 2.604-1.067 5.597-1.067 5.597s-1.099 3.378-1.81 4.876c-.711 1.499-1.38 2.927-1.444 3.578-.064.65.263 2.083-1.12 2.99-1.384.908-1.711 3.385-1.711 3.385s-4.98 4.812-7.63 4.942c-2.65.13-10.193 1.432-9.93 2.734.263 1.302-3.158 2.083-4.538 2.406-1.38.324 8.891 4.222 2.895 9.238 0 0 3.813.781 4.208 1.693.394.91 4.406-.521 4.406-.521s.857-2.016 3.817-2.146c2.959-.13 4.47-1.432 4.47-1.629 0-.197 2.96-1.819 4.606-2.276 1.647-.457 3.813-.65 3.88-1.105.068-.454 9.864-42.286 9.864-42.286h-3.173z"/>
        <path fill="#000" d="M251.348 42.081l-.857-.974s-4.407 6.895-4.866 9.498c-.459 2.604-1.067 5.597-1.067 5.597s-1.099 3.378-1.81 4.876c-.711 1.499-1.38 2.927-1.444 3.578-.064.65.263 2.083-1.12 2.99-1.384.908-1.711 3.385-1.711 3.385s-4.98 4.812-7.63 4.942c-2.65.13-10.193 1.432-9.93 2.734.263 1.302-3.158 2.083-4.538 2.406-1.38.324 8.891 4.222 2.895 9.238 0 0 3.813.781 4.208 1.693.394.91 4.406-.521 4.406-.521s.857-2.016 3.817-2.146c2.959-.13 4.47-1.432 4.47-1.629 0-.197 2.96-1.819 4.606-2.276 1.647-.457 3.813-.65 3.88-1.105.068-.454 9.864-42.286 9.864-42.286h-3.173z"/>
        <path fill="#CA8496" d="M261.599 222.607c8.682 1.61 10.261-4.975 10.261-4.975s1.067-5.854 1.48-6.294a.716.716 0 0 0 .067-.559 7.588 7.588 0 0 0-1.252-2.758c-.544-.637-.1-3.272-.1-3.272l-10.061-2.537s-.89 2.003-.986 2.928c-.096.925-1.579 5.125-1.422 5.71.156.583-.64 2.392-.74 3.317-.1.925-1.33 2.293-1.423 2.783a11.78 11.78 0 0 1-.544 1.283 12.507 12.507 0 0 0-.64 1.985c-.516 2.047 5.36 2.389 5.36 2.389"/>
        <path fill="#000" d="M261.599 222.607c8.682 1.61 10.261-4.975 10.261-4.975s1.067-5.854 1.48-6.294a.716.716 0 0 0 .067-.559l-2.091 5.924s-1.725 3.564-8.138 3.025c-3.65-.302-5.445-.974-6.317-1.495a12.472 12.472 0 0 0-.64 1.985c-.498 2.047 5.378 2.389 5.378 2.389"/>
        <path fill="#000" d="M268.357 213.336s-2.17.05-2.32-1.706l2.32 1.706z"/>
        <path fill="#4C4981" d="M230.612 155.666c1.067 1.612 2.32 8.637 2.32 8.637s.839 1.611.789 2.976c-.05 1.365.79 3.87.79 3.87l2.763 10.1s-.299 2.68.74 4.573c1.038 1.893.935 1.32.441 4.637-.494 3.318.594 6.392 2.369 7.367 1.775.974-.79 3.268-.79 3.268s11.346 3.025 13.715 1.172c2.369-1.854-1.234-11.026-1.234-11.026s.59-7.711.199-8.834c-.391-1.122-2.073-10.694-2.073-10.694s-1.036-4.341-.64-5.073c.394-.732-.25-2.832-.25-2.832s-1.675-2.34-1.53-3.071c.147-.732-.494-2.04-.494-2.04s5.03-7.614 4.589-9.028c-.441-1.414.195-3.708.195-3.708s.637-1.08 1.402-2.367c.935-1.583 2.066-3.48 2.447-4.07.483-.757 1.65-3.958 2.3-5.802l.463-1.323s.786 14.343 1.48 15.807c.694 1.463 1.725 13.016 1.725 13.016.381 1.03.55 2.126.494 3.223-.1 1.804 1.58 9.66 1.58 9.66s.74 5.562.245 7.036c-.495 1.474-.1 12.246-.1 12.246s-2.714 2.11-3.404 3.708c-.69 1.597.1 6.002.1 6.002s7.892 3.901 11.382 2.877c3.489-1.023 2.07-6.926 2.07-6.926s2.368-3.905 2.368-5.418c0-1.513.84-6.146.84-6.146 3.009-5.467 1.824-18.737 2.315-19.81.491-1.073-1.017-5.076-2.258-6.867-1.242-1.79-.74-6.684 0-8.091.74-1.407-.733-6.333-.733-6.333s1.423-9.467 1.384-10.93c-.04-1.463 1.234-5.805 1.234-5.805s1.28-2.244.985-2.927c-.295-.682.985-2.441.64-3.222-.344-.781.295-3.166.94-4.573.326-.729.735-2.723 1.066-4.496.303-1.686.527-3.167.527-3.167l-8.142-6.487-20.323-5.277-7.647-2.441-7.448 11.61s-.768 1.213-1.451 2.613c-.583 1.207-1.106 2.554-1.014 3.388a4.64 4.64 0 0 1-.69 3.025s-4.456 13.914-4.356 17.92c.099 4.008-1.566 12.785-1.566 12.785s-1.838 5.657-.754 7.268"/>
        <path fill="#FF5344" d="M251.857 59.38v30.447l-8.138 16.24-.26.513-21.543-1.407-8.28-.542-19.22-1.256V66.953l19.22.539 8.597.239 21.742.608z"/>
        <path fill="#000" d="M251.857 61.177v28.65l-1.989 3.965v.004l-2.04 4.063v.003l-4.109 8.204.459-30.448.092-6.142 3.909-4.278 1.704-1.865z"/>
        <path fill="#FF5344" d="M252.96 51.295V61.93l-1.103 1.741-1.974 3.11-1.75 2.754-3.863 6.087-.092-.004-51.456-2.617V62.51l.128-.138 6.143-6.579 2.226-2.378 4.02-4.306z"/>
        <path fill="#000" d="M244.27 65.135v10.487L192.722 73V62.51l.128-.138zM252.96 51.295V61.93l-8.69 13.692V65.134z"/>
        <path fill="#3F3D56" d="M249.89 56.188l-.007 7.145v3.448l-.015 27.011v.004l-2.04 4.063.305-28.323.046-4.338.071-6.4-49.257-3.004 2.226-2.378z"/>
        <path fill="#3F3D56" d="M225.715 56.54l-3.454 7.412-.028 3.779-.317 37.442-8.28-.542V63.456l4.418-6.916z"/>
        <path fill="#3F3D56" d="M214.348 57.026c-1.994.655-4.136.73-6.172.214-.39-.079-.756-.25-1.067-.496a2.774 2.774 0 0 1-.668-1.312 10.3 10.3 0 0 1-.59-3.142c.024-1.055.437-2.188 1.319-2.814.18-.106.349-.23.501-.373.186-.228.318-.493.388-.777.605-1.78 1.778-3.663 3.65-3.948 1.731-.26 3.307.936 4.641 2.058l2.927 2.463c.896-2.365 3.56-3.565 5.952-2.679a4.602 4.602 0 0 1 2.663 2.563 16.347 16.347 0 0 1 6.512-4.419c.554-.204 1.205-.373 1.71-.067.312.229.549.543.68.905a13.758 13.758 0 0 1 1.27 5.488.977.977 0 0 1 1.127.387c.228.365.357.781.377 1.21.079.662.118 1.328.117 1.995 0 .703-.067 1.46-.53 1.994-.597.686-1.628.76-2.546.781.441.387.224 1.168-.263 1.499a2.987 2.987 0 0 1-1.715.327c-2.276-.021-4.698-.084-6.594-1.337-.746-.492-1.372-1.15-2.134-1.643-1.839-1.203-4.147-1.26-6.274-1.16-1.927.112-3.453 1.692-5.281 2.283"/>
        <path fill="#3F3D56" d="M213.938 56.54s-19 2.621-21.653 13.984l3.98-.58 2.795 4.953s2.949-11.075 11.638-13.696c8.69-2.62 11.78-3.06 11.78-3.06s6.047 1.46 11.488 18.793l3.095-4.222 5.449 1.168s-3.977-13.548-14.729-17.336l-13.843-.004z"/>
        <path fill="#FEC2BE" d="M260.663 42.567c.313-.127 21.771-8.89 18.815-10.635-1.753-1.034-3.912-5.414-5.391-8.844-1.032-2.4-1.733-4.327-1.733-4.327s-17.221-3.026-11.058 7.415a19.198 19.198 0 0 1 2.174 5.144c1.757 7.11-2.665 11.117-2.807 11.247"/>
        <path fill="#000" d="M261.297 26.176a19.197 19.197 0 0 1 2.172 5.144c4.454-.31 8.368-3.032 10.17-7.071.17-.379.32-.767.448-1.161-1.032-2.4-1.733-4.328-1.733-4.328s-17.221-3.025-11.057 7.416"/>
        <path fill="#FEC2BE" d="M250.59 19.052c0 6.575 5.39 11.905 12.037 11.905 4.768 0 9.087-2.784 11.011-7.099a11.68 11.68 0 0 0 1.025-4.806c.003-6.574-5.383-11.907-12.03-11.91-6.648-.004-12.039 5.324-12.042 11.899v.011z"/>
        <path fill="#000" d="M238.978 111.294c1.263 1.133 1.746 3.29 1.746 3.29s5.937 4.006 5.527 1.463c-.408-2.544 3.06-12.781 3.06-12.781l-.396 13.952s18.94-.876 20.324-2.244c1.383-1.369 9.471-4 9.471-4s2.49 1.966 4.752 3.458c.303-1.685.527-3.166.527-3.166l-8.142-6.487-20.323-5.277-7.647-2.442-7.448 11.61s-.768 1.224-1.451 2.624"/>
        <path fill="#FFF" d="M238.359 110.193c1.576.978 2.17 3.613 2.17 3.613s5.918 4 5.523 1.463c-.395-2.536 3.059-12.784 3.059-12.784l-.395 13.952s18.944-.876 20.324-2.244c1.38-1.369 9.471-4 9.471-4s7.003 5.562 8.287 5.076c1.284-.485-2.269-9.955-2.269-9.955l-3.65-55.426s.986-16.493-.493-17.077a2.144 2.144 0 0 1-.623-.383c-.974-.869-1.266-2.628-1.352-4.106-.095-1.759-2.464-.879-2.464-.879l1.38 1.759-12.225 7.349-.106.067c-.477-.249-.967-.47-1.47-.662-1.066-.411-2.521-.798-3.464-.411-.526.263-.973.66-1.294 1.15a14.423 14.423 0 0 0-1.665 3.339l-4.439 7.416s-2.269 9.85-2.269 10.244c0 .394-.69 9.368-1.48 10.343-.79.974-1.579 5.857-1.284 7.32.296 1.464-.494 6.928-.494 6.928-3.254 2.635-4.933 11.61-4.933 11.61s-5.129 10.05-5.524 11.221c-.395 1.172.1 4.102 1.679 5.077"/>
        <path fill="#000" d="M265.102 36.941c1.199 1.76 4.663 4.222 4.663 4.222l9.998-8.352c-.975-.869-1.266-2.628-1.352-4.105-.096-1.76-2.464-.88-2.464-.88l.284.352a1.561 1.561 0 0 1-.427 2.308l-10.702 6.455z"/>
        <path fill="#FFF" d="M265.102 36.551c1.199 1.759 4.663 4.222 4.663 4.222l9.998-8.352c-.975-.87-1.266-2.628-1.352-4.106-.096-1.759-2.464-.88-2.464-.88l.284.353a1.561 1.561 0 0 1-.427 2.307l-10.702 6.456z"/>
        <path fill="#000" d="M260.478 37.867c1.292 1.53 3.123 3.26 3.038 2.392-.085-.87 1.092-2.783 1.842-3.641a5.517 5.517 0 0 0-3.585.095 3.368 3.368 0 0 0-1.295 1.154"/>
        <path fill="#FFF" d="M260.28 37.283c1.294 1.527 3.122 3.26 3.037 2.392-.086-.869.97-2.273 1.721-3.131-1.067-.412-2.518-.799-3.464-.415a3.306 3.306 0 0 0-1.295 1.154"/>
        <path fill="#FF718D" d="M263.516 43.837c.436 0 .79.35.79.78a.785.785 0 0 1-.79.782.785.785 0 0 1-.79-.781c0-.432.354-.781.79-.781M257.53 64.913c.436 0 .79.35.79.781a.785.785 0 0 1-.79.781.785.785 0 0 1-.79-.781c0-.431.354-.781.79-.781M250.754 86.253c.437 0 .79.35.79.781a.785.785 0 0 1-.79.781.785.785 0 0 1-.79-.781c0-.431.354-.781.79-.781M250.559 109.475c.436 0 .79.35.79.781a.785.785 0 0 1-.79.781.785.785 0 0 1-.79-.78c0-.432.354-.782.79-.782M260.03 53.79c.437 0 .79.349.79.78a.785.785 0 0 1-.79.781.785.785 0 0 1-.79-.78c0-.432.354-.782.79-.782M254.702 75.453c.436 0 .79.35.79.78a.785.785 0 0 1-.79.782.785.785 0 0 1-.79-.781c0-.431.354-.781.79-.781M249.506 96.726c.436 0 .79.35.79.781a.785.785 0 0 1-.79.781.785.785 0 0 1-.79-.781c0-.431.353-.781.79-.781M250.69 112.079c.436 0 .79.35.79.78a.785.785 0 0 1-.79.782.785.785 0 0 1-.79-.781c0-.432.354-.781.79-.781"/>
        <path fill="#000" d="M279.76 32.91s-.132-1.172 1.579.844c1.71 2.016 4.933 3.775 4.933 3.775s7.302 5.073 7.693 7.416 2.76 12.489 1.512 15.873c-1.248 3.384-10.788 19.581-10.788 19.581s2.49 2.927 1.91 6.375c-.58 3.447-1.316 8.197-.989 9.238.327 1.041-.394 3.641.712 4.552 1.106.911 2.3 2.463-1.185 4.556 0 0-.657 1.759-.067 2.146.59.387-8.746 4.426-12.431 2.276-3.685-2.15-10.315-19.32-10.457-23.159-.142-3.838 2.038-16.534 3.223-19.518 1.184-2.983 4.737-14.634 6.249-17.238 1.511-2.603 8.105-16.717 8.105-16.717"/>
        <path fill="#4C4981" d="M280.154 32.91s-.131-1.172 1.58.844c1.71 2.016 4.933 3.775 4.933 3.775s7.298 5.073 7.696 7.416c.399 2.343 2.76 12.489 1.512 15.873-1.248 3.384-10.802 19.581-10.802 19.581s2.49 2.927 1.91 6.375c-.58 3.447-1.316 8.197-.989 9.238.328 1.041-.394 3.641.712 4.552 1.106.911 2.301 2.463-1.185 4.556 0 0-.658 1.759-.067 2.146.59.387-8.746 4.426-12.431 2.276-3.685-2.15-10.315-19.32-10.457-23.159-.142-3.838 2.038-16.534 3.223-19.518 1.184-2.983 4.737-14.634 6.249-17.238 1.511-2.603 8.116-16.717 8.116-16.717"/>
        <path fill="#000" d="M282.786 43.967s-5.655 6.181-5.46 10.28c0 0-.077-6.635 5.46-10.28M274.958 54.116c0 .197-3.813 14.248-3.617 16.003.196 1.756-1.117 6.959-1.117 6.959l-1.779-.457s1.38-7.22 1.644-9.886c.263-2.666 4.869-12.619 4.869-12.619M273.446 94.19c.132.197 9.013 10.149 6.513 10.863-2.5.714-6.513-10.863-6.513-10.863M280.748 91.653c.196.13 3.557 7.156 3.945 5.277.388-1.879-2.892 5.14-3.418-.067l-.527-5.21zM263.697 35.12s-3.667-2.21-8.273 3.447c0 0-3.354 1.889-4.339 2.343-.985.453-2.106 12.555-2.106 12.555s-2.17 5.203-1.579 8.197c.59 2.994-1.707 13.274-1.707 13.274s-3.817 18.473-3.685 18.997c.132.524 3.88-5.79 3.813-8.911-.067-3.12 3.158-12.883 3.62-13.467.463-.584 3.622-17.309 3.622-17.309s2.564-7.092 4.207-9.431c1.644-2.34 3.685-6.765 4.538-7.546a8.642 8.642 0 0 1 2.039-1.302l-.15-.848z"/>
        <path fill="#4C4981" d="M263.733 35.12s-4.112-2.21-8.718 3.447c0 0-3.354 1.889-4.339 2.343-.985.453-2.106 12.555-2.106 12.555s-2.17 5.203-1.579 8.197c.59 2.994-1.707 13.274-1.707 13.274s-3.816 18.473-3.685 18.997c.132.524 3.88-5.79 3.817-8.911-.064-3.12 3.154-12.883 3.617-13.467.462-.584 3.617-17.305 3.617-17.305s2.564-7.092 4.208-9.432c1.643-2.34 3.684-6.765 4.538-7.546.854-.78 2.433-1.302 2.433-1.302l-.096-.85z"/>
        <path fill="#FEC2BE" d="M245.693 75.78s-7.825-5.073-11.61-2.572c-3.784 2.502-9.958 6.051-3.88 8.623 6.079 2.572 14.501 2.079 14.501 2.079l.99-8.13z"/>
        <path fill="#000" d="M251.135 124.733c1.166 2.462 2.134 14.913 2.781 18.856.936-1.583 2.067-3.48 2.447-4.07.484-.756 1.65-3.958 2.301-5.801-.743-1.787-2.795-6.91-2.795-8.795 0-2.294-3.749-5.172-3.749-5.172s-2.369 2.055-.985 4.982M276.292 162.938s-8.682-3.662-11.247-1.055c-2.564 2.606 11.247 1.055 11.247 1.055M271.408 164.401s8.782 4.88 5.773 5.707c-3.01.826-5.773-5.707-5.773-5.707M245.167 160.155s3.748.243 2.315.975c-1.433.732-2.315-.975-2.315-.975M240.479 161.278c.05.242 10.9 3.708 8.781 5.277-2.12 1.569-8.781-5.277-8.781-5.277M275.008 191.138c-1.626-.243-10.702-4.39-7.153-1.407 3.55 2.983 7.153 1.407 7.153 1.407M270.52 194.406s-.79 3.026-3.8 2.635c-3.009-.39 3.8-2.635 3.8-2.635M273.037 200.56c-.544-.148-7.006-3.075-7.152-1.71-.146 1.365 6.164 3.757 6.658 3.025.283-.385.454-.84.494-1.316M252.12 197.041c-.79-.05-8.18-2.388-9.667-.292l9.667.292zM245.412 198.406s-1.284-1.122-2.564-.535c-1.281.588 2.564.535 2.564.535M261.787 210.508a2.186 2.186 0 0 1-1.675 1.707l1.675-1.707z"/>
        <path fill="#CA8496" d="M224.15 215.095c.494 1.999 7.401 2.196 10.706 1.657 3.304-.537 10.161-2.472 10.161-2.472s7.203-.683 9.322-1.563c2.12-.88.445-3.124.445-3.124v-.207c.05-.816.2-3.775-.31-4.573-.593-.925-.248-3.951-.248-3.951s-10.208 1.952-10.407 1.023c-.2-.928-1.779-2.244-2.515-2.536-.736-.292-1.284 2.438-1.284 2.438s-4.624 3.905-4.933 5.32c-.31 1.414-3.557 2.145-3.557 2.145s-4.933 1.369-6.217 2.051a2.368 2.368 0 0 0-1.362 1.893 5.34 5.34 0 0 0 .199 1.9"/>
        <path fill="#000" d="M224.15 215.095c.494 1.999 7.401 2.196 10.706 1.657 3.304-.537 10.161-2.472 10.161-2.472s7.203-.683 9.322-1.563c2.12-.88.445-3.124.445-3.124v-.207l-10.315 2.258s-5.079 2.146-8.333 2.146c-2.845 0-9.212 1.154-12.168-.594a5.343 5.343 0 0 0 .182 1.9"/>
        <path fill="#000" d="M238.124 207.384s.495 3.223 2.469 4.296l-2.469-4.296zM251.06 15.756c.186.099.381.179.583.24.929.246 1.832-.37 2.654-.863.821-.492 1.956-.858 2.667-.221.929.834.256 2.617 1.213 3.42.605.51 1.565.351 2.237.756.672.404.875 1.333 1.046 2.128.17.795.509 1.696 1.295 1.928.786.232 1.511-.278 2.283-.25.16 0 .356.025.455-.091a.469.469 0 0 0 .075-.352c-.096-.945-.01-1.9.253-2.815.316-.897 1.067-1.713 2.002-1.857 1.387-.211 2.55.992 3.365 2.11a34.491 34.491 0 0 1 2.333 3.716c.043.083.083.17.117.257a11.667 11.667 0 0 0 1.025-4.806c.002-6.575-5.385-11.906-12.033-11.909-5.366-.001-10.086 3.512-11.57 8.613v-.004z"/>
        <path fill="#9A5E7F" d="M271.202 19.693c-.815-1.13-1.978-2.33-3.365-2.11-.95.143-1.686.956-2.002 1.853a7.397 7.397 0 0 0-.25 2.814.48.48 0 0 1-.08.352c-.108.116-.293.099-.453.092-.771-.028-1.54.468-2.283.25-.743-.219-1.124-1.133-1.295-1.928-.17-.795-.355-1.696-1.045-2.111-.69-.415-1.633-.246-2.238-.757-.956-.805-.284-2.589-1.212-3.419-.712-.64-1.846-.274-2.668.218-.822.493-1.725 1.108-2.653.866-.313-.085-.594-.264-.9-.38-1.462-.55-3.358.383-4.56-.609a3.458 3.458 0 0 1-.91-1.559 9.855 9.855 0 0 1-.666-2.483 3.296 3.296 0 0 1 .67-2.424c.782-.915 2.105-1.14 3.104-1.815.85-.574 1.423-1.453 1.985-2.315.562-.862 1.106-1.76 1.924-2.368.818-.608 1.978-.907 2.895-.447.29.198.611.348.95.444.375.007.746-.092 1.067-.285 3.421-1.594 7.405-1.312 11.157-.838 1.501.19 3.024.416 4.393 1.056 1.37.64 2.579 1.759 2.962 3.212.307 1.147.072 2.392.442 3.518.249.767.76 1.407 1.067 2.177.8 2.055-.157 4.313-.562 6.48-.445 2.368-.22 4.926-1.238 7.174-.2.44-.423 1.21-.925.918-.355-.215-.732-1.464-.946-1.85a34.19 34.19 0 0 0-2.365-3.726"/>
        <path fill="#000" d="M292.848 57.824l1.779 5.01s-4.212 15.479-6.186 18.736c-1.973 3.258-4.865 7.416-4.865 7.416s-4.866 2.407-10.524 1.302c-5.66-1.105-22.166-4.035-22.166-4.035s-1.38.26-2.102-.781-4.475-1.562-4.475-1.562-4.339-6.244.99-8.848c0 0 .653 1.432 3.485.458 2.83-.975 3.681.78 3.681.78s4.606.912 7.17.585c2.565-.328 8.946-.454 9.603-.975a.85.85 0 0 1 1.185.063s1.576-.584 2.102-1.168c.527-.584 1.252.648 1.252.648s.921-.517.658-1.168c-.263-.651.854-3.124.854-3.124s.526-1.626.195-2.927c-.33-1.302 1.647-5.98 1.647-5.98a8.186 8.186 0 0 0-.263-2.344c-.33-1.171 2.49-3.518 2.49-3.518s2.763-13.27 8.618-8.91c5.854 4.358 4.872 10.342 4.872 10.342"/>
        <path fill="#4C4981" d="M293.254 57.824l1.778 5.01s-4.211 15.479-6.185 18.736c-1.974 3.258-4.866 7.416-4.866 7.416s-4.869 2.407-10.524 1.302c-5.656-1.105-22.173-4.035-22.173-4.035s-1.38.26-2.102-.781-4.474-1.562-4.474-1.562-4.34-6.244.989-8.848c0 0 .654 1.432 3.485.458 2.831-.975 3.681.78 3.681.78s4.624.912 7.17.585c2.547-.328 8.946-.454 9.604-.975a.846.846 0 0 1 1.18.063s1.58-.584 2.106-1.168c.527-.584 1.252.648 1.252.648s.918-.517.655-1.168c-.263-.651.857-3.124.857-3.124s.526-1.626.196-2.927c-.331-1.302 1.646-5.98 1.646-5.98a8.198 8.198 0 0 0-.263-2.344c-.33-1.171 2.49-3.518 2.49-3.518s2.764-13.27 8.618-8.91c5.854 4.358 4.88 10.342 4.88 10.342"/>
        <path fill="#000" d="M250.49 78.774c.068.454 1.516 2.276.99 2.6-.526.323-1.384.13-.594 1.171.79 1.041.711 2.603.2 2.406-.513-.197-1.38-2.536-1.38-3.447s.785-2.73.785-2.73M270.028 77.733s.395 4.552 3.618 5.853c3.222 1.302-3.618-5.853-3.618-5.853M276.736 76.17c.196.064 4.603 2.407 2.629 3.772-1.974 1.365-2.629-3.771-2.629-3.771M277 72.916s6.444 1.302 4.267 2.407c-2.176 1.104-4.268-2.407-4.268-2.407"/>
        <g fill="#000">
            <path d="M265.82 18.328c.317-.897 1.068-1.71 2.003-1.854 1.387-.211 2.55.988 3.365 2.11a34.155 34.155 0 0 1 2.333 3.712c.213.39.576 1.64.946 1.854.502.292.711-.482.925-.922 1.017-2.237.793-4.802 1.238-7.17.26-1.382.74-2.814.846-4.182.15 1.699-.523 3.49-.846 5.224-.445 2.368-.22 4.925-1.238 7.17-.2.44-.423 1.21-.925.921-.356-.214-.733-1.463-.946-1.854a34.113 34.113 0 0 0-2.319-3.708c-.814-1.132-1.978-2.329-3.365-2.11-.95.144-1.686.956-2.002 1.854a5.117 5.117 0 0 0-.263 1.463 6.653 6.653 0 0 1 .249-2.508M245.273 12.15c.16.59.475 1.127.911 1.559 1.202.992 3.098.056 4.56.608.292.142.593.268.9.377.928.246 1.831-.352 2.653-.862.822-.51 1.956-.859 2.667-.222.928.834.257 2.617 1.213 3.42.605.513 1.565.351 2.237.756.672.405.875 1.333 1.046 2.11.17.778.509 1.696 1.295 1.929.786.232 1.511-.278 2.283-.25.16 0 .356.024.452-.092a.259.259 0 0 0 .057-.095c0 .26 0 .521.024.781a.488.488 0 0 1-.081.352c-.107.116-.292.099-.452.092-.772-.029-1.54.468-2.283.25-.743-.219-1.124-1.137-1.295-1.928-.17-.792-.355-1.696-1.046-2.129-.69-.433-1.632-.246-2.237-.756-.956-.802-.285-2.586-1.213-3.42-.711-.636-1.845-.27-2.667.222-.822.492-1.725 1.108-2.654.862-.313-.085-.594-.26-.9-.377-1.461-.552-3.357.384-4.559-.608a3.472 3.472 0 0 1-.91-1.562 9.743 9.743 0 0 1-.666-2.484 3.977 3.977 0 0 1 .021-.872c.123.801.34 1.586.644 2.34"/>
        </g>
        <path fill="#35323E" d="M85.056 183.188c0-19.223 11.332-34.807 25.306-34.807 13.975 0 25.328 15.591 25.328 34.807 0 19.215-11.332 34.806-25.31 34.806-13.978 0-25.324-15.584-25.324-34.806m-1.985.53c0 21.96 12.887 39.754 28.782 39.754s28.78-17.801 28.78-39.753c0-21.953-12.885-39.753-28.78-39.753-15.895 0-28.782 17.797-28.782 39.753"/>
        <path fill="#464353" d="M108.378 96.842l1.984 33.379h39.004a13.602 13.602 0 0 1 9.169 3.43 12.04 12.04 0 0 1 3.934 7.859v50.064h-4.98l.036-3.437H108.36v-4.925h49.232l.406-40.168a6.469 6.469 0 0 0-.157-1.502c-.306-1.323-1.163-3.736-3.457-5.09a6.5 6.5 0 0 0-3.308-.852H106.88l-2.49-34.85H89.524v-3.908h18.855z"/>
        <path fill="#000" d="M108.378 96.842l1.984 33.379h39.004a13.602 13.602 0 0 1 9.169 3.43 12.04 12.04 0 0 1 3.934 7.859v50.064h-4.98l.036-3.437H108.36v-4.925h49.232l.406-40.168a6.469 6.469 0 0 0-.157-1.502c-.306-1.323-1.163-3.736-3.457-5.09a6.5 6.5 0 0 0-3.308-.852H106.88l-2.49-34.85H89.524v-3.908h18.855z"/>
        <path fill="#35323E" d="M107.14 114.756l-37.467-1.225 1.985 51.535 89.818.982-2.233-20.858-48.88 8.098z"/>
        <path fill="#464353" d="M73.145 188.134h49.623v-4.908H73.145z"/>
        <path fill="#464353" d="M106.88 179.508v-14.424h3.97v14.424c1.469 1.087 2.49 3.331 2.49 5.93 0 3.66-2.003 6.625-4.468 6.625s-4.467-2.965-4.467-6.624c.003-2.6 1.017-4.844 2.475-5.931M126.389 191.789a4.705 4.705 0 0 0-6.1-.214s-5.954 3.926-.498 20.615c0 0 3.973 2.462 1.985-5.4-1.988-7.863-.992-12.764.992-12.764 1.985 0 4.468 5.4 4.468 5.4l3.474-1.47s-1.568-3.62-4.321-6.167M163.607 191.789a4.705 4.705 0 0 0-6.1-.214s-5.954 3.926-.498 20.615c0 0 3.973 2.462 1.988-5.4-1.984-7.863-.996-12.764.993-12.764 1.988 0 4.463 5.4 4.463 5.4l3.475-1.47s-1.568-3.62-4.321-6.167"/>
        <path fill="#35323E" d="M163.212 195.99c6.166 0 11.165 6.593 11.165 14.726 0 8.133-4.999 14.726-11.165 14.726-6.166 0-11.165-6.593-11.165-14.726 0-8.133 4.999-14.727 11.165-14.727M125.994 195.99c6.166 0 11.165 6.593 11.165 14.726 0 8.133-4.999 14.726-11.165 14.726-6.166 0-11.164-6.593-11.164-14.726 0-8.133 4.998-14.727 11.164-14.727"/>
        <g transform="translate(46.238 58.102)">
            <mask id="d" fill="#fff">
                <use xlink:href="#c"/>
            </mask>
            <path d="M51.295.855c-1.39 1.055-2.258 1.847-3.986 2.564-1.25.518-2.551 1.313-2.846 2.562a9.794 9.794 0 0 0-.06 1.674c-.057 1.126-.605 2.174-.957 3.25a4.873 4.873 0 0 0-.264 1.964v.031c0 .078.022.155.036.23v.038c.035.167.086.331.153.489 0 .02.018.039.025.06.007.021.057.116.089.172l.032.06c.046.074.092.144.146.214.217.285.508.525.711.824.254.466.393.986.405 1.516.057.535.11 1.073.168 1.607v.12a9.439 9.439 0 0 0-.029.704c.002.554.047 1.107.135 1.653-1.184.883-2.404 1.942-2.657 2.716a1.305 1.305 0 0 0-.28.774c-1.113.862-5.844.352-5.844.352s-3.856 2.058-5.257 1.256c-1.402-.802-9.817 5.6-9.817 5.6s-2.22.117-2.337 1.031c0 0-2.802 2.058-4.908 2.058-2.105 0-3.39 2.628-3.39 2.628s-3.503 1.6-4.673 1.83c-1.17.228-3.155 1.372-2.568 1.829.587.458-.117 1.484-1.17 2.287-1.053.802-2.69 4.925-1.285 5.484 1.406.56 5.258 1.717 6.31 2.287.403.208.858.292 1.309.242.51.034 1.022-.05 1.494-.242l.164-.2c1.373 1.03 3.162 2.089 4.883 2.258 2.71.267 8.536 1.365 11.005 1.84v.453c-.022 4.271.182 8.697 1.014 10.052 1.753 2.86 1.984 25.262 1.984 25.262s5.492.802 7.363 2.515c1.778 1.619 10.734 4.574 12.502.736l.562.239c4.552 1.953 10.595 4.732 11.289 5.98 1.12 2.059 9.183 5.488 9.183 5.488s5.26.113 3.738 4.926c-1.522 4.812 10.094 16.33 10.094 16.33-.018.728.219 1.44.67 2.016.147.184.313.351.497.5.466.351 1.917.995 3.6 1.28.43.957.771 1.788.71 1.92-.06.135.506.63 1.25 1.278a26.05 26.05 0 0 0 2.009 3.627c.255.426.613.782 1.042 1.038 1.138.457 12.996 7.43 15.22 7.659 2.066.214 6.263 1.217 10.04-1.693l-.609 4.876-.202 1.618s5.961 2.4 8.415 2.4c2.454 0 10.749 3.887 10.749 3.887s5.491 1.143 9.116-1.256c1.895-1.256 1.358-2.888.092-4.144-1.149-1.157-2.899-2.016-3.955-2.016-2.223 0-10.987-10.286-11.57-11.743-.213-.53-.57-.352-.932.116-.711-1.664-1.643-4.006-1.892-5.681.939-.236 1.54-.408 1.54-.408s.114-3.315-.711-3.66h-.022c-.796-.464-.796-7.299-.796-7.299s-1.868-6.04-1.633-8.221c.235-2.182-4.663-18.783-4.663-18.783s-1.284-9.98-3.62-10.99c-1.975-.855-18.602-5.548-23.738-6.99-.11-.247-.907-1.795-3.49-1.795-2.806 0-11.218.117-14.02-3.085a6.404 6.404 0 0 1-.865-1.386c1.388-2.522 1.477-6.684.979-7.644-.712-1.373-1.167-4.117-1.167-4.117s-.356-6.627-.825-8.344c-.47-1.717-2.447-15.775-2.447-15.775s-3.973-3.746-6.78-4.556a11.782 11.782 0 0 1-3.396-1.759c.043-.228.085-.435.117-.612a10.369 10.369 0 0 0 3.557-5.889c.054-.125.092-.256.114-.39.022-.18.031-.36.028-.542.036-.33.057-.665.06-1.003v-.218c.037-.163.103-.318.196-.457.41-.58 1.252-.704 1.925-.992a2.9 2.9 0 0 0 .295-.155l.085-.056c.064-.039.125-.078.182-.12l.1-.08.145-.124.096-.095c.043-.042.085-.084.124-.13l.093-.11c.036-.045.071-.087.103-.133l.085-.123c.032-.043.06-.088.086-.134.028-.045.057-.091.082-.14l.067-.13c.022-.043.054-.106.075-.159.019-.039.035-.079.05-.12.025-.06.05-.12.07-.179l.033-.095c.021-.07.046-.14.067-.214v-.022a5.44 5.44 0 0 0 .164-1.825c0-.155-.028-.306-.053-.458-.175-1.055-.559-2.142-.43-3.184 0-.091.028-.182.046-.274v-.031c.02-.096.047-.19.078-.282.146-.419.395-.802.53-1.22.027-.088.05-.176.067-.265v-.07c0-.074.022-.148.025-.222v-.052a2.614 2.614 0 0 0-.039-.577 3.769 3.769 0 0 0-1.27-2.111c-.964-.837-2.226-1.298-3.467-1.703C62.64 1.717 59.309.718 55.92.503c-.78-.05-1.687-.198-2.544-.198-.777 0-1.514.122-2.08.55zm8.693 27.996c-.1-.11-.192-.222-.288-.334.139-.042.274-.117.409-.18v.637l-.12-.123zm-42.507 15.43c.247-.083.503-.137.762-.162.225.02.446.08.65.176.274.127.559.247.847.352l-2.038-.352a1.177 1.177 0 0 0-.217-.01l-.004-.004zm8.277 1.484c.384.018.619.018.619.018v.134l-.619-.152zm45.605 5.576l.042-.643.139 1.699c-.117-.672-.181-1.056-.181-1.056zm44.334 85.554a40.583 40.583 0 0 0-4.702-2.37s-6.544-1.542-7.945-2.815c-1.402-1.273-5.58-3.557-5.58-3.557a325.199 325.199 0 0 1-2.096-1.882c.04-.267.064-.549.078-.848-.165-.6-.372-1.188-.618-1.759-.274-.616-.626-1.214-1.018-1.456-.932-.57-4.09-12.345-4.09-13.72 0-1.376-1.985-7.888-2.685-9.031-.701-1.144-1.519-4.01-1.519-4.01s10.631 1.611 20.565.703c-.018.042 3.137 1.185 2.572 2.445-.587 1.256-.207 3.543.07 3.543.278 0 1.566 1.829.865 3.887-.7 2.058 4.556 20.802 6.893 23.317 0 0 0 .063-.043.173-.17.763-.661 3.87 2.615 4.056h.373c.249 1.956.622 5.034.85 7.588-.526-1.516-2.557-3.053-4.585-4.264z" mask="url(#d)"/>
        </g>
        <path fill="#A1616A" d="M132.905 184.936s2.347 4.806 2.234 5.147c-.114.341 5.043 4.422 5.043 4.422l5.62-3.968-.573-2.723s-6.306-5.63-6.758-6.273c-.451-.644-5.566 3.395-5.566 3.395"/>
        <path fill="#67647E" d="M164.955 201.2c-3.913 3.743-8.487 2.606-10.67 2.381-2.184-.225-13.818-7.148-14.939-7.602a2.941 2.941 0 0 1-1.02-1.028 26.399 26.399 0 0 1-1.971-3.602c.078.022 3.895 1.098 4.858 0 0 0 1.605-1.949 1.95-1.949s.024-3.416.024-3.416 4.105 2.283 5.481 3.518c1.377 1.235 7.797 2.78 7.797 2.78a39.75 39.75 0 0 1 4.624 2.353c3.055 1.847 6.085 4.436 3.866 6.564"/>
        <path fill="#000" d="M164.955 201.2c-3.913 3.743-8.487 2.606-10.67 2.381-2.184-.225-13.818-7.148-14.939-7.602a2.941 2.941 0 0 1-1.02-1.028c1.358-.802 10.221 4.775 12.704 5.795 2.483 1.02 8.757.453 12.314-1.02 1.778-.736-.025-2.998-2.266-5.08 3.066 1.836 6.096 4.425 3.877 6.553"/>
        <path fill="#A1616A" d="M164.5 189.4s1.636 12.137 1.22 13.72c-.417 1.583 10.25-5.445 10.25-5.445s-3.731-7.606-2.639-9.355c1.092-1.748-8.831 1.08-8.831 1.08"/>
        <path fill="#4C4981" d="M174.704 189.629s-6.651 1.927-10.315 1.7c-3.2-.198-2.735-3.266-2.564-4.025.025-.11.043-.173.043-.173-2.295-2.494-7.47-21.108-6.758-23.141.711-2.034-.573-3.87-.847-3.87s-.644-2.269-.07-3.518c.572-1.249-2.523-2.382-2.523-2.382-9.749.908-20.184-.703-20.184-.703s.8 2.85 1.49 3.982c.69 1.133 2.64 7.603 2.64 8.964 0 1.361 3.094 13.045 4.011 13.611.384.24.73.834 1 1.442.241.564.444 1.144.608 1.735-.356 7.599-9.063 4.65-10.315 3.63a3.097 3.097 0 0 1-1.145-2.497s-11.382-11.43-9.891-16.19c1.49-4.76-3.67-4.876-3.67-4.876s-7.911-3.413-9.014-5.453c-.679-1.256-6.615-4.014-11.083-5.952-2.799-1.214-5.022-2.111-5.022-2.111l1.86-6.586 1.477-5.203 2.76-1.027 8.813-3.268 15.846-2.157 1.45.187 15.39 1.97s22.48 6.35 24.774 7.352c2.294 1.003 3.556 10.906 3.556 10.906s4.816 16.45 4.588 18.614c-.227 2.163 1.605 8.158 1.605 8.158s0 6.786.778 7.247h.025c.797.345.687 3.634.687 3.634"/>
        <path fill="#000" d="M151.653 154.234c-9.75.908-20.185-.703-20.185-.703-.69-2.143-10.315-8.042-10.315-8.042 7.893-1.92 30.5 8.745 30.5 8.745"/>
        <path fill="#444053" d="M141.217 183.276c-.356 7.598-9.063 4.65-10.314 3.63a3.199 3.199 0 0 1-.488-.496c3.048 1.111 8.448 1.967 10.205-4.87.237.566.437 1.145.597 1.736M174.704 189.629s-6.651 1.927-10.315 1.7c-3.2-.198-2.735-3.266-2.564-4.025 3.368-.106 9.166-.42 12.175-1.32h.024c.79.356.68 3.645.68 3.645"/>
        <path fill="#000" d="M141.217 183.276c-.356 7.598-9.063 4.65-10.314 3.63a3.199 3.199 0 0 1-.488-.496c3.048 1.111 8.448 1.967 10.205-4.87.237.566.437 1.145.597 1.736M174.704 189.629s-6.651 1.927-10.315 1.7c-3.2-.198-2.735-3.266-2.564-4.025 3.368-.106 9.166-.42 12.175-1.32h.024c.79.356.68 3.645.68 3.645"/>
        <path fill="#67647E" d="M191.104 213.336c-3.557 2.382-8.945 1.25-8.945 1.25s-8.142-3.87-10.55-3.87c-2.407 0-8.258-2.382-8.258-2.382l.195-1.604.953-7.687s8.935-.225 9.29-1.02c0 0 1.608-3.909 2.181-2.463.573 1.446 9.176 11.656 11.353 11.656 1.039 0 2.757.85 3.884 1.997 1.234 1.257 1.746 2.878-.103 4.123"/>
        <path fill="#000" d="M160.253 146.295s-7.47 4.65-5.389 5.67c2.081 1.02 5.389-5.67 5.389-5.67M163.35 155.255s-6.423 6.033-4.015 6.191c2.408.159 4.016-6.191 4.016-6.191M170.233 174.428s-3.244 6.079-2.034 7.113c1.209 1.034 2.034-7.113 2.034-7.113M134.335 180.553c1.145 1.136-10.898-3.744-8.145-3.972 2.753-.229 8.145 3.972 8.145 3.972"/>
        <path fill="#A1616A" d="M110.249 95.474l-.381-.057c-1.423-.218-6.598-1.02-11.236-2.015a80.748 80.748 0 0 1-3.233-.757c-3.557-.922-5.936-1.917-4.417-2.73 2.013-1.08 3.073-3.043 3.631-4.732a12.397 12.397 0 0 0 .612-3.096s12.96-4.538 10.435 0c-1.237 2.228-.405 4.043.765 5.316a10.07 10.07 0 0 0 2.792 2.058l1.032 6.013z"/>
        <path fill="#000" d="M96.374 91.956s4.623 3.289 9.368.566c4.745-2.723 10.93 24.052 10.93 24.052l6.423 15.652s4.162 3.405-1.017 4.88c-5.178 1.473-16.663-1.475-19.58 2.835-2.916 4.31-8.422 4.992-9.002 4.992-.58 0-2.75-16.222-2.75-16.222l-.582-23.49 6.21-13.265z"/>
        <path fill="#F3F5F9" d="M121.85 136.198c-5.178 1.474-16.666-1.474-19.562 2.835a11.199 11.199 0 0 1-4.936 3.93 13.063 13.063 0 0 1-4.07 1.055c-.074 0-.18-.299-.309-.812-.807-3.283-2.44-15.41-2.44-15.41l-.565-23.482 5.449-11.676.743-1.597a9.862 9.862 0 0 0 2.362 1.136 8.404 8.404 0 0 0 7.01-.566c1.39-.799 2.906.94 4.354 3.8 3.482 6.88 6.572 20.249 6.572 20.249l6.424 15.651c.153.13.3.27.437.415.893.957 2.604 3.31-1.468 4.472"/>
        <path fill="#000" d="M97.181 136.986c.255 1.983.307 3.987.153 5.98a68.808 68.808 0 0 1-1.067 8.444c-.03.175-.076.347-.139.513-2.799-1.213-5.022-2.11-5.022-2.11l1.85-6.597c-.808-3.282-2.44-15.409-2.44-15.409l-.566-23.482 5.45-11.676c-3.558-.922-5.937-1.918-4.418-2.73 2.205-1.186 3.268-3.434 3.78-5.217a19.12 19.12 0 0 0 3.258 3.468l.072.06.412 3.958.128 1.217.263 2.526s-1.262 29.833-2.18 31.535c-.918 1.703-.459 4.992.356 8.848.035.218.074.44.11.672"/>
        <path fill="#FF5344" d="M96.601 135.857c.804 3.87.114 10.202-.804 15.088-.917 4.886-10.67 1.703-12.498 0-1.828-1.702-7.227-2.494-7.227-2.494s-.228-22.237-1.95-25.073c-.817-1.343-1.013-5.734-.992-9.973 0-3.81.207-7.497.278-8.75.018-.288.025-.446.025-.446s-7.47-12.479-7.338-13.386c.132-.908 2.294-1.02 2.294-1.02s8.255-6.354 9.632-5.559c1.376.795 5.16-1.249 5.16-1.249s4.799.539 5.788-.376a.496.496 0 0 0 .177-.419c-.113-1.453 4.887-4.552 5.044-4.647-4.215 3.75 2.6 9.527 3.372 10.16l.07.06.805 7.7s-1.263 29.833-2.18 31.536c-.918 1.702-.46 4.992.344 8.848"/>
        <path fill="#444053" d="M96.157 102.882a.57.57 0 0 1 .572.567.57.57 0 0 1-.572.566.57.57 0 0 1-.573-.566.57.57 0 0 1 .573-.567"/>
        <path fill="#000" d="M97.334 88.167l-3.486 3.335-5.107-8.443a.507.507 0 0 0 .178-.419c-.114-1.453 4.887-4.552 5.04-4.647-4.215 3.764 2.607 9.54 3.375 10.174M95.011 121.032a.57.57 0 0 1 .573.566.57.57 0 0 1-.573.567.57.57 0 0 1-.572-.567.57.57 0 0 1 .572-.566"/>
        <path fill="#444053" d="M95.011 120.803a.57.57 0 0 1 .573.566.57.57 0 0 1-.573.567.57.57 0 0 1-.572-.567.57.57 0 0 1 .572-.566"/>
        <path fill="#FF5344" d="M97.562 87.713l-3.486 3.335-5.111-8.443a.496.496 0 0 0 .178-.419c-.114-1.453 4.887-4.552 5.043-4.647-4.211 3.76 2.604 9.54 3.376 10.174"/>
        <path fill="#000" d="M139.958 134.836c-2.867 1.25-21.678-2.04-24.428-2.835-2.75-.795-6.758-6.92-4.82-11.346 1.94-4.425-.69-8.749-.69-8.749s-4.129-8.732-5.046-10.434c-.918-1.703-2.846-6.656-3.098-7.486a.699.699 0 0 1 .164-.521c.746-1.122 3.62-3.11 3.62-3.11.811.288.91-2.005.879-3.69a33.462 33.462 0 0 0-.075-1.696s.38.383 1.003.904c.228.19.487.398.772.612a11.997 11.997 0 0 0 3.62 1.97c2.754.802 6.652 4.52 6.652 4.52l-1.149 17.425s2.64 16.384 5.392 19.56c2.753 3.177 11.026 3.061 13.761 3.061 2.735 0 3.443 1.815 3.443 1.815"/>
        <path fill="#FF5344" d="M140.182 134.157c-2.867 1.246-21.675-2.044-24.428-2.839-2.753-.795-6.758-6.92-4.816-11.342 1.942-4.422-.69-8.735-.69-8.735s-4.129-8.735-5.047-10.438c-.917-1.702-2.827-6.656-3.094-7.486a.651.651 0 0 1 .164-.517c.743-1.126 3.62-3.113 3.62-3.113.811.291.911-2.002.879-3.687-.018-.947-.075-1.7-.075-1.7a17.297 17.297 0 0 0 1.775 1.52 11.887 11.887 0 0 0 3.614 1.953c2.753.805 6.65 4.524 6.65 4.524l-1.144 17.421s2.639 16.383 5.388 19.56c2.75 3.176 11.026 3.064 13.765 3.064 2.738 0 3.439 1.815 3.439 1.815"/>
        <path fill="#000" d="M108.99 84.754s-.11.602-.292 1.52c-.615 3.114-2.088 9.917-3.151 9.653-.762-.19-2.05-1.523-3.049-2.673.747-1.126 3.621-3.114 3.621-3.114.811.292.91-2.001.879-3.686l.928-.792 1.063-.908z"/>
        <path fill="#FF5344" d="M108.758 84.3s-.107.602-.288 1.52c-.619 3.114-2.091 9.918-3.151 9.654-.761-.19-2.049-1.524-3.048-2.674.743-1.126 3.62-3.113 3.62-3.113.811.292.91-2.002.879-3.687l.925-.792 1.063-.907z"/>
        <path fill="#387CDE" d="M108.289 101.62v11.51l-3.077 6.14-.096.193-8.145-.531-3.13-.208-7.266-.475v-13.766l7.266.204 3.251.092 8.216.228z"/>
        <path fill="#000" d="M108.289 102.298v10.832l-.75 1.499-.773 1.537-1.554 3.103.174-11.51.036-2.323 1.476-1.614v-.004l.644-.703z"/>
        <path fill="#387CDE" d="M108.705 98.566v4.017l-.416.658-.747 1.179-.662 1.041-1.458 2.3-.036-.003-19.448-.988v-3.965l.046-.053 2.323-2.487.843-.897 1.519-1.629z"/>
        <path fill="#000" d="M105.422 103.797v3.965l-19.484-.992v-3.965l.046-.053zM108.705 98.566v4.017l-3.283 5.179v-3.965z"/>
        <path fill="#3F3D56" d="M107.545 100.413l-.003 2.702v1.305l-.004 10.209-.772 1.537.114-10.705.018-1.64v-.003l.029-2.417-18.62-1.136.843-.897z"/>
        <path fill="#3F3D56" d="M98.408 100.546l-1.305 2.804-.01 1.429-.122 14.152-3.13-.207v-15.56l1.672-2.618z"/>
        <path fill="#3F3D56" d="M94.112 100.736a4.148 4.148 0 0 1-2.334.081.928.928 0 0 1-.409-.186 1.019 1.019 0 0 1-.252-.496 3.803 3.803 0 0 1-.224-1.19c-.01-.409.174-.8.498-1.055.067-.04.13-.088.188-.14a.75.75 0 0 0 .15-.296c.227-.672.668-1.382 1.376-1.491.708-.11 1.252.351 1.757.777l1.106.932a1.752 1.752 0 0 1 3.255-.045 6.172 6.172 0 0 1 2.46-1.668.775.775 0 0 1 .648-.028c.119.09.209.212.26.352.3.652.462 1.359.476 2.075a.358.358 0 0 1 .427.148.926.926 0 0 1 .143.457c.03.25.046.502.046.753.025.267-.047.534-.203.753a1.265 1.265 0 0 1-.96.296.38.38 0 0 1-.1.566c-.198.106-.423.15-.647.127-.86 0-1.779-.036-2.49-.507-.284-.186-.52-.436-.804-.62-.693-.456-1.568-.478-2.372-.439-.73.018-1.32.616-1.995.844"/>
        <path fill="#3F3D56" d="M93.951 100.55s-7.18.989-8.18 5.277l1.5-.218 1.068 1.872s1.113-4.187 4.396-5.179 4.453-1.154 4.453-1.154 2.284.549 4.343 7.103l1.17-1.597 2.06.44s-1.505-5.123-5.567-6.551l-5.243.007z"/>
        <path fill="#A1616A" d="M116.1 117.707s-5.738-1.133-7.342-3.63c-1.604-2.498-12.527-4.651-11.196-2.04 1.33 2.61 11.196 11.144 11.196 11.144l4.268 6.055 5.691-1.432 2.404-4.623-5.022-5.474z"/>
        <path fill="#000" d="M102.53 124.18s5.556 2.04 6.402 4.764c.847 2.723-6.402-4.764-6.402-4.764M99.123 127.35s-.505 2.836 6.459 2.607l-6.46-2.607zM69.076 91.048l-2.522-.225s-2.753 2.04-4.82 2.04c-2.066 0-3.325 2.61-3.325 2.61s-3.44 1.587-4.588 1.816c-1.15.229-3.095 1.361-2.522 1.815.573.454-.114 1.474-1.145 2.27-1.032.794-2.64 4.875-1.263 5.442 1.377.566 5.16 1.702 6.192 2.269 1.032.566 2.294 0 2.294 0s6.075-7.828 9.173-6.35c3.098 1.477 7.341 1.474 7.341 1.474l3.33-6.92-8.145-6.241z"/>
        <path fill="#FF5344" d="M121.85 128.374a3.065 3.065 0 0 1-2.134 1.47 16.38 16.38 0 0 1-6.676-.608s11.553-3.63.427-12.457h2.98l.997-.373-.456-2.35-.654-21.193 2.408-.566s1.938 13.952 2.404 15.655c.466 1.703.808 8.281.808 8.281s.458 2.723 1.149 4.085c.494 1.023.377 5.635-1.252 8.056"/>
        <path fill="#000" d="M121.392 128.374a3.068 3.068 0 0 1-2.134 1.47 16.39 16.39 0 0 1-6.687-.608s11.552-3.63.427-12.457h2.984l.992-.373c1.643 2.86 4.208 7.95 4.418 11.968"/>
        <path fill="#FF5344" d="M121.85 128.374a3.065 3.065 0 0 1-2.134 1.47 16.38 16.38 0 0 1-6.676-.608s11.553-3.63.427-12.457h2.98l.997-.373c1.625 2.86 4.197 7.95 4.407 11.968"/>
        <path fill="#000" d="M106.425 87.403c-4.02 1.798-8.747.904-11.812-2.234a12.397 12.397 0 0 0 .612-3.096s12.96-4.538 10.435 0c-1.237 2.242-.405 4.057.765 5.33"/>
        <path fill="#A1616A" d="M112.543 77.55v.098c0 .352-.022.669-.057.996-.036.327-.082.622-.143.928-1.136 5.593-6.64 9.216-12.295 8.092-3.632-.722-6.606-3.294-7.814-6.758a10.178 10.178 0 0 1-.566-3.356c0-.24 0-.475.028-.704.398-5.687 5.382-9.978 11.132-9.585 5.467.375 9.71 4.868 9.715 10.289"/>
        <path fill="#000" d="M112.543 77.648a4.598 4.598 0 0 0-.057.996c.003.18-.007.36-.029.538-.02.135-.058.266-.114.39-.423.978-1.8 1.612-2.706.982a2.915 2.915 0 0 1-.815-1.056c-.964-1.759-2.305-3.81-4.414-3.845-.9-.017-1.746.352-2.617.577-.872.225-1.9.246-2.55-.352-.499-.45-.733-1.22-1.402-1.379-.669-.158-1.288.45-1.593 1.056-.306.605-.552 1.29-1.17 1.6-.278.134-.602.173-.872.317-1.248.68-.676 3.047-1.97 3.43l-.125.028-.064-.633-.356-3.462c.398-5.687 5.382-9.978 11.132-9.584 5.467.374 9.71 4.867 9.714 10.288l.008.109z"/>
        <path fill="#464353" d="M94.001 62.14c-1.223.514-2.49 1.306-2.778 2.544a9.924 9.924 0 0 0-.056 1.66c-.057 1.12-.598 2.157-.94 3.227-.34 1.07-.469 2.322.221 3.233.217.285.502.52.694.82.251.462.389.977.402 1.502l.565 5.583c1.458-.268.807-2.762 2.095-3.459.27-.144.594-.186.871-.32.62-.306.861-1.006 1.17-1.6.31-.595.915-1.204 1.594-1.056.68.148.903.929 1.401 1.376.651.587 1.686.56 2.554.352.868-.208 1.714-.595 2.614-.58 2.11.034 3.45 2.075 4.414 3.844.187.409.466.77.815 1.056 1.024.703 2.642-.187 2.82-1.376.096-.665-.114-1.407.278-1.973.39-.567 1.227-.704 1.885-.986 1.675-.763 2.194-2.831 1.917-4.573-.203-1.249-.712-2.54-.292-3.743.142-.415.388-.795.52-1.21.355-1.168-.235-2.463-1.181-3.286-.946-.823-2.184-1.288-3.4-1.692-3.13-1.034-6.403-2.037-9.743-2.252-1.458-.091-3.368-.541-4.524.352-1.351 1.07-2.22 1.847-3.916 2.558"/>
        <path fill="#000" d="M96.73 93.919a.57.57 0 0 1 .572.566.57.57 0 0 1-.573.566.57.57 0 0 1-.572-.566.57.57 0 0 1 .572-.566"/>
        <path fill="#444053" d="M96.73 93.693a.57.57 0 0 1 .572.567.57.57 0 0 1-.573.566.57.57 0 0 1-.572-.566.57.57 0 0 1 .572-.567"/>
        <path fill="#000" d="M93.062 129.538a.57.57 0 0 1 .573.566.57.57 0 0 1-.573.567.57.57 0 0 1-.572-.567.57.57 0 0 1 .572-.566"/>
        <path fill="#444053" d="M93.062 129.313a.57.57 0 0 1 .573.566.57.57 0 0 1-.573.567.57.57 0 0 1-.572-.567.57.57 0 0 1 .572-.566"/>
        <path fill="#000" d="M95.011 138.956a.57.57 0 0 1 .573.566.57.57 0 0 1-.573.567.57.57 0 0 1-.572-.567.57.57 0 0 1 .572-.566"/>
        <path fill="#444053" d="M95.011 138.727a.57.57 0 0 1 .573.566.57.57 0 0 1-.573.567.57.57 0 0 1-.572-.567.57.57 0 0 1 .572-.566"/>
        <path fill="#000" d="M114.723 103.463s1.262 8.471 0 9.949c-1.263 1.477 0-9.95 0-9.95M77.22 119.181s-2.411 5.133 0 10.055c2.412 4.921 3.913 6.92 3.095 10.061-.818 3.142-3.094-20.116-3.094-20.116M191.104 213.336c-3.557 2.382-8.945 1.25-8.945 1.25s-8.142-3.87-10.55-3.87c-2.407 0-8.258-2.382-8.258-2.382l.195-1.604c2.38.454 7.782 1.53 8.405 2.058.804.683 10.67 3.972 10.67 3.972s6.715-.83 8.586-3.56c1.234 1.27 1.746 2.891-.103 4.136"/>
        <g fill="#000">
            <path d="M91.166 65.44v-.372.425a.262.262 0 0 0 0-.052M114.62 75.087c-.658.303-1.487.408-1.885.985-.399.577-.182 1.309-.278 1.974-.178 1.189-1.796 2.086-2.82 1.375a2.929 2.929 0 0 1-.815-1.055c-.964-1.76-2.305-3.81-4.414-3.845-.9 0-1.746.351-2.614.58-.868.229-1.903.246-2.554-.352-.498-.447-.732-1.217-1.401-1.375-.669-.159-1.284.447-1.593 1.055-.31.609-.552 1.295-1.17 1.6-.278.134-.602.177-.872.321-1.284.704-.637 3.19-2.095 3.458l-.566-5.583a3.314 3.314 0 0 0-.401-1.502c-.192-.3-.477-.535-.694-.82a2.51 2.51 0 0 1-.47-1.2 2.886 2.886 0 0 0 .47 2.111c.217.285.502.521.694.82.251.463.389.977.401 1.502l.566 5.583c1.458-.267.81-2.761 2.095-3.458.27-.144.594-.186.871-.32.62-.306.865-1.006 1.17-1.6.306-.595.915-1.204 1.594-1.056.68.148.903.929 1.401 1.375.651.588 1.686.56 2.554.352.868-.207 1.714-.594 2.614-.58 2.11.035 3.45 2.075 4.414 3.845.187.408.466.77.815 1.055 1.024.704 2.642-.186 2.82-1.375.096-.665-.114-1.407.278-1.974.39-.566 1.227-.703 1.885-.985 1.533-.703 2.095-2.487 1.967-4.116-.104 1.326-.715 2.635-1.967 3.205M116.764 65.564c-.131.415-.377.795-.519 1.21a3.479 3.479 0 0 0-.117 1.51 2.84 2.84 0 0 1 .131-.585c.143-.415.388-.795.52-1.21.116-.385.14-.79.067-1.186-.023.089-.05.176-.082.26"/>
        </g>
        <path fill="#000" d="M83.068 116.001c-2.64-.57-8.832-2.378-8.832-2.378l-1.106-.218c0-3.81.206-7.497.278-8.75h.025s5.278 1.7 6.537 2.607c1.259.908 5.16.683 5.16.683s6.08.352 11.126 5.9c5.047 5.547-10.55 2.73-13.188 2.156"/>
        <path fill="#A1616A" d="M57.288 105.876a1.506 1.506 0 0 0-.355 2.544c1.394 1.143 3.436 2.515 5.381 2.709 3.251.323 11.069 1.875 11.848 2.03l.12.028c.644.186 6.285 1.822 8.772 2.36 2.639.574 18.235 3.41 13.188-2.15-4.645-5.118-10.162-5.81-11.026-5.892a1.949 1.949 0 0 0-.203 0c-.59.028-3.912.14-5.072-.703-.6-.371-1.234-.684-1.895-.933a36.573 36.573 0 0 0-7.754-2.212l-5.381-.898a1.573 1.573 0 0 0-.907.113l-6.716 3.004z"/>
        <path fill="#FF5344" d="M68.617 91.048l-2.522-.225s-2.753 2.04-4.82 2.04c-2.066 0-3.325 2.61-3.325 2.61s-3.44 1.587-4.588 1.816c-1.149.229-3.095 1.361-2.522 1.815.573.454-.114 1.474-1.145 2.27-1.032.794-2.64 4.875-1.263 5.442 1.377.566 5.161 1.702 6.192 2.269 1.032.566 2.295 0 2.295 0s6.075-7.828 9.172-6.35c3.098 1.477 7.356 1.474 7.356 1.474l3.329-6.92-8.16-6.241z"/>
        <path fill="#464353" d="M74.137 132.662v29.45h47.639v4.925H74.635v21.107h-4.98v-55.482z"/>
        <path fill="#464353" d="M52.302 96.842h18.85l1.985 33.379h39.01a13.602 13.602 0 0 1 9.17 3.43 12.038 12.038 0 0 1 3.934 7.859v50.064h-4.962l.49-48.513a6.448 6.448 0 0 0-.156-1.502c-.305-1.323-1.163-3.736-3.457-5.09a6.5 6.5 0 0 0-3.307-.852H69.673l-2.49-34.849H52.302v-3.926z"/>
        <path fill="#35323E" d="M47.838 183.188c0-19.223 11.332-34.807 25.307-34.807 13.974 0 25.31 15.584 25.31 34.807 0 19.222-11.332 34.806-25.31 34.806-13.979 0-25.307-15.584-25.307-34.806m-1.984.53c0 21.96 12.886 39.754 28.78 39.754 15.896 0 28.782-17.801 28.782-39.753 0-21.953-12.886-39.753-28.781-39.753s-28.781 17.797-28.781 39.753"/>
        <path fill="#35323E" d="M71.658 178.318c2.467 0 4.467 2.968 4.467 6.629 0 3.66-2 6.628-4.467 6.628-2.467 0-4.467-2.968-4.467-6.628s2-6.629 4.467-6.629"/>
        <path fill="#464353" d="M70.666 183.23c.548 0 .992.879.992 1.963s-.444 1.963-.992 1.963c-.549 0-.993-.88-.993-1.963 0-1.084.444-1.963.993-1.963M124.258 175.378v5.396c1.558-.96 3.27-.703 4.78-.056a8.941 8.941 0 0 1 4.955 5.77c1.202 4.115 3.557 12.214 5.648 19.826 2.977 10.78 8.437 8.317 8.437 8.317l37.961 2.702 16.13-8.091v-4.925h-40.693s-9.429 3.436-13.398 4.925c-3.97 1.487-2.49-1.475-7.722-19.993-5.232-18.519-16.098-13.871-16.098-13.871"/>
        <path fill="#000" d="M148.078 214.642l37.961 2.698 16.13-8.098-39.7-.49z"/>
        <path fill="#00C6C0" d="M364.595 204.992c11.682 0 21.152 1.802 21.152 4.024 0 2.223-9.47 4.025-21.152 4.025s-21.152-1.802-21.152-4.025c0-2.222 9.47-4.024 21.152-4.024"/>
        <path fill="#3F3D56" d="M364.243 204.12c1.36 0 2.461 1.427 2.461 3.187 0 1.76-1.102 3.187-2.461 3.187-1.36 0-2.461-1.427-2.461-3.187 0-1.76 1.102-3.187 2.46-3.187"/>
        <path fill="#3F3D56" d="M364.243 200.222c1.36 0 2.461 1.427 2.461 3.187 0 1.76-1.102 3.187-2.461 3.187-1.36 0-2.461-1.427-2.461-3.187 0-1.76 1.102-3.187 2.46-3.187"/>
        <path fill="#3F3D56" d="M364.243 196.327c1.36 0 2.461 1.427 2.461 3.187 0 1.76-1.102 3.188-2.461 3.188-1.36 0-2.461-1.428-2.461-3.188 0-1.76 1.102-3.187 2.46-3.187"/>
        <path fill="#3F3D56" d="M364.243 192.43c1.36 0 2.461 1.426 2.461 3.187 0 1.76-1.102 3.187-2.461 3.187-1.36 0-2.461-1.427-2.461-3.187 0-1.76 1.102-3.188 2.46-3.188"/>
        <path fill="#3F3D56" d="M364.243 188.531c1.36 0 2.461 1.428 2.461 3.188 0 1.76-1.102 3.187-2.461 3.187-1.36 0-2.461-1.427-2.461-3.187 0-1.76 1.102-3.188 2.46-3.188"/>
        <path fill="#3F3D56" d="M364.243 184.633c1.36 0 2.461 1.428 2.461 3.188 0 1.76-1.102 3.187-2.461 3.187-1.36 0-2.461-1.427-2.461-3.187 0-1.76 1.102-3.188 2.46-3.188"/>
        <path fill="#3F3D56" d="M364.243 180.735c1.36 0 2.461 1.428 2.461 3.188 0 1.76-1.102 3.187-2.461 3.187-1.36 0-2.461-1.427-2.461-3.187 0-1.76 1.102-3.188 2.46-3.188"/>
        <path fill="#00C6C0" d="M373.462 157.256c.336-.424.643-.871.918-1.337l-6.474-1.055 7 .05a11.583 11.583 0 0 0 .224-9.242l-9.386 4.816 8.657-6.298c-3.262-5.578-10.479-7.485-16.12-4.258-5.64 3.227-7.567 10.365-4.305 15.943.28.48.595.94.941 1.374-.523.66-.974 1.374-1.344 2.129l8.4 4.317-8.966-2.966a11.575 11.575 0 0 0 1.9 10.955c-4.026 5.065-3.138 12.399 1.983 16.38 5.121 3.982 12.536 3.104 16.562-1.962a11.566 11.566 0 0 0 0-14.418 11.58 11.58 0 0 0 0-14.424l.01-.004z"/>
        <path fill="#000" d="M352.395 164.468a11.527 11.527 0 0 0 2.522 7.216c-4.025 5.065-3.137 12.399 1.984 16.38 5.12 3.982 12.536 3.104 16.56-1.962a11.565 11.565 0 0 0 0-14.418c1.598-1.985-21.066-8.525-21.066-7.216"/>
        <path fill="#00C6C0" d="M33.106 207.113c8.038 0 14.554 1.24 14.554 2.769 0 1.529-6.516 2.769-14.554 2.769s-14.554-1.24-14.554-2.769c0-1.53 6.516-2.769 14.554-2.769"/>
        <path fill="#3F3D56" d="M32.864 206.512c.935 0 1.693.983 1.693 2.195 0 1.212-.758 2.195-1.693 2.195s-1.693-.983-1.693-2.195c0-1.212.758-2.195 1.693-2.195"/>
        <path fill="#3F3D56" d="M32.864 203.831c.935 0 1.693.983 1.693 2.195 0 1.213-.758 2.195-1.693 2.195s-1.693-.982-1.693-2.195c0-1.212.758-2.195 1.693-2.195"/>
        <path fill="#3F3D56" d="M32.864 201.15c.935 0 1.693.983 1.693 2.196 0 1.212-.758 2.195-1.693 2.195s-1.693-.983-1.693-2.195c0-1.213.758-2.196 1.693-2.196"/>
        <path fill="#3F3D56" d="M32.864 198.466c.935 0 1.693.983 1.693 2.195 0 1.213-.758 2.195-1.693 2.195s-1.693-.982-1.693-2.195c0-1.212.758-2.195 1.693-2.195"/>
        <path fill="#3F3D56" d="M32.864 195.785c.935 0 1.693.983 1.693 2.196 0 1.212-.758 2.195-1.693 2.195s-1.693-.983-1.693-2.195c0-1.213.758-2.196 1.693-2.196"/>
        <path fill="#3F3D56" d="M32.864 193.105c.935 0 1.693.983 1.693 2.195 0 1.213-.758 2.195-1.693 2.195s-1.693-.982-1.693-2.195c0-1.212.758-2.195 1.693-2.195"/>
        <path fill="#3F3D56" d="M32.864 190.424c.935 0 1.693.983 1.693 2.195 0 1.213-.758 2.195-1.693 2.195s-1.693-.982-1.693-2.195c0-1.212.758-2.195 1.693-2.195"/>
        <path fill="#00C6C0" d="M39.206 174.27c.232-.292.443-.6.633-.919l-4.453-.703 4.816.035c.935-2.009.99-4.31.153-6.36l-6.46 3.313 5.958-4.33c-2.241-3.84-7.205-5.155-11.087-2.938-3.882 2.217-5.212 7.127-2.97 10.967.194.332.412.65.652.952-.36.454-.67.945-.925 1.463l5.78 2.973-6.164-2.047c-.282.83-.426 1.7-.427 2.575a7.932 7.932 0 0 0 1.736 4.964 7.973 7.973 0 0 0 1.355 11.279c3.523 2.744 8.628 2.145 11.403-1.34a7.962 7.962 0 0 0 0-9.939 7.953 7.953 0 0 0 0-9.928v-.018z"/>
        <path fill="#000" d="M24.72 179.233a7.93 7.93 0 0 0 1.735 4.964 7.973 7.973 0 0 0 1.355 11.28c3.523 2.744 8.628 2.144 11.403-1.34a7.963 7.963 0 0 0 0-9.94c1.081-1.365-14.494-5.865-14.494-4.964"/>
        <path fill="#00C6C0" d="M216.279 199.236c5.877 0 10.642.906 10.642 2.023 0 1.118-4.765 2.023-10.642 2.023s-10.642-.905-10.642-2.023c0-1.117 4.765-2.023 10.642-2.023"/>
        <path fill="#3F3D56" d="M216.1 198.793c.684 0 1.238.719 1.238 1.605s-.554 1.604-1.237 1.604c-.684 0-1.238-.718-1.238-1.604 0-.886.554-1.605 1.238-1.605"/>
        <path fill="#3F3D56" d="M216.1 196.834c.684 0 1.238.718 1.238 1.604 0 .886-.554 1.604-1.237 1.604-.684 0-1.238-.718-1.238-1.604 0-.886.554-1.604 1.238-1.604"/>
        <path fill="#3F3D56" d="M216.1 194.874c.684 0 1.238.718 1.238 1.604 0 .886-.554 1.605-1.237 1.605-.684 0-1.238-.719-1.238-1.605s.554-1.604 1.238-1.604"/>
        <path fill="#3F3D56" d="M216.1 192.915c.684 0 1.238.718 1.238 1.604 0 .886-.554 1.604-1.237 1.604-.684 0-1.238-.718-1.238-1.604 0-.886.554-1.604 1.238-1.604"/>
        <path fill="#3F3D56" d="M216.1 190.952c.684 0 1.238.718 1.238 1.604 0 .886-.554 1.604-1.237 1.604-.684 0-1.238-.718-1.238-1.604 0-.886.554-1.604 1.238-1.604"/>
        <path fill="#3F3D56" d="M216.1 188.992c.684 0 1.238.718 1.238 1.605 0 .885-.554 1.603-1.237 1.603-.684 0-1.238-.718-1.238-1.603 0-.887.554-1.605 1.238-1.605"/>
        <path fill="#3F3D56" d="M216.1 187.033c.684 0 1.238.718 1.238 1.604 0 .886-.554 1.604-1.237 1.604-.684 0-1.238-.718-1.238-1.604 0-.886.554-1.604 1.238-1.604"/>
        <path fill="#00C6C0" d="M220.739 175.23c.17-.212.324-.435.462-.668l-3.255-.532 3.522.028a5.859 5.859 0 0 0 .11-4.657l-4.723 2.423 4.357-3.166c-1.654-2.798-5.288-3.74-8.116-2.103-2.829 1.635-3.78 5.23-2.127 8.027.133.225.282.442.444.648a5.89 5.89 0 0 0-.68 1.055l4.226 2.17-4.503-1.494a5.824 5.824 0 0 0 .957 5.512 5.826 5.826 0 0 0 .995 8.24c2.575 2.004 6.305 1.563 8.33-.984a5.818 5.818 0 0 0 0-7.256 5.825 5.825 0 0 0 0-7.261v.018z"/>
        <path fill="#000" d="M210.143 178.85a5.803 5.803 0 0 0 1.27 3.63 5.825 5.825 0 0 0 .995 8.24c2.575 2.004 6.305 1.564 8.33-.984a5.818 5.818 0 0 0 0-7.256c.798-.999-10.595-4.288-10.595-3.63"/>
        <path fill="#387CDE" d="M166.43 13.174c3 0 5.432 2.405 5.432 5.372s-2.432 5.372-5.431 5.372c-3 0-5.431-2.405-5.431-5.372s2.431-5.372 5.43-5.372"/>
        <path fill="#00C6C0" d="M173.811 29.286c5.029 0 9.105 4.032 9.105 9.006s-4.076 9.006-9.105 9.006c-5.029 0-9.105-4.032-9.105-9.006s4.076-9.006 9.105-9.006"/>
        <path fill="#FFBD00" d="M342.668 69.813c3 0 5.431 2.406 5.431 5.372 0 2.967-2.432 5.372-5.431 5.372-3 0-5.432-2.405-5.432-5.372 0-2.966 2.432-5.372 5.432-5.372"/>
        <path fill="#FF5344" d="M335.287 85.926c5.03 0 9.106 4.032 9.106 9.006s-4.077 9.006-9.106 9.006-9.105-4.032-9.105-9.006 4.076-9.006 9.105-9.006M35.664 81.873c1.699 0 3.076 1.363 3.076 3.043 0 1.68-1.377 3.043-3.076 3.043-1.7 0-3.077-1.362-3.077-3.043 0-1.68 1.377-3.043 3.077-3.043"/>
        <path fill="#FFBD00" d="M48.852 68.297c2.848 0 5.157 2.284 5.157 5.101S51.7 78.5 48.852 78.5s-5.157-2.284-5.157-5.1c0-2.818 2.309-5.102 5.157-5.102"/>
        <path fill="#FF5344" d="M24.168 76.21c2.848 0 5.157 2.283 5.157 5.1 0 2.817-2.309 5.101-5.157 5.101s-5.157-2.284-5.157-5.1c0-2.818 2.309-5.102 5.157-5.102M151.19 84.934c4.11 0 7.441 3.295 7.441 7.36 0 4.064-3.331 7.359-7.44 7.359-4.11 0-7.441-3.295-7.441-7.36 0-4.064 3.33-7.36 7.44-7.36"/>
        <path fill="#FFBD00" d="M205.964 120.114c4.11 0 7.44 3.295 7.44 7.36 0 4.064-3.33 7.359-7.44 7.359s-7.44-3.295-7.44-7.36c0-4.064 3.33-7.36 7.44-7.36"/>
    </g>
</svg>
