<svg xmlns="http://www.w3.org/2000/svg" width="398" height="289" viewBox="0 0 398 289">
    <defs>
        <linearGradient id="a" x1="50.061%" x2="50.061%" y1="100.017%" y2="-.038%">
            <stop offset="0%" stop-color="gray" stop-opacity=".25"/>
            <stop offset="54%" stop-color="gray" stop-opacity=".12"/>
            <stop offset="100%" stop-color="gray" stop-opacity=".1"/>
        </linearGradient>
    </defs>
    <g fill="none" fill-rule="nonzero">
        <path fill="#FFF2CC" d="M233.068 39.898c-23.4-.806-45.685-8.287-66.966-16.475-21.28-8.187-42.359-17.258-65.213-21.596C86.214-.963 69.413-1.356 57.576 6.44c-11.389 7.521-15.07 20.468-17.047 32.49-1.49 9.051-2.365 18.57 1.714 27.04 2.834 5.881 7.86 10.824 11.338 16.475 12.1 19.598 3.547 43.765-9.563 62.9-6.147 8.976-13.287 17.55-18.034 27.098-4.748 9.548-6.942 20.503-2.788 30.248 4.115 9.67 13.923 16.919 24.55 22.026 21.58 10.365 47 13.334 71.807 15.013 54.894 3.721 110.077 2.11 165.116.498 20.37-.598 40.826-1.203 60.863-4.323 11.129-1.733 22.615-4.484 30.692-11.102 10.257-8.427 12.799-22.7 5.926-33.264-11.526-17.725-43.386-22.13-51.452-41.15-4.433-10.47.119-22.134 6.565-31.843 13.826-20.833 36.998-39.106 38.216-62.919.839-16.352-10.3-32.73-27.525-40.47-18.052-8.111-43.089-7.09-56.401 6.336-13.721 13.796-37.822 19.114-58.485 18.405z"/>
        <g opacity=".9" transform="translate(149 40)">
            <rect width="3.224" height="26.278" x="107.481" y="49.223" fill="#3A3768" rx="1.612"/>
            <rect width="1.809" height="8.651" x=".324" y="28.638" fill="#3A3768" rx=".904"/>
            <rect width="2.038" height="15.057" x=".258" y="44.476" fill="#3A3768" rx="1.019"/>
            <rect width="1.94" height="15.186" x=".291" y="64.801" fill="#3A3768" rx=".97"/>
            <rect width="107.87" height="216.78" x="1.35" y=".05" fill="#3A3768" rx="38.99"/>
            <rect width="15.063" height="3.023" x="44.877" y="6.521" fill="#E6E8EC" rx="1.511"/>
            <ellipse cx="63.954" cy="8.036" fill="#E6E8EC" rx="1.736" ry="1.717"/>
        </g>
        <ellipse cx="87.5" cy="261" fill="#FF5344" opacity=".1" rx="72.5" ry="7"/>
        <ellipse cx="247" cy="286" fill="#FF5344" opacity=".1" rx="34" ry="3"/>
        <ellipse cx="364" cy="268" fill="#FF5344" opacity=".1" rx="34" ry="3"/>
        <path fill="#FF5344" d="M243.572 46h-12.138v1.468c0 3.843-3.106 6.958-6.938 6.958h-38.733c-3.832 0-6.939-3.115-6.939-6.958V46h-11.4c-2.234 0-4.378.89-5.958 2.476A8.46 8.46 0 0 0 159 54.45V242.55a8.46 8.46 0 0 0 2.466 5.975 8.413 8.413 0 0 0 5.959 2.476h76.147c4.655 0 8.428-3.784 8.428-8.451V54.45c0-4.667-3.773-8.451-8.428-8.451z"/>
        <path fill="#00C6C0" d="M295.417 30.04s-30.746-1.836-27.12 19.482c0 0-.73 3.769 2.732 5.478 0 0 .054-1.579 3.15-1.044 1.104.184 2.226.238 3.342.159a6.977 6.977 0 0 0 4.086-1.666s8.64-3.534 12.002-17.51c0 0 2.487-3.05 2.388-3.833l-5.189 2.193s1.771 3.703.366 6.782c0 0-.168-6.649-1.165-6.504-.205.029-2.699 1.283-2.699 1.283s3.053 6.45.73 11.14c0 0 .873-7.95-1.7-10.674l-3.652 2.11s3.563 6.663 1.15 12.1c0 0 .617-8.339-1.917-11.587l-3.308 2.555s3.348 6.565 1.307 11.074c0 0-.27-9.705-2.027-10.438 0 0-2.895 2.529-3.337 3.562 0 0 2.293 4.77.873 7.285 0 0-.873-6.468-1.589-6.504 0 0-2.885 4.285-3.184 7.226 0 0 .124-4.368 2.483-7.631 0 0-2.786.473-4.415 2.262 0 0 .45-3.028 5.112-3.295 0 0 2.385-3.252 3.024-3.447 0 0-4.656-.387-7.478.852 0 0 2.483-2.858 8.332-1.557l3.265-2.641s-6.127-.828-8.727.086c0 0 2.994-2.529 9.61-.686l3.557-2.103s-5.225-1.117-8.34-.723c0 0 3.286-1.752 9.38.148l2.557-1.13s-3.83-.745-4.952-.864c-1.12-.12-1.18-.423-1.18-.423a13.403 13.403 0 0 1 7.242.817s5.382-1.998 5.29-2.334z"/>
        <path fill="#387CDE" d="M263.737 20.017s-13.148-.805-11.612 8.573c0 0-.308 1.657 1.17 2.41 0 0 .024-.704 1.349-.46.472.08.951.104 1.429.07a2.957 2.957 0 0 0 1.75-.732s3.7-1.555 5.138-7.704c0 0 1.066-1.34 1.038-1.685l-2.22.964s.757 1.628.158 2.983c0 0-.069-2.924-.498-2.857-.086 0-1.152.567-1.152.567s1.304 2.835.318 4.9c0 0 .374-3.497-.726-4.696l-1.564.928s1.526 2.93.491 5.323c0 0 .266-3.67-.82-5.098l-1.419 1.126s1.436 2.888.561 4.872c0 0-.114-4.27-.865-4.594 0 0-1.242 1.112-1.429 1.57 0 0 .98 2.11.37 3.204 0 0-.373-2.846-.692-2.86 0 0-1.235 1.885-1.363 3.166a6.925 6.925 0 0 1 1.062-3.356 3.685 3.685 0 0 0-1.889.995s.19-1.333 2.194-1.449c0 0 1.02-1.432 1.294-1.52 0 0-1.993-.169-3.2.377 0 0 1.061-1.256 3.566-.704l1.384-1.16s-2.622-.352-3.736.038c0 0 1.283-1.112 4.114-.303l1.522-.925s-2.235-.489-3.567-.313c0 0 1.405-.77 4.013.064l1.09-.497s-1.636-.327-2.117-.38c-.481-.052-.505-.186-.505-.186a5.574 5.574 0 0 1 3.075.352s2.326-.855 2.288-1.003z"/>
        <ellipse cx="14.5" cy="243" fill="#00C6C0" rx="14.5" ry="2"/>
        <path fill="#00C6C0" d="M20.652 239.98a3.747 3.747 0 0 0 1.306-1.865c.167-.743-.167-1.614-.911-1.901-.837-.307-1.73.245-2.407.8s-1.455 1.19-2.343 1.072c.925-.8 1.34-2.002 1.091-3.166a1.261 1.261 0 0 0-.305-.646c-.463-.47-1.306-.268-1.864.104-1.768 1.18-2.26 3.459-2.267 5.511-.18-.742-.03-1.513-.034-2.258-.004-.746-.225-1.614-.898-2.008a2.839 2.839 0 0 0-1.36-.306c-.795-.026-1.68.048-2.223.6-.68.684-.5 1.836.088 2.582.588.745 1.479 1.226 2.298 1.749a4.97 4.97 0 0 1 1.646 1.487c.05.084.091.173.122.265h4.981a13.905 13.905 0 0 0 3.08-2.02zM301.261 210s3.002 4.011-1.388 10.064c-4.39 6.052-8.007 11.162-6.542 14.936 0 0 6.622-11.24 12.011-11.4 5.39-.16 1.847-6.839-4.08-13.6z"/>
        <path fill="#000" d="M301.183 210c.265.388.474.811.622 1.258 5.318 6.308 8.151 12.197 3.036 12.342-4.76.138-10.475 8.735-11.841 10.904.043.169.097.334.161.496 0 0 6.699-11.24 12.15-11.4 5.453-.16 1.868-6.839-4.128-13.6z" opacity=".1"/>
        <path fill="#FFBD00" d="M308 214.784c0 1.23-.225 2.216-.5 2.216s-.5-.993-.5-2.216c0-1.223.28-.645.555-.645s.445-.584.445.645z"/>
        <path fill="#FFBD00" d="M309.286 216.01c-1.171.701-2.19 1.13-2.28.949-.09-.181.79-.894 1.962-1.6 1.172-.705.707-.188.797 0 .09.189.693-.055-.479.65z"/>
        <path fill="#00C6C0" d="M284.737 210s-3.003 4.011 1.388 10.064c4.39 6.052 8.007 11.162 6.545 14.936 0 0-6.622-11.24-12.011-11.4-5.39-.16-1.85-6.839 4.078-13.6z"/>
        <path fill="#000" d="M284.817 210c-.266.387-.475.81-.622 1.258-5.318 6.308-8.151 12.197-3.04 12.342 4.764.138 10.476 8.735 11.845 10.904a4.809 4.809 0 0 1-.161.496s-6.699-11.24-12.15-11.4c-5.453-.16-1.868-6.839 4.128-13.6z" opacity=".1"/>
        <path fill="#FFBD00" d="M279 214.784c0 1.23.225 2.216.5 2.216s.5-.993.5-2.216c0-1.223-.28-.645-.555-.645s-.445-.584-.445.645z"/>
        <path fill="#FFBD00" d="M277.71 216.01c1.172.701 2.197 1.13 2.284.949.087-.181-.79-.894-1.965-1.6-1.176-.705-.712-.188-.8 0-.087.189-.682-.055.48.65z"/>
        <path fill="#A8A8A8" d="M281 234.576s8.604-.263 11.196-2.08c2.593-1.816 13.235-3.986 13.872-1.07.636 2.915 12.928 14.494 3.2 14.571-9.727.077-22.57-1.49-25.156-3.041-2.586-1.551-3.112-8.38-3.112-8.38z"/>
        <path fill="#000" d="M309.453 245.942c-9.71.08-22.562-1.566-25.147-3.195-1.973-1.24-2.755-5.692-3.018-7.747H281s.544 7.173 3.132 8.802c2.589 1.629 15.437 3.276 25.147 3.195 2.802-.026 3.772-1.055 3.719-2.574-.391.923-1.458 1.5-3.545 1.519z" opacity=".2"/>
        <path fill="#3A3768" d="M213 175h28v28h-28zM171 138h28v28h-28zM174 212h28v28h-28z" opacity=".3"/>
        <path fill="#FFF" d="M168 69h28v28h-28z"/>
        <path fill="#FFBD00" d="M186.226 79l-1.226.997c.812.663 1.269 1.562 1.269 2.5 0 .937-.457 1.836-1.269 2.498L186.226 86c2.365-1.933 2.365-5.067 0-7z"/>
        <path fill="#FFBD00" d="M189.69 76.81l-1.015.968c2.52 2.409 2.52 6.31 0 8.718l1.015.969c3.08-2.941 3.08-7.708 0-10.649v-.007zm-4.834 3.627V76h-1.432l-4.284 3.407h-5.712L172 80.09v4.774l1.428.681L177.013 91h2.142l-1.339-5.456h1.339l4.284 2.73h1.432v-4.437c.833-.179 1.425-.885 1.425-1.7s-.592-1.521-1.425-1.7h-.015z"/>
        <path fill="#FFF" d="M214.099 183.46l20.948-18.8 18.955 20.778-20.948 18.8z"/>
        <path fill="#387CDE" d="M226 180.03l2.107-1.954 11.539 12.992-2.122 1.962-11.524-13zm4.977 12.168l2.121-1.958 3.35 3.802-2.121 1.958-3.35-3.802zm4.444-8.046l2.122-1.962 5.274 5.958-2.118 1.958-5.278-5.954zm.302-6.19l2.121-1.962 8.156 9.205-2.122 1.962-8.155-9.205z"/>
        <path fill="#FFF" d="M213 103h28v28h-28z"/>
        <path fill="#387CDE" d="M232.506 114.34l-3.893 5.436c.314.348.485.785.484 1.236-.048 1.05-.994 1.88-2.143 1.88-1.15 0-2.096-.83-2.144-1.88a1.98 1.98 0 0 1 .038-.363l-2.573-1.36c-.684.597-1.714.716-2.539.293L217 121.923v2.334c.002.962.855 1.741 1.907 1.743h16.186c1.051-.004 1.903-.782 1.907-1.743v-8.67L234.398 114a2.25 2.25 0 0 1-1.312.414 2.375 2.375 0 0 1-.566-.07l-.014-.004z"/>
        <path fill="#387CDE" d="M220.79 114.466a2.152 2.152 0 0 1 1.515.619c.403.397.628.935.628 1.497 0 .092 0 .188-.018.276l2.682 1.47a2.121 2.121 0 0 1 1.817-.427l3.901-5.974a2.097 2.097 0 0 1 .025-2.48 2.154 2.154 0 0 1 2.389-.754 2.119 2.119 0 0 1 1.413 2.507l1.858 1.216v-3.535a1.9 1.9 0 0 0-1.906-1.881h-16.188a1.896 1.896 0 0 0-1.906 1.881V119l1.783-1.69a2.117 2.117 0 0 1-.133-.735 2.128 2.128 0 0 1 2.14-2.109z"/>
        <path fill="#FFF" d="M176 134h28v28h-28z"/>
        <path fill="#FFBD00" d="M199.525 139.04l-16.348 8.855a.34.34 0 0 0 .024.61l2.79 1.052a.681.681 0 0 1 .367.34l2.166 4.462c.041.197.406.252.41.05l-.341-3.687c.019-.274.124-.535.3-.746l8.473-8.303a.211.211 0 0 1 .187-.054.194.194 0 0 1 .106.31l-7.306 8.929c-.154.218-.252.47-.286.735l-.436 3.185c.034.279.252.384.43.136l1.573-1.85a.34.34 0 0 1 .463-.074l4.056 2.956a.34.34 0 0 0 .515-.201l3.327-16.347a.34.34 0 0 0-.477-.367l.007.01z"/>
        <path fill="#FF5344" d="M352.705 261.808c1.607.21 3.274.356 4.814-.163.238-.075.51-.239.478-.484a.57.57 0 0 0-.11-.235 15.12 15.12 0 0 1-1.461-2.787.228.228 0 0 0-.089-.124.215.215 0 0 0-.156 0c-.708.185-1.324.647-2.032.843-.36.1-.734.129-1.105.085-.318-.035-.757-.302-1.044-.27.177 1.057.58 2.057.705 3.135zM384.525 260c.92-.644 1.869-1.358 2.41-2.378a.403.403 0 0 0 .065-.202.43.43 0 0 0-.077-.2 8.102 8.102 0 0 0-1.957-2.22 5.905 5.905 0 0 0-1.093 1.059c-.23.254-.867.672-.873 1.052 0 .228.242.476.355.643.153.238.307.483.438.727.07.148.8 1.48.732 1.519z"/>
        <path fill="#514E7F" d="M358.977 265.412a1.11 1.11 0 0 1-.186.718.913.913 0 0 1-.397.24c-2.192.815-4.715-.205-6.893.603-.451.165-.875.402-1.327.56a6.928 6.928 0 0 1-1.644.305c-.775.08-1.55.126-2.326.147a5.411 5.411 0 0 1-1.751-.157 2.137 2.137 0 0 1-1.344-1.11 1.118 1.118 0 0 1-.066-.79.904.904 0 0 1 .142-.254c.149-.173.323-.32.517-.435l.806-.542a5.318 5.318 0 0 1 1.22-.675c.317-.107.659-.154.98-.251 1.133-.36 1.995-1.282 2.798-2.18l1.096-1.216a1.08 1.08 0 0 1 .379-.316.995.995 0 0 1 .469-.05 6.164 6.164 0 0 1 2.988 1.048c.23.176.478.327.737.452.696.21 1.444.113 2.068-.269.283-.154.22-.251.345-.528.124-.276.407-.456.655-.2a.761.761 0 0 1 .155.308c.241.815.148 1.687.148 2.538-.006.134.01.267.048.395.061.126.133.246.214.359.018.03.033.06.045.093.136.386.179.8.124 1.207z"/>
        <path fill="#464353" d="M358.978 265.269c.022.269-.044.537-.186.757a.906.906 0 0 1-.396.254c-2.193.86-4.716-.216-6.894.637-.452.174-.876.424-1.327.59a6.607 6.607 0 0 1-1.644.322c-.776.084-1.551.133-2.327.156a5.14 5.14 0 0 1-1.75-.167c-.579-.165-1.067-.59-1.345-1.17a1.239 1.239 0 0 1-.066-.834.97.97 0 0 1 .142-.269c.13.296.224.682.303.822.22.424.598.721 1.034.815.316.018.633-.027.934-.133 1.986-.542 4.095-.55 5.998-1.367.635-.33 1.292-.607 1.964-.83.703-.116 1.413-.18 2.124-.19 1.12-.098 2.202-.469 3.309-.662.136.405.18.84.127 1.269z"/>
        <path fill="#514E7F" d="M389.98 259.813c-.108.83-.66 1.547-1.268 2.154a14.072 14.072 0 0 0-1.77 1.852c-.599.868-.862 1.94-1.635 2.675a4.426 4.426 0 0 1-.983.69c-.403.227-.83.414-1.274.558-1.153.344-2.395.272-3.612.19a3.344 3.344 0 0 1-1.141-.214 3.35 3.35 0 0 1-.484-.28 2.242 2.242 0 0 1-.722-.713.688.688 0 0 1-.069-.514c.072-.195.196-.369.361-.503.271-.27.562-.52.87-.748a5.102 5.102 0 0 0 1.135-.952c.2-.291.348-.613.437-.951.173-.591.28-1.198.317-1.81 0-.407.044-.813.134-1.21.184-.62.668-1.183.61-1.828a.449.449 0 0 1 .026-.275.455.455 0 0 1 .227-.135c.38-.141.779-.229 1.185-.258a1.4 1.4 0 0 1 1.083.41c.17.193.278.462.527.548.12.024.242.024.362 0 .606-.059 1.253-.13 1.719-.507.45-.384.712-.93.722-1.506 0-.214-.101-.438.242-.483.263-.034.47.228.603.4a5.556 5.556 0 0 1 1.16 2.017.61.61 0 0 1 .22-.042.957.957 0 0 1 .787.387c.21.31.293.683.231 1.048z"/>
        <path fill="#464353" d="M388.984 259.472c-.1.866-.615 1.613-1.179 2.245a14.088 14.088 0 0 0-1.645 1.928c-.557.905-.802 2.021-1.521 2.786-.272.283-.58.525-.913.718a6.127 6.127 0 0 1-1.186.582c-1.07.36-2.226.284-3.357.197a2.817 2.817 0 0 1-1.061-.222 3.05 3.05 0 0 1-.45-.291 2.223 2.223 0 0 1-.672-.743 1.55 1.55 0 0 1 .692-.176c.5.029.863.531 1.343.686.671.219 1.343-.295 2.045-.47.45-.112.926-.08 1.366-.234.37-.153.71-.374 1.008-.654a5.288 5.288 0 0 0 1.078-1.113 7.3 7.3 0 0 0 .634-1.35c.363-.906.791-1.781 1.28-2.618.072-.131.16-.252.261-.359.104-.104.235-.18.336-.273.46-.359.652-.994.813-1.583a2.77 2.77 0 0 1 .181-.528.86.86 0 0 1 .732.402c.19.317.267.698.215 1.07z"/>
        <path fill="#A1616A" d="M337.92 182.896a5.025 5.025 0 0 1 1.4 1.656c.342.653 2.225 5.722 2.115 6.448.617-.632 3.066-.736 3.68-1.365.26-.263 1.67-1.583 1.879-1.888.209-.306 1.78-.962 1.951-1.275.641-1.163-4.547-5.555-3.885-6.722a.287.287 0 0 0 .055-.18.278.278 0 0 0-.086-.14 8.254 8.254 0 0 0-1.502-1.041 2.423 2.423 0 0 1-1.145-1.389 4.925 4.925 0 0 0-1.328.91 96.378 96.378 0 0 0-2.805 2.528c-.363.347-1.056.788-1.224 1.27-.168.483.549.903.895 1.188z"/>
        <path fill="#514E7F" d="M344.948 181a15.867 15.867 0 0 0-2.36 1.865c-.684.651-1.333 1.408-1.504 2.327-.069.352-.058.725-.116 1.087-.244 1.577-1.66 2.735-2.283 4.224a7.033 7.033 0 0 0-.401 1.408c-.175.912-.27 1.838-.284 2.766 0 .9.896 1.52 1.23 2.362.28.833.478 1.69.594 2.558.365 1.62.863 3.209 1.49 4.752 1.23 3.283 5.218 12.364 6.449 15.651 3.768-.915 13.804-3.016 17.14-4.927 1.114-.64-7.72-7.877-6.53-8.377a.599.599 0 0 0 .332-.243.538.538 0 0 0 0-.352c-1.187-5.03-4.912-9.15-6.598-14.078-.587-1.7-1.639-3.15-2.44-4.769-.728-1.464-1.11-3.08-1.974-4.47a3.008 3.008 0 0 0-.63-.763 3.893 3.893 0 0 0-.699-.405c-.477-.246-.936-.384-1.416-.616z"/>
        <circle cx="337" cy="176" r="6" fill="#A1616A"/>
        <path fill="#464353" d="M343 179.51a1.924 1.924 0 0 1 2.16-.31c.41.177.665.59.641 1.037l2.836.042c.454-.01.907.031 1.351.124.447.098.846.35 1.128.71.035.046.074.1.131.11a.227.227 0 0 0 .131-.046c.438-.223.93-.312 1.418-.256 1.54.1 2.964.873 4.17 1.835.222.148.394.36.496.606.1.323 0 .738.234.958 0 2.679.919 5.173 1.532 7.78.106.466.553.874.862 1.239.382.404.693.87.921 1.377.518 1.351-.198 2.937.309 4.296.256.556.585 1.075.978 1.543.457.575.745 1.265.834 1.994.02.327-.022.653 0 .983.03.438.109.87.234 1.292.205.784.425 1.568.652 2.348.355 1.263.851 2.63 1.982 3.303-2.734.465-5.613.916-8.219-.032a4.254 4.254 0 0 1-1.024-.514c-.94-.67-1.394-1.82-1.798-2.902-.454-1.217-.915-2.452-1.007-3.747a4.289 4.289 0 0 0-.17-1.224c-.266-.71-.968-1.132-1.613-1.522a7.762 7.762 0 0 1-1.94-1.511 3.017 3.017 0 0 1-.787-2.271c.05-.4.206-.788.224-1.192a.954.954 0 0 0-.553-.983c-1.99-.603-2.94-2.959-3.383-4.992a15.937 15.937 0 0 1-.255-3.193l-.025-2.054a2.726 2.726 0 0 1-.894-1.966 2.208 2.208 0 0 0 0-.649 1.82 1.82 0 0 0-.453-.71A5.996 5.996 0 0 1 343 179.51zM336.375 186.676c-.06.626.077 1.265-.06 1.88-.053.235-.143.46-.21.691a4.221 4.221 0 0 0 .25 2.633c.362.817.795 1.598 1.294 2.332.172.25.312.52.416.806.087.3.14.61.16.922.132 1.25.344 2.49.636 3.711.252 1.064.582 2.139 1.257 2.982a.872.872 0 0 0 .52.366.909.909 0 0 0 .442-.096l1.377-.543a.95.95 0 0 0 .333-.18.888.888 0 0 0 .193-.56c.097-1.153-.236-2.297-.605-3.389-1.118-3.296-2.602-6.472-3.328-9.882-.203-.954-.31-2.419-.978-3.162-.276-.31-.183-.18-.512 0a4.123 4.123 0 0 0-.483.266c-.401.276-.66.726-.702 1.223z"/>
        <path fill="#FF5344" d="M342.342 191.862c.377 2.045.76 4.09 1.153 6.138l5.5-1.483c.045-.59-.263-1.138-.475-1.69-.503-1.293-.513-2.73-.92-4.058-.308-1.011-.842-1.942-1.129-2.961-.167-.59-.25-1.209-.414-1.803a13.998 13.998 0 0 0-.646-1.718A11.046 11.046 0 0 0 344.21 182c-.705.27-1.454.583-1.854 1.233-.21.37-.327.788-.342 1.216-.096 1.272.342 2.547.202 3.805a11.542 11.542 0 0 0 .126 3.608z"/>
        <path fill="#464353" d="M348.256 221.164c.328 1.208-.15 2.458-.535 3.659a27.509 27.509 0 0 0-1.196 5.508 4.42 4.42 0 0 1-.295 1.404c-.217.386-.454.76-.71 1.123-.59 1.004-.576 2.233-.448 3.381.083.758.211 1.513.364 2.26.193.91.43 1.865.153 2.753.463-.098.78.478.762.937-.019.46-.186.952.04 1.356.575.2.583.961.564 1.548.009 1.022.142 2.04.398 3.033.87 4.023 1.792 8.036 2.769 12.038 2.11.632 4.572 1.288 6.583.414a1.27 1.27 0 0 0 .835-.807c.02-.21-.007-.423-.08-.622l-.955-3.342a5.946 5.946 0 0 1-.342-2.457c.094-.622.364-1.289.058-1.833-.11-.186-.277-.351-.401-.512-.503-.703-.24-1.647-.197-2.504a1.89 1.89 0 0 0-.043-.572 2.948 2.948 0 0 0-.281-.628 9.305 9.305 0 0 1-1.093-4.775c.03-.212 0-.428-.087-.624a1.424 1.424 0 0 1-.16-.253.655.655 0 0 1 .05-.46 4.086 4.086 0 0 1-.769-.702 1.03 1.03 0 0 0 .182-1.622.553.553 0 0 0 .433-.385.528.528 0 0 0-.163-.545c-.124-.085-.284-.12-.364-.24-.135-.175-.026-.424.084-.613l.583-1.015c.433-.751.532-1.682.998-2.415a17.79 17.79 0 0 0 1.538-3.381l1.661-4.458 1.13.944c.377.277.693.624.929 1.021.16.391.261.803.298 1.222.416 2.422 2 4.522 2.587 6.912.082.541.262 1.064.532 1.545.114.14.217.287.306.442.083.237.126.485.128.734.104.99.65 1.887 1.497 2.458.554.35 1.257.621 1.549 1.204.063.18.149.352.255.512.27.313.852.351.969.741.062.221-.058.481.073.674.07.088.165.156.273.197l1.629.786c1.821.874 2.74 2.879 4.084 4.35.464.475.873.998 1.22 1.558.58.997.85 2.25 1.822 2.893.262.132.5.303.707.506.31.39.197.937.223 1.428.025.492.419 1.075.903.927a3.269 3.269 0 0 0 0 1.815 9.691 9.691 0 0 0 5.757-2.247c.474-.4.933-.909.936-1.513a.569.569 0 0 0-.069-.302.85.85 0 0 0-.364-.266c-1.52-.794-1.979-2.633-2.74-4.129-.674-1.316-1.665-2.457-2.507-3.679-1.822-2.633-3.039-5.817-5.775-7.558-.601-.383-1.3-.723-1.6-1.355a10.5 10.5 0 0 1-.32-1.124.97.97 0 0 0-.856-.702c.173-.57.24-1.163.196-1.755a2.108 2.108 0 0 0-.09-.755 3.522 3.522 0 0 0-.401-.744 7.01 7.01 0 0 1-1.032-3.862c.022-.702.15-1.404-.069-2.075-.11-.35-.299-.642-.433-.968a5.842 5.842 0 0 1-.314-1.808l-.15-2.314c-.02-.77-.123-1.536-.309-2.285-.506-1.794-.99-9.31-2.707-10.156-1.716-.847-4.645 4.935-6.558 5.051-.855.036-1.7.192-2.507.464-1.279.463-2.354 1.327-3.4 2.173l-3.54 2.864a12.903 12.903 0 0 1-2.198 1.527zM331.49 169.65a4.334 4.334 0 0 1 3.354-1.65c1.293 0 2.566.322 3.706.94.336.192.695.343 1.067.448.612.125 1.288-.043 1.839.25.733.392.871 1.389.807 2.22-.064.833-.217 1.744.22 2.458.154.204.295.417.424.638.136.447.122.927-.04 1.366a10.96 10.96 0 0 1-.71-.9c-.257-.283-.694-.477-1.007-.265-.313.211-.313.602-.327.95-.015.348-.107.768-.434.882a.709.709 0 0 1-.712-.287c-.558-.688-.334-1.793-.885-2.481-.317-.395-.84-.585-1.131-.997-.228-.323-.285-.743-.484-1.076-.2-.334-.665-.606-.978-.359a1.34 1.34 0 0 0-.26.359 1.49 1.49 0 0 1-1.778.538 3.106 3.106 0 0 0-.772-.334.948.948 0 0 0-.879.48 1.92 1.92 0 0 0-.23 1.026c0 .485.084 1.015-.193 1.41a1.448 1.448 0 0 1-.413.359c-.409.261-.967.437-1.351.14a1.03 1.03 0 0 1-.303-.955c.074-.342.17-.678.289-1.007.213-.76-.064-1.618.17-2.335.25-.651.59-1.264 1.01-1.818z"/>
        <path fill="#FF5344" d="M334.018 186.962a.826.826 0 0 0 .054.51c.072.109.17.2.287.266a6.101 6.101 0 0 0 2.707.844.839.839 0 0 1 .355.092.63.63 0 0 1 .16.728 1.879 1.879 0 0 0-.17.773c.07.488.669.71 1.18.772a2.82 2.82 0 0 0 2.051-.383c.383-.336.673-.757.848-1.227 1.392-3.075 1.882-6.492 3.292-9.568.109-.2.18-.416.213-.639a.626.626 0 0 0-.263-.591c-.262-.157-.67-.068-.847-.311-.088-.126-.078-.294-.156-.424-.163-.28-.588-.246-.882-.396-.227-.12-.386-.342-.638-.407a.83.83 0 0 0-.666.277c-.826.745-1.262 1.8-1.723 2.799a32.88 32.88 0 0 1-2.48 4.411c.11-.164-.525-1.411-.773-1.459-.433-.085-.993.65-1.227.926a5.758 5.758 0 0 0-1.322 3.007z"/>
        <path fill="#FFF" d="M337 191h28v28h-28z"/>
        <path fill="#FFBD00" d="M352.706 201.554V198H344v16h17v-12.446h-8.294zm-5.224 10.666h-1.74v-1.777h1.74v1.777zm0-3.554h-1.74v-1.777h1.74v1.777zm0-3.555h-1.74v-1.78h1.74v1.78zm0-3.557h-1.74v-1.78h1.74v1.78zm3.481 10.666h-1.735v-1.777h1.739l-.004 1.777zm0-3.554h-1.735v-1.777h1.739l-.004 1.777zm0-3.555h-1.735v-1.78h1.739l-.004 1.78zm0-3.557h-1.735v-1.78h1.739l-.004 1.78zm8.298 10.666h-6.555v-1.777h1.739v-1.777h-1.74v-1.777h1.74v-1.781h-1.74v-1.777h6.556v8.889zm-1.525-7.109h-1.739v1.781h1.74v-1.78zm0 3.555h-1.739v1.78h1.74v-1.78z"/>
        <path fill="#A1616A" d="M366.7 207.33c-.422.4-.811.839-1.164 1.31a2.732 2.732 0 0 0-.535 1.688.91.91 0 0 0 .15.492.378.378 0 0 0 .438.145.647.647 0 0 0 .214-.205c.228-.295.47-.577.724-.844.095-.098.214-.203.34-.166a.358.358 0 0 1 .148.105c.15.134.259.31.315.51a1.26 1.26 0 0 1-.334.982 2.562 2.562 0 0 0-.563.894.407.407 0 0 0 0 .287c.042.066.1.12.167.155a2.285 2.285 0 0 0 2.037.142c.437-.186.815-.51 1.259-.675a2.9 2.9 0 0 0 .557-.223c.257-.181.435-.466.494-.79.056-.321.068-.65.035-.975a11.821 11.821 0 0 0-.759-3.679.442.442 0 0 0-.123-.195.41.41 0 0 0-.207-.064c-.551-.061-1.458-.365-1.99-.146a1.397 1.397 0 0 0-.469.45c-.123.117-.733.647-.733.803z"/>
        <path fill="#464353" d="M366.382 206.182c0-.608-.71-2.067.413-2.172 0-.644-.864-1.05-.707-1.73.055-.232.23-.417.256-.648.072-.663-1.054-1.02-.87-1.658.068-.243.318-.39.372-.637.126-.572-.84-.829-.856-1.415 0-.2.102-.388.095-.583 0-.25-.205-.438-.317-.652-.29-.553-.15-1.411-.683-1.694.342.03.475-.524.325-.865-.15-.34-.444-.633-.444-1.01a1.7 1.7 0 0 0 0-.416c-.099-.362-.659-.387-.75-.75a4.096 4.096 0 0 1 0-.408c-.035-.282-.308-.456-.564-.54a2.156 2.156 0 0 1-.75-.282c-.164-.134-.342-.362-.53-.235-.064.04-.098.12-.15.181-.208.257-.607.145-.873-.047-.782-.561-1.167-1.571-1.338-2.556-.17-.984-.16-2.001-.365-2.978a7.139 7.139 0 0 0-.25-.89 4.739 4.739 0 0 1-.395-.891c-.04-.569 1.072-.181 1.495-.123.41.04.818.121 1.215.242.422.169.835.36 1.238.576 1.706.792 3.727.89 5.085 2.218.447.438.822 1.01 1.399 1.206.265.056.527.129.785.217.645.322.744 1.227 1.095 1.882.11.173.207.354.29.543.067.225.098.46.092.695l.048 1.72c.078 2.895.16 5.765-.13 8.629-.095.94-.228 1.914.031 2.823.068.246.167.481.225.724.055.294.085.594.089.894l.037 1.111a.38.38 0 0 1-.05.257.327.327 0 0 1-.284.072c-1.464-.137-2.938-1.013-4.32-.485"/>
        <path fill="#A1616A" d="M335.531 202.331a.623.623 0 0 0-.222.12c-.412.36-.412.852 0 1.212a.424.424 0 0 1 .111.12.248.248 0 0 1-.055.202c-.197.246-.14.545.143.753.143.077.337.116.43.218.16.173-.065.394-.028.597.046.266.53.397.923.43.321.05.66-.01.9-.155.162-.161.162-.368 0-.529a2.014 2.014 0 0 0-.61-.394c.462-.015.835-.249.873-.546.034-.29-.165-.57-.526-.744-.083-.045-.185-.09-.208-.161-.023-.072.088-.17.19-.239.461-.299.817-1.03-.051-1.194a3.277 3.277 0 0 0-.924.026c-.221.045-.221.132-.392.192-.17.06-.36.03-.554.092z"/>
        <path fill="#000" d="M344 177c-.393.007-.762.158-1.003.412a2.058 2.058 0 0 0-.418 1.094c-.241 1.237-.778 2.425-1.579 3.494M346 178c-.554.009-1.061.252-1.33.64a2.987 2.987 0 0 0-.336 1.085c-.235.826-.69 1.602-1.334 2.275" opacity=".1"/>
        <path fill="#FBBEBE" d="M112.552 202.745c.212 2.242-1.532 4.413-1.024 6.605.11.469.318.912.395 1.384.208 1.302-.592 2.536-1.356 3.626l-6.558 9.344c-.265.41-.58.788-.939 1.125-1.257 1.064-3.136.968-4.785 1.291a8.33 8.33 0 0 0-3.202 1.376.198.198 0 0 0-.043.28 2.792 2.792 0 0 0 2.383 1.086c.172.22 0 .543-.238.71-.365.238-.837.298-.906.88a.927.927 0 0 0 .12.581c.264.394.676.671 1.148.774 2.27.674 4.726-.507 6.422-2.129 1.696-1.621 2.924-3.643 4.591-5.286.925-.904 1.974-1.685 2.924-2.565 1.901-1.752 3.374-3.902 4.8-6.03a6.616 6.616 0 0 0 1.038-2.051c.175-.731.095-1.5.3-2.225.263-.943.98-1.699 1.571-2.483 1.166-1.554 1.941-3.459 1.788-5.375-.154-1.915-1.375-3.81-3.239-4.459a2.981 2.981 0 0 0-1.827-.11c-.764.23-1.327.844-1.85 1.42l-1.243 1.397a3.216 3.216 0 0 0-.73 1.064c-.164.41-.064.876.255 1.189"/>
        <path fill="#000" d="M112.552 202.745c.212 2.242-1.532 4.413-1.024 6.605.11.469.318.912.395 1.384.208 1.302-.592 2.536-1.356 3.626l-6.558 9.344c-.265.41-.58.788-.939 1.125-1.257 1.064-3.136.968-4.785 1.291a8.33 8.33 0 0 0-3.202 1.376.198.198 0 0 0-.043.28 2.792 2.792 0 0 0 2.383 1.086c.172.22 0 .543-.238.71-.365.238-.837.298-.906.88a.927.927 0 0 0 .12.581c.264.394.676.671 1.148.774 2.27.674 4.726-.507 6.422-2.129 1.696-1.621 2.924-3.643 4.591-5.286.925-.904 1.974-1.685 2.924-2.565 1.901-1.752 3.374-3.902 4.8-6.03a6.616 6.616 0 0 0 1.038-2.051c.175-.731.095-1.5.3-2.225.263-.943.98-1.699 1.571-2.483 1.166-1.554 1.941-3.459 1.788-5.375-.154-1.915-1.375-3.81-3.239-4.459a2.981 2.981 0 0 0-1.827-.11c-.764.23-1.327.844-1.85 1.42l-1.243 1.397a3.216 3.216 0 0 0-.73 1.064c-.164.41-.064.876.255 1.189" opacity=".05"/>
        <path fill="#A1616A" d="M62.365 212.486c.357 1.134.714 2.267 1.145 3.372a28.578 28.578 0 0 0 2.964 5.437 39.156 39.156 0 0 0 2.45 3.229c1.092 1.294 2.312 2.596 2.697 4.25.225.954.15 1.955.243 2.93.092.976.41 2.012 1.195 2.597.595.37 1.27.595 1.968.653.493.079 1.11.104 1.366-.327.09-.175.137-.37.136-.566l.121-1.435c.025-.308.132-.717.439-.717s.464.398.713.58a.77.77 0 0 0 1.07-.358c.16-.401.17-.847.029-1.255a5.955 5.955 0 0 0-3.043-3.792 9.127 9.127 0 0 1-1.483-.778 5.07 5.07 0 0 1-1.167-1.478c-2.696-4.465-5.407-8.967-7.312-13.812a10.263 10.263 0 0 1-.752-2.723c-.039-.958 0-1.917.117-2.87a16.512 16.512 0 0 0-.47-5.121 4.041 4.041 0 0 0-.489-1.245c-.781-1.198-2.625-1.373-3.788-.548a3.93 3.93 0 0 0-1.505 2.769c-.086.964.47 1.972.752 2.869.873 2.779 1.741 5.558 2.604 8.34z"/>
        <path fill="#000" d="M62.365 212.486c.357 1.134.714 2.267 1.145 3.372a28.578 28.578 0 0 0 2.964 5.437 39.156 39.156 0 0 0 2.45 3.229c1.092 1.294 2.312 2.596 2.697 4.25.225.954.15 1.955.243 2.93.092.976.41 2.012 1.195 2.597.595.37 1.27.595 1.968.653.493.079 1.11.104 1.366-.327.09-.175.137-.37.136-.566l.121-1.435c.025-.308.132-.717.439-.717s.464.398.713.58a.77.77 0 0 0 1.07-.358c.16-.401.17-.847.029-1.255a5.955 5.955 0 0 0-3.043-3.792 9.127 9.127 0 0 1-1.483-.778 5.07 5.07 0 0 1-1.167-1.478c-2.696-4.465-5.407-8.967-7.312-13.812a10.263 10.263 0 0 1-.752-2.723c-.039-.958 0-1.917.117-2.87a16.512 16.512 0 0 0-.47-5.121 4.041 4.041 0 0 0-.489-1.245c-.781-1.198-2.625-1.373-3.788-.548a3.93 3.93 0 0 0-1.505 2.769c-.086.964.47 1.972.752 2.869.873 2.779 1.741 5.558 2.604 8.34z" opacity=".05"/>
        <path fill="#3F3D56" d="M117.414 253.59c-1.353.851-3.037.901-4.611.712-.252-.032-.552-.053-.715.15-.234.292.042.712.328.961a6.75 6.75 0 0 0 3.169 1.342c1.029.148 2.067.22 3.106.213 2.827.05 5.668.097 8.467-.323.162-.012.32-.059.462-.14a.907.907 0 0 0 .345-.547 2.22 2.22 0 0 0-.738-2.08 6.155 6.155 0 0 0-1.974-1.092l-2.458-.986c-.576-.231-1.505-.847-2.13-.797-1.16.078-2.274 1.997-3.251 2.588z"/>
        <path fill="#3F3D56" d="M124.068 259.524c-1.136 1.082-2.615 1.668-4.14 1.642-.388 0-.928.078-.928.49a.675.675 0 0 0 .11.342 3.856 3.856 0 0 0 2.142 1.782c.845.214 1.72.272 2.584.173l2.528-.14c.478-.026.96-.051 1.434-.114.475-.063.991-.166 1.487-.247a18.664 18.664 0 0 1 3.682-.184c.323.068.658-.027.907-.257.225-.302.094-.737.021-1.105-.152-.777 0-1.594-.142-2.378-.242-1.37-1.35-2.422-2.58-2.92-1.137-.46-3.153-.986-4.23-.22-1.157.814-1.853 2.154-2.875 3.136z"/>
        <path fill="#464353" d="M118.898 226.215c-1.054 1.389-2.108 2.992-1.862 4.707.14.924.657 1.74 1.036 2.597.477 1.177.83 2.4 1.054 3.649.39 1.817.78 3.638 1.022 5.48.27 2.086.346 4.192.229 6.292-.032.506-.088 1.054-.44 1.406-.14.14-.323.256-.382.446a.756.756 0 0 0 .08.527 5.836 5.836 0 0 0 3.127 2.879c1.357.52 2.797.79 4.25.794.193.022.389-.003.57-.074.194-.117.348-.293.439-.502 1.053-2.004.467-4.422.484-6.679 0-1.887.457-3.757.376-5.645-.067-1.511-.47-2.987-.618-4.495-.242-2.46.21-4.956.664-7.4.351-1.87.702-3.743 1.142-5.595a10.676 10.676 0 0 1 1.208-3.248c.492-.777 1.16-1.427 1.721-2.158a9.8 9.8 0 0 0 1.925-7.16c-.035-.253-3.618.907-3.927 1.054a12.174 12.174 0 0 0-3.513 2.254c-.829.787-1.479 1.841-2.206 2.727a226.669 226.669 0 0 0-3.028 3.768 260.663 260.663 0 0 0-3.351 4.376z"/>
        <path fill="#000" d="M118.898 226.215c-1.054 1.389-2.108 2.992-1.862 4.707.14.924.657 1.74 1.036 2.597.477 1.177.83 2.4 1.054 3.649.39 1.817.78 3.638 1.022 5.48.27 2.086.346 4.192.229 6.292-.032.506-.088 1.054-.44 1.406-.14.14-.323.256-.382.446a.756.756 0 0 0 .08.527 5.836 5.836 0 0 0 3.127 2.879c1.357.52 2.797.79 4.25.794.193.022.389-.003.57-.074.194-.117.348-.293.439-.502 1.053-2.004.467-4.422.484-6.679 0-1.887.457-3.757.376-5.645-.067-1.511-.47-2.987-.618-4.495-.242-2.46.21-4.956.664-7.4.351-1.87.702-3.743 1.142-5.595a10.676 10.676 0 0 1 1.208-3.248c.492-.777 1.16-1.427 1.721-2.158a9.8 9.8 0 0 0 1.925-7.16c-.035-.253-3.618.907-3.927 1.054a12.174 12.174 0 0 0-3.513 2.254c-.829.787-1.479 1.841-2.206 2.727a226.669 226.669 0 0 0-3.028 3.768 260.663 260.663 0 0 0-3.351 4.376z" opacity=".05"/>
        <path fill="#464353" d="M125.225 215.403c.229 1.086 1.288 1.917 1.316 3.027.025.888-.61 1.633-1.07 2.396-.432.789-.797 1.613-1.09 2.463a37.481 37.481 0 0 1-3.21 6.341c-.61.965-1.295 2.012-1.152 3.144.096.529.283 1.036.553 1.501l1.833 3.623c.401.724.715 1.492.934 2.29.16.688.175 1.419.268 2.1.288 2.222 1.333 4.457.713 6.611-.054.185-.25.409-.396.28.606 1.126 1.095 2.261 1.045 3.55-.022.67-.228 1.366.021 1.99.14.234.234.491.278.76 0 .18-.085.355-.103.536-.05.51.42.94.913 1.103.492.163 1.027.153 1.522.298.956.284 1.634 1.1 2.454 1.668a5.17 5.17 0 0 0 2.814.912.716.716 0 0 0 .413-.081.673.673 0 0 0 .232-.5 2.776 2.776 0 0 0-1.01-2.418 1.12 1.12 0 0 1-.356-.39.943.943 0 0 1-.035-.436 32.21 32.21 0 0 0-.107-5.98 9.182 9.182 0 0 1-.093-1.902 7.739 7.739 0 0 0 .153-1.586 8.07 8.07 0 0 0-.488-1.516c-.282-.904-.204-1.877-.232-2.838a24.772 24.772 0 0 0-.806-4.859 3.678 3.678 0 0 0-.76-1.753c-.381-.397-.998-.773-.852-1.302.081-.196.202-.372.357-.518.359-.446.517-1.02.438-1.586a.714.714 0 0 0 .82-.384 12.795 12.795 0 0 0 6.448-7.296c.063-.23.16-.448.289-.65.274-.382.756-.55 1.18-.762 1.334-.667 2.254-1.92 3.099-3.144a7.302 7.302 0 0 0 1.198-2.282 7.48 7.48 0 0 0 .164-1.647l.075-2.839a1.621 1.621 0 0 0-.053-.557 1.42 1.42 0 0 0-.31-.454 5.546 5.546 0 0 0-3.046-1.632c-.781-.139-1.58-.114-2.371-.178-1.534-.128-3.05-.6-4.586-.49-2.411.178-4.558 1.842-5.706 3.964-.42.76-.842 1.399-1.698 1.423z"/>
        <path fill="#514E7F" d="M45.54 258.547a4.27 4.27 0 0 0 1.643.178c.04-.41.65-.501 1.103-.482.226-.01.45.035.65.13.114.064.2.161.31.23.198.097.419.148.643.148l2.364.181c1.053.08 2.142.155 3.135-.188.198-.053.373-.159.503-.303.268-.346 0-.844-.357-1.096-.357-.252-.846-.369-1.217-.627-.821-.566-.932-1.617-1.368-2.47a7.152 7.152 0 0 0-1.128-1.484 5.993 5.993 0 0 0-1.117-1.034c-.947-.62-2.04-.608-3.15-.695-.785-.065-1.524-.107-2.088.523-.696.783-.418 2.36-.375 3.294a21.44 21.44 0 0 0 .45 3.695z"/>
        <path fill="#000" d="M45.54 258.547a4.27 4.27 0 0 0 1.643.178c.04-.41.65-.501 1.103-.482.226-.01.45.035.65.13.114.064.2.161.31.23.198.097.419.148.643.148l2.364.181c1.053.08 2.142.155 3.135-.188.198-.053.373-.159.503-.303.268-.346 0-.844-.357-1.096-.357-.252-.846-.369-1.217-.627-.821-.566-.932-1.617-1.368-2.47a7.152 7.152 0 0 0-1.128-1.484 5.993 5.993 0 0 0-1.117-1.034c-.947-.62-2.04-.608-3.15-.695-.785-.065-1.524-.107-2.088.523-.696.783-.418 2.36-.375 3.294a21.44 21.44 0 0 0 .45 3.695z" opacity=".05"/>
        <path fill="#464353" d="M46.535 212.91c-.713.231-1.034 1.129-.902 1.877s.581 1.389.952 2.048c1.05 1.877 1.506 4.025 2.387 5.984.66 1.464 1.552 2.817 2.205 4.274.653 1.457 1.07 3.124.66 4.68-.193.76-.564 1.458-.813 2.199a12.45 12.45 0 0 0-.479 2.493 47.184 47.184 0 0 0-.17 8.606c.003.35.077.697.217 1.018.146.285.403.585.278.88-.05.118-.157.203-.21.32-.15.329.153.67.428.902a.738.738 0 0 1-.464.356c.408.259.598.754.467 1.218-.246.036-.26.41-.103.606.157.196.396.32.506.541a.758.758 0 0 1-.417.955c-.362.14-.759.17-1.138.085a12.355 12.355 0 0 1-1.905-.416 1.714 1.714 0 0 1-.585-.267 1.733 1.733 0 0 1-.525-1.155 20.822 20.822 0 0 1-.132-3.561c.104-5.757 0-11.52-.25-17.273-.103-2.315-.799-4.573-1.698-6.71a34.413 34.413 0 0 0-1.655-3.206c-1.292-2.372-2.44-4.987-2.14-7.676.031-.289.138-.638.424-.684a.618.618 0 0 1 .328.053c.597.28 1.175.6 1.73.955a6.565 6.565 0 0 0 3.004.897z"/>
        <path fill="#000" d="M46.535 212.91c-.713.231-1.034 1.129-.902 1.877s.581 1.389.952 2.048c1.05 1.877 1.506 4.025 2.387 5.984.66 1.464 1.552 2.817 2.205 4.274.653 1.457 1.07 3.124.66 4.68-.193.76-.564 1.458-.813 2.199a12.45 12.45 0 0 0-.479 2.493 47.184 47.184 0 0 0-.17 8.606c.003.35.077.697.217 1.018.146.285.403.585.278.88-.05.118-.157.203-.21.32-.15.329.153.67.428.902a.738.738 0 0 1-.464.356c.408.259.598.754.467 1.218-.246.036-.26.41-.103.606.157.196.396.32.506.541a.758.758 0 0 1-.417.955c-.362.14-.759.17-1.138.085a12.355 12.355 0 0 1-1.905-.416 1.714 1.714 0 0 1-.585-.267 1.733 1.733 0 0 1-.525-1.155 20.822 20.822 0 0 1-.132-3.561c.104-5.757 0-11.52-.25-17.273-.103-2.315-.799-4.573-1.698-6.71a34.413 34.413 0 0 0-1.655-3.206c-1.292-2.372-2.44-4.987-2.14-7.676.031-.289.138-.638.424-.684a.618.618 0 0 1 .328.053c.597.28 1.175.6 1.73.955a6.565 6.565 0 0 0 3.004.897z" opacity=".05"/>
        <path fill="#464353" d="M35.96 206.394a2.56 2.56 0 0 0-1.259-.394c-.515.08-.994.316-1.37.674-.478.366-.932.762-1.36 1.184a7.164 7.164 0 0 0-1.625 7.133c.433 1.273 1.217 2.397 1.99 3.497l1.574 2.241c2.402 3.42 4.806 6.838 7.322 10.175a.384.384 0 0 0 .272.355c.093.025.204.021.261.096.025.047.037.1.032.152a2.298 2.298 0 0 1-.14.71.327.327 0 0 0-.028.244c.079.188.426.082.533.26.075.113 0 .265-.114.354-.115.089-.215.21-.197.355.018.145.258.28.247.457 0 .1-.086.174-.147.252a.638.638 0 0 0 .079.82c.165 1.63-.716 3.173-.905 4.805-.283 2.564.887 5.068 1.03 7.643-.007.29.048.577.161.844.244.443.866.71.845 1.216a4.61 4.61 0 0 1-.176.614c.005.294.036.587.093.876 0 .294-.25.645-.526.532.208.68.392 1.368.551 2.06l5.511.451a4.862 4.862 0 0 0-.05-1.475c-.114-.525-.358-1.018-.48-1.543a1.806 1.806 0 0 1 .219-1.543.607.607 0 0 1-.608-.496c-.05-.28-.05-.568 0-.848.146-1.419-.458-2.837-.44-4.256.017-1.128.415-2.21.618-3.316.43-2.37-.017-4.94 1.045-7.093.645-1.306 1.536-2.753.813-4.015-.358-.624-.984-1.064-1.392-1.639a6.625 6.625 0 0 1-.748-1.773c-.852-2.61-2.222-5.019-3.428-7.49a7.84 7.84 0 0 1-.738-1.969 9.917 9.917 0 0 1-.089-1.816 27.59 27.59 0 0 0-.204-3.263 3.034 3.034 0 0 0-.4-1.35 3.043 3.043 0 0 0-.86-.778c-1.807-1.22-3.96-1.925-5.911-2.943z"/>
        <path fill="#514E7F" d="M43.566 260.544a4.263 4.263 0 0 0 1.642.178c.042-.41.649-.501 1.102-.482.22-.006.437.04.631.133.115.064.2.161.314.23.197.098.418.149.643.148l2.358.181c1.052.08 2.14.155 3.136-.188.196-.054.37-.16.5-.303.267-.346 0-.844-.357-1.096-.357-.252-.846-.369-1.22-.627-.818-.566-.932-1.617-1.367-2.47a7.151 7.151 0 0 0-1.127-1.484 5.97 5.97 0 0 0-1.114-1.034c-.949-.62-2.037-.608-3.146-.695-.789-.065-1.527-.107-2.087.523-.714.783-.421 2.36-.379 3.294.052 1.24.21 2.474.471 3.692z"/>
        <path fill="#FFF" d="M73 220h28v28H73z"/>
        <path fill="#387CDE" d="M96 234.074c0 3.091-1.446 5.036-3.732 5.036-1.169 0-2.06-.625-2.216-1.552h-.167a2.428 2.428 0 0 1-2.404 1.497c-2.032 0-3.388-1.633-3.388-4.06 0-2.33 1.366-3.952 3.36-3.952a2.428 2.428 0 0 1 2.28 1.364h.166v-1.16h1.661v5.4a.966.966 0 0 0 1.04 1.078c1.152 0 1.888-1.39 1.888-3.578 0-3.472-2.602-5.796-6.441-5.796-3.84 0-6.504 2.778-6.504 6.696 0 4.011 2.678 6.574 6.847 6.574.76.004 1.518-.061 2.265-.194a.66.66 0 0 1 .278 1.288c-.856.194-1.731.29-2.609.285-5.067 0-8.324-3.126-8.324-7.988 0-4.75 3.312-8.012 8.137-8.012 4.648-.028 7.863 2.872 7.863 7.074zm-10.11.959c0 1.542.72 2.476 1.9 2.476 1.242 0 2.026-.958 2.026-2.476s-.784-2.455-2.005-2.455c-1.22 0-1.922.91-1.922 2.455z"/>
        <circle cx="66.5" cy="189.5" r="5.5" fill="#A1616A"/>
        <path fill="#A1616A" d="M61.98 192.057c-.743.678-1.804.718-2.777.833-2.08.224-4.104.844-5.975 1.83-.255.12-.485.29-.678.503-.163.233-.279.5-.339.783a5.465 5.465 0 0 0-.197 1.902c.068.624.237 1.232.499 1.795a9.488 9.488 0 0 0 3.207 3.87c.235.182.5.316.78.395.678.15 1.34-.27 2.007-.456a3.115 3.115 0 0 1 1.855.065c.563.197 1.156.56 1.695.32.35-.209.623-.537.774-.93.528-1.061.999-2.153 1.41-3.271.148-.433.32-.858.512-1.27.6-1.21 1.638-2.155 2.153-3.397a.786.786 0 0 0 .048-.639.845.845 0 0 0-.38-.308 9.16 9.16 0 0 1-2.065-1.716c-.34-.36-.966-1.278-1.455-1.361-.535-.075-.702.714-1.075 1.052z"/>
        <path fill="#514E7F" d="M61.826 202.342c-.64.303-1.393.168-2.087.025-1.787-.357-3.593-.742-5.246-1.506a2.803 2.803 0 0 1-1.288-.974 3.084 3.084 0 0 1-.362-1.22l-.303-2.024c-.105-.714.08-1.363.094-2.077a.6.6 0 0 0-.12-.453.5.5 0 0 0-.362-.111c-.828 0-1.327.867-1.91 1.449a3.53 3.53 0 0 1-1.172.778c-.532.214-1.186.357-1.4.888-.09.218-.08.468-.17.686-.362.87-1.954.581-2.355 1.427-.116.243-.109.55-.3.742-.192.193-.543.186-.832.236-1.15.185-1.712 1.499-2.696 2.116-.828.521-1.895.51-2.785.917-.464.274-.947.512-1.447.714a6.93 6.93 0 0 1-1.68.082.456.456 0 0 0-.336.107.451.451 0 0 0-.054.357c.556 3.497 2.943 6.445 6.277 7.754.19.06.37.146.535.254.503.357.59 1.167 1.158 1.427.42.142.885.043 1.208-.257.31-.298.602-.615.872-.949a3.489 3.489 0 0 1 1.943-1.006c.684-.107 1.447-.029 2-.443a6.1 6.1 0 0 0 .63-.664c.416-.38.91-.667 1.447-.842a14.643 14.643 0 0 1 4.522-.942c1.447-.082 2.949.05 4.32-.417.357-.107.685-.29.962-.536.296-.315.516-.692.644-1.102a8.31 8.31 0 0 0 .293-4.436z"/>
        <path fill="#514E7F" d="M55.031 195.115c.402-.035.803 0 1.205 0 .473 0 .938-.112 1.422-.115 1.533.024 2.873 1.025 3.305 2.468.04.112.048.233.021.349a.252.252 0 0 1-.273.181 5.848 5.848 0 0 0-.608-1.196 3.452 3.452 0 0 0-1.82-1.24 4.813 4.813 0 0 0-2.239-.08c-.306.055-.608.135-.91.219l-1.475.39a8.98 8.98 0 0 0-.792.237c-.2.07-.544.349-.74.349-.266 0-.05-.227.068-.38.235-.316.566-.552.945-.673a8.076 8.076 0 0 1 1.891-.509z"/>
        <path fill="#A1616A" d="M59.347 213.493c.357 1.133.714 2.266 1.146 3.37a28.559 28.559 0 0 0 2.97 5.436 39.15 39.15 0 0 0 2.453 3.228c1.093 1.294 2.314 2.596 2.7 4.249.224.953.15 1.954.242 2.93.093.975.41 2.01 1.196 2.595.597.371 1.272.595 1.971.653.493.079 1.11.104 1.368-.326.09-.176.136-.37.135-.567l.118-1.434c.029-.309.136-.717.443-.717s.464.398.714.58a.772.772 0 0 0 1.071-.358c.158-.402.168-.847.029-1.255a5.955 5.955 0 0 0-3.039-3.794 9.14 9.14 0 0 1-1.485-.778 5.017 5.017 0 0 1-1.168-1.477c-2.702-4.464-5.416-8.965-7.319-13.809a10.25 10.25 0 0 1-.753-2.722c-.039-.957 0-1.917.118-2.868a16.488 16.488 0 0 0-.46-5.128 4.037 4.037 0 0 0-.49-1.244c-.782-1.198-2.628-1.373-3.791-.549a3.927 3.927 0 0 0-1.507 2.769c-.086.964.471 1.972.753 2.868a18000.4 18000.4 0 0 0 2.585 8.348z"/>
        <path fill="#464353" d="M75.997 185.815c.044-.47-.371-.895-.857-1.194a11.97 11.97 0 0 1-1.454-.887c-.43-.37-.664-.854-1.094-1.223a4.829 4.829 0 0 0-1.632-.81 12.428 12.428 0 0 0-3.903-.699 6.892 6.892 0 0 0-3.735.984 2.222 2.222 0 0 0-.634.587c-.162.29-.266.607-.308.935-.241 1.012-.567 2-.975 2.958-.42 1.064-.868 2.166-1.855 2.986-1.057.88-2.678 1.386-3.375 2.447a.793.793 0 0 0-.152.684c.1.266.422.447.715.617 1.718.983 3.198 2.255 3.962 3.778a4.367 4.367 0 0 1-.349 4.712c-.397.518-.946 1.132-.556 1.653.59.79 2.626.34 3.093 1.175.097.278.12.576.063.865 0 .876.85 1.66 1.88 2.063a10.52 10.52 0 0 0 3.384.554c.31-.688.341-1.47.085-2.18a.87.87 0 0 1-.085-.496 1.19 1.19 0 0 1 .37-.477c1.243-1.168.98-2.887.234-4.273-.745-1.386-1.902-2.657-2.333-4.117-.215-.74-.219-1.542.371-2.144.331-.29.688-.55 1.065-.777a4.035 4.035 0 0 0 1.483-1.848c.345-.96.293-2.118 1.31-2.753 1.016-.636 2.333-.43 3.405-.84.864-.343 1.81-1.596 1.877-2.28z"/>
        <circle cx="106" cy="188" r="6" fill="#FBBEBE"/>
        <path fill="#FBBEBE" d="M111.351 189.066A7.262 7.262 0 0 0 116 192.29l-.421 1.517c-.728 2.614-1.55 5.38-3.584 7.192a3.341 3.341 0 0 0-.57-2.6 9.88 9.88 0 0 0-1.9-1.972l-3.223-2.784a.875.875 0 0 1-.243-.267.81.81 0 0 1 0-.608c.411-1.27 1.584-2.062 2.533-2.918a8.883 8.883 0 0 0 1.277-1.474c.66-.902 1.075.01 1.482.689z"/>
        <path fill="#3F3D56" d="M112.648 195.56a3.45 3.45 0 0 1-.174 1.356.908.908 0 0 1-1.065.57c.124-.293-.202-.625-.508-.588a.967.967 0 0 0-.674.595 2.297 2.297 0 0 0-.196 1.374c.096.584.42 1.142.334 1.726-.067.484-.412.968-.227 1.422.118.205.267.39.44.547.499.64.429 1.576-.16 2.128l4.616.093c-.17.801.178 1.622.572 2.331 2.237 3.964 6.13 6.61 10.517 7.146a.955.955 0 0 0-.44.674.98.98 0 0 0 .22.782c.376.388 1.008.34 1.477.088a11.26 11.26 0 0 0 1.268-.986 3.763 3.763 0 0 1 2.599-.74c.579.056 1.136.248 1.715.282 1.704.096 3.17-1.183 4.8-1.704 1.197-.37 2.55-.37 3.551-1.16.433-.332.788-.88.66-1.426a2.34 2.34 0 0 0-.497-.835c-.578-.78-.916-1.715-1.331-2.586a15.408 15.408 0 0 0-3.327-4.634 29.516 29.516 0 0 0-3.295-2.605 5.538 5.538 0 0 0-.895-.558 8.963 8.963 0 0 1-1.221-.517c-.544-.37-.852-.98-1.268-1.478-.912-1.108-2.315-1.615-3.44-2.487-.753-.583-1.42-1.352-2.32-1.636-.436-.137-.905-.148-1.341-.285-.995-.314-1.719-1.234-2.695-1.603-.77-.296-1.623-.218-2.44-.326a5.55 5.55 0 0 1-2.506-.986 2.99 2.99 0 0 0-.81-.495c-1.232-.37-1.332 2.002-1.449 2.83-.184 1.208-.49 2.446-.49 3.691z"/>
        <path fill="#FBBEBE" d="M114.57 204.746c.212 2.238-1.532 4.41-1.024 6.605.11.469.315.912.391 1.384.212 1.302-.588 2.533-1.352 3.622l-6.58 9.344c-.26.412-.575.79-.935 1.125-1.258 1.082-3.136.968-4.785 1.295a8.316 8.316 0 0 0-3.206 1.376.198.198 0 0 0-.04.277 2.781 2.781 0 0 0 2.383 1.085c.172.22 0 .547-.237.71-.366.237-.837.301-.907.88a.962.962 0 0 0 .117.585c.266.392.68.67 1.152.773 2.27.674 4.722-.51 6.422-2.128 1.7-1.618 2.924-3.644 4.591-5.286.925-.908 1.974-1.685 2.924-2.565 1.897-1.774 3.374-3.902 4.8-6.03a6.633 6.633 0 0 0 1.038-2.055c.175-.727.095-1.5.3-2.22.263-.948.975-1.703 1.571-2.484 1.166-1.557 1.941-3.459 1.788-5.378-.154-1.919-1.378-3.806-3.239-4.459a2.981 2.981 0 0 0-1.828-.106c-.764.227-1.326.84-1.85 1.419l-1.246 1.397c-.312.306-.56.667-.73 1.065-.164.41-.064.875.255 1.188"/>
        <path fill="#3F3D56" d="M117.186 195.075c-.85.05-1.803.13-2.39.704a3.25 3.25 0 0 0-.6.923c-.584 1.157-1.153 2.372-1.193 3.663-.036 1.032.27 2.042.433 3.062.133.848-.206 1.714-.27 2.573a18.272 18.272 0 0 0 3.404-1.278c.629-.4 1.297-.738 1.994-1.01 1.013-.33 2.723.236 3.682.704.054-.661-.455-1.812-.4-2.463.006-.28.057-.556.151-.82.143-.28.313-.545.508-.792a3.18 3.18 0 0 0-.299-3.805c-.855-.94-2.196-1.292-3.476-1.44-.807-.09-1.62-.117-2.43-.08"/>
        <path fill="#464353" d="M98.49 181.523l-.137-1.06c.942.227 1.834-.525 2.435-1.307.602-.782 1.157-1.693 2.07-2.032 1.113-.396 2.291.237 3.355.759a10.921 10.921 0 0 0 3.849 1.205c.215.009.43.042.637.098.69.234 1.02 1.054 1.12 1.799.1.745.072 1.537.412 2.2.262.502.716.878.974 1.355.716 1.331.025 3.153.795 4.46l-1.908-1.653c-.176-.152-.423-.311-.613-.182-.19.128-.164.338-.229.497a.978.978 0 0 1-.573.508c-.256.089-.54.074-.784-.04a3.653 3.653 0 0 1-1.214-1.05 7.391 7.391 0 0 0-3.029-2.17 4.07 4.07 0 0 0-3.204.179c-.892.477-1.543 1.585-2.635 1.622-1.497.054-2.12-2.58-2.811-3.62.521-.374.687-1.046.394-1.598.104-.034 1.074-.133 1.095.03z"/>
        <path fill="url(#a)" d="M260.99 284.769c-.292-1.233-.468-2.311-.468-2.311a4.784 4.784 0 0 0-.536-2.347v-2.818c.17-.45.38-.884.626-1.297.446-.777 0-3.63 0-3.63s-1.655-4.022-1.255-6.574c.399-2.552-3.396-11.332-3.396-11.332.024-.85.144-1.694.36-2.516.04-.172.056-.348.046-.525a.391.391 0 0 0 0-.064v.021c-.057-1.682-1.388-4.837-1.388-4.837l.18-6.01s.848-3.547-.537-8.306a44.049 44.049 0 0 1-.992-4.014c-.022-.115-.044-.227-.062-.334 2.853-.435 5.037-.798 5.037-.798s-1.655-6.919-2.774-8.13c-1.119-1.211-2.01-5.014-2.01-5.014s-.584-4.888.359-6.315c.942-1.426 1.08-3.892 1.08-3.892s2.158-1.556 2.413-2.25c.381-.985.623-2.018.72-3.07 0-.822-.27-1.555-.18-1.99.09-.435-.626-2.074-.267-2.854a2.086 2.086 0 0 0 .14-.773 10.676 10.676 0 0 0-.19-2.03 5.757 5.757 0 0 0-2.122-1.136l-.047-.183-.122-.486a1.64 1.64 0 0 0-.213-.125v-.899l.335-1.581c.662-2.743-3.008-3.152-3.008-3.152a1.935 1.935 0 0 0-1.04-.913c-.719-.259-.122 4.133.224 4.413.259.209 1.079 1.589 1.439 2.265l.065.111a1.46 1.46 0 0 0-.17.176l.14.953.022.147a3.913 3.913 0 0 0-.586.996s.673.736.536 1.56a4.884 4.884 0 0 0 .223 1.9c-.04-.046-.51-.556-.982-.43-.471.125-1.799.517-1.799.517s-.985.172-.895.388c.09.216-.67 1.168-.67 1.168l-2.644-2.516c-.028-.075-.054-.15-.079-.226a6.033 6.033 0 0 1-.226-1.078c.287-.069.568-.16.841-.27.274-.096.52-.256.72-.467.222-.345.366-.734.424-1.14.209-.769.659-1.455.982-2.185a7.103 7.103 0 0 0 .511-3.9 2.593 2.593 0 0 0-.403-1.15c-.431-.592-1.216-.833-1.798-1.308-.583-.474-.936-1.193-1.601-1.549a3.158 3.158 0 0 0-2.008-.172 10.734 10.734 0 0 0-3.744 1.358c-.389.23-.81.493-1.256.414a1.694 1.694 0 0 1-.903-.662.176.176 0 0 1 0-.04l-.032-.031a4.73 4.73 0 0 0-.41 1.976v.424a.812.812 0 0 1 0 .094.632.632 0 0 1-.022.14 1.017 1.017 0 0 1-.244.36c-.083.089-.156.188-.216.294 0-.036.021-.072.036-.108-.17.245-.266.533-.277.83a.826.826 0 0 0 .201.597c.13.134.274.254.428.36-.05.29-.076.583-.075.876a5.11 5.11 0 0 0 2.489 4.36l.09.227a6.28 6.28 0 0 1 .478 2.875c0 .072 0 .14-.032.212l-.093.108s-4.368.043-5.397-.888c-1.028-.931-2.593 2.271-2.593 2.271s-1.565.306-1.878 0c-.313-.305-2.158-.043-2.158-.043a3.96 3.96 0 0 0-2.727-.992 8.013 8.013 0 0 0-2.004-1.114l-.05-.018a2.24 2.24 0 0 0-.986-.122s-2.158-1.776-2.77-2.724c-.612-.95-3.597-4.482-3.623-4.5v-.17l-.035-.513a2.009 2.009 0 0 1-.267.025c0-.054-.036-.111-.06-.18a9.7 9.7 0 0 0-.634-1.437s0-.647.19-.809c.191-.162-.078-2.54-.078-2.54s-1.936-4.519-3.666-1.147c0 0-3.277 2.181-.529 4.726 0 0 1.08.528 1.252.949.104.273.475 1.038.72 1.545l.11.227-.031.025.043.424v.165c-.518.291-.867.582-.785.805.154.375.26.767.313 1.168 0 0 3.803 4.755 4.296 6.79 0 0 10.195 6.052 13.547 6.487l-.579 3.026a23.911 23.911 0 0 0-.133 2.465c.043.647-.403 3.595-.403 3.595s-.583 4.312-1.08 4.927c-.496.615-.402 3.202-.402 3.202a21.58 21.58 0 0 1-.67 3.673c-.492 1.647-.132 3.677-.132 3.677s-1.702 3.893 2.37 1.255c0 0 1.997-.123 4.317-.202v1.183c-.028 2.228-.043 5.301.058 7.626.18 4.108 1.439 12.22 1.439 12.22v4.083a5.706 5.706 0 0 0-.115 1.168 7.564 7.564 0 0 0 1.1 4.09l.313 2.724s.72 1.798.749 2.876a1.411 1.411 0 0 1-.033.259c-.027.137-.039.277-.036.416-.04 1.237.72 4.198.72 4.198s.047 2.983.493 3.156c.381.147-.511 1.721-.777 2.156a.718.718 0 0 1-.018-.086c-.033.058-.054.09-.054.09-.093.24-.14.497-.14.755-.054.416.14.826.496 1.05.849.52 1.306.952.586 1.124a7.15 7.15 0 0 0-.788.165c0-.032-.028-.068-.04-.1a.482.482 0 0 0-.28.5c.008.353.1.699.27 1.01.315.78.721 1.52 1.209 2.206l.36-.04c-.053.128-.12.249-.202.36-.129.187-.302.34-.504.446a1.613 1.613 0 0 1-.611.212 1.706 1.706 0 0 0-1.266.614c-.447.575-.72 1.362.154 2.052l3.198 1.1s5.5.719 5.21-.517c-.292-1.237-.468-2.311-.468-2.311a4.873 4.873 0 0 0-.45-2.19 2.156 2.156 0 0 0-.194-.323l.194-.021s.403-2.724.939-3.235c.126-.118.155-.212.122-.284.058-.147-.083-.233-.262-.284l-.04.108a2.7 2.7 0 0 0-.532-.057s-.18-1.438.399-1.948a.55.55 0 0 0 .115-.424 2.442 2.442 0 0 0-.061-.583l-.022.036a20.744 20.744 0 0 0-1.284-3.353s-.043-1.297.313-1.819c.356-.52-.043-7.048-.043-7.048s.133-3.155-.27-4.625c-.403-1.47.493-3.202.493-3.202v-.115l-.054-.5v.032c-.09-.837-.26-2.35-.385-3.047-.18-.996.043-5.751.043-5.751l.806-2.03 1.439 3.5 1.518 4.672a3.97 3.97 0 0 1 .773 1.984v.148a2.345 2.345 0 0 0 0 .312c-.025.59.137 1.173.464 1.664 0 0 .403 2.207 1.03 2.768.625.56.625 1.642.625 1.642s.76 3.203 1.119 3.763c.302.475.317 1.776.313 2.157v.118s.104 1.143.1 2.106v.36-.025c0 .261-.031.522-.093.776v-.115a7.993 7.993 0 0 0-.23 1.995c-.022 1.15.155 2.516.853 3.31 1.208 1.384 1.967 1.211 1.967 1.211s-.583 1.729-1.298 2.077a.432.432 0 0 0-.076.047c0-.032 0-.068-.018-.1a.844.844 0 0 0-.209.646c.033.924.341 1.816.885 2.563.168.169.376.292.605.36l-.112.068a2.52 2.52 0 0 1-.248.118c-.114.05-.236.082-.36.094a1.706 1.706 0 0 0-1.266.614c-.446.575-.72 1.362.155 2.053l3.198 1.1s5.432.733 5.155-.518z"/>
        <path fill="#2D293D" d="M240.36 286.802l-2.848-1.052c-.784-.66-.533-1.414-.136-1.965a1.48 1.48 0 0 1 1.125-.588c.193-.027.38-.096.545-.203.18-.103.335-.249.45-.426.211-.343.326-.74.331-1.146 0 0 3.126-.95 3.97 0 .152.173.28.367.38.578.28.659.416 1.375.396 2.095 0 0 .16 1.032.417 2.212.258 1.18-4.63.495-4.63.495zM254.358 284.803l-2.844-1.053c-.787-.66-.535-1.413-.139-1.96.274-.361.687-.578 1.128-.592a.997.997 0 0 0 .33-.09c.076-.032.149-.07.219-.113.797-.454.777-1.572.777-1.572s3.121-.952 3.968 0c.114.13.214.271.297.423.336.698.5 1.47.48 2.25 0 0 .158 1.032.416 2.211.258 1.18-4.632.496-4.632.496z"/>
        <path fill="#000" d="M244.594 281.27c.163.11.3.235.406.37l-5 .36c.225-.219.347-.472.353-.732 0 0 3.33-.604 4.24.002zM259 279.969v1.035c-.828 1.417-4.837 1.108-6 .39.086-.037.169-.08.248-.129.908-.515.885-1.784.885-1.784s3.553-1.082 4.517 0c.135.148.252.312.35.488z" opacity=".1"/>
        <path fill="#464353" d="M258.809 276.105a8.15 8.15 0 0 0-.607 1.26v3.322c-.86 1.397-5.353.925-5.956.167-.603-.757-1.252-2.73-.563-3.066.689-.335 1.252-2.019 1.252-2.019s-.718.168-1.898-1.177c-1.18-1.344-.818-4.327-.603-5.043.216-.716 0-3.108 0-3.108s.043-1.68-.301-2.228c-.345-.549-1.077-3.657-1.077-3.657s0-1.048-.602-1.596c-.603-.548-.994-2.69-.994-2.69a2.698 2.698 0 0 1-.43-1.805c.128-1.048-.736-2.186-.736-2.186l-1.468-4.54-1.381-3.406-.775 1.974s-.22 4.624-.043 5.588c.176.964.43 3.527.43 3.527s-.864 1.683-.473 3.112c.39 1.428.258 4.495.258 4.495s.388 6.346.043 6.852c-.344.506-.301 1.746-.301 1.746s1.769 3.699 1.205 4.191c-.563.493-.387 1.893-.387 1.893s1.209 0 .692.503c-.516.503-.908 3.143-.908 3.143l-5.227.643a10.664 10.664 0 0 1-1.17-2.144c-.689-1.555.13-1.397.825-1.555.696-.157.255-.586-.567-1.093-.821-.506-.358-1.638-.358-1.638s1.252-2.06.821-2.228c-.43-.168-.477-3.066-.477-3.066s-.861-3.447-.646-4.37c.215-.921-.692-3.143-.692-3.143l-.302-2.647a7.115 7.115 0 0 1-.933-5.008v-4.09s-1.209-7.9-1.385-11.875c-.107-2.556-.078-6.045-.043-8.224.022-1.22.043-2.03.043-2.03L251.733 227c.03.907.144 1.81.341 2.696.19.996.488 2.288.954 3.901 1.339 4.62.52 8.068.52 8.068l-.172 5.84s1.64 3.908 1.296 5.238c-.213.8-.333 1.62-.36 2.445 0 0 3.671 8.532 3.284 11.012-.388 2.48 1.213 6.37 1.213 6.37s.43 2.794 0 3.535z"/>
        <path fill="#000" d="M249 253.885l6-.885s-3.392 3.834-6 .885z" opacity=".05"/>
        <path fill="#000" d="M253.752 247s.144 2.178-.752 3c0 0 1.6-.374.752-3zM253 241s-4.251 3.25-5.788 2.985C245.675 243.719 253 241 253 241zM242 255s-3.865.947-3.997 2.615C237.872 259.282 242 255 242 255z" opacity=".1"/>
        <path fill="#000" d="M243.281 273s-4.279 1.032-3.064 1.737c1.043.533 2.117.955 3.212 1.263 0 0 1.378.093-.148-3z" opacity=".05"/>
        <g fill="#000" opacity=".05">
            <path d="M238.442 275.993a.988.988 0 0 1-.48-.727l-.053.092s-.491 1.143.37 1.655c.096.056.189.116.274.173.155-.028.325-.05.485-.088.702-.156.251-.583-.596-1.105zM245.207 275.668c.144-.127.137-.455.052-.875a2.28 2.28 0 0 0-.3 1.232.94.94 0 0 1 .248-.357zM244.397 254.541a5.62 5.62 0 0 0-.37 1.56c.101-.364.238-.718.407-1.059 0 0 .007-.204-.037-.5zM256.421 252.31a1.93 1.93 0 0 0 .048-.465c-.066.317-.11.614-.144.871.03-.134.06-.268.096-.405zM244.271 269.64c.103-.304.148-.623.133-.942-.166.376-.253.78-.255 1.19.03-.088.071-.17.122-.248zM245.373 277.645a16.322 16.322 0 0 0-.61 2.608l-5.381.596a10.483 10.483 0 0 1-1.206-2.167 3.68 3.68 0 0 1-.152-.374c-.322.141-.451.46-.026 1.412.312.764.717 1.49 1.206 2.164l5.378-.597s.403-2.675.936-3.176c.262-.272.096-.4-.145-.466zM238.265 270.018s.044 2.933.488 3.102c.225-.484.37-.942.174-1.02-.444-.17-.489-3.099-.489-3.099s-.891-3.483-.665-4.419c.225-.935-.714-3.176-.714-3.176l-.31-2.675a7.087 7.087 0 0 1-.981-5.055v-4.125s-1.246-7.984-1.424-12.018c-.115-2.584-.081-6.11-.044-8.312v-1.059h-.152s-.022.816-.044 2.05c-.037 2.2-.07 5.73.044 8.313.177 4.034 1.424 12.017 1.424 12.017v4.12a7.064 7.064 0 0 0 1.002 5.096l.31 2.675s.937 2.248.711 3.176c-.226.929.67 4.409.67 4.409zM254.106 279.702a4.816 4.816 0 0 1-.85-2.018c-.552.472.08 2.311.672 3.038.592.727 5.252 1.232 6.144-.173v-.808c-1.206 1.14-5.374.685-5.966-.039zM260.87 274.902a8.314 8.314 0 0 0-.62 1.274v.597c.099-.219.243-.508.443-.85.143-.336.21-.697.196-1.06l-.018.04zM254.38 275.573c.17-.327.317-.664.44-1.01 0 0-.74.17-1.96-1.189-.874-.988-.922-2.855-.8-4.076-.222.723-.58 3.737.622 5.096.788.893 1.376 1.122 1.697 1.179zM252.06 266.156c.077.837.107 1.677.09 2.517.029-.166.062-.3.088-.395.226-.706 0-3.142 0-3.142s.044-1.7-.31-2.251c-.356-.55-1.11-3.696-1.11-3.696s0-1.058-.622-1.613c-.621-.554-1.024-2.717-1.024-2.717a2.684 2.684 0 0 1-.448-1.825c.137-1.059-.74-2.21-.74-2.21l-1.512-4.588-1.443-3.42-.802 1.995s0 .25-.026.645l.65-1.62 1.425 3.438 1.512 4.588s.888 1.147.74 2.206a2.693 2.693 0 0 0 .463 1.807s.399 2.164 1.02 2.718c.622.554.625 1.613.625 1.613s.74 3.141 1.11 3.695c.37.554.314 2.255.314 2.255z"/>
        </g>
        <path fill="#FFCDD3" d="M254.929 186.015l-.299 1.57.017.715v.514l-1.659.186-.186-.357c-.332-.671-1.062-2.04-1.294-2.25-.308-.279-.856-4.642-.199-4.382.403.167.734.489.93.904 0 0 3.28.371 2.69 3.1z"/>
        <path fill="#000" d="M254 187.793l-1.799.207-.201-.399c.5-.634 1.336-.786 1.993-.363l.007.555z" opacity=".1"/>
        <path fill="#DCE6F2" d="M255 189.437l-2.781.563-.06-.366-.159-.968c.307-.356.765-.59 1.271-.65.507-.061 1.02.057 1.426.328l.139.493.164.6z"/>
        <path fill="#FFCDD3" d="M216 185.627L213.357 187l-.24-.484a50.745 50.745 0 0 1-.748-1.55c-.157-.424-1.261-.958-1.261-.958-2.77-2.556.527-4.75.527-4.75 1.749-3.393 3.695 1.15 3.695 1.15s.27 2.396.079 2.555c-.191.16-.191.817-.191.817.252.465.466.948.64 1.446.1.252.142.4.142.4z"/>
        <path fill="#000" d="M216 185.453L213.25 187l-.25-.545c.39-.338 1.765-1.506 2.217-1.453.218.023.437.023.654 0 .086.285.129.451.129.451z" opacity=".1"/>
        <path fill="#DCE6F2" d="M216 186.245L213.099 188l-.059-.767-.04-.526s1.68-1.772 2.192-1.705c.253.044.508.044.76 0l.033.642.015.601z"/>
        <path fill="#FFCDD3" d="M248 195.17s-11.956 1.336-9.722.618c1.557-.502 2.175-1.479 2.306-2.565a6.19 6.19 0 0 0-.445-2.734 11.83 11.83 0 0 0-1.07-2.138s9.138-4.975 7.312-.451a7.031 7.031 0 0 0-.518 2.142 5.98 5.98 0 0 0 .231 2.166A6.453 6.453 0 0 0 248 195.17z"/>
        <path fill="#000" d="M246.744 187.984a7.285 7.285 0 0 0-.548 2.241c-.914.747-1.912.715-3.196.715-.987 0-2.08.236-2.866-.229a12.32 12.32 0 0 0-1.134-2.238s9.679-5.222 7.744-.49z" opacity=".1"/>
        <circle cx="243" cy="186" r="5" fill="#FFCDD3"/>
        <path fill="#000" d="M248 196.229s-11.956 1.241-9.722.574c1.557-.467 2.175-1.375 2.306-2.384.594-.594 1.789-1.023 2.559-1.248a3.864 3.864 0 0 1 2.164-.032c.278.07.544.176.787.318a5.966 5.966 0 0 0 1.906 2.772zM255 188.549l-2.938.451-.062-.293c.643-.585 1.774-.84 2.827-.639l.173.48zM216 186.51l-2.94 1.49-.06-.651a21.345 21.345 0 0 1 2.963-1.349l.037.51zM253 227.605c-5.056.713-12.253 1.644-13.395 1.334-.946-.26-3.97-.233-6.605-.152.023-1.178.045-1.961.045-1.961L252.65 225c.03.876.147 1.748.351 2.605z" opacity=".1"/>
        <path fill="#3F3D56" d="M258 225.853s-16.015 2.709-17.734 2.19c-1.719-.518-10.542.047-10.542.047-3.971 2.619-2.31-1.247-2.31-1.247s-.363-2.022.13-3.655c.32-1.198.538-2.42.653-3.655 0 0-.087-2.58.392-3.18.478-.6 1.048-4.901 1.048-4.901s.438-2.923.395-3.573c-.044-.65.13-2.447.13-2.447l.566-3.012c-3.264-.429-13.222-6.449-13.222-6.449-.479-2.018-4.189-6.748-4.189-6.748a4.917 4.917 0 0 0-.305-1.162c-.26-.686 3.667-2.061 3.667-2.061s2.923 3.526 3.532 4.47c.61.943 2.706 2.708 2.706 2.708.325-.033.654.01.96.125h.051a7.77 7.77 0 0 1 1.952 1.104 3.815 3.815 0 0 1 2.661.99s1.792-.258 2.097.042c.304.3 1.813 0 1.813 0s1.53-3.18 2.538-2.258c1.009.922 5.263.883 5.263.883.569-.744 1.947-1.276 2.814-1.551a3.8 3.8 0 0 1 2.274-.036c.323.09.628.234.9.429l2.581 2.5s.725-.946.657-1.16c-.07-.215.874-.386.874-.386s1.265-.386 1.744-.518c.479-.132.921.386.957.429a4.963 4.963 0 0 1-.217-1.89 2.123 2.123 0 0 0-.522-1.547c1.54-3.673 4.99-.565 4.99-.565s.391 2.019.043 2.794c-.348.775.363 2.408.261 2.837-.101.428.174 1.16.174 1.975a11.606 11.606 0 0 1-.696 3.055c-.265.686-2.357 2.233-2.357 2.233s-.13 2.45-1.048 3.87c-.918 1.418-.363 6.277-.363 6.277s.87 3.783 1.962 5.001c1.092 1.219 2.72 8.042 2.72 8.042z"/>
        <path fill="#000" d="M234.9 198s-.417-1.626-.8-1.764a8.16 8.16 0 0 1-1.1-.634l.246-.602s1.426.504 1.653 1.04c.227.537 0 1.96 0 1.96zM225 195.157c-.088.445-4 .843-4 .843l1.978-2 .051.018c.709.28 1.373.664 1.971 1.139z" opacity=".1"/>
        <circle cx="214.5" cy="188.5" r="1" fill="#575988"/>
        <circle cx="214.5" cy="189.5" r="1" fill="#575988"/>
        <circle cx="214.5" cy="189.5" r="1" fill="#575988"/>
        <circle cx="215.5" cy="190.5" r="1" fill="#575988"/>
        <circle cx="256.5" cy="190.5" r="1" fill="#575988"/>
        <circle cx="256.5" cy="191.5" r="1" fill="#575988"/>
        <circle cx="256.5" cy="191.5" r="1" fill="#575988"/>
        <path fill="#000" d="M235 211c-.039-.048 9.549 11.66 17 4.895 0 0-11.77 1.542-17-4.895zM230 216s5.431.17 6 1.974v1.877a.92.92 0 0 1-1.004 0c-.549-.34-3.831-2.267-4.99-1.34L230 216z" opacity=".1"/>
        <path fill="#3F3D56" d="M230 217s5.43.128 6 1.479v1.408a1.19 1.19 0 0 1-1.011 0c-.55-.258-3.848-1.7-4.989-1.005V217z"/>
        <path fill="#000" d="M232 204a17.76 17.76 0 0 0 2.337 3.719A15.205 15.205 0 0 0 238 211s-5.9-6.218-6-7zM231 198s.84 3.732 3 5l-3-5zM229.079 198.001c-.023-.076-.782 3.19 2.921 4.999 0 0-1.564-.566-2.921-4.999zM254.002 195.003c-.075 0 2.34 1.366 2.998 1.997 0 0-1.57-2.086-2.998-1.997z" opacity=".1"/>
        <path fill="#2D293D" d="M241.117 191.165c.038.264.176.503.384.67.146.069.305.104.467.104 1.511.093 3.081.159 4.496-.422.265-.09.503-.246.692-.452.199-.332.324-.703.366-1.088.197-.74.616-1.382.917-2.1a7.049 7.049 0 0 0 .487-3.772 2.523 2.523 0 0 0-.377-1.106c-.4-.57-1.13-.801-1.66-1.257-.529-.456-.871-1.15-1.487-1.492a2.895 2.895 0 0 0-1.867-.166 9.875 9.875 0 0 0-3.487 1.309c-.346.221-.754.473-1.165.397a1.601 1.601 0 0 1-.858-.656 4.596 4.596 0 0 0-.37 2.152c.017.107.017.217 0 .325-.053.13-.132.247-.232.345-.373.432-.605 1.116-.238 1.551.162.19.408.294.563.487.28.345.184.846.177 1.292a.69.69 0 0 0 .11.439.644.644 0 0 0 .613.145c.21-.064.431-.085.65-.063.232.078.432.231.567.436.685.884.958 1.855 1.252 2.922z"/>
        <g fill="#000" opacity=".1">
            <path d="M247.727 190.635c-.193.206-.438.36-.71.447-1.42.581-3.044.512-4.592.42a1.071 1.071 0 0 1-.479-.104 1.025 1.025 0 0 1-.397-.663c-.302-1.062-.578-2.032-1.295-2.912a1.103 1.103 0 0 0-.582-.433 1.77 1.77 0 0 0-.667.062.676.676 0 0 1-.628-.144.65.65 0 0 1-.11-.437c0-.443.103-.942-.185-1.285-.16-.193-.411-.296-.578-.485a.944.944 0 0 1-.096-.99c-.273.42-.39.956-.074 1.32.166.189.418.292.578.485.287.343.188.842.18 1.285a.671.671 0 0 0 .114.437.672.672 0 0 0 .629.144 1.77 1.77 0 0 1 .667-.062c.238.078.443.23.582.433.71.884.993 1.85 1.295 2.912.04.263.18.5.394.667.15.068.313.104.479.103 1.55.093 3.161.158 4.613-.42.27-.09.515-.245.71-.45.096-.12.17-.254.22-.398-.022.024-.036.051-.068.068zM237.855 183.465a.684.684 0 0 0 .156-.251 1 1 0 0 0 0-.323 4.406 4.406 0 0 1 .238-1.781l-.028-.03a4.412 4.412 0 0 0-.38 2.14c.012.081.017.163.014.245z"/>
        </g>
        <path fill="#000" d="M240 195.25s6.422 1.844 7-.25M253 193s3.277 0 4 1" opacity=".1"/>
    </g>
</svg>
