<svg xmlns="http://www.w3.org/2000/svg" width="345" height="289" viewBox="0 0 345 289">
    <defs>
        <linearGradient id="a" x1="49.612%" x2="49.701%" y1="71.141%" y2="28.757%">
            <stop offset="0%" stop-color="gray" stop-opacity=".25"/>
            <stop offset="54%" stop-color="gray" stop-opacity=".12"/>
            <stop offset="100%" stop-color="gray" stop-opacity=".1"/>
        </linearGradient>
        <linearGradient id="b" x1="-.524%" x2="99.934%" y1="50.002%" y2="50.002%">
            <stop offset="0%" stop-opacity=".09"/>
            <stop offset="55%" stop-opacity=".07"/>
            <stop offset="100%" stop-opacity=".02"/>
        </linearGradient>
        <linearGradient id="c" x1="50.003%" x2="50.003%" y1="99.995%" y2=".004%">
            <stop offset="0%" stop-color="gray" stop-opacity=".25"/>
            <stop offset="54%" stop-color="gray" stop-opacity=".12"/>
            <stop offset="100%" stop-color="gray" stop-opacity=".1"/>
        </linearGradient>
        <linearGradient id="d" x1="50.003%" x2="50.003%" y1="99.995%" y2=".003%">
            <stop offset="0%" stop-color="gray" stop-opacity=".25"/>
            <stop offset="54%" stop-color="gray" stop-opacity=".12"/>
            <stop offset="100%" stop-color="gray" stop-opacity=".1"/>
        </linearGradient>
        <linearGradient id="e" x1="49.997%" x2="49.997%" y1="99.995%" y2=".003%">
            <stop offset="0%" stop-color="gray" stop-opacity=".25"/>
            <stop offset="54%" stop-color="gray" stop-opacity=".12"/>
            <stop offset="100%" stop-color="gray" stop-opacity=".1"/>
        </linearGradient>
        <linearGradient id="f" x1="50%" x2="50%" y1="100%" y2=".014%">
            <stop offset="0%" stop-color="gray" stop-opacity=".25"/>
            <stop offset="54%" stop-color="gray" stop-opacity=".12"/>
            <stop offset="100%" stop-color="gray" stop-opacity=".1"/>
        </linearGradient>
    </defs>
    <g fill="none" fill-rule="evenodd">
        <path fill="url(#a)" fill-rule="nonzero" d="M.292 216.814L0 8.566C0 4.228 3.53.711 7.886.711L336.487.275c4.356 0 7.886 3.517 7.886 7.855l.288 208.248a7.84 7.84 0 0 1-2.31 5.555 7.901 7.901 0 0 1-5.576 2.3l-328.601.437c-4.354-.002-7.882-3.519-7.882-7.856z" opacity=".5" transform="translate(0 46.506)"/>
        <path fill="url(#b)" fill-rule="nonzero" d="M25.593 62.57l292.292.002v193.61l-292.291-.001z" transform="rotate(-.08 171.74 159.376)"/>
        <path fill="#FFF" fill-rule="nonzero" d="M19.322 53.912l307.086-.428c7.003-.01 12.688 5.659 12.698 12.662l.259 185.194c.01 7.003-5.66 12.688-12.663 12.698l-307.086.429c-7.003.01-12.688-5.66-12.698-12.662L6.66 66.61c-.01-7.003 5.659-12.688 12.662-12.698z"/>
        <path fill="#FFBD00" fill-opacity=".2" fill-rule="nonzero" d="M313.486 68.928v181.04H34.832V68.928z"/>
        <ellipse cx="20.733" cy="160.279" fill="#DBDBDB" fill-rule="nonzero" rx="7.464" ry="7.474"/>
        <ellipse cx="325.925" cy="128.721" fill="#DBDBDB" fill-rule="nonzero" rx="2.488" ry="2.491"/>
        <path fill="#DBDBDB" fill-rule="nonzero" d="M327.414 140.933l.043 30.95c.001.42-.339.76-.759.761l-1.046.001a.76.76 0 0 1-.761-.758l-.044-30.95c0-.42.34-.761.76-.762l1.046-.001c.42 0 .76.339.761.759z"/>
        <path fill="url(#c)" fill-rule="nonzero" d="M83.573 42.278c-.002-19.967-14.006-37.157-33.46-41.07-19.452-3.912-38.944 6.54-46.57 24.974-7.625 18.433-1.264 39.721 15.2 50.862l.027.186a14.232 14.232 0 0 0 4.719 3.024l.055-.186c1.966 1.682 10.15 4.374 19.58 4.354h.204c5.97 0 12.45-1.06 18.153-4.164 0 0 .05-.111.13-.317a14.822 14.822 0 0 0 3.932-2.703l.067-.475c11.26-7.82 17.978-20.715 17.963-34.485z" opacity=".5" transform="translate(223.918)"/>
        <ellipse cx="265.799" cy="41.938" fill="#F5F5F5" fill-rule="nonzero" rx="40.222" ry="40.277"/>
        <path fill="#FDA57D" fill-rule="nonzero" d="M250.762 58.132s-9.957.8-7.327 18.628a14.334 14.334 0 0 0 4.738 2.964l5.601-18.627-3.012-2.965zM281.666 58.132s9.956.8 7.327 18.628a14.334 14.334 0 0 1-4.738 2.964l-5.601-18.627 3.012-2.965z"/>
        <path fill="#333" fill-rule="nonzero" d="M250.94 29.897s-4.603 13.487-7.118 12.224c0 0 24.226 21.076 45.613 0 0 0-3.765-6.743-9.206-12.224H250.94z"/>
        <ellipse cx="266.629" cy="28.651" fill="#333" fill-rule="nonzero" rx="17.831" ry="17.855"/>
        <path fill="#000" fill-rule="nonzero" d="M281.277 58.132H249.91l-2.946 12.744s-1.72 5.894.42 8.485c2.139 2.59 22.144 8.485 36.823.425a16.82 16.82 0 0 0 .42-10.606c-1.673-5.94-.42-.425-.42-.425l-2.93-10.623z" opacity=".1"/>
        <path fill="#000" fill-rule="nonzero" d="M282.106 58.132h-31.39l-2.923 12.744s-1.72 5.894.42 8.485c2.139 2.59 22.145 8.485 36.824.425a16.82 16.82 0 0 0 .419-10.606c-1.673-5.94-.42-.425-.42-.425l-2.93-10.623z" opacity=".1"/>
        <path fill="#FF5344" fill-rule="nonzero" d="M281.285 58.132h-31.383l-2.938 12.744s-1.72 5.894.42 8.485c2.139 2.59 22.144 8.485 36.823.425a16.82 16.82 0 0 0 .42-10.606c-1.673-5.94-.42-.425-.42-.425l-2.922-10.623z"/>
        <path fill="#000" fill-rule="nonzero" d="M261.238 48.167h11.61V58.1a5.98 5.98 0 0 1-1.638 4.133 5.476 5.476 0 0 1-3.956 1.712h-.421c-3.09 0-5.595-2.617-5.595-5.845v-9.933z" opacity=".1"/>
        <path fill="#FDA57D" fill-rule="nonzero" d="M261.238 48.167h11.61V58.1c0 3.228-2.504 5.845-5.594 5.845h-.421c-3.09 0-5.595-2.617-5.595-5.845v-9.933z"/>
        <path fill="#000" fill-rule="nonzero" d="M261.238 49.583a16.453 16.453 0 0 0 11.61.033v-1.45h-11.61v1.417z" opacity=".1"/>
        <ellipse cx="266.629" cy="31.973" fill="#FDA57D" fill-rule="nonzero" rx="17.831" ry="17.855"/>
        <path fill="#333" fill-rule="nonzero" d="M248.798 24.914h34.832s-2.975-13.252-16.145-12.42c-13.17.834-18.687 12.42-18.687 12.42z"/>
        <ellipse cx="248.798" cy="32.388" fill="#FDA57D" fill-rule="nonzero" rx="1.659" ry="3.322"/>
        <ellipse cx="283.63" cy="32.388" fill="#FDA57D" fill-rule="nonzero" rx="1.659" ry="3.322"/>
        <path fill="#000" fill-rule="nonzero" d="M248.798 25.744h34.832s-2.975-13.252-16.145-12.419c-13.17.833-18.687 12.42-18.687 12.42z" opacity=".1"/>
        <path fill="url(#d)" fill-rule="nonzero" d="M83.495 41.793C83.494 21.927 69.489 4.824 50.035.932 30.582-2.961 11.09 7.439 3.464 25.778c-7.625 18.34-1.261 39.52 15.204 50.6l.027.186a14.241 14.241 0 0 0 4.719 3.008l.055-.185c1.966 1.674 10.15 4.352 19.58 4.332h.204c5.97 0 12.45-1.055 18.153-4.143 0 0 .05-.11.13-.315a14.825 14.825 0 0 0 3.932-2.69c.024-.16.046-.317.067-.472a41.64 41.64 0 0 0 17.96-34.306z" opacity=".5" transform="translate(14.099 57.302)"/>
        <ellipse cx="55.98" cy="99.24" fill="#F5F5F5" fill-rule="nonzero" rx="40.222" ry="40.277"/>
        <path fill="#FF5344" fill-rule="nonzero" d="M38.454 116.264s-9.956.8-7.327 18.628a14.334 14.334 0 0 0 4.738 2.964l5.601-18.627-3.012-2.965zM69.361 116.264s9.953.8 7.324 18.628a14.327 14.327 0 0 1-4.736 2.964l-5.603-18.631 3.015-2.96z"/>
        <ellipse cx="54.321" cy="85.953" fill="#333" fill-rule="nonzero" rx="17.831" ry="17.855"/>
        <path fill="#4D8AF0" fill-rule="nonzero" d="M69.804 116.264H38.416l-2.93 12.738s-1.72 5.897.419 8.489c2.14 2.592 22.146 8.489 36.825.425a16.836 16.836 0 0 0 .42-10.603c-1.673-5.942-.42-.425-.42-.425l-2.926-10.624z"/>
        <path fill="#4D8AF0" fill-rule="nonzero" d="M69.804 116.264H38.416l-2.93 12.738s-1.72 5.897.419 8.489c2.14 2.592 22.146 8.489 36.825.425a16.836 16.836 0 0 0 .42-10.603c-1.673-5.942-.42-.425-.42-.425l-2.926-10.624z"/>
        <path fill="#FF5344" fill-rule="nonzero" d="M69.812 116.264H38.415l-2.93 12.738s-1.72 5.897.42 8.489c2.139 2.592 22.14 8.489 36.816.425a16.84 16.84 0 0 0 .435-10.603c-1.672-5.942-.419-.425-.419-.425l-2.925-10.624z"/>
        <path fill="#000" fill-rule="nonzero" d="M49.76 105.468h11.61v9.934c0 3.228-2.505 5.845-5.595 5.845h-.42c-3.09 0-5.595-2.617-5.595-5.845v-9.934z" opacity=".1"/>
        <path fill="#FDB797" fill-rule="nonzero" d="M49.76 104.638h11.61v9.933c0 3.229-2.505 5.846-5.595 5.846h-.42c-3.09 0-5.595-2.617-5.595-5.846v-9.933z"/>
        <path fill="#000" fill-rule="nonzero" d="M49.76 106.885a16.453 16.453 0 0 0 11.61.033v-1.45H49.76v1.417z" opacity=".1"/>
        <ellipse cx="54.321" cy="90.105" fill="#FDB797" fill-rule="nonzero" rx="17.831" ry="17.855"/>
        <path fill="#000" fill-rule="nonzero" d="M37.32 83.046H72.15s-2.974-13.252-16.14-12.42c-13.168.834-18.691 12.42-18.691 12.42z" opacity=".1"/>
        <path fill="#333" fill-rule="nonzero" d="M37.32 83.046H72.15s-2.974-13.252-16.14-12.42c-13.168.834-18.691 12.42-18.691 12.42z"/>
        <ellipse cx="36.49" cy="88.859" fill="#FDB797" fill-rule="nonzero" rx="1.659" ry="3.322"/>
        <ellipse cx="72.151" cy="88.859" fill="#FDB797" fill-rule="nonzero" rx="1.659" ry="3.322"/>
        <path fill="#333" fill-rule="nonzero" d="M39.516 73.68a6.205 6.205 0 0 1 2.348-3.337c.891-.593 1.955-.878 2.974-1.224a23.179 23.179 0 0 0 4.327-1.983c1.55-.916 3.003-2.017 4.709-2.621 2.934-1.04 6.201-.478 9.232.27a7.978 7.978 0 0 1 2.16.77 8.03 8.03 0 0 1 1.914 1.778l4.817 5.562a8.871 8.871 0 0 1 1.204 1.613c.29.573.474 1.188.546 1.82a4.596 4.596 0 0 1-.514 2.988c-.803 1.332-2.489 2.002-4.094 2.063-1.606.062-3.183-.385-4.729-.82-4.977-1.397-10.035-2.694-15.18-3.28a44.633 44.633 0 0 0-7.723-.238c-.803.05-1.879.408-2.368-.385-.446-.689.156-2.29.377-2.976z"/>
        <path fill="url(#e)" fill-rule="nonzero" d="M.31 42.187C.312 22.22 14.317 5.027 33.77 1.115 53.224-2.798 72.717 7.655 80.34 26.09c7.625 18.435 1.262 39.724-15.203 50.863l-.028.186a14.232 14.232 0 0 1-4.719 3.024l-.055-.186c-1.966 1.682-10.15 4.374-19.58 4.354h-.204c-5.97 0-12.45-1.061-18.153-4.164 0 0-.05-.111-.13-.317a14.822 14.822 0 0 1-3.932-2.703l-.067-.475C7.011 68.852.295 55.956.31 42.187z" opacity=".5" transform="translate(124.399 181.87)"/>
        <ellipse cx="166.28" cy="224.639" fill="#F5F5F5" fill-rule="nonzero" rx="40.222" ry="40.277"/>
        <path fill="#BE7C5E" fill-rule="nonzero" d="M151.243 240.003s-9.957.8-7.327 18.627a14.334 14.334 0 0 0 4.738 2.965l5.6-18.628-3.011-2.964zM182.153 240.003s9.949.8 7.321 18.627a14.322 14.322 0 0 1-4.743 2.965l-5.596-18.628 3.018-2.964z"/>
        <path fill="#333" fill-rule="nonzero" d="M151.072 211.771s-.74 2.138-1.792 4.61c-2.291 5.41.323 26.183 5.808 28.395 6.154 2.484 14.245 4.075 22.65 1.037 7.308-2.64 9.56-26.284 4.395-32.045a47.582 47.582 0 0 0-1.902-2l-29.16.003z"/>
        <ellipse cx="166.28" cy="210.522" fill="#333" fill-rule="nonzero" rx="17.831" ry="17.855"/>
        <path fill="#000" fill-rule="nonzero" d="M181.758 240.003h-31.383l-2.93 12.737s-1.72 5.898.419 8.49c2.14 2.591 22.145 8.488 36.824.425a16.836 16.836 0 0 0 .42-10.612c-1.674-5.941-.42-.425-.42-.425l-2.93-10.615z" opacity=".1"/>
        <path fill="#000" fill-rule="nonzero" d="M182.587 240.003h-31.383l-2.93 12.737s-1.72 5.898.42 8.49c2.139 2.591 22.144 8.488 36.823.425a16.836 16.836 0 0 0 .42-10.612c-1.673-5.941-.42-.425-.42-.425l-2.93-10.615z" opacity=".1"/>
        <path fill="#FF5344" fill-rule="nonzero" d="M181.758 240.003h-31.383l-2.93 12.737s-1.72 5.898.419 8.49c2.14 2.591 22.145 8.488 36.824.425a16.836 16.836 0 0 0 .42-10.612c-1.674-5.941-.42-.425-.42-.425l-2.93-10.615z"/>
        <path fill="#000" fill-rule="nonzero" d="M160.89 230.037h11.61v9.934c0 3.228-2.505 5.845-5.595 5.845h-.417c-3.09 0-5.595-2.617-5.595-5.845v-9.934h-.004z" opacity=".1"/>
        <path fill="#BE7C5E" fill-rule="nonzero" d="M160.89 229.207h11.61v9.933c0 3.229-2.505 5.846-5.595 5.846h-.417c-3.09 0-5.595-2.617-5.595-5.846v-9.933h-.004z"/>
        <path fill="#000" fill-rule="nonzero" d="M160.89 231.454a16.453 16.453 0 0 0 11.61.033v-1.45h-11.61v1.417z" opacity=".1"/>
        <ellipse cx="166.28" cy="213.843" fill="#BE7C5E" fill-rule="nonzero" rx="17.831" ry="17.855"/>
        <path fill="#333" fill-rule="nonzero" d="M148.45 207.615h34.831s-2.974-13.252-16.141-12.42c-13.167.834-18.69 12.42-18.69 12.42z"/>
        <ellipse cx="149.279" cy="213.428" fill="#BE7C5E" fill-rule="nonzero" rx="1.659" ry="3.322"/>
        <ellipse cx="184.111" cy="213.428" fill="#BE7C5E" fill-rule="nonzero" rx="1.659" ry="3.322"/>
        <path fill="#000" fill-rule="nonzero" d="M148.45 207.615h34.831s-2.974-13.252-16.141-12.42c-13.167.834-18.69 12.42-18.69 12.42z" opacity=".1"/>
        <path stroke="#00C6C0" stroke-dasharray="12" stroke-width="2" d="M264.555 94.672v150.314h-39.807M54.736 150.313v94.673h58.882"/>
        <ellipse cx="15.065" cy="14.811" fill="url(#f)" fill-rule="nonzero" opacity=".5" rx="14.734" ry="14.754" transform="translate(38.978 134.534)"/>
        <ellipse cx="53.906" cy="149.068" fill="#00C6C0" fill-rule="nonzero" rx="13.269" ry="13.703"/>
        <path fill="#FFF" fill-rule="nonzero" d="M48.516 147.99l4.976 4.696 7.047-10.677 2.49 2.135-9.537 12.813-7.05-8.112z"/>
        <ellipse cx="14.859" cy="14.952" fill="url(#f)" fill-rule="nonzero" opacity=".5" rx="14.734" ry="14.754" transform="translate(252.115 73.91)"/>
        <ellipse cx="267.873" cy="88.444" fill="#00C6C0" fill-rule="nonzero" rx="13.269" ry="13.703"/>
        <path fill="#FFF" fill-rule="nonzero" d="M261.653 85.705l4.976 4.696 7.05-10.677 2.487 2.136-9.537 12.812-7.05-8.116z"/>
        <ellipse cx="14.823" cy="14.993" fill="url(#f)" fill-rule="nonzero" opacity=".5" rx="14.734" ry="14.754" transform="translate(152.596 259.103)"/>
        <ellipse cx="168.353" cy="274.467" fill="#00C6C0" fill-rule="nonzero" rx="13.269" ry="13.703"/>
        <path fill="#FFF" fill-rule="nonzero" d="M162.133 273.389l4.977 4.696 7.05-10.677 2.487 2.136-9.537 12.812-7.05-8.112z"/>
    </g>
</svg>
