<svg xmlns="http://www.w3.org/2000/svg" width="68" height="70" viewBox="0 0 68 70">
    <g fill="none" fill-rule="evenodd">
        <path stroke="#6B6B6B" stroke-linecap="round" stroke-width="2" d="M28.526 68.437c-1.605-1.35-1.848-2.212-2.642-2.969-.659-.627-1.491-.91-2.788-1.087a165.06 165.06 0 0 0-1.404-.184c-4.77-.614-11.919-1.535-13.84-4.666l.01-.002a1.13 1.13 0 0 1-.093-.18c-.921-2.019-.441-3.612-.028-4.975.197-.649.346-1.146-.715-1.46-.9-.266-1.408-1.188-1.134-2.06.124-.397.399-.733.768-.943-.864-.354-1.267-1.32-.902-2.155l.043-.091c.376-.716.7-1.456.97-2.215-1.028-.194-2.134-.41-2.851-.607a4.569 4.569 0 0 1-.895-.352 3.81 3.81 0 0 1-1.67-1.649 3.212 3.212 0 0 1-.212-2.414c.074-.247.186-.506.337-.771a144.99 144.99 0 0 1 2.73-4.486c2.07-3.313 4.034-6.457 3.897-7.107a15.25 15.25 0 0 1-.3-3.034c0-5.337 2.713-10.692 7.012-14.978 4.238-4.23 10.04-7.45 16.28-8.594A27.35 27.35 0 0 1 36.036 1c7.69 0 14.675 2.502 19.702 6.826 4.881 4.203 7.897 10.108 7.897 17.094 0 7.187-1.582 11.684-4.087 16.053-1.652 2.873-2.142 5.47-2.81 8.938-.881 4.56 2.071 11.442 4.72 14.46 1.954 2.226 3.177 2.685 5.2 3.066"/>
        <path fill="#FFA9A1" d="M50.356 39.569c.18 1.465-2.163-1.212-2.407-1.99-.83-1.048-1.949-2.16-3.088-3.179a41.769 41.769 0 0 0-3.666-2.951c-.84.205-1.627.254-2.347.088a3.114 3.114 0 0 1-1.426-.718 3.601 3.601 0 0 1-1.584.438 13.283 13.283 0 0 1-4.052-.346c-1.203-.29-2.291-.832-3.165-1.575-.54-.478-.92-1.062-1.105-1.7-.42.128-.848.23-1.284.309-.883.17-1.791.201-2.686.095a5.904 5.904 0 0 1-1.25-.315c-.78-.29-1.444-.757-1.906-1.348a2.906 2.906 0 0 1-.398-.69c-1.14-.627-2.009-1.536-2.484-2.595-.45-1.022-.604-2.116-.45-3.195a7.024 7.024 0 0 1 1.1-2.945c.605-.903 1.414-1.639 2.36-2.067.737-1.568 2.108-2.87 3.88-3.695 1.654-.79 3.593-1.203 5.65-1.416 1.494-.888 3.233-1.458 5.057-1.663 1.816-.216 3.919-.134 6.296.4.57.13 1.113.248 1.657.36 3.238.687 6.416 1.36 9.135 3.289l.386.269c1.374.959 2.8 1.953 3.537 4.134.381.148.75.354 1.08.619.48.382.89.888 1.199 1.522.86 1.787.75 3.146.008 4.233-.381.562-.916 1.023-1.559 1.419.184.17.347.35.489.541l.047.068.012.021c.497.7.476 1.727.142 2.715-.33.983-.98 2.01-1.688 2.615-1.135.97-2.424 1.71-3.833 2.148-.48.153-.972.266-1.477.344-.026.3-.082.594-.141.92-.142.722-.317 1.628-.039 3.178v2.663zm-9.585-11.783l.591-.379C46.204 24.26 49 22.22 49 19.68c0-2.081-1.854-3.68-4.77-3.68-1.633.007-3.179 1.118-4.228 2.003-1.051-.885-2.598-1.996-4.232-2.003-2.912 0-4.77 1.604-4.77 3.68 0 2.544 2.796 4.586 7.638 7.727l.591.379c.435.285 1.107.285 1.542 0z"/>
    </g>
</svg>
