<svg xmlns="http://www.w3.org/2000/svg" width="79" height="79" viewBox="0 0 79 79">
    <g fill="none" fill-rule="evenodd" transform="translate(1 1)">
        <path fill="#D8D8D8" stroke="#6B6B6B" stroke-linecap="square" stroke-width="2" d="M53.538 59.538L46 53"/>
        <path fill="#FFA9A1" d="M64.692 71.242l.545-.376c4.46-3.125 7.035-5.152 7.035-7.673 0-2.067-1.708-3.655-4.394-3.655-1.504.007-2.928 1.11-3.894 1.99-.968-.88-2.393-1.983-3.898-1.99-2.683 0-4.394 1.593-4.394 3.655 0 2.527 2.576 4.553 7.035 7.673l.545.376c.4.284 1.02.284 1.42 0zm12.539-6.319c0 7.137-5.786 12.923-12.923 12.923-7.137 0-12.923-5.786-12.923-12.923C51.385 57.786 57.17 52 64.308 52c7.137 0 12.923 5.786 12.923 12.923z"/>
        <path stroke="#6B6B6B" stroke-width="2" d="M54.66 32.317c0 15.094-12.236 27.33-27.33 27.33C12.236 59.647 0 47.41 0 32.317c0-15.094 12.236-27.33 27.33-27.33 15.094 0 27.33 12.236 27.33 27.33"/>
        <path fill="#FFA9A1" d="M20.983 25.981V23.96c0-3.585 2.906-6.502 6.477-6.502 3.57 0 6.476 2.917 6.476 6.502v2.022c0 3.585-2.905 6.501-6.476 6.501s-6.477-2.916-6.477-6.5zM37.356 46.176H17.563a3.06 3.06 0 0 1-3.056-3.056v-2.774c0-3.928 3.195-7.123 7.123-7.123h11.66c3.927 0 7.122 3.195 7.122 7.123v2.774a3.06 3.06 0 0 1-3.056 3.056z"/>
        <path stroke="#6B6B6B" stroke-linecap="square" stroke-width="2" d="M62 12l-10.308 7.23"/>
        <circle cx="67.385" cy="7" r="7" stroke="#6B6B6B" stroke-width="2"/>
    </g>
</svg>
